
<svg width="124" height="62" viewBox="0 0 124 62" fill="none" xmlns="http://www.w3.org/2000/svg">
<g clip-path="url(#clip0_644_4173)">
<path d="M118.417 34.6728C118.417 36.881 116.604 38.6691 114.369 38.6691H107.621H100.872C98.6355 38.6691 96.8241 36.8793 96.8241 34.6728V22.5171L91.4258 27.846V34.6728C91.4258 39.8229 95.6552 43.9997 100.874 43.9997H107.622H114.371C119.588 43.9997 123.817 39.8246 123.817 34.6728H118.419H118.417Z" fill="#FCCB00"/>
<path d="M114.367 12.0244H100.871C98.2665 12.0244 95.9065 13.0686 94.196 14.7572L94.1908 14.7521L84.5443 24.2746L74.2057 14.1516C72.8147 12.7886 70.9332 12.0244 68.9749 12.0244H48.7607V17.355H58.7713V43.9994H64.1696V17.355H68.4075C69.3816 17.3988 70.3403 17.7868 71.0819 18.5189L81.8819 29.1801V43.9994H87.2802V29.1109L91.4259 25.0202L98.0101 18.5206C98.7996 17.7413 99.8369 17.3516 100.872 17.3516V17.355H114.369C116.606 17.355 118.417 19.1448 118.417 21.3512H123.816C123.816 16.2012 119.586 12.0244 114.369 12.0244H114.367Z" fill="#FCCB00"/>
<path d="M68.3821 24.5192L80.6535 36.6648V29.9122L71.0975 20.555C69.1819 18.664 68.8059 18.5122 66.07 18.5122H65.5864V23.2692L65.853 23.2743C66.8612 23.3182 67.2355 23.3856 68.3804 24.5175L68.3821 24.5192Z" fill="#FCCB00"/>
<path d="M49.0508 18.5137C49.0508 21.1452 51.2108 23.2775 53.8766 23.2775H57.5062V18.5137H49.0508Z" fill="#FCCB00"/>
<path d="M36.1036 17.7526C36.7427 17.4169 36.7717 16.5228 36.1531 16.15L34.6972 15.2712C34.0239 14.8865 33.1934 14.8865 32.5184 15.2712L21.0263 21.0488L10.1032 14.8241C9.18217 14.2995 8.04748 14.2995 7.12641 14.8241L5.94046 15.5006C5.31672 15.8565 5.31672 16.7438 5.94046 17.0997L17.7111 23.8085C18.5843 24.3061 19.1226 25.2255 19.1226 26.2208V42.6696C19.1226 43.4254 19.572 44.1102 20.2693 44.4206L20.3735 44.4662C20.8827 44.6922 21.4689 44.6821 21.9696 44.4375C22.6326 44.1136 23.053 43.4473 23.0547 42.7169L23.0701 26.2461C23.0701 25.2154 23.6477 24.269 24.5705 23.7866L36.1019 17.7526H36.1036Z" fill="#FCCB00"/>
<path d="M16.7996 25.0317L5.3417 18.3735C4.74873 18.0294 4.00195 18.4511 4.00195 19.1292V20.9831C4.00195 21.7608 4.42404 22.4777 5.1093 22.8606L8.43474 24.7702L8.3886 37.2346C8.3886 38.2754 8.95082 39.237 9.86335 39.7565L10.4563 40.0939L10.9758 40.4363C11.579 40.8328 12.3856 40.406 12.3856 39.6907V27.2179L17.5003 30.0822L17.4695 26.1754C17.4661 25.703 17.2115 25.2678 16.7996 25.03V25.0317Z" fill="#FCCB00"/>
<path d="M38.2527 25.5661L38.2441 22.776C38.2424 22.0085 37.9229 21.2629 37.3248 20.772C36.513 20.1057 35.4228 19.9876 34.5051 20.4397L26.9315 24.08C26.7093 24.1896 26.4906 24.3094 26.2872 24.4528C24.9577 25.3907 24.3989 25.664 24.3989 28.535V37.3103C24.3989 38.6817 25.0791 39.9907 26.2599 40.7144C27.5227 41.4887 29.0573 41.5089 30.3338 40.7785L36.4515 37.5549C37.5623 36.9408 38.2527 35.7802 38.2527 34.5235V30.6217L35.3203 32.2024V33.6598C35.3203 34.3042 34.9648 34.8963 34.3923 35.2067L29.7425 37.597C29.3273 37.8433 28.8095 37.8315 28.3925 37.5549C28.0354 37.3187 27.8389 36.9054 27.8389 36.4803V29.4595C27.8389 28.4726 28.372 27.5432 29.2299 27.0354L34.2659 24.4899C34.5342 24.3482 34.8589 24.3853 35.0947 24.5962C35.2468 24.7328 35.3203 24.9369 35.3203 25.1393V27.0742L38.2527 25.5661Z" fill="#FCCB00"/>
<path d="M20.9521 49.6888C19.7832 49.6888 18.6178 49.3834 17.5839 48.7745L3.19529 40.286C1.18909 39.1018 -0.0344561 36.9342 -0.00027882 34.6265L0.252633 18.0815C0.288519 15.7755 1.57871 13.6433 3.61909 12.5198L18.2623 4.46319C20.3044 3.33972 22.8182 3.37683 24.8244 4.56103L39.213 13.0495C41.2192 14.2337 42.4427 16.4013 42.4085 18.7073L42.1556 35.2523C42.1197 37.5583 40.8296 39.6905 38.7892 40.8123L24.1476 48.8689C23.1565 49.4138 22.0543 49.6854 20.9538 49.6854L20.9521 49.6888ZM21.4562 4.66056C20.5266 4.66056 19.5969 4.88997 18.7613 5.34881L4.11979 13.4054C2.39725 14.3534 1.31042 16.15 1.27966 18.095L1.02675 34.64C0.997696 36.585 2.02985 38.4153 3.72162 39.4122L18.1102 47.9006C19.802 48.8993 21.9227 48.9313 23.6452 47.9833L38.2868 39.9267C40.0093 38.9787 41.0961 37.1821 41.1269 35.2372L41.3798 18.6921C41.4089 16.7471 40.3767 14.9169 38.6849 13.9199L24.2963 5.43147C23.4248 4.91697 22.4405 4.66056 21.4562 4.66056Z" fill="#FCCB00"/>
<path d="M23.672 13.492C23.8933 12.1466 22.9678 10.8789 21.6049 10.6606C20.2419 10.4422 18.9577 11.3558 18.7365 12.7012C18.5153 14.0466 19.4408 15.3142 20.8037 15.5326C22.1666 15.751 23.4508 14.8374 23.672 13.492Z" fill="#FCCB00"/>
<path d="M0.0888672 54.0928H3.91843V54.7321H2.38216V58.9713H1.63197V54.7321H0.0888672V54.0928Z" fill="#FCCB00"/>
<path d="M5.3498 58.9713H4.62012V54.0928H5.33613V55.9129H5.38398C5.55828 55.5148 5.90689 55.2668 6.48278 55.2668C7.24322 55.2668 7.75246 55.7324 7.75246 56.6484V58.9729H7.02278V56.7361C7.02278 56.1963 6.72885 55.8876 6.23841 55.8876C5.74797 55.8876 5.35151 56.2216 5.35151 56.8036V58.9729L5.3498 58.9713Z" fill="#FCCB00"/>
<path d="M8.46827 57.1593C8.46486 56.0206 9.15011 55.2666 10.2028 55.2666C11.2554 55.2666 11.9304 56.0206 11.9304 57.1593C11.9304 58.2979 11.2486 59.0469 10.2028 59.0469C9.15695 59.0469 8.46486 58.2929 8.46827 57.1593ZM10.2011 58.4464C10.8709 58.4464 11.1905 57.856 11.1905 57.1593C11.1905 56.4626 10.8692 55.8621 10.2011 55.8587C9.52264 55.8621 9.19796 56.4592 9.19796 57.1593C9.19796 57.8594 9.52264 58.4464 10.2011 58.4464Z" fill="#FCCB00"/>
<path d="M14.9998 55.3125H15.7227V58.9714H15.0135V58.3388H14.9725C14.8016 58.7301 14.4222 59.0186 13.8669 59.0186C13.1508 59.0186 12.645 58.5429 12.645 57.637V55.3125H13.3747V57.5493C13.3747 58.0486 13.6823 58.3641 14.1249 58.3641C14.5316 58.3641 14.9981 58.0706 14.9981 57.4481V55.3125H14.9998Z" fill="#FCCB00"/>
<path d="M17.9877 55.8317C17.5707 55.8317 17.2751 56.0443 17.2785 56.3243C17.2751 56.5402 17.4494 56.6954 17.8595 56.7899L18.4474 56.9248C19.1292 57.0766 19.4607 57.3971 19.4641 57.915C19.4607 58.5763 18.8934 59.0469 17.9484 59.0469C17.0581 59.0469 16.5317 58.6556 16.4395 57.9757H17.1828C17.2477 58.3064 17.5007 58.4717 17.9398 58.4683C18.4115 58.4717 18.7139 58.276 18.7174 57.969C18.7139 57.7328 18.5362 57.581 18.1432 57.4899L17.5622 57.3685C16.894 57.2234 16.5454 56.8691 16.5454 56.3648C16.5454 55.7153 17.1196 55.2666 17.9791 55.2666C18.8387 55.2666 19.3206 55.6816 19.3924 56.3108H18.69C18.6217 56.0206 18.3893 55.8317 17.9877 55.8317Z" fill="#FCCB00"/>
<path d="M21.3869 56.8424C21.633 56.8289 22.1883 56.7985 22.3592 56.7918L22.3558 56.4983C22.3592 56.0833 22.0995 55.8437 21.6056 55.8437C21.175 55.8437 20.9169 56.0394 20.8418 56.3093H20.1189C20.1838 55.702 20.758 55.2651 21.6347 55.2651C22.2259 55.2651 23.0855 55.4777 23.0889 56.5387V58.9712H22.3797V58.4719H22.3524C22.2088 58.7452 21.8671 59.0522 21.2536 59.0522C20.5512 59.0522 20.001 58.6541 20.0044 57.9405C20.001 57.1055 20.7204 56.8896 21.3903 56.8424H21.3869ZM21.4142 58.4804C22.0089 58.477 22.3626 58.0856 22.3626 57.6521L22.3592 57.3181C22.1918 57.3282 21.6637 57.3653 21.4894 57.3754C21.0109 57.4092 20.7119 57.588 20.7119 57.949C20.7119 58.31 21.0058 58.4787 21.4142 58.482V58.4804Z" fill="#FCCB00"/>
<path d="M24.6965 58.971H23.9668V55.3121H24.6691V55.9127H24.7102C24.8845 55.5179 25.2502 55.2666 25.8021 55.2666C26.5626 55.2666 27.0684 55.7423 27.065 56.6482V58.9727H26.3421V56.7359C26.3387 56.2028 26.0482 55.8874 25.5577 55.8874C25.0673 55.8874 24.6982 56.2214 24.6982 56.8034V58.9727L24.6965 58.971Z" fill="#FCCB00"/>
<path d="M27.7866 57.1528C27.7866 55.9602 28.4514 55.2668 29.3434 55.2668C30.0321 55.2668 30.2816 55.6785 30.4148 55.9062H30.449V54.0928H31.1787V58.9713H30.4695V58.3977H30.4148C30.2781 58.6373 30.0116 59.0421 29.3366 59.0455C28.4428 59.0421 27.7866 58.3319 27.7866 57.1511V57.1528ZM29.5006 58.4331C30.1226 58.4298 30.4695 57.9068 30.4695 57.1393C30.4695 56.3718 30.1278 55.8758 29.5006 55.8792C28.8564 55.8758 28.5283 56.419 28.5317 57.1393C28.5283 57.8731 28.8632 58.4298 29.5006 58.4331Z" fill="#FCCB00"/>
<path d="M34.3652 54.0928L35.6485 56.3026H35.7032L36.9934 54.0928H37.8461L36.0501 57.0583V58.9713H35.2999V57.0583L33.5107 54.0928H34.3635H34.3652Z" fill="#FCCB00"/>
<path d="M37.634 57.166C37.6306 56.0409 38.3125 55.2666 39.348 55.2666C40.1905 55.2666 40.9937 55.7828 40.9937 57.107V57.3634H38.3586C38.3791 58.0601 38.7961 58.4548 39.4027 58.4548C39.8163 58.4548 40.0846 58.2794 40.2076 58.0567H40.9441C40.7801 58.6505 40.211 59.0469 39.3942 59.0469C38.3022 59.0469 37.6289 58.303 37.6323 57.166H37.634ZM40.2759 56.8219C40.2759 56.2652 39.9103 55.8553 39.3549 55.8587C38.7704 55.8553 38.3928 56.3074 38.362 56.8219H40.2777H40.2759Z" fill="#FCCB00"/>
<path d="M42.9298 56.8424C43.1759 56.8289 43.7313 56.7985 43.9022 56.7918L43.8988 56.4983C43.9022 56.0833 43.6424 55.8437 43.1486 55.8437C42.7179 55.8437 42.4599 56.0394 42.3847 56.3093H41.6619C41.7268 55.702 42.301 55.2651 43.1776 55.2651C43.7689 55.2651 44.6285 55.4777 44.6319 56.5387V58.9712H43.9227V58.4719H43.8954C43.7518 58.7452 43.41 59.0522 42.7966 59.0522C42.0942 59.0522 41.544 58.6541 41.5474 57.9405C41.544 57.1055 42.2634 56.8896 42.9333 56.8424H42.9298ZM42.9572 58.4804C43.5519 58.477 43.9056 58.0856 43.9056 57.6521L43.9022 57.3181C43.7347 57.3282 43.2067 57.3653 43.0324 57.3754C42.5539 57.4092 42.2548 57.588 42.2548 57.949C42.2548 58.31 42.5488 58.4787 42.9572 58.482V58.4804Z" fill="#FCCB00"/>
<path d="M45.5088 55.3122H46.2111V55.8925H46.2521C46.3889 55.5012 46.7614 55.2549 47.1937 55.2599C47.2826 55.2566 47.4261 55.2667 47.5013 55.2734V55.9617C47.4398 55.9482 47.2689 55.9178 47.1185 55.9212C46.6127 55.9178 46.2385 56.2653 46.2385 56.7427V58.9728H45.5088V55.3139V55.3122Z" fill="#FCCB00"/>
<path d="M49.4252 55.8317C49.0082 55.8317 48.7126 56.0443 48.716 56.3243C48.7126 56.5402 48.8869 56.6954 49.297 56.7899L49.8849 56.9248C50.5684 57.0766 50.8982 57.3971 50.9016 57.915C50.8982 58.5763 50.3309 59.0469 49.3859 59.0469C48.4956 59.0469 47.9692 58.6556 47.877 57.9757H48.6203C48.6852 58.3064 48.9382 58.4717 49.3773 58.4683C49.849 58.4717 50.1514 58.276 50.1549 57.969C50.1514 57.7328 49.9737 57.581 49.5807 57.4899L48.9997 57.3685C48.3315 57.2234 47.9829 56.8691 47.9829 56.3648C47.9829 55.7153 48.5571 55.2666 49.4166 55.2666C50.2762 55.2666 50.7581 55.6816 50.8299 56.3108H50.1275C50.0592 56.0206 49.8268 55.8317 49.4252 55.8317Z" fill="#FCCB00"/>
<path d="M55.4442 54.7064C54.5915 54.7031 53.9592 55.3508 53.9558 56.5334C53.9592 57.7226 54.5949 58.3636 55.4442 58.3603C56.0662 58.3636 56.5908 58.0195 56.7207 57.397L57.4777 57.4038C57.3205 58.367 56.5259 59.0418 55.4373 59.0418C54.1506 59.0418 53.2124 58.0954 53.2124 56.535C53.2124 54.9747 54.1574 54.0283 55.4373 54.0283C56.4815 54.0283 57.312 54.639 57.4777 55.6865H56.7207C56.6011 55.0556 56.0713 54.7065 55.4442 54.7098V54.7064Z" fill="#FCCB00"/>
<path d="M58.064 57.1593C58.0606 56.0206 58.7475 55.2666 59.7985 55.2666C60.8494 55.2666 61.5261 56.0206 61.5261 57.1593C61.5261 58.2979 60.8443 59.0469 59.7985 59.0469C58.7526 59.0469 58.0606 58.2929 58.064 57.1593ZM59.7985 58.4464C60.4666 58.4464 60.7879 57.856 60.7879 57.1593C60.7879 56.4626 60.4666 55.8621 59.7985 55.8587C59.1183 55.8621 58.7954 56.4592 58.7954 57.1593C58.7954 57.8594 59.1201 58.4464 59.7985 58.4464Z" fill="#FCCB00"/>
<path d="M62.2402 55.3121H62.9426V55.9127H62.9836C63.1408 55.5045 63.5065 55.2666 63.9935 55.2666C64.4806 55.2666 64.8326 55.5061 64.9898 55.9127H65.0308C65.2051 55.5179 65.6084 55.2666 66.1433 55.2666C66.8114 55.2666 67.2865 55.6816 67.2899 56.52V58.9727H66.5602V56.5874C66.5602 56.0915 66.2458 55.8874 65.8647 55.8874C65.3965 55.8874 65.1282 56.2045 65.1282 56.6414V58.9727H64.4054V56.547C64.4054 56.1455 64.1285 55.8874 63.7304 55.8874C63.3322 55.8874 62.9733 56.2248 62.9733 56.7156V58.9727H62.2437V55.3138L62.2402 55.3121Z" fill="#FCCB00"/>
<path d="M68.1694 55.3121H68.8786V55.9059H68.9401C69.07 55.6765 69.3195 55.2666 70.0047 55.2666C70.9019 55.2666 71.5615 55.9599 71.5615 57.1525C71.5615 58.3452 70.9104 59.0436 70.0116 59.0469C69.34 59.0436 69.0734 58.6387 68.9401 58.3992H68.8991V60.3458H68.1694V55.3121ZM69.8492 58.4329C70.4901 58.4295 70.825 57.8728 70.825 57.1391C70.825 56.4053 70.5003 55.8756 69.8492 55.8789C69.2204 55.8756 68.8872 56.3783 68.8872 57.1391C68.8872 57.8998 69.2289 58.4295 69.8492 58.4329Z" fill="#FCCB00"/>
<path d="M73.4997 56.8424C73.7457 56.8289 74.3011 56.7985 74.472 56.7918L74.4686 56.4983C74.472 56.0833 74.2123 55.8437 73.7184 55.8437C73.2878 55.8437 73.0297 56.0394 72.9545 56.3093H72.2317C72.2966 55.702 72.8708 55.2651 73.7475 55.2651C74.3387 55.2651 75.1983 55.4777 75.2017 56.5387V58.9712H74.4925V58.4719H74.4652C74.3216 58.7452 73.9799 59.0522 73.3664 59.0522C72.664 59.0522 72.1138 58.6541 72.1172 57.9405C72.1138 57.1055 72.8332 56.8896 73.5031 56.8424H73.4997ZM73.527 58.4804C74.1217 58.477 74.4754 58.0856 74.4754 57.6521L74.472 57.3181C74.3045 57.3282 73.7765 57.3653 73.6022 57.3754C73.1237 57.4092 72.8247 57.588 72.8247 57.949C72.8247 58.31 73.1186 58.4787 73.527 58.482V58.4804Z" fill="#FCCB00"/>
<path d="M76.8103 58.971H76.0806V55.3121H76.7829V55.9127H76.8239C76.9982 55.5179 77.3639 55.2666 77.9159 55.2666C78.6763 55.2666 79.1822 55.7423 79.1787 56.6482V58.9727H78.4559V56.7359C78.4525 56.2028 78.162 55.8874 77.6715 55.8874C77.1811 55.8874 76.812 56.2214 76.812 56.8034V58.9727L76.8103 58.971Z" fill="#FCCB00"/>
<path d="M79.9905 60.3257V59.7251C80.0725 59.7319 80.216 59.7353 80.3186 59.7386C80.5441 59.7353 80.7321 59.7218 80.9064 59.2596L80.9953 59.0166L79.6367 55.3105H80.4143L81.349 58.1479H81.39L82.3248 55.3105H83.1091L81.5797 59.4552C81.3644 60.0355 80.9884 60.3409 80.3784 60.3442C80.228 60.3409 80.081 60.3375 79.9887 60.324L79.9905 60.3257Z" fill="#FCCB00"/>
<path d="M83.5374 57.6772C83.5374 57.0902 83.927 56.7342 84.4926 56.353C84.1782 55.9751 83.9492 55.6327 83.9458 55.1975C83.9492 54.5193 84.4413 54.0386 85.1949 54.0386C85.9486 54.0386 86.4236 54.5311 86.4236 55.103C86.4236 55.5686 86.1775 55.9077 85.7674 56.2012L85.4256 56.4475L86.4151 57.6131C86.5415 57.3702 86.6201 57.08 86.6201 56.7545H87.2746C87.2746 57.4309 87.0764 57.8661 86.8611 58.1428L87.5668 58.971H86.7483L86.4134 58.5831C86.075 58.8934 85.5846 59.0385 85.1368 59.0385C84.144 59.0385 83.5322 58.4582 83.5322 57.6772H83.5374ZM85.1488 58.4329C85.4496 58.4329 85.7572 58.3182 86.0084 58.1124L84.9027 56.8321L84.7797 56.9232C84.3901 57.2066 84.2636 57.5018 84.267 57.657C84.2636 58.0753 84.6122 58.4312 85.1471 58.4312L85.1488 58.4329ZM85.0326 55.9768L85.3334 55.7643C85.6034 55.5888 85.764 55.41 85.764 55.1232C85.764 54.8938 85.5453 54.6374 85.2103 54.6374C84.8686 54.6408 84.6293 54.9242 84.6293 55.2042C84.6293 55.4539 84.807 55.7035 85.0326 55.9751V55.9768Z" fill="#FCCB00"/>
<path d="M90.1776 54.7069C89.3249 54.7036 88.6926 55.3513 88.6892 56.5338C88.6926 57.7231 89.3283 58.3641 90.1776 58.3607C90.7996 58.3641 91.3242 58.02 91.4541 57.3975L92.2111 57.4043C92.0539 58.3675 91.2593 59.0422 90.1707 59.0422C88.884 59.0422 87.9458 58.0959 87.9458 56.5355C87.9458 54.9752 88.8908 54.0288 90.1707 54.0288C91.2148 54.0288 92.0454 54.6395 92.2111 55.687H91.4541C91.3345 55.0561 90.8064 54.7069 90.1776 54.7103V54.7069Z" fill="#FCCB00"/>
<path d="M92.7988 57.1593C92.7954 56.0206 93.4824 55.2666 94.5333 55.2666C95.5843 55.2666 96.261 56.0206 96.261 57.1593C96.261 58.2979 95.5792 59.0469 94.5333 59.0469C93.4875 59.0469 92.7954 58.2929 92.7988 57.1593ZM94.5333 58.4464C95.2015 58.4464 95.5228 57.856 95.5228 57.1593C95.5228 56.4626 95.2015 55.8621 94.5333 55.8587C93.8532 55.8621 93.5302 56.4592 93.5302 57.1593C93.5302 57.8594 93.8549 58.4464 94.5333 58.4464Z" fill="#FCCB00"/>
<path d="M96.9746 55.3121H97.677V55.9127H97.718C97.8752 55.5045 98.2409 55.2666 98.7279 55.2666C99.2149 55.2666 99.567 55.5061 99.7242 55.9127H99.7652C99.9395 55.5179 100.343 55.2666 100.878 55.2666C101.546 55.2666 102.021 55.6816 102.024 56.52V58.9727H101.295V56.5874C101.295 56.0915 100.98 55.8874 100.599 55.8874C100.131 55.8874 99.8626 56.2045 99.8626 56.6414V58.9727H99.1397V56.547C99.1397 56.1455 98.8629 55.8874 98.4647 55.8874C98.0666 55.8874 97.7077 56.2248 97.7077 56.7156V58.9727H96.978V55.3138L96.9746 55.3121Z" fill="#FCCB00"/>
<path d="M102.904 55.3121H103.613V55.9059H103.675C103.804 55.6765 104.054 55.2666 104.739 55.2666C105.636 55.2666 106.296 55.9599 106.296 57.1525C106.296 58.3452 105.643 59.0436 104.746 59.0469C104.074 59.0436 103.808 58.6387 103.675 58.3992H103.633V60.3458H102.904V55.3121ZM104.584 58.4329C105.224 58.4295 105.559 57.8728 105.559 57.1391C105.559 56.4053 105.235 55.8756 104.584 55.8789C103.955 55.8756 103.622 56.3783 103.622 57.1391C103.622 57.8998 103.963 58.4295 104.584 58.4329Z" fill="#FCCB00"/>
<path d="M108.233 56.8424C108.479 56.8289 109.035 56.7985 109.205 56.7918L109.202 56.4983C109.205 56.0833 108.946 55.8437 108.452 55.8437C108.021 55.8437 107.763 56.0394 107.688 56.3093H106.965C107.03 55.702 107.604 55.2651 108.481 55.2651C109.072 55.2651 109.932 55.4777 109.935 56.5387V58.9712H109.226V58.4719H109.199C109.055 58.7452 108.713 59.0522 108.1 59.0522C107.397 59.0522 106.847 58.6541 106.851 57.9405C106.847 57.1055 107.567 56.8896 108.236 56.8424H108.233ZM108.26 58.4804C108.855 58.477 109.209 58.0856 109.209 57.6521L109.205 57.3181C109.038 57.3282 108.51 57.3653 108.336 57.3754C107.857 57.4092 107.558 57.588 107.558 57.949C107.558 58.31 107.852 58.4787 108.26 58.482V58.4804Z" fill="#FCCB00"/>
<path d="M111.544 58.971H110.814V55.3121H111.516V55.9127H111.557C111.732 55.5179 112.097 55.2666 112.649 55.2666C113.41 55.2666 113.916 55.7423 113.912 56.6482V58.9727H113.189V56.7359C113.186 56.2028 112.895 55.8874 112.405 55.8874C111.914 55.8874 111.545 56.2214 111.545 56.8034V58.9727L111.544 58.971Z" fill="#FCCB00"/>
<path d="M115.167 53.897C115.416 53.897 115.625 54.0859 115.625 54.3221C115.625 54.5582 115.416 54.7505 115.167 54.7472C114.914 54.7505 114.706 54.5582 114.702 54.3221C114.706 54.0859 114.914 53.897 115.167 53.897ZM114.798 55.3123H115.528V58.9711H114.798V55.3123Z" fill="#FCCB00"/>
<path d="M116.252 57.1593C116.249 56.0206 116.936 55.2666 117.987 55.2666C119.038 55.2666 119.715 56.0206 119.715 57.1593C119.715 58.2979 119.033 59.0469 117.987 59.0469C116.941 59.0469 116.249 58.2929 116.252 57.1593ZM117.985 58.4464C118.653 58.4464 118.975 57.856 118.975 57.1593C118.975 56.4626 118.653 55.8621 117.985 55.8587C117.305 55.8621 116.982 56.4592 116.982 57.1593C116.982 57.8594 117.307 58.4464 117.985 58.4464Z" fill="#FCCB00"/>
<path d="M121.158 58.971H120.429V55.3121H121.131V55.9127H121.172C121.346 55.5179 121.712 55.2666 122.264 55.2666C123.024 55.2666 123.53 55.7423 123.527 56.6482V58.9727H122.804V56.7359C122.801 56.2028 122.51 55.8874 122.02 55.8874C121.529 55.8874 121.16 56.2214 121.16 56.8034V58.9727L121.158 58.971Z" fill="#FCCB00"/>
</g>
<defs>
<clipPath id="clip0_644_4173">
<rect width="124" height="62" fill="white"/>
</clipPath>
</defs>
</svg>
