<svg width="24" height="24" viewBox="0 0 24 24" fill="none" xmlns="http://www.w3.org/2000/svg">
<path d="M19.9298 6.41452C19.4815 5.96607 18.9493 5.61034 18.3636 5.36763C17.7778 5.12492 17.15 5 16.516 5C15.8819 5 15.2541 5.12492 14.6683 5.36763C14.0826 5.61034 13.5504 5.96607 13.1022 6.41452L12.1719 7.34476L11.2417 6.41452C10.3363 5.50912 9.10828 5.00047 7.82786 5.00047C6.54743 5.00047 5.31945 5.50912 4.41405 6.41452C3.50865 7.31992 3 8.5479 3 9.82833C3 11.1088 3.50865 12.3367 4.41405 13.2421L5.34429 14.1724L12.1719 21L18.9995 14.1724L19.9298 13.2421C20.3782 12.7939 20.7339 12.2617 20.9767 11.676C21.2194 11.0902 21.3443 10.4624 21.3443 9.82833C21.3443 9.19428 21.2194 8.56645 20.9767 7.9807C20.7339 7.39494 20.3782 6.86275 19.9298 6.41452Z" stroke="white" stroke-width="1.5" stroke-linecap="round" stroke-linejoin="round"/>
</svg>
