
<svg width="252" height="203" viewBox="0 0 252 203" fill="none" xmlns="http://www.w3.org/2000/svg">
<path d="M203.168 60.8049C218.108 92.6706 209.643 125.532 176.273 131.009C142.904 136.485 132.943 181.374 97.0834 158.393C61.2237 135.411 21.1523 173.039 8.64844 116.391C-3.85537 59.743 44.9215 19.6693 93.5968 37.4037C142.272 55.138 188.227 28.9392 203.168 60.8049Z" fill="#EFEFEF" fill-opacity="0.4"/>
<path d="M85.131 176.815C44.9336 161.139 20.9483 115.076 41.3026 79.2269C61.657 43.3783 92.6031 84.2057 116.508 62.2984C140.413 40.3911 155.355 -2.06585 201.674 34.4164C247.992 70.8986 245.502 137.078 189.852 145.358C134.202 153.638 125.328 192.491 85.131 176.815Z" fill="#EFEFEF" fill-opacity="0.4"/>
<g clip-path="url(#clip0_7_17122)">
<path d="M173.139 135.891V76.6412L121.84 51.7463L70.043 76.6412V135.891L121.84 157.799L173.139 135.891Z" fill="#FAF4EA"/>
<path d="M173.947 74.0417C173.896 74.0072 173.844 73.99 173.792 73.967C173.751 73.9383 173.705 73.9095 173.659 73.8923L122.209 50.0621C121.748 49.8667 121.23 49.8667 120.775 50.0621H120.763L69.313 73.8923C69.2669 73.9153 69.2208 73.9383 69.1805 73.9727C69.1287 74.0015 69.0768 74.0187 69.0307 74.0475C68.5123 74.3865 68.2012 74.9611 68.2012 75.576V136.062C68.2012 136.798 68.639 137.459 69.313 137.746L120.763 159.743C120.994 159.841 121.236 159.893 121.489 159.893C121.731 159.893 121.973 159.835 122.192 159.732L122.215 159.743L173.665 137.746C174.339 137.459 174.777 136.792 174.777 136.062V75.576C174.777 74.9611 174.466 74.3865 173.947 74.0475V74.0417ZM121.489 53.7627L168.434 75.507L155.178 81.173L106.378 60.7676L121.495 53.7627H121.489ZM145.374 89.3501L152.724 86.2068V100.102L145.374 103.768V89.3558V89.3501ZM143.219 86.2815L94.9027 66.0772L101.862 62.8535L150.478 83.1785L143.225 86.2815H143.219ZM119.651 155.273L71.8766 134.85V78.3515L119.651 98.7741V155.273ZM121.489 95.5734L74.5439 75.507L90.392 68.1747L138.518 88.2927L121.489 95.5734ZM171.101 134.85L123.327 155.273V98.7741L141.704 90.9188V106.727C141.704 107.738 142.516 108.566 143.53 108.572C143.818 108.572 144.106 108.508 144.36 108.376L156.4 102.36V84.6323L171.101 78.3515V134.85Z" fill="#C8BCA9"/>
<path d="M63.0389 112.152C62.313 112.537 61.4086 112.261 61.0226 111.531C54.9334 99.728 43.8783 91.2463 30.8761 88.4076C30.058 88.2927 29.4934 87.5399 29.6087 86.7239C29.7239 85.9079 30.4786 85.3448 31.2966 85.4597C32.1492 85.5804 52.2603 88.6719 63.6553 110.135C64.0413 110.859 63.7648 111.761 63.0331 112.146L63.0389 112.152Z" fill="#C8BCA9"/>
<path d="M60.1187 123.484C59.773 124.231 58.8916 124.558 58.1427 124.213C46.114 118.53 32.167 118.502 20.1153 124.133C19.3952 124.535 18.485 124.282 18.0875 123.564C17.69 122.846 17.9377 121.938 18.6578 121.541C19.4067 121.122 37.2654 111.382 59.387 121.513C60.1359 121.857 60.4643 122.737 60.1187 123.484Z" fill="#C8BCA9"/>
<path d="M62.5 49.521V47.9408C62.5058 47.0673 63.2201 46.3605 64.0958 46.3662C64.9714 46.372 65.68 47.0788 65.6743 47.9522V49.5325C65.6685 50.4059 64.9542 51.1128 64.0785 51.107C63.2029 51.1013 62.4943 50.3945 62.5 49.521Z" fill="#C8BCA9"/>
<path d="M65.6621 52.6878C65.6621 51.8141 66.3765 51.1071 67.2521 51.1128H68.8364C69.712 51.1186 70.4206 51.8313 70.4148 52.7051C70.4091 53.5788 69.7005 54.2858 68.8249 54.2801H67.2406C66.365 54.2743 65.6564 53.5615 65.6621 52.6878Z" fill="#C8BCA9"/>
<path d="M62.4766 57.4221V55.8419C62.4824 54.9684 63.1967 54.2616 64.0724 54.2674C64.948 54.2731 65.6566 54.9799 65.6508 55.8534V57.4336C65.6451 58.3071 64.9307 59.0139 64.0551 59.0081C63.1794 59.0024 62.4708 58.2956 62.4766 57.4221Z" fill="#C8BCA9"/>
<path d="M57.7344 52.6646C57.7344 51.7909 58.4488 51.0839 59.3244 51.0896H60.9086C61.7843 51.0954 62.4929 51.8082 62.4871 52.6819C62.4814 53.5556 61.7728 54.2626 60.8971 54.2569H59.3129C58.4372 54.2511 57.7286 53.5383 57.7344 52.6646Z" fill="#C8BCA9"/>
<path d="M179.934 113.146C179.208 112.761 178.926 111.859 179.312 111.135C190.701 89.6719 210.818 86.5804 211.67 86.4597C212.488 86.3448 213.243 86.9079 213.358 87.7239C213.474 88.5399 212.909 89.2927 212.091 89.4076C199.089 92.2463 188.034 100.722 181.944 112.531C181.558 113.255 180.654 113.537 179.928 113.152L179.934 113.146Z" fill="#C8BCA9"/>
<path d="M182.854 124.472C182.509 123.725 182.837 122.84 183.586 122.501C205.708 112.37 223.566 122.11 224.315 122.53C225.035 122.932 225.289 123.84 224.886 124.552C224.482 125.265 223.572 125.524 222.858 125.121C210.806 119.49 196.859 119.519 184.83 125.202C184.081 125.547 183.194 125.219 182.854 124.472Z" fill="#C8BCA9"/>
<path d="M182.715 61.4744C181.839 61.4744 181.131 60.7734 181.125 59.8999V58.3197C181.119 57.4462 181.822 56.7394 182.698 56.7337C183.573 56.7279 184.282 57.4347 184.288 58.3082V59.8884C184.293 60.7619 183.591 61.4687 182.715 61.4744Z" fill="#C8BCA9"/>
<path d="M179.553 64.6475H177.969C177.093 64.6532 176.385 63.9519 176.379 63.0782C176.373 62.2045 177.082 61.4975 177.957 61.4917H179.542C180.417 61.486 181.126 62.1873 181.132 63.061C181.137 63.9347 180.429 64.6417 179.553 64.6475Z" fill="#C8BCA9"/>
<path d="M182.738 69.3758C181.863 69.3758 181.154 68.6748 181.148 67.8013V66.221C181.143 65.3476 181.846 64.6408 182.721 64.635C183.597 64.6293 184.305 65.3361 184.311 66.2096V67.7898C184.317 68.6633 183.614 69.3701 182.738 69.3758Z" fill="#C8BCA9"/>
<path d="M187.481 64.6187H185.897C185.021 64.6244 184.312 63.9231 184.307 63.0494C184.301 62.1757 185.009 61.4687 185.885 61.4629H187.469C188.345 61.4572 189.054 62.1585 189.059 63.0322C189.065 63.9059 188.357 64.6129 187.481 64.6187Z" fill="#C8BCA9"/>
<path d="M145.515 37.4514L143.793 37.1124C142.451 36.848 141.396 35.8137 141.12 34.4748L140.763 32.7566C140.596 31.9694 139.916 31.4292 139.115 31.4292C138.314 31.4292 137.64 31.9866 137.485 32.7739L137.145 34.492C136.88 35.8309 135.843 36.8825 134.501 37.1583L132.778 37.5146C131.989 37.6755 131.442 38.3536 131.447 39.1523C131.453 39.9511 132.006 40.6234 132.795 40.7786L134.518 41.1176C135.86 41.3819 136.914 42.4163 137.191 43.7552L137.548 45.4734C137.709 46.2606 138.389 46.8065 139.19 46.8008C139.991 46.795 140.665 46.2434 140.82 45.4561L141.16 43.7379C141.425 42.399 142.462 41.3475 143.804 41.0716L145.527 40.7153C146.316 40.5545 146.863 39.8764 146.858 39.0776C146.852 38.2789 146.299 37.6066 145.51 37.4514H145.515ZM143.436 39.296C141.379 39.7212 139.783 41.3302 139.38 43.3874L139.178 44.3988L138.971 43.3932C138.545 41.3417 136.932 39.75 134.869 39.3477L133.855 39.1466L134.863 38.9397C136.92 38.5145 138.516 36.9055 138.919 34.8483L139.121 33.8369L139.328 34.8425C139.754 36.894 141.367 38.4858 143.43 38.888L144.444 39.0891L143.436 39.296Z" fill="#C8BCA9"/>
<path d="M31.8796 101.443L30.6549 101.201C29.7005 101.013 28.9509 100.276 28.7543 99.3219L28.5004 98.0975C28.3816 97.5365 27.8982 97.1516 27.3289 97.1516C26.7595 97.1516 26.2803 97.5488 26.1697 98.1098L25.928 99.3342C25.7396 100.288 25.0023 101.038 24.0479 101.234L22.8232 101.488C22.262 101.603 21.8729 102.086 21.877 102.655C21.8811 103.224 22.2743 103.703 22.8355 103.814L24.0602 104.056C25.0146 104.244 25.7642 104.981 25.9608 105.935L26.2147 107.159C26.3294 107.72 26.8128 108.109 27.3821 108.105C27.9515 108.101 28.4307 107.708 28.5413 107.147L28.783 105.923C28.9714 104.969 29.7087 104.219 30.6631 104.023L31.8878 103.769C32.449 103.654 32.8381 103.171 32.834 102.602C32.8299 102.033 32.4367 101.554 31.8755 101.443H31.8796ZM30.401 102.757C28.9386 103.06 27.804 104.207 27.5173 105.673L27.3739 106.394L27.2265 105.677C26.9234 104.215 25.7765 103.081 24.3101 102.794L23.5891 102.651L24.306 102.504C25.7683 102.201 26.9029 101.054 27.1896 99.588L27.333 98.8674L27.4804 99.584C27.7835 101.046 28.9305 102.18 30.3969 102.467L31.1178 102.61L30.401 102.757Z" fill="#C8BCA9"/>
<path d="M219.349 136.153L220.57 136.394L220.57 136.395C220.897 136.459 221.123 136.734 221.125 137.067C221.127 137.398 220.905 137.674 220.579 137.74L220.577 137.741L219.353 137.994C219.353 137.995 219.353 137.995 219.353 137.995C218.2 138.232 217.311 139.138 217.083 140.287L217.083 140.287L216.842 141.512L216.842 141.512C216.777 141.838 216.503 142.064 216.17 142.067C215.838 142.069 215.562 141.847 215.496 141.521L215.495 141.519L215.242 140.296C215.242 140.296 215.241 140.295 215.241 140.295C215.004 139.143 214.098 138.253 212.948 138.026L212.948 138.026L211.723 137.785L211.723 137.785C211.397 137.72 211.17 137.446 211.168 137.113C211.166 136.782 211.388 136.506 211.714 136.439L211.716 136.439L212.94 136.185C212.94 136.185 212.94 136.185 212.94 136.185C214.093 135.948 214.982 135.042 215.21 133.892L215.21 133.892L215.451 132.668L215.451 132.668C215.516 132.339 215.792 132.113 216.12 132.113C216.456 132.113 216.733 132.335 216.802 132.662C216.802 132.662 216.802 132.662 216.802 132.663L217.056 133.884C217.056 133.884 217.056 133.884 217.056 133.884C217.293 135.037 218.199 135.926 219.349 136.153L219.349 136.153ZM216.799 140.232L216.799 140.23C217.047 138.962 218.028 137.971 219.293 137.709C219.293 137.709 219.293 137.709 219.293 137.708L220.01 137.561L220.006 136.581L219.285 136.438L219.284 136.437C218.015 136.189 217.024 135.209 216.761 133.944C216.761 133.944 216.761 133.944 216.761 133.944L216.614 133.228L215.634 133.231L215.49 133.952L215.49 133.953C215.242 135.222 214.261 136.213 212.996 136.475C212.996 136.475 212.996 136.475 212.996 136.475L212.279 136.623L212.283 137.603L213.004 137.746L213.005 137.746C214.274 137.994 215.265 138.975 215.528 140.239C215.528 140.24 215.528 140.24 215.528 140.24L215.675 140.956L216.655 140.953L216.799 140.232Z" fill="#C8BCA9" stroke="#C8BCA9"/>
</g>
<defs>
<clipPath id="clip0_7_17122">
<rect width="207.189" height="133.437" fill="white" transform="translate(17.8926 26.4502)"/>
</clipPath>
</defs>
</svg>
