
<svg width="40" height="40" viewBox="0 0 40 40" fill="none" xmlns="http://www.w3.org/2000/svg">
<circle cx="20" cy="20" r="19.25" fill="white" stroke="#3B3B3B" stroke-width="1.5"/>
<path d="M3.988 25C3.69867 25 3.47467 24.9207 3.316 24.762C3.15733 24.594 3.078 24.3653 3.078 24.076V15.998C3.078 15.6993 3.15267 15.4753 3.302 15.326C3.46067 15.1673 3.68467 15.088 3.974 15.088C4.26333 15.088 4.48267 15.1673 4.632 15.326C4.79067 15.4753 4.87 15.6993 4.87 15.998V23.474H8.93C9.182 23.474 9.37333 23.5393 9.504 23.67C9.644 23.8007 9.714 23.9873 9.714 24.23C9.714 24.4727 9.644 24.664 9.504 24.804C9.37333 24.9347 9.182 25 8.93 25H3.988ZM13.825 25.14C13.1156 25.14 12.4996 24.9953 11.977 24.706C11.4543 24.4167 11.0483 24.006 10.759 23.474C10.4696 22.9327 10.325 22.298 10.325 21.57C10.325 21.0193 10.4043 20.5293 10.563 20.1C10.731 19.6613 10.969 19.288 11.277 18.98C11.585 18.6627 11.9536 18.4247 12.383 18.266C12.8123 18.098 13.293 18.014 13.825 18.014C14.5343 18.014 15.1503 18.1587 15.673 18.448C16.1956 18.7373 16.6016 19.148 16.891 19.68C17.1803 20.212 17.325 20.842 17.325 21.57C17.325 22.1207 17.241 22.6153 17.073 23.054C16.9143 23.4927 16.681 23.8707 16.373 24.188C16.065 24.496 15.6963 24.734 15.267 24.902C14.8376 25.0607 14.357 25.14 13.825 25.14ZM13.825 23.81C14.1703 23.81 14.4736 23.726 14.735 23.558C14.9963 23.39 15.197 23.1427 15.337 22.816C15.4863 22.48 15.561 22.0647 15.561 21.57C15.561 20.8233 15.4023 20.268 15.085 19.904C14.7676 19.5307 14.3476 19.344 13.825 19.344C13.4796 19.344 13.1763 19.428 12.915 19.596C12.6536 19.7547 12.4483 20.002 12.299 20.338C12.159 20.6647 12.089 21.0753 12.089 21.57C12.089 22.3073 12.2476 22.8673 12.565 23.25C12.8823 23.6233 13.3023 23.81 13.825 23.81ZM21.9614 27.66C21.4574 27.66 20.9674 27.6133 20.4914 27.52C20.0247 27.4267 19.6 27.282 19.2174 27.086C19.04 26.9927 18.9187 26.8807 18.8534 26.75C18.7974 26.6193 18.7787 26.484 18.7974 26.344C18.8254 26.2133 18.8814 26.0967 18.9654 25.994C19.0587 25.8913 19.1707 25.8213 19.3014 25.784C19.432 25.7467 19.5674 25.7653 19.7074 25.84C20.118 26.0453 20.5054 26.176 20.8694 26.232C21.2427 26.2973 21.56 26.33 21.8214 26.33C22.4467 26.33 22.9134 26.176 23.2214 25.868C23.5387 25.5693 23.6974 25.1213 23.6974 24.524V23.264H23.8234C23.6834 23.74 23.3894 24.1227 22.9414 24.412C22.5027 24.692 22.0034 24.832 21.4434 24.832C20.8274 24.832 20.2907 24.692 19.8334 24.412C19.376 24.1227 19.0214 23.7213 18.7694 23.208C18.5174 22.6947 18.3914 22.0973 18.3914 21.416C18.3914 20.9027 18.4614 20.4407 18.6014 20.03C18.7507 19.61 18.956 19.2507 19.2174 18.952C19.488 18.6533 19.81 18.4247 20.1834 18.266C20.566 18.098 20.986 18.014 21.4434 18.014C22.022 18.014 22.526 18.1587 22.9554 18.448C23.394 18.728 23.6787 19.1013 23.8094 19.568L23.6694 19.918V18.924C23.6694 18.6347 23.744 18.4153 23.8934 18.266C24.052 18.1167 24.2667 18.042 24.5374 18.042C24.8174 18.042 25.032 18.1167 25.1814 18.266C25.3307 18.4153 25.4054 18.6347 25.4054 18.924V24.314C25.4054 25.4247 25.1114 26.26 24.5234 26.82C23.9354 27.38 23.0814 27.66 21.9614 27.66ZM21.9194 23.502C22.2834 23.502 22.596 23.418 22.8574 23.25C23.1187 23.082 23.3194 22.844 23.4594 22.536C23.6087 22.2187 23.6834 21.8453 23.6834 21.416C23.6834 20.772 23.5247 20.268 23.2074 19.904C22.89 19.5307 22.4607 19.344 21.9194 19.344C21.5554 19.344 21.2427 19.428 20.9814 19.596C20.72 19.764 20.5147 20.002 20.3654 20.31C20.2254 20.618 20.1554 20.9867 20.1554 21.416C20.1554 22.06 20.314 22.5687 20.6314 22.942C20.9487 23.3153 21.378 23.502 21.9194 23.502ZM28.0866 25.098C27.8066 25.098 27.5919 25.014 27.4426 24.846C27.2933 24.678 27.2186 24.4447 27.2186 24.146V19.008C27.2186 18.7 27.2933 18.4667 27.4426 18.308C27.5919 18.14 27.8066 18.056 28.0866 18.056C28.3666 18.056 28.5813 18.14 28.7306 18.308C28.8893 18.4667 28.9686 18.7 28.9686 19.008V24.146C28.9686 24.4447 28.8939 24.678 28.7446 24.846C28.5953 25.014 28.3759 25.098 28.0866 25.098ZM28.0866 16.754C27.7599 16.754 27.5033 16.6747 27.3166 16.516C27.1393 16.348 27.0506 16.1193 27.0506 15.83C27.0506 15.5313 27.1393 15.3027 27.3166 15.144C27.5033 14.9853 27.7599 14.906 28.0866 14.906C28.4226 14.906 28.6793 14.9853 28.8566 15.144C29.0339 15.3027 29.1226 15.5313 29.1226 15.83C29.1226 16.1193 29.0339 16.348 28.8566 16.516C28.6793 16.6747 28.4226 16.754 28.0866 16.754ZM31.655 25.112C31.375 25.112 31.1603 25.0373 31.011 24.888C30.8616 24.7293 30.787 24.5053 30.787 24.216V18.924C30.787 18.6347 30.8616 18.4153 31.011 18.266C31.1603 18.1167 31.3703 18.042 31.641 18.042C31.9116 18.042 32.1216 18.1167 32.271 18.266C32.4203 18.4153 32.495 18.6347 32.495 18.924V19.876L32.341 19.526C32.5463 19.0313 32.8636 18.658 33.293 18.406C33.7316 18.1447 34.2263 18.014 34.777 18.014C35.3276 18.014 35.7803 18.1167 36.135 18.322C36.4896 18.5273 36.7556 18.84 36.933 19.26C37.1103 19.6707 37.199 20.1933 37.199 20.828V24.216C37.199 24.5053 37.1243 24.7293 36.975 24.888C36.8256 25.0373 36.611 25.112 36.331 25.112C36.051 25.112 35.8316 25.0373 35.673 24.888C35.5236 24.7293 35.449 24.5053 35.449 24.216V20.912C35.449 20.38 35.3463 19.9927 35.141 19.75C34.945 19.5073 34.637 19.386 34.217 19.386C33.7036 19.386 33.293 19.5493 32.985 19.876C32.6863 20.1933 32.537 20.618 32.537 21.15V24.216C32.537 24.8133 32.243 25.112 31.655 25.112Z" fill="#3B3B3B"/>
</svg>
