
<svg width="41" height="40" viewBox="0 0 41 40" fill="none" xmlns="http://www.w3.org/2000/svg">
<rect x="0.5" width="40" height="40" rx="20" fill="#C3B7A1" fill-opacity="0.96"/>
<path d="M20.5 11.75C19.5054 11.75 18.5516 12.1451 17.8483 12.8483C17.1451 13.5516 16.75 14.5054 16.75 15.5C16.75 16.4946 17.1451 17.4484 17.8483 18.1517C18.5516 18.8549 19.5054 19.25 20.5 19.25C21.4946 19.25 22.4484 18.8549 23.1517 18.1517C23.8549 17.4484 24.25 16.4946 24.25 15.5C24.25 14.5054 23.8549 13.5516 23.1517 12.8483C22.4484 12.1451 21.4946 11.75 20.5 11.75ZM16.5 21.25C15.5054 21.25 14.5516 21.6451 13.8483 22.3483C13.1451 23.0516 12.75 24.0054 12.75 25V26.188C12.75 26.942 13.296 27.584 14.04 27.705C18.318 28.404 22.682 28.404 26.96 27.705C27.3198 27.6458 27.647 27.4608 27.8832 27.1831C28.1194 26.9053 28.2494 26.5527 28.25 26.188V25C28.25 24.0054 27.8549 23.0516 27.1517 22.3483C26.4484 21.6451 25.4946 21.25 24.5 21.25H24.16C23.9733 21.2507 23.792 21.2793 23.616 21.336L22.75 21.619C21.288 22.0963 19.712 22.0963 18.25 21.619L17.384 21.336C17.2085 21.2797 17.0253 21.2507 16.841 21.25H16.5Z" fill="white"/>
</svg>
