<svg width="30" height="30" viewBox="0 0 30 30" fill="none" xmlns="http://www.w3.org/2000/svg">
<rect width="30" height="30" rx="15" fill="#EEE2CC"/>
<path d="M23.6816 12.5988C23.2541 12.8372 22.8979 13.1854 22.6499 13.6075C22.402 14.0296 22.2713 14.5103 22.2713 14.9998C22.2713 15.4894 22.402 15.97 22.6499 16.3922C22.8977 16.814 23.2536 17.1621 23.6809 17.4005C23.9454 17.5485 24.1246 17.6491 24.2494 17.7263C24.2492 17.733 24.2491 17.7399 24.2489 17.7472C24.2473 17.8109 24.2443 17.8846 24.2405 17.9778L24.2405 17.9791C24.2405 17.9792 24.2405 17.9794 24.2405 17.9796C24.1618 19.8359 23.9091 20.7107 23.3208 21.2961L23.3202 21.2967C22.8953 21.7205 22.3135 21.9745 21.3045 22.1098C20.2742 22.2481 18.9161 22.2497 17.005 22.2497H12.9951C11.0834 22.2497 9.72515 22.2481 8.69477 22.1098C7.68581 21.9745 7.10441 21.7205 6.68009 21.2969L6.67955 21.2964C6.09186 20.7109 5.83815 19.8354 5.76058 17.9785L5.76053 17.9774C5.75645 17.8831 5.75326 17.8088 5.75154 17.7448C5.75136 17.7383 5.75121 17.7319 5.75107 17.7258C5.87595 17.6487 6.05495 17.5484 6.31898 17.4006C6.74632 17.1622 7.10229 16.8141 7.35012 16.3922C7.59807 15.97 7.7288 15.4894 7.7288 14.9998C7.7288 14.5103 7.59807 14.0296 7.35012 13.6075C7.10222 13.1855 6.74613 12.8373 6.31865 12.5989C6.05432 12.4514 5.87505 12.3508 5.75067 12.2738C5.75081 12.267 5.75097 12.2599 5.75115 12.2525C5.75274 12.1888 5.75573 12.1151 5.75952 12.0217L5.75956 12.0206C5.75957 12.0204 5.75958 12.0202 5.75959 12.02C5.83822 10.1638 6.09101 9.28893 6.67922 8.70362L6.67986 8.70298C7.10476 8.27917 7.68658 8.02521 8.69552 7.88984C9.7259 7.75159 11.0839 7.75 12.9951 7.75H17.005C18.9166 7.75 20.2749 7.75159 21.3053 7.88984C22.3142 8.02521 22.8956 8.27915 23.32 8.70276L23.3202 8.70296C23.9083 9.28968 24.1619 10.1647 24.2395 12.0202L24.2395 12.0212C24.2436 12.1158 24.2468 12.1903 24.2485 12.2544C24.2487 12.2612 24.2489 12.2679 24.249 12.2742M23.6816 12.5988L24.0468 13.2539L23.6814 12.5989C23.6815 12.5989 23.6816 12.5988 23.6816 12.5988ZM23.6816 12.5988C23.9454 12.4516 24.1245 12.3512 24.249 12.2742M24.249 12.2742C24.2502 12.3275 24.25 12.3637 24.2489 12.3893C24.2484 12.4015 24.2477 12.4093 24.2472 12.4133M24.249 12.2742C24.2583 12.2685 24.2672 12.2629 24.2759 12.2574C24.3351 12.22 24.3629 12.1993 24.3725 12.1915M24.2472 12.4133C24.2469 12.4156 24.2467 12.4167 24.2468 12.4168C24.2468 12.4168 24.247 12.4157 24.2472 12.4133ZM24.2472 12.4133C24.2493 12.4009 24.2588 12.356 24.2897 12.3009C24.3248 12.2384 24.361 12.202 24.3725 12.1915M24.3725 12.1915C24.3729 12.1912 24.3732 12.1909 24.3736 12.1906C24.3776 12.1873 24.3768 12.1876 24.3725 12.1915ZM24.374 17.81C24.3781 17.8134 24.3774 17.8131 24.3731 17.8092C24.3734 17.8094 24.3737 17.8097 24.374 17.81ZM24.2468 17.5833C24.2469 17.5833 24.247 17.5845 24.2473 17.5869C24.2469 17.5846 24.2468 17.5833 24.2468 17.5833ZM5.75328 17.5829C5.75331 17.583 5.75318 17.5842 5.75281 17.5864C5.75307 17.584 5.75326 17.5829 5.75328 17.5829ZM5.62702 17.8088C5.62271 17.8127 5.62188 17.813 5.62589 17.8097C5.62624 17.8094 5.62661 17.8091 5.62702 17.8088ZM5.75323 12.4163C5.7532 12.4164 5.75301 12.4152 5.75274 12.4128C5.75312 12.4151 5.75326 12.4163 5.75323 12.4163ZM5.62662 12.1904C5.6225 12.1869 5.62327 12.1872 5.62756 12.1911C5.62722 12.1909 5.62691 12.1906 5.62662 12.1904Z" stroke="#282828" stroke-width="1.5"/>
<path d="M12.2475 18.2474L18.2474 12.2475L17.9999 12L17.7524 11.7525L11.7525 17.7524L12 17.9999L12.2475 18.2474Z" stroke="#282828" stroke-width="0.7" stroke-linecap="round"/>
<path d="M18.4999 17.4999C18.4999 17.7651 18.3945 18.0194 18.207 18.207C18.0194 18.3945 17.7651 18.4999 17.4999 18.4999C17.2347 18.4999 16.9803 18.3945 16.7928 18.207C16.6053 18.0194 16.4999 17.7651 16.4999 17.4999C16.4999 17.2347 16.6053 16.9803 16.7928 16.7928C16.9803 16.6053 17.2347 16.4999 17.4999 16.4999C17.7651 16.4999 18.0194 16.6053 18.207 16.7928C18.3945 16.9803 18.4999 17.2347 18.4999 17.4999ZM13.5 12.5C13.5 12.7652 13.3946 13.0195 13.2071 13.2071C13.0195 13.3946 12.7652 13.5 12.5 13.5C12.2348 13.5 11.9804 13.3946 11.7929 13.2071C11.6054 13.0195 11.5 12.7652 11.5 12.5C11.5 12.2348 11.6054 11.9804 11.7929 11.7929C11.9804 11.6054 12.2348 11.5 12.5 11.5C12.7652 11.5 13.0195 11.6054 13.2071 11.7929C13.3946 11.9804 13.5 12.2348 13.5 12.5Z" fill="#282828"/>
</svg>
