
<svg width="25" height="24" viewBox="0 0 25 24" fill="none" xmlns="http://www.w3.org/2000/svg">
<g clip-path="url(#clip0_570_12477)">
<path d="M8.25 23C8.80228 23 9.25 22.5523 9.25 22C9.25 21.4477 8.80228 21 8.25 21C7.69772 21 7.25 21.4477 7.25 22C7.25 22.5523 7.69772 23 8.25 23Z" fill="#3B3B3B"/>
<path d="M17.25 23C17.8023 23 18.25 22.5523 18.25 22C18.25 21.4477 17.8023 21 17.25 21C16.6977 21 16.25 21.4477 16.25 22C16.25 22.5523 16.6977 23 17.25 23Z" fill="#3B3B3B"/>
<path d="M20.75 10H6.25L7.75 18L8.25 19H17.75L19.25 18.5L20.75 10Z" fill="#3B3B3B"/>
<path d="M1.25 5H4.88636L7.32273 17.497C7.40586 17.9267 7.63355 18.3127 7.96595 18.5874C8.29835 18.8621 8.71427 19.0081 9.14091 18.9997H17.9773C18.4039 19.0081 18.8198 18.8621 19.1522 18.5874C19.4846 18.3127 19.7123 17.9267 19.7955 17.497L21.25 9.66655H5.79545" stroke="#3B3B3B" stroke-width="1.5" stroke-linecap="round" stroke-linejoin="round"/>
</g>
<defs>
<clipPath id="clip0_570_12477">
<rect width="24" height="24" fill="white" transform="translate(0.25)"/>
</clipPath>
</defs>
</svg>
