
<svg width="25" height="25" viewBox="0 0 25 25" fill="none" xmlns="http://www.w3.org/2000/svg">
<path d="M19.5 18L20 16L20.5 15V10L20 9.5V8L19 6L18 5.5L14.5 5H9L5.5 5.5L4.5 7.5L4 12V17L5.5 19L6.5 20H9.5H14.5L18 19.5L19.5 18Z" fill="#E9D2A9"/>
<path d="M18.5 12.5C18.5 12.7652 18.3946 13.0196 18.2071 13.2071C18.0196 13.3946 17.7652 13.5 17.5 13.5C17.2348 13.5 16.9804 13.3946 16.7929 13.2071C16.6054 13.0196 16.5 12.7652 16.5 12.5C16.5 12.2348 16.6054 11.9804 16.7929 11.7929C16.9804 11.6054 17.2348 11.5 17.5 11.5C17.7652 11.5 18.0196 11.6054 18.2071 11.7929C18.3946 11.9804 18.5 12.2348 18.5 12.5Z" fill="#3B3B3B"/>
<path fill-rule="evenodd" clip-rule="evenodd" d="M10.7787 4.5H13.3841C14.9229 4.5 16.1419 4.5 17.0954 4.63989C18.0767 4.78434 18.8712 5.08789 19.4982 5.77177C20.2718 6.61749 20.5188 7.74937 20.6084 9.21863C21.0914 9.44994 21.4565 9.94091 21.4958 10.5626C21.5 10.6184 21.5 10.6778 21.5 10.7327V14.2673C21.5 14.3222 21.5 14.3816 21.4967 14.4365C21.4565 15.0582 21.0914 15.5501 20.6084 15.7823C20.5188 17.2506 20.2718 18.3825 19.4982 19.2282C18.8712 19.9121 18.0767 20.2157 17.0954 20.3601C16.141 20.5 14.9229 20.5 13.3841 20.5H10.7787C9.23991 20.5 8.02093 20.5 7.06735 20.3601C6.08614 20.2157 5.29163 19.9121 4.66456 19.2282C4.03833 18.5434 3.76037 17.6758 3.62809 16.6042C3.5 15.5619 3.5 14.2317 3.5 12.5512V12.4488C3.5 10.7683 3.5 9.43714 3.62809 8.39577C3.76037 7.32423 4.03833 6.45657 4.66456 5.77177C5.29163 5.08789 6.08614 4.78434 7.06735 4.63989C8.02177 4.5 9.23991 4.5 10.7787 4.5ZM19.3383 15.9286H17.7158C15.92 15.9286 14.3829 14.4401 14.3829 12.5C14.3829 10.5599 15.92 9.07143 17.715 9.07143H19.3375C19.242 7.84537 19.0269 7.19714 18.6091 6.74183C18.255 6.35509 17.7694 6.12286 16.9272 5.99943C16.0673 5.87326 14.9329 5.87143 13.3364 5.87143H10.8247C9.22819 5.87143 8.0946 5.87326 7.23312 5.99943C6.39172 6.12286 5.90614 6.35509 5.552 6.74183C5.19786 7.12857 4.98605 7.65886 4.87302 8.57771C4.75749 9.5176 4.75581 10.7555 4.75581 12.4991C4.75581 14.2426 4.75749 15.4815 4.87302 16.4214C4.98605 17.3402 5.1987 17.8705 5.55284 18.2573C5.90698 18.644 6.39256 18.8762 7.23479 18.9997C8.09544 19.1258 9.22902 19.1277 10.8256 19.1277H13.3372C14.9338 19.1277 16.0682 19.1258 16.9288 18.9997C17.7702 18.8762 18.2558 18.644 18.61 18.2573C19.0277 17.8019 19.2429 17.1546 19.3383 15.9277M6.84884 8.84286C6.84884 8.66099 6.91499 8.48658 7.03275 8.35798C7.1505 8.22939 7.31021 8.15714 7.47674 8.15714H10.8256C10.9921 8.15714 11.1518 8.22939 11.2696 8.35798C11.3873 8.48658 11.4535 8.66099 11.4535 8.84286C11.4535 9.02472 11.3873 9.19913 11.2696 9.32773C11.1518 9.45633 10.9921 9.52857 10.8256 9.52857H7.47674C7.31021 9.52857 7.1505 9.45633 7.03275 9.32773C6.91499 9.19913 6.84884 9.02472 6.84884 8.84286ZM19.9713 10.4429H17.7158C16.5236 10.4429 15.6387 11.4111 15.6387 12.5C15.6387 13.5889 16.5236 14.5571 17.715 14.5571H19.9905C20.163 14.5453 20.2375 14.4182 20.2433 14.3414V10.6586C20.2375 10.5818 20.163 10.4547 19.9905 10.4438L19.9713 10.4429Z" fill="#3B3B3B"/>
</svg>
