<svg width="24" height="24" viewBox="0 0 24 24" fill="none" xmlns="http://www.w3.org/2000/svg">
<path d="M20.8401 5.60987C20.3294 5.09888 19.7229 4.69352 19.0555 4.41696C18.388 4.14039 17.6726 3.99805 16.9501 3.99805C16.2276 3.99805 15.5122 4.14039 14.8448 4.41696C14.1773 4.69352 13.5709 5.09888 13.0601 5.60987L12.0001 6.66987L10.9401 5.60987C9.90843 4.57818 8.50915 3.99858 7.05012 3.99858C5.59109 3.99858 4.19181 4.57818 3.16012 5.60987C2.12843 6.64156 1.54883 8.04084 1.54883 9.49987C1.54883 10.9589 2.12843 12.3582 3.16012 13.3899L4.22012 14.4499L12.0001 22.2299L19.7801 14.4499L20.8401 13.3899C21.3511 12.8791 21.7565 12.2727 22.033 11.6052C22.3096 10.9378 22.4519 10.2224 22.4519 9.49987C22.4519 8.77738 22.3096 8.06198 22.033 7.39452C21.7565 6.72706 21.3511 6.12063 20.8401 5.60987Z" fill="#F95050" stroke="#F95050" stroke-width="1.5" stroke-linecap="round" stroke-linejoin="round"/>
</svg>
