<svg width="41" height="40" viewBox="0 0 41 40" fill="none" xmlns="http://www.w3.org/2000/svg">
<rect x="0.666504" width="40" height="40" rx="20" fill="#EFEFEF"/>
<path d="M28.5963 14.4145C28.148 13.9661 27.6158 13.6103 27.0301 13.3676C26.4443 13.1249 25.8165 13 25.1825 13C24.5484 13 23.9206 13.1249 23.3348 13.3676C22.7491 13.6103 22.2169 13.9661 21.7687 14.4145L20.8384 15.3448L19.9082 14.4145C19.0028 13.5091 17.7748 13.0005 16.4944 13.0005C15.2139 13.0005 13.9859 13.5091 13.0806 14.4145C12.1752 15.3199 11.6665 16.5479 11.6665 17.8283C11.6665 19.1088 12.1752 20.3367 13.0806 21.2421L14.0108 22.1724L20.8384 29L27.666 22.1724L28.5963 21.2421C29.0447 20.7939 29.4005 20.2617 29.6432 19.676C29.8859 19.0902 30.0108 18.4624 30.0108 17.8283C30.0108 17.1943 29.8859 16.5664 29.6432 15.9807C29.4005 15.3949 29.0447 14.8627 28.5963 14.4145Z" stroke="#282828" stroke-width="1.5" stroke-linecap="round" stroke-linejoin="round"/>
</svg>
