
<svg width="25" height="24" viewBox="0 0 25 24" fill="none" xmlns="http://www.w3.org/2000/svg">
<path d="M20.4298 6.41452C19.9815 5.96607 19.4493 5.61034 18.8636 5.36763C18.2778 5.12492 17.65 5 17.016 5C16.3819 5 15.7541 5.12492 15.1683 5.36763C14.5826 5.61034 14.0504 5.96607 13.6022 6.41452L12.6719 7.34476L11.7417 6.41452C10.8363 5.50912 9.60828 5.00047 8.32786 5.00047C7.04743 5.00047 5.81945 5.50912 4.91405 6.41452C4.00865 7.31992 3.5 8.5479 3.5 9.82833C3.5 11.1088 4.00865 12.3367 4.91405 13.2421L5.84429 14.1724L12.6719 21L19.4995 14.1724L20.4298 13.2421C20.8782 12.7939 21.2339 12.2617 21.4767 11.676C21.7194 11.0902 21.8443 10.4624 21.8443 9.82833C21.8443 9.19428 21.7194 8.56645 21.4767 7.9807C21.2339 7.39494 20.8782 6.86275 20.4298 6.41452Z" fill="#3B3B3B"/>
</svg>
