
<svg width="24" height="25" viewBox="0 0 24 25" fill="none" xmlns="http://www.w3.org/2000/svg">
<path d="M18 12.5C18 12.7652 17.8946 13.0196 17.7071 13.2071C17.5196 13.3946 17.2652 13.5 17 13.5C16.7348 13.5 16.4804 13.3946 16.2929 13.2071C16.1054 13.0196 16 12.7652 16 12.5C16 12.2348 16.1054 11.9804 16.2929 11.7929C16.4804 11.6054 16.7348 11.5 17 11.5C17.2652 11.5 17.5196 11.6054 17.7071 11.7929C17.8946 11.9804 18 12.2348 18 12.5Z" fill="#8C8C8C"/>
<path fill-rule="evenodd" clip-rule="evenodd" d="M10.2787 4.5H12.8841C14.4229 4.5 15.6419 4.5 16.5954 4.63989C17.5767 4.78434 18.3712 5.08789 18.9982 5.77177C19.7718 6.61749 20.0188 7.74937 20.1084 9.21863C20.5914 9.44994 20.9565 9.94091 20.9958 10.5626C21 10.6184 21 10.6778 21 10.7327V14.2673C21 14.3222 21 14.3816 20.9967 14.4365C20.9565 15.0582 20.5914 15.5501 20.1084 15.7823C20.0188 17.2506 19.7718 18.3825 18.9982 19.2282C18.3712 19.9121 17.5767 20.2157 16.5954 20.3601C15.641 20.5 14.4229 20.5 12.8841 20.5H10.2787C8.73991 20.5 7.52093 20.5 6.56735 20.3601C5.58614 20.2157 4.79163 19.9121 4.16456 19.2282C3.53833 18.5434 3.26037 17.6758 3.12809 16.6042C3 15.5619 3 14.2317 3 12.5512V12.4488C3 10.7683 3 9.43714 3.12809 8.39577C3.26037 7.32423 3.53833 6.45657 4.16456 5.77177C4.79163 5.08789 5.58614 4.78434 6.56735 4.63989C7.52177 4.5 8.73991 4.5 10.2787 4.5ZM18.8383 15.9286H17.2158C15.42 15.9286 13.8829 14.4401 13.8829 12.5C13.8829 10.5599 15.42 9.07143 17.215 9.07143H18.8375C18.742 7.84537 18.5269 7.19714 18.1091 6.74183C17.755 6.35509 17.2694 6.12286 16.4272 5.99943C15.5673 5.87326 14.4329 5.87143 12.8364 5.87143H10.3247C8.72819 5.87143 7.5946 5.87326 6.73312 5.99943C5.89172 6.12286 5.40614 6.35509 5.052 6.74183C4.69786 7.12857 4.48605 7.65886 4.37302 8.57771C4.25749 9.5176 4.25581 10.7555 4.25581 12.4991C4.25581 14.2426 4.25749 15.4815 4.37302 16.4214C4.48605 17.3402 4.6987 17.8705 5.05284 18.2573C5.40698 18.644 5.89256 18.8762 6.73479 18.9997C7.59544 19.1258 8.72902 19.1277 10.3256 19.1277H12.8372C14.4338 19.1277 15.5682 19.1258 16.4288 18.9997C17.2702 18.8762 17.7558 18.644 18.11 18.2573C18.5277 17.8019 18.7429 17.1546 18.8383 15.9277M6.34884 8.84286C6.34884 8.66099 6.41499 8.48658 6.53275 8.35798C6.6505 8.22939 6.81021 8.15714 6.97674 8.15714H10.3256C10.4921 8.15714 10.6518 8.22939 10.7696 8.35798C10.8873 8.48658 10.9535 8.66099 10.9535 8.84286C10.9535 9.02472 10.8873 9.19913 10.7696 9.32773C10.6518 9.45633 10.4921 9.52857 10.3256 9.52857H6.97674C6.81021 9.52857 6.6505 9.45633 6.53275 9.32773C6.41499 9.19913 6.34884 9.02472 6.34884 8.84286ZM19.4713 10.4429H17.2158C16.0236 10.4429 15.1387 11.4111 15.1387 12.5C15.1387 13.5889 16.0236 14.5571 17.215 14.5571H19.4905C19.663 14.5453 19.7375 14.4182 19.7433 14.3414V10.6586C19.7375 10.5818 19.663 10.4547 19.4905 10.4438L19.4713 10.4429Z" fill="#8C8C8C"/>
</svg>
