<svg width="24" height="24" viewBox="0 0 24 24" fill="none" xmlns="http://www.w3.org/2000/svg">
<rect width="24" height="24" rx="12" fill="#D1B584"/>
<path d="M11.8979 17.0566H17.8979" stroke="#282828" stroke-width="1.5" stroke-linecap="round" stroke-linejoin="round"/>
<path d="M14.8979 6.05679C15.1632 5.79158 15.5229 5.64258 15.8979 5.64258C16.0837 5.64258 16.2676 5.67916 16.4391 5.75023C16.6107 5.8213 16.7666 5.92547 16.8979 6.05679C17.0293 6.18811 17.1334 6.34402 17.2045 6.5156C17.2756 6.68718 17.3122 6.87107 17.3122 7.05679C17.3122 7.24251 17.2756 7.42641 17.2045 7.59799C17.1334 7.76957 17.0293 7.92547 16.8979 8.05679L8.56462 16.3901L5.89795 17.0568L6.56462 14.3901L14.8979 6.05679Z" stroke="#282828" stroke-width="1.5" stroke-linecap="round" stroke-linejoin="round"/>
</svg>
