<svg width="24" height="24" viewBox="0 0 24 24" fill="none" xmlns="http://www.w3.org/2000/svg">
<path d="M18 12C18 12.2652 17.8946 12.5196 17.7071 12.7071C17.5196 12.8946 17.2652 13 17 13C16.7348 13 16.4804 12.8946 16.2929 12.7071C16.1054 12.5196 16 12.2652 16 12C16 11.7348 16.1054 11.4804 16.2929 11.2929C16.4804 11.1054 16.7348 11 17 11C17.2652 11 17.5196 11.1054 17.7071 11.2929C17.8946 11.4804 18 11.7348 18 12Z" fill="#3B3B3B"/>
<path fill-rule="evenodd" clip-rule="evenodd" d="M10.2787 4H12.8841C14.4229 4 15.6419 4 16.5954 4.13989C17.5767 4.28434 18.3712 4.58789 18.9982 5.27177C19.7718 6.11749 20.0188 7.24937 20.1084 8.71863C20.5914 8.94994 20.9565 9.44091 20.9958 10.0626C21 10.1184 21 10.1778 21 10.2327V13.7673C21 13.8222 21 13.8816 20.9967 13.9365C20.9565 14.5582 20.5914 15.0501 20.1084 15.2823C20.0188 16.7506 19.7718 17.8825 18.9982 18.7282C18.3712 19.4121 17.5767 19.7157 16.5954 19.8601C15.641 20 14.4229 20 12.8841 20H10.2787C8.73991 20 7.52093 20 6.56735 19.8601C5.58614 19.7157 4.79163 19.4121 4.16456 18.7282C3.53833 18.0434 3.26037 17.1758 3.12809 16.1042C3 15.0619 3 13.7317 3 12.0512V11.9488C3 10.2683 3 8.93714 3.12809 7.89577C3.26037 6.82423 3.53833 5.95657 4.16456 5.27177C4.79163 4.58789 5.58614 4.28434 6.56735 4.13989C7.52177 4 8.73991 4 10.2787 4ZM18.8383 15.4286H17.2158C15.42 15.4286 13.8829 13.9401 13.8829 12C13.8829 10.0599 15.42 8.57143 17.215 8.57143H18.8375C18.742 7.34537 18.5269 6.69714 18.1091 6.24183C17.755 5.85509 17.2694 5.62286 16.4272 5.49943C15.5673 5.37326 14.4329 5.37143 12.8364 5.37143H10.3247C8.72819 5.37143 7.5946 5.37326 6.73312 5.49943C5.89172 5.62286 5.40614 5.85509 5.052 6.24183C4.69786 6.62857 4.48605 7.15886 4.37302 8.07771C4.25749 9.0176 4.25581 10.2555 4.25581 11.9991C4.25581 13.7426 4.25749 14.9815 4.37302 15.9214C4.48605 16.8402 4.6987 17.3705 5.05284 17.7573C5.40698 18.144 5.89256 18.3762 6.73479 18.4997C7.59544 18.6258 8.72902 18.6277 10.3256 18.6277H12.8372C14.4338 18.6277 15.5682 18.6258 16.4288 18.4997C17.2702 18.3762 17.7558 18.144 18.11 17.7573C18.5277 17.3019 18.7429 16.6546 18.8383 15.4277M6.34884 8.34286C6.34884 8.16099 6.41499 7.98658 6.53275 7.85798C6.6505 7.72939 6.81021 7.65714 6.97674 7.65714H10.3256C10.4921 7.65714 10.6518 7.72939 10.7696 7.85798C10.8873 7.98658 10.9535 8.16099 10.9535 8.34286C10.9535 8.52472 10.8873 8.69913 10.7696 8.82773C10.6518 8.95633 10.4921 9.02857 10.3256 9.02857H6.97674C6.81021 9.02857 6.6505 8.95633 6.53275 8.82773C6.41499 8.69913 6.34884 8.52472 6.34884 8.34286ZM19.4713 9.94286H17.2158C16.0236 9.94286 15.1387 10.9111 15.1387 12C15.1387 13.0889 16.0236 14.0571 17.215 14.0571H19.4905C19.663 14.0453 19.7375 13.9182 19.7433 13.8414V10.1586C19.7375 10.0818 19.663 9.95474 19.4905 9.94377L19.4713 9.94286Z" fill="#3B3B3B"/>
</svg>
