<svg width="24" height="24" viewBox="0 0 24 24" fill="none" xmlns="http://www.w3.org/2000/svg">
<path d="M15.6756 7.19333C15.1441 6.5863 14.8511 5.80687 14.8512 5H12.4478V14.6444C12.4297 15.1665 12.2095 15.6611 11.8336 16.0238C11.4578 16.3866 10.9557 16.5892 10.4334 16.5889C9.32895 16.5889 8.41117 15.6867 8.41117 14.5667C8.41117 13.2289 9.70228 12.2256 11.0323 12.6378V10.18C8.34895 9.82222 6.00006 11.9067 6.00006 14.5667C6.00006 17.1567 8.14673 19 10.4256 19C12.8678 19 14.8512 17.0167 14.8512 14.5667V9.67444C15.8257 10.3743 16.9958 10.7498 18.1956 10.7478V8.34444C18.1956 8.34444 16.7334 8.41444 15.6756 7.19333Z" fill="#707070"/>
</svg>
