<svg width="24" height="24" viewBox="0 0 24 24" fill="none" xmlns="http://www.w3.org/2000/svg">
<g clip-path="url(#clip0_1169_18843)">
<path d="M23.776 12.8989L21.8548 8.67234C21.6955 8.32311 21.4393 8.02698 21.1166 7.81915C20.7939 7.61132 20.4183 7.50055 20.0345 7.5H16.5001V6C16.4997 5.60231 16.3415 5.22103 16.0603 4.93982C15.7791 4.65861 15.3978 4.50043 15.0001 4.5H2.50007C2.10238 4.50043 1.7211 4.65861 1.43989 4.93982C1.15868 5.22103 1.00051 5.60231 1.00007 6V12C0.999433 12.0661 1.01189 12.1316 1.03673 12.1928C1.06157 12.2541 1.0983 12.3097 1.14479 12.3567C1.19129 12.4036 1.24662 12.4409 1.3076 12.4663C1.36858 12.4918 1.43399 12.5049 1.50007 12.5049C1.56614 12.5049 1.63155 12.4918 1.69253 12.4663C1.75351 12.4409 1.80884 12.4036 1.85534 12.3567C1.90183 12.3097 1.93856 12.2541 1.9634 12.1928C1.98824 12.1316 2.0007 12.0661 2.00006 12V6C2.00021 5.86743 2.05293 5.74034 2.14667 5.6466C2.24041 5.55286 2.36751 5.50013 2.50007 5.49998H15.0001C15.1327 5.50013 15.2597 5.55286 15.3535 5.6466C15.4472 5.74034 15.5 5.86743 15.5001 6V14C15.4999 14.1326 15.4472 14.2596 15.3534 14.3534C15.2597 14.4471 15.1326 14.4998 15.0001 14.5H9.00009C8.86832 14.5013 8.74238 14.5545 8.64966 14.6481C8.55693 14.7418 8.50491 14.8682 8.50491 15C8.50491 15.1318 8.55693 15.2582 8.64966 15.3518C8.74238 15.4455 8.86832 15.4987 9.00009 15.5H15.0001C15.3978 15.4995 15.7791 15.3414 16.0603 15.0601C16.3415 14.7789 16.4997 14.3977 16.5001 14V8.49998H20.0345C20.2264 8.50025 20.4142 8.55563 20.5756 8.65954C20.737 8.76346 20.8652 8.91153 20.9449 9.08616L21.133 9.49997H19.0002C18.735 9.50023 18.4808 9.60567 18.2933 9.79316C18.1058 9.98064 18.0004 10.2349 18.0001 10.5V12.5C18.0003 12.7651 18.1058 13.0193 18.2933 13.2068C18.4807 13.3943 18.7349 13.4997 19.0001 13.5H22.9282C22.9736 13.64 22.9979 13.786 23.0003 13.9331V16C23.0001 16.1326 22.9473 16.2597 22.8536 16.3534C22.7598 16.4472 22.6327 16.4999 22.5001 16.5H20.9496C20.8343 15.9354 20.5275 15.428 20.0812 15.0636C19.6348 14.6992 19.0763 14.5001 18.5001 14.5001C17.9239 14.5001 17.3654 14.6992 16.919 15.0636C16.4727 15.428 16.1659 15.9354 16.0506 16.5H7.94957C7.83431 15.9354 7.52755 15.428 7.08121 15.0636C6.63486 14.6992 6.07634 14.5001 5.50012 14.5001C4.9239 14.5001 4.36538 14.6992 3.91903 15.0636C3.47269 15.428 3.16593 15.9354 3.05067 16.5H2.50007C2.36751 16.4998 2.24043 16.4471 2.1467 16.3534C2.05297 16.2596 2.00023 16.1325 2.00006 16V15.5C2.13182 15.4987 2.25776 15.4455 2.35049 15.3519C2.44321 15.2582 2.49523 15.1318 2.49523 15C2.49523 14.8682 2.44321 14.7418 2.35049 14.6482C2.25776 14.5545 2.13182 14.5013 2.00006 14.5H0.500057C0.36829 14.5013 0.242352 14.5545 0.149626 14.6482C0.0569005 14.7418 0.00488281 14.8682 0.00488281 15C0.00488281 15.1318 0.0569005 15.2582 0.149626 15.3519C0.242352 15.4455 0.36829 15.4987 0.500057 15.5H1.00007V16C1.00051 16.3977 1.15868 16.779 1.43989 17.0602C1.7211 17.3414 2.10238 17.4996 2.50007 17.5H3.05062C3.16589 18.0646 3.47264 18.572 3.91898 18.9364C4.36533 19.3009 4.92386 19.4999 5.50007 19.4999C6.07629 19.4999 6.63482 19.3009 7.08116 18.9364C7.5275 18.572 7.83426 18.0646 7.94953 17.5H16.0506C16.1659 18.0646 16.4726 18.572 16.919 18.9364C17.3653 19.3009 17.9238 19.4999 18.5001 19.4999C19.0763 19.4999 19.6348 19.3009 20.0811 18.9364C20.5275 18.572 20.8342 18.0646 20.9495 17.5H22.5001C22.8978 17.4996 23.2791 17.3414 23.5603 17.0602C23.8415 16.779 23.9997 16.3977 24.0001 16V13.9331C24.0007 13.5763 23.9242 13.2235 23.776 12.8989ZM5.50007 18.5C5.2034 18.5 4.91339 18.412 4.66672 18.2472C4.42004 18.0824 4.22778 17.8481 4.11425 17.574C4.00072 17.3 3.97102 16.9984 4.02889 16.7074C4.08677 16.4164 4.22963 16.1491 4.43941 15.9394C4.64919 15.7296 4.91647 15.5867 5.20744 15.5288C5.49841 15.471 5.80001 15.5007 6.0741 15.6142C6.34819 15.7277 6.58246 15.92 6.74728 16.1667C6.9121 16.4133 7.00007 16.7033 7.00007 17C6.99964 17.3977 6.84146 17.779 6.56025 18.0602C6.27904 18.3414 5.89776 18.4996 5.50007 18.5ZM18.5001 18.5C18.2034 18.5 17.9134 18.412 17.6667 18.2472C17.42 18.0824 17.2278 17.8481 17.1142 17.574C17.0007 17.3 16.971 16.9984 17.0289 16.7074C17.0868 16.4164 17.2296 16.1491 17.4394 15.9394C17.6492 15.7296 17.9164 15.5867 18.2074 15.5288C18.4984 15.471 18.8 15.5007 19.0741 15.6142C19.3482 15.7277 19.5824 15.92 19.7473 16.1667C19.9121 16.4133 20.0001 16.7033 20.0001 17C19.9996 17.3977 19.8415 17.779 19.5603 18.0602C19.2791 18.3414 18.8978 18.4996 18.5001 18.5H18.5001ZM19.0001 10.5H21.5873L22.4964 12.5H19.0001V10.5Z" fill="#707070"/>
<path d="M8.63578 9.25002C8.63537 8.91862 8.50354 8.60091 8.26921 8.36657C8.03487 8.13224 7.71717 8.00041 7.38577 8H6.38578C6.25317 8 6.12599 8.05268 6.03222 8.14645C5.93845 8.24022 5.88577 8.3674 5.88577 8.50002V11.5C5.88513 11.5661 5.89759 11.6316 5.92243 11.6928C5.94727 11.7541 5.98399 11.8098 6.03049 11.8567C6.07698 11.9037 6.13231 11.9409 6.19329 11.9663C6.25427 11.9918 6.31969 12.0049 6.38576 12.0049C6.45183 12.0049 6.51724 11.9918 6.57822 11.9663C6.6392 11.9409 6.69454 11.9037 6.74103 11.8567C6.78752 11.8098 6.82425 11.7541 6.84909 11.6928C6.87393 11.6316 6.88639 11.5661 6.88575 11.5V10.9021L7.69716 11.8293C7.74016 11.8794 7.79269 11.9206 7.8517 11.9503C7.91072 11.9801 7.97504 11.9978 8.04095 12.0026C8.10687 12.0073 8.17307 11.9989 8.23572 11.9779C8.29837 11.9569 8.35623 11.9236 8.40596 11.8801C8.45569 11.8366 8.49629 11.7836 8.52543 11.7243C8.55456 11.665 8.57165 11.6005 8.5757 11.5345C8.57975 11.4686 8.57068 11.4025 8.54902 11.34C8.52736 11.2776 8.49353 11.2201 8.4495 11.1708L7.8008 10.4293C8.04475 10.343 8.256 10.1834 8.40552 9.97221C8.55504 9.76104 8.63548 9.50875 8.63578 9.25002ZM7.38577 9.5H6.8858V9.00003H7.38581C7.45212 9.00003 7.51571 9.02637 7.5626 9.07326C7.60948 9.12014 7.63582 9.18373 7.63582 9.25004C7.63582 9.31635 7.60948 9.37994 7.5626 9.42682C7.51571 9.47371 7.45212 9.50005 7.38581 9.50005L7.38577 9.5Z" fill="#707070"/>
<path d="M5.00004 8.99998C5.13181 8.99871 5.25774 8.94547 5.35047 8.85184C5.4432 8.75821 5.49521 8.63177 5.49521 8.49999C5.49521 8.36822 5.4432 8.24177 5.35047 8.14814C5.25774 8.05451 5.13181 8.00128 5.00004 8H3.50004C3.36743 8 3.24026 8.05267 3.14649 8.14643C3.05272 8.2402 3.00004 8.36736 3.00002 8.49997V11.5C2.99938 11.566 3.01184 11.6316 3.03668 11.6928C3.06152 11.754 3.09825 11.8097 3.14474 11.8567C3.19124 11.9036 3.24657 11.9409 3.30755 11.9663C3.36853 11.9917 3.43395 12.0048 3.50002 12.0048C3.56609 12.0048 3.6315 11.9917 3.69248 11.9663C3.75346 11.9409 3.8088 11.9036 3.85529 11.8567C3.90178 11.8097 3.93851 11.754 3.96335 11.6928C3.98819 11.6316 4.00065 11.566 4.00001 11.5V10.5H4.75001C4.81608 10.5006 4.88161 10.4882 4.94284 10.4633C5.00406 10.4385 5.05975 10.4018 5.1067 10.3553C5.15364 10.3088 5.19091 10.2534 5.21634 10.1925C5.24177 10.1315 5.25486 10.0661 5.25486 9.99999C5.25486 9.93392 5.24177 9.86851 5.21634 9.80753C5.19091 9.74655 5.15364 9.69121 5.1067 9.64472C5.05975 9.59823 5.00406 9.5615 4.94284 9.53666C4.88161 9.51182 4.81608 9.49936 4.75001 9.5H4.00001V8.99998H5.00004Z" fill="#707070"/>
<path d="M14 8.99998C14.1318 8.99871 14.2577 8.94547 14.3504 8.85184C14.4432 8.75821 14.4952 8.63177 14.4952 8.49999C14.4952 8.36822 14.4432 8.24177 14.3504 8.14814C14.2577 8.05451 14.1318 8.00128 14 8H12.5C12.3674 8 12.2402 8.05267 12.1465 8.14643C12.0527 8.2402 12 8.36736 12 8.49997V11.5C12 11.6326 12.0527 11.7598 12.1465 11.8535C12.2402 11.9473 12.3674 12 12.5 12H14C14.1318 11.9987 14.2577 11.9455 14.3504 11.8518C14.4432 11.7582 14.4952 11.6318 14.4952 11.5C14.4952 11.3682 14.4432 11.2418 14.3504 11.1481C14.2577 11.0545 14.1318 11.0013 14 11H13V10.5H13.7387C13.8048 10.5006 13.8703 10.4882 13.9316 10.4633C13.9928 10.4385 14.0485 10.4018 14.0954 10.3553C14.1424 10.3088 14.1796 10.2534 14.2051 10.1925C14.2305 10.1315 14.2436 10.0661 14.2436 9.99999C14.2436 9.93392 14.2305 9.86851 14.2051 9.80753C14.1796 9.74655 14.1424 9.69121 14.0954 9.64472C14.0485 9.59823 13.9928 9.5615 13.9316 9.53666C13.8703 9.51182 13.8048 9.49936 13.7387 9.5H13V8.99998H14Z" fill="#707070"/>
<path d="M11.125 9.00001C11.1911 9.00065 11.2566 8.98819 11.3178 8.96335C11.3791 8.93851 11.4348 8.90178 11.4817 8.85529C11.5286 8.80879 11.5659 8.75346 11.5913 8.69248C11.6168 8.6315 11.6299 8.56609 11.6299 8.50002C11.6299 8.43394 11.6168 8.36853 11.5913 8.30755C11.5659 8.24657 11.5286 8.19124 11.4817 8.14474C11.4348 8.09825 11.3791 8.06152 11.3178 8.03668C11.2566 8.01184 11.1911 7.99938 11.125 8.00002H9.62502C9.4924 8.00002 9.36522 8.0527 9.27145 8.14647C9.17768 8.24025 9.125 8.36743 9.125 8.50004V11.5C9.12501 11.6326 9.1777 11.7598 9.27147 11.8536C9.36524 11.9473 9.49241 12 9.62502 12H11.125C11.1911 12.0006 11.2566 11.9882 11.3178 11.9633C11.3791 11.9385 11.4348 11.9018 11.4817 11.8553C11.5286 11.8088 11.5659 11.7535 11.5913 11.6925C11.6168 11.6315 11.6299 11.5661 11.6299 11.5C11.6299 11.4339 11.6168 11.3685 11.5913 11.3075C11.5659 11.2466 11.5286 11.1912 11.4817 11.1447C11.4348 11.0983 11.3791 11.0615 11.3178 11.0367C11.2566 11.0118 11.1911 10.9994 11.125 11H10.125V10.5H10.8641C10.9301 10.5006 10.9957 10.4882 11.0569 10.4633C11.1181 10.4385 11.1738 10.4018 11.2208 10.3553C11.2677 10.3088 11.305 10.2535 11.3304 10.1925C11.3558 10.1315 11.3689 10.0661 11.3689 10C11.3689 9.93394 11.3558 9.86853 11.3304 9.80755C11.305 9.74657 11.2677 9.69124 11.2208 9.64474C11.1738 9.59825 11.1181 9.56152 11.0569 9.53668C10.9957 9.51184 10.9301 9.49938 10.8641 9.50002H10.125V9.00001H11.125Z" fill="#707070"/>
<path d="M0.500057 14H3.00004C3.13181 13.9987 3.25775 13.9455 3.35047 13.8518C3.4432 13.7582 3.49522 13.6318 3.49522 13.5C3.49522 13.3682 3.4432 13.2418 3.35047 13.1481C3.25775 13.0545 3.13181 13.0013 3.00004 13H0.500057C0.36829 13.0013 0.242352 13.0545 0.149626 13.1481C0.0569005 13.2418 0.00488281 13.3682 0.00488281 13.5C0.00488281 13.6318 0.0569005 13.7582 0.149626 13.8518C0.242352 13.9455 0.36829 13.9987 0.500057 14Z" fill="#707070"/>
</g>
<defs>
<clipPath id="clip0_1169_18843">
<rect width="24" height="24" fill="white"/>
</clipPath>
</defs>
</svg>
