
<svg width="232" height="31" viewBox="0 0 232 31" fill="none" xmlns="http://www.w3.org/2000/svg">
<rect y="0.5" width="232" height="30" rx="4" fill="#FFE812"/>
<path d="M82.5007 6.5C77.0562 6.5 72.6431 9.9426 72.6431 14.1898C72.6431 16.9356 74.4885 19.3448 77.2638 20.7055C77.1131 21.2204 76.2932 24.0196 76.261 24.24C76.261 24.24 76.2411 24.4051 76.3492 24.4679C76.4572 24.5307 76.5842 24.482 76.5842 24.482C76.8942 24.4388 80.1804 22.1553 80.7491 21.7586C81.3178 21.8384 81.9026 21.8796 82.4997 21.8796C87.9442 21.8796 92.3574 18.437 92.3574 14.1898C92.3574 9.9426 87.9442 6.5 82.4997 6.5H82.5007Z" fill="black"/>
<path d="M77.0508 16.8735C76.7371 16.8735 76.4821 16.6325 76.4821 16.3362V12.9939H75.5949C75.2869 12.9939 75.0366 12.7464 75.0366 12.4425C75.0366 12.1387 75.2869 11.8911 75.5949 11.8911H78.5067C78.8147 11.8911 79.065 12.1387 79.065 12.4425C79.065 12.7464 78.8147 12.9939 78.5067 12.9939H77.6195V16.3362C77.6195 16.6325 77.3645 16.8735 77.0508 16.8735Z" fill="#FFE812"/>
<path d="M82.0372 16.867C81.8002 16.867 81.6182 16.7714 81.5642 16.6185L81.2827 15.8889H79.5481L79.2666 16.6185C79.2126 16.7714 79.0306 16.867 78.7936 16.867C78.6685 16.867 78.5434 16.8398 78.4325 16.7892C78.2761 16.7179 78.1254 16.521 78.2979 15.9902L79.6581 12.4473C79.7538 12.1781 80.0448 11.9005 80.4154 11.8921C80.787 11.9005 81.078 12.1781 81.1737 12.4482L82.5339 15.9893C82.7073 16.521 82.5566 16.7179 82.3993 16.7892C82.2884 16.8398 82.1632 16.867 82.0381 16.867H82.0372ZM80.9832 14.8921L80.4154 13.295L79.8477 14.8921H80.9841H80.9832Z" fill="#FFE812"/>
<path d="M83.4483 16.792C83.1479 16.792 82.9033 16.5604 82.9033 16.2762V12.4548C82.9033 12.1444 83.164 11.8921 83.4834 11.8921C83.8028 11.8921 84.0635 12.1444 84.0635 12.4548V15.7604H85.272C85.5725 15.7604 85.817 15.9921 85.817 16.2762C85.817 16.5604 85.5725 16.792 85.272 16.792H83.4474H83.4483Z" fill="#FFE812"/>
<path d="M86.6078 16.867C86.294 16.867 86.0391 16.6148 86.0391 16.3044V12.4548C86.0391 12.1444 86.294 11.8921 86.6078 11.8921C86.9215 11.8921 87.1765 12.1444 87.1765 12.4548V13.6645L88.7632 12.0947C88.8447 12.014 88.9565 11.969 89.0788 11.969C89.221 11.969 89.3632 12.0299 89.4703 12.135C89.5698 12.2334 89.6295 12.36 89.6371 12.4913C89.6456 12.6236 89.6011 12.7455 89.512 12.8336L88.2163 14.1156L89.6162 15.9508C89.7082 16.0708 89.7461 16.219 89.7252 16.3681C89.7044 16.5172 89.6257 16.6485 89.5044 16.7395C89.4049 16.8136 89.2864 16.853 89.1622 16.853C88.9821 16.853 88.8163 16.7714 88.7082 16.6298L87.3746 14.8817L87.1774 15.0768V16.3044C87.1774 16.6148 86.9225 16.867 86.6087 16.867H86.6078Z" fill="#FFE812"/>
<path d="M98.4854 20.598C98.28 20.598 98.1214 20.542 98.0094 20.43C97.8974 20.3087 97.8414 20.1407 97.8414 19.926V11.19C97.8414 10.9753 97.8974 10.812 98.0094 10.7C98.1214 10.588 98.28 10.532 98.4854 10.532C98.7 10.532 98.8634 10.588 98.9754 10.7C99.0874 10.812 99.1434 10.9753 99.1434 11.19V15.096H99.1714L103.595 10.882C103.726 10.7607 103.847 10.672 103.959 10.616C104.081 10.56 104.211 10.532 104.351 10.532C104.547 10.532 104.687 10.5833 104.771 10.686C104.865 10.7793 104.902 10.896 104.883 11.036C104.865 11.1667 104.795 11.2927 104.673 11.414L100.053 15.754L100.067 15.096L104.897 19.632C105.047 19.772 105.126 19.9213 105.135 20.08C105.145 20.2293 105.098 20.3553 104.995 20.458C104.902 20.5513 104.757 20.598 104.561 20.598C104.403 20.598 104.267 20.5653 104.155 20.5C104.053 20.4347 103.931 20.332 103.791 20.192L99.1714 15.866H99.1434V19.926C99.1434 20.1407 99.0874 20.3087 98.9754 20.43C98.8727 20.542 98.7094 20.598 98.4854 20.598ZM108.716 20.626C108.25 20.626 107.825 20.5327 107.442 20.346C107.069 20.1593 106.775 19.9073 106.56 19.59C106.355 19.2727 106.252 18.918 106.252 18.526C106.252 18.022 106.378 17.6253 106.63 17.336C106.882 17.0467 107.307 16.8413 107.904 16.72C108.502 16.5893 109.304 16.524 110.312 16.524H110.97V17.336H110.34C109.622 17.336 109.052 17.3687 108.632 17.434C108.222 17.4993 107.932 17.616 107.764 17.784C107.596 17.9427 107.512 18.1667 107.512 18.456C107.512 18.82 107.638 19.1187 107.89 19.352C108.152 19.5853 108.506 19.702 108.954 19.702C109.309 19.702 109.622 19.618 109.892 19.45C110.163 19.2727 110.378 19.0393 110.536 18.75C110.695 18.4513 110.774 18.1107 110.774 17.728V16.118C110.774 15.5673 110.662 15.1707 110.438 14.928C110.214 14.676 109.836 14.55 109.304 14.55C108.996 14.55 108.679 14.592 108.352 14.676C108.026 14.76 107.685 14.8907 107.33 15.068C107.19 15.1333 107.069 15.1567 106.966 15.138C106.864 15.11 106.78 15.054 106.714 14.97C106.658 14.8767 106.626 14.7787 106.616 14.676C106.616 14.564 106.64 14.4567 106.686 14.354C106.742 14.2513 106.836 14.1767 106.966 14.13C107.377 13.9247 107.783 13.78 108.184 13.696C108.595 13.6027 108.978 13.556 109.332 13.556C109.939 13.556 110.438 13.654 110.83 13.85C111.222 14.0367 111.516 14.3307 111.712 14.732C111.908 15.124 112.006 15.628 112.006 16.244V19.94C112.006 20.1547 111.955 20.318 111.852 20.43C111.75 20.542 111.6 20.598 111.404 20.598C111.218 20.598 111.068 20.542 110.956 20.43C110.854 20.318 110.802 20.1547 110.802 19.94V18.946H110.928C110.854 19.2913 110.714 19.59 110.508 19.842C110.303 20.094 110.046 20.29 109.738 20.43C109.44 20.5607 109.099 20.626 108.716 20.626ZM114.641 20.598C114.445 20.598 114.291 20.542 114.179 20.43C114.067 20.318 114.011 20.1547 114.011 19.94V11.176C114.011 10.9613 114.067 10.8027 114.179 10.7C114.291 10.588 114.445 10.532 114.641 10.532C114.847 10.532 115.005 10.588 115.117 10.7C115.229 10.8027 115.285 10.9613 115.285 11.176V16.692H115.313L118.057 14.018C118.197 13.878 118.323 13.7707 118.435 13.696C118.547 13.6213 118.692 13.584 118.869 13.584C119.047 13.584 119.182 13.6307 119.275 13.724C119.369 13.808 119.415 13.92 119.415 14.06C119.415 14.1907 119.35 14.3213 119.219 14.452L116.307 17.28V16.65L119.485 19.716C119.616 19.8467 119.677 19.982 119.667 20.122C119.667 20.262 119.616 20.3787 119.513 20.472C119.42 20.556 119.294 20.598 119.135 20.598C118.949 20.598 118.795 20.5607 118.673 20.486C118.561 20.4113 118.431 20.2947 118.281 20.136L115.313 17.336H115.285V19.94C115.285 20.3787 115.071 20.598 114.641 20.598ZM123.222 20.626C122.756 20.626 122.331 20.5327 121.948 20.346C121.575 20.1593 121.281 19.9073 121.066 19.59C120.861 19.2727 120.758 18.918 120.758 18.526C120.758 18.022 120.884 17.6253 121.136 17.336C121.388 17.0467 121.813 16.8413 122.41 16.72C123.008 16.5893 123.81 16.524 124.818 16.524H125.476V17.336H124.846C124.128 17.336 123.558 17.3687 123.138 17.434C122.728 17.4993 122.438 17.616 122.27 17.784C122.102 17.9427 122.018 18.1667 122.018 18.456C122.018 18.82 122.144 19.1187 122.396 19.352C122.658 19.5853 123.012 19.702 123.46 19.702C123.815 19.702 124.128 19.618 124.398 19.45C124.669 19.2727 124.884 19.0393 125.042 18.75C125.201 18.4513 125.28 18.1107 125.28 17.728V16.118C125.28 15.5673 125.168 15.1707 124.944 14.928C124.72 14.676 124.342 14.55 123.81 14.55C123.502 14.55 123.185 14.592 122.858 14.676C122.532 14.76 122.191 14.8907 121.836 15.068C121.696 15.1333 121.575 15.1567 121.472 15.138C121.37 15.11 121.286 15.054 121.22 14.97C121.164 14.8767 121.132 14.7787 121.122 14.676C121.122 14.564 121.146 14.4567 121.192 14.354C121.248 14.2513 121.342 14.1767 121.472 14.13C121.883 13.9247 122.289 13.78 122.69 13.696C123.101 13.6027 123.484 13.556 123.838 13.556C124.445 13.556 124.944 13.654 125.336 13.85C125.728 14.0367 126.022 14.3307 126.218 14.732C126.414 15.124 126.512 15.628 126.512 16.244V19.94C126.512 20.1547 126.461 20.318 126.358 20.43C126.256 20.542 126.106 20.598 125.91 20.598C125.724 20.598 125.574 20.542 125.462 20.43C125.36 20.318 125.308 20.1547 125.308 19.94V18.946H125.434C125.36 19.2913 125.22 19.59 125.014 19.842C124.809 20.094 124.552 20.29 124.244 20.43C123.946 20.5607 123.605 20.626 123.222 20.626ZM131.415 20.626C130.743 20.626 130.16 20.4813 129.665 20.192C129.17 19.9027 128.788 19.492 128.517 18.96C128.246 18.428 128.111 17.8027 128.111 17.084C128.111 16.5427 128.186 16.0573 128.335 15.628C128.494 15.1893 128.718 14.816 129.007 14.508C129.296 14.2 129.642 13.9667 130.043 13.808C130.454 13.64 130.911 13.556 131.415 13.556C132.087 13.556 132.67 13.7007 133.165 13.99C133.66 14.2793 134.042 14.69 134.313 15.222C134.584 15.7447 134.719 16.3653 134.719 17.084C134.719 17.6253 134.64 18.1153 134.481 18.554C134.332 18.9927 134.112 19.366 133.823 19.674C133.534 19.982 133.184 20.22 132.773 20.388C132.372 20.5467 131.919 20.626 131.415 20.626ZM131.415 19.618C131.826 19.618 132.18 19.52 132.479 19.324C132.787 19.128 133.02 18.8433 133.179 18.47C133.347 18.0967 133.431 17.6347 133.431 17.084C133.431 16.2627 133.249 15.6373 132.885 15.208C132.521 14.7787 132.031 14.564 131.415 14.564C131.014 14.564 130.659 14.662 130.351 14.858C130.052 15.0447 129.819 15.3247 129.651 15.698C129.483 16.0713 129.399 16.5333 129.399 17.084C129.399 17.9053 129.581 18.5353 129.945 18.974C130.318 19.4033 130.808 19.618 131.415 19.618ZM139.111 20.626C138.56 20.626 138.098 20.528 137.725 20.332C137.361 20.136 137.085 19.8513 136.899 19.478C136.721 19.1047 136.633 18.6473 136.633 18.106V14.662H135.737C135.569 14.662 135.438 14.62 135.345 14.536C135.251 14.4427 135.205 14.3213 135.205 14.172C135.205 14.0133 135.251 13.892 135.345 13.808C135.438 13.724 135.569 13.682 135.737 13.682H136.633V12.156C136.633 11.9413 136.689 11.7827 136.801 11.68C136.913 11.568 137.071 11.512 137.277 11.512C137.482 11.512 137.636 11.568 137.739 11.68C137.851 11.7827 137.907 11.9413 137.907 12.156V13.682H139.601C139.778 13.682 139.913 13.724 140.007 13.808C140.1 13.892 140.147 14.0133 140.147 14.172C140.147 14.3213 140.1 14.4427 140.007 14.536C139.913 14.62 139.778 14.662 139.601 14.662H137.907V17.994C137.907 18.5073 138.014 18.8947 138.229 19.156C138.443 19.4173 138.798 19.548 139.293 19.548C139.47 19.548 139.619 19.534 139.741 19.506C139.862 19.4687 139.969 19.45 140.063 19.45C140.147 19.4407 140.217 19.4687 140.273 19.534C140.338 19.5993 140.371 19.7207 140.371 19.898C140.371 20.0287 140.347 20.15 140.301 20.262C140.263 20.3647 140.184 20.4347 140.063 20.472C139.951 20.5093 139.801 20.542 139.615 20.57C139.428 20.6073 139.26 20.626 139.111 20.626ZM143.47 20.626C143.004 20.626 142.579 20.5327 142.196 20.346C141.823 20.1593 141.529 19.9073 141.314 19.59C141.109 19.2727 141.006 18.918 141.006 18.526C141.006 18.022 141.132 17.6253 141.384 17.336C141.636 17.0467 142.061 16.8413 142.658 16.72C143.256 16.5893 144.058 16.524 145.066 16.524H145.724V17.336H145.094C144.376 17.336 143.806 17.3687 143.386 17.434C142.976 17.4993 142.686 17.616 142.518 17.784C142.35 17.9427 142.266 18.1667 142.266 18.456C142.266 18.82 142.392 19.1187 142.644 19.352C142.906 19.5853 143.26 19.702 143.708 19.702C144.063 19.702 144.376 19.618 144.646 19.45C144.917 19.2727 145.132 19.0393 145.29 18.75C145.449 18.4513 145.528 18.1107 145.528 17.728V16.118C145.528 15.5673 145.416 15.1707 145.192 14.928C144.968 14.676 144.59 14.55 144.058 14.55C143.75 14.55 143.433 14.592 143.106 14.676C142.78 14.76 142.439 14.8907 142.084 15.068C141.944 15.1333 141.823 15.1567 141.72 15.138C141.618 15.11 141.534 15.054 141.468 14.97C141.412 14.8767 141.38 14.7787 141.37 14.676C141.37 14.564 141.394 14.4567 141.44 14.354C141.496 14.2513 141.59 14.1767 141.72 14.13C142.131 13.9247 142.537 13.78 142.938 13.696C143.349 13.6027 143.732 13.556 144.086 13.556C144.693 13.556 145.192 13.654 145.584 13.85C145.976 14.0367 146.27 14.3307 146.466 14.732C146.662 15.124 146.76 15.628 146.76 16.244V19.94C146.76 20.1547 146.709 20.318 146.606 20.43C146.504 20.542 146.354 20.598 146.158 20.598C145.972 20.598 145.822 20.542 145.71 20.43C145.608 20.318 145.556 20.1547 145.556 19.94V18.946H145.682C145.608 19.2913 145.468 19.59 145.262 19.842C145.057 20.094 144.8 20.29 144.492 20.43C144.194 20.5607 143.853 20.626 143.47 20.626ZM150.907 20.626C150.207 20.626 149.675 20.4207 149.311 20.01C148.947 19.59 148.765 18.988 148.765 18.204V11.176C148.765 10.9613 148.821 10.8027 148.933 10.7C149.045 10.588 149.199 10.532 149.395 10.532C149.6 10.532 149.759 10.588 149.871 10.7C149.983 10.8027 150.039 10.9613 150.039 11.176V18.106C150.039 18.5913 150.137 18.9553 150.333 19.198C150.538 19.4313 150.828 19.548 151.201 19.548C151.285 19.548 151.36 19.548 151.425 19.548C151.49 19.5387 151.556 19.5293 151.621 19.52C151.724 19.5107 151.798 19.5387 151.845 19.604C151.892 19.6693 151.915 19.8 151.915 19.996C151.915 20.1733 151.873 20.3133 151.789 20.416C151.714 20.5093 151.588 20.57 151.411 20.598C151.327 20.6073 151.243 20.612 151.159 20.612C151.075 20.6213 150.991 20.626 150.907 20.626ZM153.606 20.598C153.41 20.598 153.256 20.542 153.144 20.43C153.032 20.318 152.976 20.1547 152.976 19.94V11.176C152.976 10.9613 153.032 10.8027 153.144 10.7C153.256 10.588 153.41 10.532 153.606 10.532C153.811 10.532 153.97 10.588 154.082 10.7C154.194 10.8027 154.25 10.9613 154.25 11.176V16.692H154.278L157.022 14.018C157.162 13.878 157.288 13.7707 157.4 13.696C157.512 13.6213 157.657 13.584 157.834 13.584C158.011 13.584 158.147 13.6307 158.24 13.724C158.333 13.808 158.38 13.92 158.38 14.06C158.38 14.1907 158.315 14.3213 158.184 14.452L155.272 17.28V16.65L158.45 19.716C158.581 19.8467 158.641 19.982 158.632 20.122C158.632 20.262 158.581 20.3787 158.478 20.472C158.385 20.556 158.259 20.598 158.1 20.598C157.913 20.598 157.759 20.5607 157.638 20.486C157.526 20.4113 157.395 20.2947 157.246 20.136L154.278 17.336H154.25V19.94C154.25 20.3787 154.035 20.598 153.606 20.598Z" fill="black"/>
</svg>
