
<svg width="33" height="30" viewBox="0 0 33 30" fill="none" xmlns="http://www.w3.org/2000/svg">
<path d="M16.6051 0C7.54941 0 0.208984 5.73766 0.208984 12.8163C0.208984 17.3927 3.27853 21.408 7.89467 23.6759C7.644 24.5339 6.28028 29.1994 6.22668 29.5667C6.22668 29.5667 6.19357 29.8418 6.3733 29.9465C6.55303 30.0512 6.76429 29.9699 6.76429 29.9699C7.27982 29.898 12.7457 26.0922 13.6917 25.4311C14.6376 25.5639 15.6103 25.6327 16.6035 25.6327C25.6593 25.6327 32.9997 19.895 32.9997 12.8163C32.9997 5.73766 25.6593 0 16.6035 0H16.6051Z" fill="black"/>
<path d="M7.53963 17.2897C7.01779 17.2897 6.59369 16.888 6.59369 16.3941V10.8236H5.11804C4.60566 10.8236 4.18945 10.411 4.18945 9.90462C4.18945 9.39822 4.60566 8.9856 5.11804 8.9856H9.96121C10.4736 8.9856 10.8898 9.39822 10.8898 9.90462C10.8898 10.411 10.4736 10.8236 9.96121 10.8236H8.48556V16.3941C8.48556 16.888 8.06146 17.2897 7.53963 17.2897Z" fill="#FFE812"/>
<path d="M15.8335 17.2786C15.4393 17.2786 15.1366 17.1192 15.0468 16.8644L14.5785 15.6484H11.6934L11.2252 16.8644C11.1353 17.1192 10.8326 17.2786 10.4385 17.2786C10.2304 17.2786 10.0223 17.2333 9.83783 17.1489C9.5777 17.0301 9.32702 16.7019 9.61396 15.8172L11.8763 9.91234C12.0355 9.46377 12.5195 9.00113 13.136 8.98706C13.754 9.00113 14.238 9.46377 14.3972 9.9139L16.6596 15.8157C16.9481 16.7019 16.6974 17.0301 16.4357 17.1489C16.2512 17.2333 16.0431 17.2786 15.835 17.2786H15.8335ZM14.0803 13.987L13.136 11.3253L12.1916 13.987H14.0819H14.0803Z" fill="#FFE812"/>
<path d="M18.1819 17.1536C17.6821 17.1536 17.2754 16.7675 17.2754 16.2939V9.92484C17.2754 9.4075 17.7089 8.98706 18.2402 8.98706C18.7715 8.98706 19.2051 9.4075 19.2051 9.92484V15.4343H21.2152C21.715 15.4343 22.1217 15.8204 22.1217 16.2939C22.1217 16.7675 21.715 17.1536 21.2152 17.1536H18.1803H18.1819Z" fill="#FFE812"/>
<path d="M23.4362 17.2786C22.9143 17.2786 22.4902 16.8582 22.4902 16.3408V9.92484C22.4902 9.4075 22.9143 8.98706 23.4362 8.98706C23.958 8.98706 24.3821 9.4075 24.3821 9.92484V11.9411L27.0212 9.32466C27.1568 9.19025 27.3429 9.11522 27.5462 9.11522C27.7827 9.11522 28.0192 9.21682 28.1974 9.39187C28.3629 9.55598 28.4622 9.76698 28.4748 9.9858C28.489 10.2062 28.4149 10.4094 28.2667 10.5563L26.1116 12.6929L28.4401 15.7516C28.5931 15.9517 28.6561 16.1986 28.6214 16.4471C28.5868 16.6956 28.4559 16.9144 28.2541 17.066C28.0886 17.1895 27.8915 17.2552 27.685 17.2552C27.3854 17.2552 27.1095 17.1192 26.9298 16.8832L24.7116 13.9698L24.3837 14.2949V16.3408C24.3837 16.8582 23.9596 17.2786 23.4377 17.2786H23.4362Z" fill="#FFE812"/>
</svg>
