<svg width="25" height="24" viewBox="0 0 25 24" fill="none" xmlns="http://www.w3.org/2000/svg">
<path d="M20.6798 6.41452C20.2315 5.96607 19.6993 5.61034 19.1136 5.36763C18.5278 5.12492 17.9 5 17.266 5C16.6319 5 16.0041 5.12492 15.4183 5.36763C14.8326 5.61034 14.3004 5.96607 13.8522 6.41452L12.9219 7.34476L11.9917 6.41452C11.0863 5.50912 9.85828 5.00047 8.57786 5.00047C7.29743 5.00047 6.06945 5.50912 5.16405 6.41452C4.25865 7.31992 3.75 8.5479 3.75 9.82833C3.75 11.1088 4.25865 12.3367 5.16405 13.2421L6.09429 14.1724L12.9219 21L19.7495 14.1724L20.6798 13.2421C21.1282 12.7939 21.4839 12.2617 21.7267 11.676C21.9694 11.0902 22.0943 10.4624 22.0943 9.82833C22.0943 9.19428 21.9694 8.56645 21.7267 7.9807C21.4839 7.39494 21.1282 6.86275 20.6798 6.41452Z" stroke="#8C8C8C" stroke-width="1.5" stroke-linecap="round" stroke-linejoin="round"/>
</svg>
