
<svg width="41" height="40" viewBox="0 0 41 40" fill="none" xmlns="http://www.w3.org/2000/svg">
<rect x="1.25" y="0.75" width="38.5" height="38.5" rx="19.25" fill="white"/>
<rect x="1.25" y="0.75" width="38.5" height="38.5" rx="19.25" stroke="#282828" stroke-width="1.5"/>
<path d="M28.4298 14.4145C27.9815 13.9661 27.4493 13.6103 26.8636 13.3676C26.2778 13.1249 25.65 13 25.016 13C24.3819 13 23.7541 13.1249 23.1683 13.3676C22.5826 13.6103 22.0504 13.9661 21.6022 14.4145L20.6719 15.3448L19.7417 14.4145C18.8363 13.5091 17.6083 13.0005 16.3279 13.0005C15.0474 13.0005 13.8194 13.5091 12.914 14.4145C12.0086 15.3199 11.5 16.5479 11.5 17.8283C11.5 19.1088 12.0086 20.3367 12.914 21.2421L13.8443 22.1724L20.6719 29L27.4995 22.1724L28.4298 21.2421C28.8782 20.7939 29.2339 20.2617 29.4767 19.676C29.7194 19.0902 29.8443 18.4624 29.8443 17.8283C29.8443 17.1943 29.7194 16.5664 29.4767 15.9807C29.2339 15.3949 28.8782 14.8627 28.4298 14.4145Z" stroke="#282828" stroke-width="1.5" stroke-linecap="round" stroke-linejoin="round"/>
</svg>
