<svg width="30" height="30" viewBox="0 0 30 30" fill="none" xmlns="http://www.w3.org/2000/svg">
<rect width="30" height="30" rx="15" fill="#EEE2CC"/>
<path d="M21 15C21 15.2652 20.8946 15.5196 20.7071 15.7071C20.5196 15.8946 20.2652 16 20 16C19.7348 16 19.4804 15.8946 19.2929 15.7071C19.1054 15.5196 19 15.2652 19 15C19 14.7348 19.1054 14.4804 19.2929 14.2929C19.4804 14.1054 19.7348 14 20 14C20.2652 14 20.5196 14.1054 20.7071 14.2929C20.8946 14.4804 21 14.7348 21 15Z" fill="#282828"/>
<path fill-rule="evenodd" clip-rule="evenodd" d="M13.2787 7H15.8841C17.4229 7 18.6419 7 19.5954 7.13989C20.5767 7.28434 21.3712 7.58789 21.9982 8.27177C22.7718 9.11749 23.0188 10.2494 23.1084 11.7186C23.5914 11.9499 23.9565 12.4409 23.9958 13.0626C24 13.1184 24 13.1778 24 13.2327V16.7673C24 16.8222 24 16.8816 23.9967 16.9365C23.9565 17.5582 23.5914 18.0501 23.1084 18.2823C23.0188 19.7506 22.7718 20.8825 21.9982 21.7282C21.3712 22.4121 20.5767 22.7157 19.5954 22.8601C18.641 23 17.4229 23 15.8841 23H13.2787C11.7399 23 10.5209 23 9.56735 22.8601C8.58614 22.7157 7.79163 22.4121 7.16456 21.7282C6.53833 21.0434 6.26037 20.1758 6.12809 19.1042C6 18.0619 6 16.7317 6 15.0512V14.9488C6 13.2683 6 11.9371 6.12809 10.8958C6.26037 9.82423 6.53833 8.95657 7.16456 8.27177C7.79163 7.58789 8.58614 7.28434 9.56735 7.13989C10.5218 7 11.7399 7 13.2787 7ZM21.8383 18.4286H20.2158C18.42 18.4286 16.8829 16.9401 16.8829 15C16.8829 13.0599 18.42 11.5714 20.215 11.5714H21.8375C21.742 10.3454 21.5269 9.69714 21.1091 9.24183C20.755 8.85509 20.2694 8.62286 19.4272 8.49943C18.5673 8.37326 17.4329 8.37143 15.8364 8.37143H13.3247C11.7282 8.37143 10.5946 8.37326 9.73312 8.49943C8.89172 8.62286 8.40614 8.85509 8.052 9.24183C7.69786 9.62857 7.48605 10.1589 7.37302 11.0777C7.25749 12.0176 7.25581 13.2555 7.25581 14.9991C7.25581 16.7426 7.25749 17.9815 7.37302 18.9214C7.48605 19.8402 7.6987 20.3705 8.05284 20.7573C8.40698 21.144 8.89256 21.3762 9.73479 21.4997C10.5954 21.6258 11.729 21.6277 13.3256 21.6277H15.8372C17.4338 21.6277 18.5682 21.6258 19.4288 21.4997C20.2702 21.3762 20.7558 21.144 21.11 20.7573C21.5277 20.3019 21.7429 19.6546 21.8383 18.4277M9.34884 11.3429C9.34884 11.161 9.41499 10.9866 9.53275 10.858C9.6505 10.7294 9.81021 10.6571 9.97674 10.6571H13.3256C13.4921 10.6571 13.6518 10.7294 13.7696 10.858C13.8873 10.9866 13.9535 11.161 13.9535 11.3429C13.9535 11.5247 13.8873 11.6991 13.7696 11.8277C13.6518 11.9563 13.4921 12.0286 13.3256 12.0286H9.97674C9.81021 12.0286 9.6505 11.9563 9.53275 11.8277C9.41499 11.6991 9.34884 11.5247 9.34884 11.3429ZM22.4713 12.9429H20.2158C19.0236 12.9429 18.1387 13.9111 18.1387 15C18.1387 16.0889 19.0236 17.0571 20.215 17.0571H22.4905C22.663 17.0453 22.7375 16.9182 22.7433 16.8414V13.1586C22.7375 13.0818 22.663 12.9547 22.4905 12.9438L22.4713 12.9429Z" fill="#282828"/>
</svg>
