
<svg width="59" height="30" viewBox="0 0 59 30" fill="none" xmlns="http://www.w3.org/2000/svg">
<path d="M15.5 29.0625C23.2665 29.0625 29.5625 22.7665 29.5625 15C29.5625 7.2335 23.2665 0.9375 15.5 0.9375C7.7335 0.9375 1.4375 7.2335 1.4375 15C1.4375 22.7665 7.7335 29.0625 15.5 29.0625Z" fill="#EFEFEF"/>
<path d="M11.4687 15.797C12.7812 16.6876 14.6094 16.3126 15.5 15.0001C16.3906 13.6876 18.1719 13.3126 19.5312 14.2032C20.7969 15.047 21.1719 16.6876 20.4687 17.9532C22.0156 15.3282 21.3125 11.9064 18.6875 10.172C16.0156 8.39075 12.4062 9.09387 10.625 11.7657C10.5781 11.8595 10.5312 11.9532 10.4844 12.0001C9.82812 13.3595 10.25 14.9532 11.4687 15.797Z" fill="#ED4C5C"/>
<path d="M19.5312 14.2031C18.2187 13.3125 16.3906 13.6875 15.5 15C14.6093 16.3125 12.8281 16.6875 11.4687 15.7969C10.2031 14.9531 9.82809 13.3125 10.5312 12.0469C8.93747 14.6719 9.68747 18.0937 12.3125 19.8281C14.9843 21.6094 18.5937 20.9063 20.375 18.2344C20.4218 18.1406 20.4687 18.0469 20.5156 18C21.1718 16.6406 20.75 15.0469 19.5312 14.2031Z" fill="#428BC1"/>
<path d="M4.15625 10.9219L7.39062 6.09375L7.0625 5.85937L6.73438 5.67188L3.5 10.5L3.82812 10.6875L4.15625 10.9219ZM5.04687 11.5312L5.375 11.7188L8.5625 6.89062L8.28125 6.70312L7.95312 6.46875L4.71875 11.2969L5.04687 11.5312ZM9.125 7.26562L5.9375 12.0937L6.26562 12.3281L6.59375 12.5156L9.78125 7.6875L9.45313 7.5L9.125 7.26562ZM23.2344 19.9219L23.5625 20.1562L25.0625 17.9062L24.7344 17.6719L24.4062 17.4844L22.9062 19.7344L23.2344 19.9219ZM26.8438 19.0781L25.3438 21.3281L25.6719 21.5625L26 21.75L27.5 19.5L27.1719 19.3125L26.8438 19.0781ZM24.7812 20.9531L26.2812 18.7031L25.9531 18.4688L25.625 18.2812L24.125 20.5312L24.4531 20.7187L24.7812 20.9531ZM23.0469 20.25L22.7188 20.0625L21.2188 22.3125L21.5469 22.5L21.875 22.7344L23.375 20.4844L23.0469 20.25ZM24.2187 21.0469L23.9375 20.8594L22.4375 23.1094L22.7188 23.2969L23.0469 23.5312L24.5469 21.2813L24.2187 21.0469ZM25.1094 21.6562L23.6094 23.9062L23.9375 24.1406L24.2656 24.3281L25.7656 22.0781L25.4375 21.8438L25.1094 21.6562ZM3.82812 19.3125L3.5 19.5L6.73438 24.3281L7.0625 24.1406L7.39062 23.9062L4.15625 19.0781L3.82812 19.3125ZM6.78125 21.0469L6.45312 21.2813L7.95312 23.5312L8.28125 23.2969L8.5625 23.1094L7.0625 20.8594L6.78125 21.0469ZM6.26562 17.6719L5.9375 17.9062L9.125 22.7344L9.45313 22.5L9.78125 22.3125L6.59375 17.4844L6.26562 17.6719ZM4.71875 18.7031L6.21875 20.9531L6.54687 20.7187L6.875 20.5312L5.375 18.2812L5.04687 18.4688L4.71875 18.7031ZM25.4375 8.15625L25.7656 7.92187L24.2656 5.67188L23.9375 5.85937L23.6094 6.09375L25.1094 8.34375L25.4375 8.15625ZM23.0469 9.75L23.375 9.51562L21.875 7.26562L21.5469 7.5L21.2188 7.6875L22.7188 9.9375L23.0469 9.75ZM25.3438 8.67187L26.8438 10.9219L27.1719 10.6875L27.5 10.5L26 8.25L25.6719 8.4375L25.3438 8.67187ZM25.9531 11.5312L26.2812 11.2969L23.0469 6.46875L22.7188 6.70312L22.4375 6.89062L25.625 11.7188L25.9531 11.5312ZM24.7344 12.3281L25.0625 12.0937L23.5625 9.84375L23.2344 10.0781L22.9062 10.2656L24.4062 12.5156L24.7344 12.3281Z" fill="#3E4347"/>
<path d="M41.5 13L46.5 18L51.5 13" fill="#3B3B3B"/>
</svg>
