<svg width="24" height="24" viewBox="0 0 24 24" fill="none" xmlns="http://www.w3.org/2000/svg">
<path d="M16.3994 2.57087C15.9744 2.20074 15.4197 2.0146 14.8575 2.05341C14.2952 2.09221 13.7714 2.35278 13.4013 2.77779L3.05761 14.6551C2.68748 15.0801 2.50134 15.6347 2.54015 16.197C2.57895 16.7592 2.83952 17.283 3.26453 17.6532L7.60069 21.4294C8.0257 21.7996 8.58033 21.9857 9.14258 21.9469C9.70483 21.9081 10.2286 21.6475 10.5988 21.2225L20.9425 9.34521C21.3126 8.9202 21.4987 8.36557 21.4599 7.80332C21.4211 7.24107 21.1605 6.71727 20.7355 6.34714L16.3994 2.57087ZM12.8663 5.29547L14.4688 6.69105C14.5938 6.79991 14.7569 6.85466 14.9223 6.84325C15.0876 6.83183 15.2417 6.7552 15.3506 6.63019C15.4594 6.50519 15.5142 6.34206 15.5027 6.1767C15.4913 6.01133 15.4147 5.85727 15.2897 5.74841L13.6872 4.35283L14.3439 3.59872C14.6611 3.23448 15.2142 3.19631 15.5784 3.51351L19.9146 7.28978C20.2788 7.60699 20.317 8.16004 19.9998 8.52428L9.65612 20.4016C9.50371 20.5766 9.28802 20.6839 9.05651 20.6999C8.825 20.7159 8.59662 20.6392 8.42162 20.4868L4.08545 16.7105C3.91045 16.5581 3.80316 16.3424 3.78718 16.1109C3.7712 15.8794 3.84784 15.651 4.00025 15.476L4.65699 14.7219L6.25949 16.1175C6.38449 16.2264 6.54762 16.2811 6.71299 16.2697C6.87835 16.2583 7.03241 16.1816 7.14127 16.0566C7.25014 15.9316 7.30488 15.7685 7.29347 15.6031C7.28206 15.4378 7.20542 15.2837 7.08042 15.1748L5.47792 13.7793L6.70931 12.3653L9.82004 15.0744C9.94504 15.1832 10.1082 15.238 10.2735 15.2266C10.4389 15.2151 10.593 15.1385 10.7018 15.0135C10.8107 14.8885 10.8654 14.7254 10.854 14.56C10.8426 14.3946 10.766 14.2406 10.641 14.1317L7.53024 11.4227L8.76163 10.0087L10.3641 11.4043C10.4891 11.5131 10.6523 11.5679 10.8176 11.5565C10.983 11.5451 11.1371 11.4684 11.2459 11.3434C11.3548 11.2184 11.4095 11.0553 11.3981 10.8899C11.3867 10.7245 11.3101 10.5705 11.1851 10.4616L9.58256 9.06605L10.814 7.65208L13.9247 10.3611C14.0497 10.47 14.2128 10.5248 14.3782 10.5133C14.5435 10.5019 14.6976 10.4253 14.8065 10.3003C14.9153 10.1753 14.9701 10.0122 14.9587 9.84679C14.9472 9.68142 14.8706 9.52736 14.7456 9.4185L11.6349 6.70944L12.8663 5.29547Z" fill="#282828"/>
</svg>
