
<svg width="23" height="45" viewBox="0 0 23 45" fill="none" xmlns="http://www.w3.org/2000/svg">
<path d="M8.83333 3C8.83333 4.47276 10.0272 5.66667 11.5 5.66667C12.9728 5.66667 14.1667 4.47276 14.1667 3C14.1667 1.52724 12.9728 0.333333 11.5 0.333333C10.0272 0.333333 8.83333 1.52724 8.83333 3ZM11.5 45L14.3868 40L8.61325 40L11.5 45ZM11 3L11 3.95455L12 3.95455L12 3L11 3ZM11 5.86364L11 7.77273L12 7.77273L12 5.86364L11 5.86364ZM11 9.68182L11 11.5909L12 11.5909L12 9.68182L11 9.68182ZM11 13.5L11 15.4091L12 15.4091L12 13.5L11 13.5ZM11 17.3182L11 19.2273L12 19.2273L12 17.3182L11 17.3182ZM11 21.1364L11 23.0455L12 23.0455L12 21.1364L11 21.1364ZM11 24.9545L11 26.8636L12 26.8636L12 24.9545L11 24.9545ZM11 28.7727L11 30.6818L12 30.6818L12 28.7727L11 28.7727ZM11 32.5909L11 34.5L12 34.5L12 32.5909L11 32.5909ZM11 36.4091L11 38.3182L12 38.3182L12 36.4091L11 36.4091ZM11 40.2273L11 42.1364L12 42.1364L12 40.2273L11 40.2273Z" fill="#8C8C8C"/>
</svg>
