<svg width="40" height="40" viewBox="0 0 40 40" fill="none" xmlns="http://www.w3.org/2000/svg">
<rect width="40" height="40" rx="20" fill="#EFEFEF"/>
<path d="M16 31C16.5523 31 17 30.5523 17 30C17 29.4477 16.5523 29 16 29C15.4477 29 15 29.4477 15 30C15 30.5523 15.4477 31 16 31Z" fill="#282828"/>
<path d="M25 31C25.5523 31 26 30.5523 26 30C26 29.4477 25.5523 29 25 29C24.4477 29 24 29.4477 24 30C24 30.5523 24.4477 31 25 31Z" fill="#282828"/>
<path d="M9 13H12.6364L15.0727 25.497C15.1559 25.9267 15.3836 26.3127 15.716 26.5874C16.0483 26.8621 16.4643 27.0081 16.8909 26.9997H25.7273C26.1539 27.0081 26.5698 26.8621 26.9022 26.5874C27.2346 26.3127 27.4623 25.9267 27.5455 25.497L29 17.6666H13.5455" stroke="#282828" stroke-width="1.5" stroke-linecap="round" stroke-linejoin="round"/>
</svg>
