<svg width="24" height="24" viewBox="0 0 24 24" fill="none" xmlns="http://www.w3.org/2000/svg">
<path d="M7.5527 10.1846C7.36626 10.1846 7.20054 10.258 7.07625 10.3945C6.9416 10.5309 6.87946 10.6988 6.87946 10.8982C6.87946 11.0976 6.9416 11.255 7.07625 11.402C7.2109 11.5384 7.36626 11.6119 7.5527 11.6119C7.73913 11.6119 7.90486 11.5384 8.0395 11.402C8.17415 11.2655 8.24666 11.0976 8.24666 10.8982C8.24666 10.6988 8.17415 10.5309 8.0395 10.3945C7.90486 10.2475 7.74949 10.1846 7.5527 10.1846Z" fill="#707070"/>
<path d="M13.3632 10.1738C13.1768 10.1738 13.0111 10.2473 12.8868 10.3837C12.7521 10.5202 12.69 10.6881 12.69 10.8875C12.69 11.0869 12.7521 11.2443 12.8868 11.3912C13.0214 11.5277 13.1768 11.6011 13.3632 11.6011C13.5497 11.6011 13.7154 11.5277 13.8501 11.3912C13.9847 11.2548 14.0572 11.0869 14.0572 10.8875C14.0572 10.6881 13.9847 10.5306 13.8501 10.3837C13.7258 10.2368 13.56 10.1738 13.3632 10.1738Z" fill="#707070"/>
<path d="M17.2474 10.1846C17.061 10.1846 16.8952 10.258 16.771 10.3945C16.6363 10.5309 16.5742 10.6988 16.5742 10.8982C16.5742 11.0976 16.6363 11.255 16.771 11.402C16.9056 11.5384 17.061 11.6119 17.2474 11.6119C17.4338 11.6119 17.5996 11.5384 17.7342 11.402C17.8689 11.2655 17.9414 11.0976 17.9414 10.8982C17.9414 10.6988 17.8689 10.5309 17.7342 10.3945C17.5996 10.2475 17.4338 10.1846 17.2474 10.1846Z" fill="#707070"/>
<path d="M18.9667 5H5.83329C4.82861 5 4 5.83958 4 6.85757V14.3823C4 15.4003 4.82861 16.2399 5.83329 16.2399H10.9914C10.9914 16.2399 11.9857 19 12.3482 19C12.7107 19 13.7879 16.2399 13.7879 16.2399H18.9667C19.9714 16.2399 20.8 15.4003 20.8 14.3823V6.85757C20.8 5.83958 19.9714 5 18.9667 5ZM8.87842 11.9475C8.61948 12.2414 8.21554 12.3673 7.78052 12.3673C7.38693 12.3673 7.09692 12.2519 6.88977 12.084H6.87941V12.2939H5.89544V7.93853H6.87941V9.6072H6.90012C7.16942 9.37631 7.52158 9.30285 7.93588 9.28186C8.28804 9.27136 8.66091 9.49175 8.88878 9.75412C9.10629 10.0165 9.27201 10.4258 9.27201 10.8771C9.27201 11.3703 9.14772 11.6537 8.87842 11.9475ZM11.0017 12.3358H9.99704C9.99704 12.3358 9.99704 10.048 9.99704 9.63868C9.99704 9.01949 9.51023 8.93553 9.51023 8.93553V7.85457C9.51023 7.85457 10.9189 7.93853 11.0017 9.67017C11.0017 10.1634 11.0017 12.3358 11.0017 12.3358ZM14.948 11.5067C14.8651 11.7061 14.7408 11.8741 14.5751 12.0315C14.4197 12.1784 14.2333 12.2939 14.0261 12.3778C13.819 12.4618 13.6015 12.5037 13.3736 12.5037C13.1457 12.5037 12.9282 12.4618 12.7314 12.3778C12.5243 12.2939 12.3379 12.1784 12.1825 12.0315C12.0168 11.8741 11.8925 11.6957 11.8096 11.5067C11.7268 11.3178 11.6853 11.1079 11.6853 10.8876C11.6853 10.6672 11.7268 10.4678 11.8096 10.2684C11.8925 10.0795 12.0168 9.90105 12.1825 9.74363C12.3482 9.5967 12.5243 9.48126 12.7314 9.3973C12.9386 9.31334 13.1561 9.27136 13.3736 9.27136C13.6015 9.27136 13.819 9.31334 14.0261 9.3973C14.2333 9.48126 14.4197 9.5967 14.5751 9.74363C14.7408 9.90105 14.8547 10.069 14.948 10.2684C15.0308 10.4678 15.0723 10.6672 15.0723 10.8876C15.0723 11.1079 15.0308 11.3073 14.948 11.5067ZM18.9046 11.937C18.9046 12.7031 18.7596 13.1649 18.4281 13.4903C18.0242 13.8786 17.4545 13.8995 16.9781 13.8366V13.0495C17.382 13.0915 17.9309 12.8186 17.9309 12.2939V12.0945H17.9206C17.6927 12.4093 17.3716 12.5247 16.9263 12.5247C16.5223 12.5247 16.1702 12.3778 15.9319 12.0945C15.6937 11.8111 15.5798 11.4333 15.5798 10.961C15.5798 10.4258 15.7144 10.006 15.9734 9.69115C16.2427 9.37631 16.6155 9.22938 17.0506 9.22938C17.4338 9.22938 17.6824 9.32384 17.9206 9.54423H17.9309V9.30285H18.9149V11.937H18.9046Z" fill="#707070"/>
</svg>
