<svg width="36" height="28" viewBox="0 0 36 28" fill="none" xmlns="http://www.w3.org/2000/svg">
<path d="M20.005 6H15.9951C12.2151 6 10.3252 6 9.15021 7.17198C8.34022 7.97796 8.08923 9.12294 8.01023 10.9889C7.99523 11.3589 7.98723 11.5449 8.05623 11.6679C8.12623 11.7909 8.40122 11.9459 8.95321 12.2539C9.26414 12.4272 9.52314 12.6804 9.70344 12.9874C9.88374 13.2943 9.9788 13.6439 9.9788 13.9998C9.9788 14.3558 9.88374 14.7053 9.70344 15.0123C9.52314 15.3192 9.26414 15.5725 8.95321 15.7458C8.40122 16.0548 8.12523 16.2088 8.05623 16.3318C7.98723 16.4548 7.99523 16.6398 8.01123 17.0098C8.08923 18.8767 8.34122 20.0217 9.15021 20.8277C10.3242 21.9997 12.2141 21.9997 15.9951 21.9997H20.005C23.7849 21.9997 25.6749 21.9997 26.8498 20.8277C27.6598 20.0217 27.9108 18.8767 27.9898 17.0108C28.0048 16.6408 28.0128 16.4548 27.9438 16.3318C27.8738 16.2088 27.5988 16.0548 27.0468 15.7458C26.7359 15.5725 26.4769 15.3192 26.2966 15.0123C26.1163 14.7053 26.0213 14.3558 26.0213 13.9998C26.0213 13.6439 26.1163 13.2943 26.2966 12.9874C26.4769 12.6804 26.7359 12.4272 27.0468 12.2539C27.5988 11.9459 27.8748 11.7909 27.9438 11.6679C28.0128 11.5449 28.0048 11.3599 27.9888 10.9889C27.9108 9.12294 27.6588 7.97896 26.8498 7.17198C25.6759 6 23.7859 6 20.005 6Z" stroke="#3B3B3B" stroke-width="1.5"/>
<path d="M15 16.9999L20.9999 11" stroke="#3B3B3B" stroke-width="1.5" stroke-linecap="round"/>
<path d="M21.4999 16.4999C21.4999 16.7651 21.3945 17.0194 21.207 17.207C21.0194 17.3945 20.7651 17.4999 20.4999 17.4999C20.2347 17.4999 19.9803 17.3945 19.7928 17.207C19.6053 17.0194 19.4999 16.7651 19.4999 16.4999C19.4999 16.2347 19.6053 15.9803 19.7928 15.7928C19.9803 15.6053 20.2347 15.4999 20.4999 15.4999C20.7651 15.4999 21.0194 15.6053 21.207 15.7928C21.3945 15.9803 21.4999 16.2347 21.4999 16.4999ZM16.5 11.5C16.5 11.7652 16.3946 12.0195 16.2071 12.2071C16.0195 12.3946 15.7652 12.5 15.5 12.5C15.2348 12.5 14.9804 12.3946 14.7929 12.2071C14.6054 12.0195 14.5 11.7652 14.5 11.5C14.5 11.2348 14.6054 10.9804 14.7929 10.7929C14.9804 10.6054 15.2348 10.5 15.5 10.5C15.7652 10.5 16.0195 10.6054 16.2071 10.7929C16.3946 10.9804 16.5 11.2348 16.5 11.5Z" fill="#3B3B3B"/>
</svg>
