
<svg width="24" height="24" viewBox="0 0 24 24" fill="none" xmlns="http://www.w3.org/2000/svg">
<path d="M20.016 2C18.903 2 18 4.686 18 8H20.016C20.988 8 21.473 8 21.774 7.665C22.074 7.329 22.022 6.887 21.918 6.004C21.64 3.67 20.894 2 20.016 2Z" stroke="black" stroke-width="1.5" stroke-linecap="round" stroke-linejoin="round"/>
<path d="M18 8.054V18.646C18 20.157 18 20.913 17.538 21.211C16.783 21.697 15.616 20.677 15.029 20.307C14.544 20.001 14.302 19.849 14.033 19.84C13.742 19.83 13.495 19.977 12.971 20.307L11.06 21.512C10.544 21.837 10.287 22 10 22C9.713 22 9.455 21.837 8.94 21.512L7.03 20.307C6.544 20.001 6.302 19.849 6.033 19.84C5.742 19.83 5.495 19.977 4.971 20.307C4.384 20.677 3.217 21.697 2.461 21.211C2 20.913 2 20.158 2 18.646V8.054C2 5.2 2 3.774 2.879 2.887C3.757 2 5.172 2 8 2H20M6 6H14M8 10H6" stroke="black" stroke-width="1.5" stroke-linecap="round" stroke-linejoin="round"/>
<path d="M12.5 10.875C11.672 10.875 11 11.463 11 12.188C11 12.912 11.672 13.5 12.5 13.5C13.328 13.5 14 14.088 14 14.813C14 15.537 13.328 16.125 12.5 16.125M12.5 10.875C13.153 10.875 13.709 11.24 13.915 11.75M12.5 10.875V10M12.5 16.125C11.847 16.125 11.291 15.76 11.085 15.25M12.5 16.125V17" stroke="black" stroke-width="1.5" stroke-linecap="round" stroke-linejoin="round"/>
</svg>
