
<svg width="800" height="800" viewBox="0 0 800 800" fill="none" xmlns="http://www.w3.org/2000/svg">
<rect width="800" height="800" rx="8" fill="#F8F8F8"/>
<rect x="215.5" y="140" width="370" height="370" rx="185" fill="#EFEFEF"/>
<path d="M438.196 266.839H362.8L367.423 247.984C368.495 243.608 372.428 240.532 376.949 240.532H424.046C428.564 240.532 432.5 243.608 433.573 247.984L438.196 266.839Z" fill="#A9A4A9"/>
<path d="M386.476 240.536H376.949C372.432 240.536 368.495 243.612 367.423 247.988L362.8 266.843H372.326L376.949 247.988C378.022 243.616 381.954 240.536 386.476 240.536Z" fill="#7F7D7F"/>
<path d="M501.453 302.925V279.035C501.453 272.299 495.973 266.843 489.217 266.843H311.783C305.023 266.843 299.547 272.303 299.547 279.035V302.925H501.453Z" fill="#FFF2C8"/>
<path d="M299.547 302.925V397.272C299.547 404.007 305.027 409.464 311.783 409.464H489.213C495.973 409.464 501.449 404.003 501.449 397.272V302.925H299.547Z" fill="#E0C3B4"/>
<path d="M323.126 266.838H311.783C305.023 266.838 299.547 272.299 299.547 279.03V302.921H310.885V279.03C310.885 272.295 316.366 266.838 323.122 266.838H323.126Z" fill="#FEE4A9"/>
<path d="M310.889 397.272V302.925H299.547V397.272C299.547 404.007 305.027 409.464 311.783 409.464H323.126C316.366 409.464 310.889 404.003 310.889 397.272Z" fill="#D8A588"/>
<path d="M344.279 266.839H318.385V258.241C318.385 254.481 321.444 251.429 325.222 251.429H337.446C341.22 251.429 344.279 254.477 344.279 258.237V266.835V266.839Z" fill="#A9A4A9"/>
<path d="M482.615 266.839H456.721V258.241C456.721 254.481 459.78 251.429 463.558 251.429H475.782C479.556 251.429 482.619 254.477 482.619 258.237V266.835L482.615 266.839Z" fill="#A9A4A9"/>
<path d="M333.518 251.433H325.218C321.444 251.433 318.381 254.481 318.381 258.241V266.839H326.681V258.241C326.681 254.481 329.74 251.429 333.514 251.429L333.518 251.433Z" fill="#7F7D7F"/>
<path d="M471.854 251.433H463.554C459.78 251.433 456.717 254.481 456.717 258.241V266.839H465.016V258.241C465.016 254.481 468.076 251.429 471.85 251.429L471.854 251.433Z" fill="#7F7D7F"/>
<path d="M400.5 390.358C427.888 390.358 450.091 368.236 450.091 340.947C450.091 313.657 427.888 291.535 400.5 291.535C373.112 291.535 350.909 313.657 350.909 340.947C350.909 368.236 373.112 390.358 400.5 390.358Z" fill="#A9A4A9"/>
<path d="M361.057 340.946C361.057 315.364 380.569 294.323 405.574 291.794C403.904 291.624 402.214 291.539 400.5 291.539C373.111 291.539 350.909 313.66 350.909 340.95C350.909 368.241 373.111 390.362 400.5 390.362C402.214 390.362 403.904 390.277 405.574 390.107C380.569 387.573 361.057 366.533 361.057 340.95V340.946Z" fill="#7F7D7F"/>
<path d="M400.5 371.41C417.386 371.41 431.075 357.771 431.075 340.946C431.075 324.122 417.386 310.482 400.5 310.482C383.614 310.482 369.926 324.122 369.926 340.946C369.926 357.771 383.614 371.41 400.5 371.41Z" fill="#BBE0FF"/>
<path d="M400.5 352.863C407.105 352.863 412.46 347.528 412.46 340.946C412.46 334.365 407.105 329.029 400.5 329.029C393.895 329.029 388.54 334.365 388.54 340.946C388.54 347.528 393.895 352.863 400.5 352.863Z" fill="#9DC9EB"/>
<path d="M327.964 329.026H322.443C319.961 329.026 317.95 327.022 317.95 324.549V319.048C317.95 316.574 319.961 314.571 322.443 314.571H327.964C330.446 314.571 332.457 316.574 332.457 319.048V324.549C332.457 327.022 330.446 329.026 327.964 329.026Z" fill="#F37C7C"/>
<path d="M480.852 291.952H447.926C445.122 291.952 442.852 289.689 442.852 286.896V282.868C442.852 280.075 445.122 277.812 447.926 277.812H480.852C483.655 277.812 485.926 280.075 485.926 282.868V286.896C485.926 289.689 483.655 291.952 480.852 291.952Z" fill="#EDF4FF"/>
<path d="M400.5 352.863C407.105 352.863 412.46 347.528 412.46 340.946C412.46 334.365 407.105 329.029 400.5 329.029C393.895 329.029 388.54 334.365 388.54 340.946C388.54 347.528 393.895 352.863 400.5 352.863Z" stroke="#514F4B" stroke-width="5" stroke-linecap="round" stroke-linejoin="round"/>
<path d="M501.453 302.925V279.035C501.453 272.299 495.973 266.843 489.217 266.843H311.783C305.023 266.843 299.547 272.303 299.547 279.035V302.925" stroke="#514F4B" stroke-width="5" stroke-linecap="round" stroke-linejoin="round"/>
<path d="M466.735 302.925H433.122" stroke="#514F4B" stroke-width="5" stroke-linecap="round" stroke-linejoin="round"/>
<path d="M341.5 409.464H489.213C495.973 409.464 501.449 404.003 501.449 397.272V302.925H480.421" stroke="#514F4B" stroke-width="5" stroke-linecap="round" stroke-linejoin="round"/>
<path d="M367.854 302.925H299.547V397.272C299.547 404.007 305.027 409.464 311.783 409.464H327.875" stroke="#514F4B" stroke-width="5" stroke-linecap="round" stroke-linejoin="round"/>
<path d="M318.385 266.839V258.241C318.385 254.481 321.444 251.429 325.222 251.429H337.446C341.22 251.429 344.279 254.477 344.279 258.237V266.835" stroke="#514F4B" stroke-width="5" stroke-linecap="round" stroke-linejoin="round"/>
<path d="M456.721 266.839V258.241C456.721 254.481 459.78 251.429 463.558 251.429H475.782C479.556 251.429 482.619 254.477 482.619 258.237V266.835" stroke="#514F4B" stroke-width="5" stroke-linecap="round" stroke-linejoin="round"/>
<path d="M425.026 322.755C428.824 327.831 431.071 334.126 431.071 340.946C431.071 357.769 417.384 371.41 400.496 371.41C383.608 371.41 369.922 357.773 369.922 340.946C369.922 324.12 383.608 310.482 400.496 310.482C406.074 310.482 411.303 311.972 415.804 314.571" stroke="#514F4B" stroke-width="5" stroke-linecap="round" stroke-linejoin="round"/>
<path d="M400.5 390.358C427.888 390.358 450.091 368.236 450.091 340.947C450.091 313.657 427.888 291.535 400.5 291.535C373.112 291.535 350.909 313.657 350.909 340.947C350.909 368.236 373.112 390.358 400.5 390.358Z" stroke="#514F4B" stroke-width="5" stroke-linecap="round" stroke-linejoin="round"/>
<path d="M317.95 284.88H324.381" stroke="#514F4B" stroke-width="5" stroke-linecap="round" stroke-linejoin="round"/>
<path d="M338.287 284.88H344.718" stroke="#514F4B" stroke-width="5" stroke-linecap="round" stroke-linejoin="round"/>
<path d="M480.852 291.952H447.926C445.122 291.952 442.852 289.689 442.852 286.896V282.868C442.852 280.075 445.122 277.812 447.926 277.812H480.852C483.655 277.812 485.926 280.075 485.926 282.868V286.896C485.926 289.689 483.655 291.952 480.852 291.952Z" stroke="#514F4B" stroke-width="5" stroke-linecap="round" stroke-linejoin="round"/>
<path d="M362.804 266.839L367.427 247.984C368.499 243.608 372.432 240.532 376.953 240.532H424.05C428.567 240.532 432.504 243.608 433.577 247.984L438.2 266.839" stroke="#514F4B" stroke-width="5" stroke-linecap="round" stroke-linejoin="round"/>
<path d="M394.199 253.687H406.801" stroke="#514F4B" stroke-width="5" stroke-linecap="round" stroke-linejoin="round"/>
<path d="M327.964 329.026H322.443C319.961 329.026 317.95 327.022 317.95 324.549V319.048C317.95 316.574 319.961 314.571 322.443 314.571H327.964C330.446 314.571 332.457 316.574 332.457 319.048V324.549C332.457 327.022 330.446 329.026 327.964 329.026Z" stroke="#514F4B" stroke-width="5" stroke-linecap="round" stroke-linejoin="round"/>
<path d="M235.016 556.34H244.396V621.37H235.016V556.34ZM209.466 560.89C219.266 560.89 226.476 569.85 226.476 583.99C226.476 598.27 219.266 607.23 209.466 607.23C199.666 607.23 192.456 598.27 192.456 583.99C192.456 569.85 199.666 560.89 209.466 560.89ZM209.466 569.36C204.636 569.36 201.346 574.47 201.346 583.99C201.346 593.65 204.636 598.83 209.466 598.83C214.296 598.83 217.516 593.65 217.516 583.99C217.516 574.47 214.296 569.36 209.466 569.36ZM258.18 562.22H289.33V605.83H258.18V562.22ZM280.23 569.5H267.35V598.48H280.23V569.5ZM299.41 556.34H308.79V621.37H299.41V556.34ZM334.965 566.63H342.385V573.91C342.385 588.89 336.295 603.52 324.115 609.05L318.865 601.7C329.715 596.87 334.965 584.9 334.965 573.91V566.63ZM337.065 566.63H344.415V573.91C344.415 584.41 349.595 595.61 360.445 600.09L355.405 607.44C343.085 602.12 337.065 588.33 337.065 573.91V566.63ZM321.455 562.64H357.785V570.27H321.455V562.64ZM363.805 556.41H373.185V621.23H363.805V556.41ZM426.19 563.27H434.45V564.81C434.45 575.1 425.77 583.78 409.25 585.67L405.89 578.32C419.96 576.78 426.19 570.41 426.19 564.81V563.27ZM430.74 563.27H439V564.81C439 570.48 445.3 576.78 459.37 578.32L455.94 585.67C439.49 583.78 430.74 575.17 430.74 564.81V563.27ZM408.62 559.21H456.64V566.49H408.62V559.21ZM403.3 588.68H461.96V596.1H403.3V588.68ZM428.71 593.37H438.09V607.02H428.71V593.37ZM410.09 612.69H455.52V620.11H410.09V612.69ZM410.09 601.49H419.33V615.28H410.09V601.49ZM512.145 556.34H521.525V621.37H512.145V556.34ZM470.915 561.52H480.155V577.27H493.525V561.52H502.765V606.25H470.915V561.52ZM480.155 584.48V598.76H493.525V584.48H480.155ZM576.28 588.96H585.59V600.37H576.28V588.96ZM551.64 585.88H610.23V593.23H551.64V585.88ZM580.83 597.85C594.83 597.85 603.3 602.05 603.3 609.54C603.3 617.03 594.83 621.23 580.83 621.23C566.76 621.23 558.29 617.03 558.29 609.54C558.29 602.05 566.76 597.85 580.83 597.85ZM580.83 604.85C572.15 604.85 567.74 606.32 567.74 609.54C567.74 612.69 572.15 614.23 580.83 614.23C589.51 614.23 593.92 612.69 593.92 609.54C593.92 606.32 589.51 604.85 580.83 604.85ZM574.53 562.5H582.79V564.11C582.79 573.84 574.04 581.82 557.31 583.36L554.09 576.08C568.3 574.89 574.53 569.15 574.53 564.11V562.5ZM579.08 562.5H587.34V564.11C587.34 569.22 593.5 574.89 607.78 576.08L604.56 583.36C587.9 581.82 579.08 573.91 579.08 564.11V562.5ZM556.96 559.07H604.98V566.42H556.96V559.07Z" fill="#CCCCCC"/>
<path d="M173.818 658.904H178.606V684.284H173.818V658.904ZM169.462 667.148H175.618V670.964H169.462V667.148ZM169.462 674.312H175.618V678.092H169.462V674.312ZM150.814 662.36H169.102V666.104H150.814V662.36ZM160.174 667.292C164.71 667.292 167.986 669.992 167.986 673.844C167.986 677.696 164.71 680.396 160.174 680.396C155.638 680.396 152.362 677.696 152.362 673.844C152.362 669.992 155.638 667.292 160.174 667.292ZM160.174 670.964C158.23 670.964 156.862 672.008 156.862 673.844C156.862 675.716 158.23 676.724 160.174 676.724C162.118 676.724 163.486 675.716 163.486 673.844C163.486 672.008 162.118 670.964 160.174 670.964ZM157.798 658.796H162.586V664.664H157.798V658.796ZM156.538 687.812H179.326V691.628H156.538V687.812ZM156.538 682.196H161.362V689.576H156.538V682.196ZM208.159 658.868H212.695V692.204H208.159V658.868ZM204.163 671.648H209.707V675.536H204.163V671.648ZM200.995 659.372H205.459V690.692H200.995V659.372ZM189.763 664.052H193.399V667.004C193.399 675.248 191.599 682.52 186.055 685.868L183.175 682.196C188.179 679.316 189.763 673.412 189.763 667.004V664.052ZM190.735 664.052H194.407V667.004C194.407 672.872 196.099 678.416 201.067 681.008L198.331 684.644C192.715 681.62 190.735 674.744 190.735 667.004V664.052ZM184.255 662.252H199.411V666.104H184.255V662.252ZM234.021 660.668H237.945V663.62C237.945 670.244 235.065 676.076 228.729 678.272L226.173 674.492C231.753 672.62 234.021 668.156 234.021 663.62V660.668ZM234.993 660.668H238.881V664.088C238.881 668.084 241.113 671.972 246.333 673.592L243.849 677.3C237.837 675.284 234.993 670.1 234.993 664.088V660.668ZM248.169 658.868H252.957V678.56H248.169V658.868ZM251.625 666.572H257.385V670.532H251.625V666.572ZM242.085 679.316C248.997 679.316 253.353 681.728 253.353 685.76C253.353 689.828 248.997 692.204 242.085 692.204C235.137 692.204 230.781 689.828 230.781 685.76C230.781 681.728 235.137 679.316 242.085 679.316ZM242.085 683.024C237.837 683.024 235.533 683.924 235.533 685.76C235.533 687.632 237.837 688.496 242.085 688.496C246.333 688.496 248.601 687.632 248.601 685.76C248.601 683.924 246.333 683.024 242.085 683.024ZM272.503 677.192H277.291V682.268H272.503V677.192ZM259.831 674.456H289.963V678.236H259.831V674.456ZM262.459 659.768H287.299V663.584H262.459V659.768ZM262.711 668.588H287.047V672.404H262.711V668.588ZM266.707 661.172H271.495V671.072H266.707V661.172ZM278.263 661.172H283.051V671.072H278.263V661.172ZM263.323 681.008H286.363V691.844H263.323V681.008ZM281.683 684.716H268.039V688.064H281.683V684.716ZM325.581 658.832H330.405V692.276H325.581V658.832ZM312.441 661.172C317.481 661.172 321.189 665.78 321.189 673.052C321.189 680.396 317.481 685.004 312.441 685.004C307.401 685.004 303.693 680.396 303.693 673.052C303.693 665.78 307.401 661.172 312.441 661.172ZM312.441 665.528C309.957 665.528 308.265 668.156 308.265 673.052C308.265 678.02 309.957 680.684 312.441 680.684C314.925 680.684 316.581 678.02 316.581 673.052C316.581 668.156 314.925 665.528 312.441 665.528ZM337.494 661.856H353.514V684.284H337.494V661.856ZM348.834 665.6H342.21V680.504H348.834V665.6ZM358.698 658.832H363.522V692.276H358.698V658.832ZM376.984 664.124H380.8V667.868C380.8 675.572 377.668 683.096 371.404 685.94L368.704 682.16C374.284 679.676 376.984 673.52 376.984 667.868V664.124ZM378.064 664.124H381.844V667.868C381.844 673.268 384.508 679.028 390.088 681.332L387.496 685.112C381.16 682.376 378.064 675.284 378.064 667.868V664.124ZM370.036 662.072H388.72V665.996H370.036V662.072ZM391.816 658.868H396.64V692.204H391.816V658.868ZM402.073 673.808H432.277V677.3H402.073V673.808ZM405.457 678.956H428.677V686.876H410.281V689.72H405.529V683.852H423.961V682.196H405.457V678.956ZM405.529 688.712H429.613V691.952H405.529V688.712ZM405.781 659.444H428.605V667.292H410.569V670.028H405.817V664.304H423.889V662.648H405.781V659.444ZM405.817 669.02H429.217V672.26H405.817V669.02ZM456.735 662.396H460.983V663.188C460.983 668.48 456.519 672.944 448.023 673.916L446.295 670.136C453.531 669.344 456.735 666.068 456.735 663.188V662.396ZM459.075 662.396H463.323V663.188C463.323 666.104 466.563 669.344 473.799 670.136L472.035 673.916C463.575 672.944 459.075 668.516 459.075 663.188V662.396ZM447.699 660.308H472.395V664.052H447.699V660.308ZM444.963 675.464H475.131V679.28H444.963V675.464ZM458.031 677.876H462.855V684.896H458.031V677.876ZM448.455 687.812H471.819V691.628H448.455V687.812ZM448.455 682.052H453.207V689.144H448.455V682.052ZM500.941 658.832H505.765V692.276H500.941V658.832ZM479.737 661.496H484.489V669.596H491.365V661.496H496.117V684.5H479.737V661.496ZM484.489 673.304V680.648H491.365V673.304H484.489ZM533.643 675.608H538.431V681.476H533.643V675.608ZM520.971 674.024H551.103V677.804H520.971V674.024ZM535.983 680.18C543.183 680.18 547.539 682.34 547.539 686.192C547.539 690.044 543.183 692.204 535.983 692.204C528.747 692.204 524.391 690.044 524.391 686.192C524.391 682.34 528.747 680.18 535.983 680.18ZM535.983 683.78C531.519 683.78 529.251 684.536 529.251 686.192C529.251 687.812 531.519 688.604 535.983 688.604C540.447 688.604 542.715 687.812 542.715 686.192C542.715 684.536 540.447 683.78 535.983 683.78ZM532.743 662H536.991V662.828C536.991 667.832 532.491 671.936 523.887 672.728L522.231 668.984C529.539 668.372 532.743 665.42 532.743 662.828V662ZM535.083 662H539.331V662.828C539.331 665.456 542.499 668.372 549.843 668.984L548.187 672.728C539.619 671.936 535.083 667.868 535.083 662.828V662ZM523.707 660.236H548.403V664.016H523.707V660.236ZM576.984 658.868H581.808V676.796H576.984V658.868ZM559.632 678.236H564.348V681.332H577.056V678.236H581.808V691.844H559.632V678.236ZM564.348 685.004V688.028H577.056V685.004H564.348ZM563.664 660.236C568.848 660.236 572.7 663.512 572.7 668.12C572.7 672.728 568.848 676.004 563.664 676.004C558.48 676.004 554.592 672.728 554.592 668.12C554.592 663.512 558.48 660.236 563.664 660.236ZM563.664 664.196C561.108 664.196 559.272 665.672 559.272 668.12C559.272 670.604 561.108 672.044 563.664 672.044C566.184 672.044 568.02 670.604 568.02 668.12C568.02 665.672 566.184 664.196 563.664 664.196ZM610.282 658.868H615.07V692.204H610.282V658.868ZM588.97 662.036H593.722V682.736H588.97V662.036ZM588.97 679.928H591.922C596.782 679.928 602.182 679.568 607.69 678.488L608.23 682.448C602.506 683.636 596.998 683.996 591.922 683.996H588.97V679.928ZM641.635 658.832H646.459V692.276H641.635V658.832ZM645.379 671.18H651.283V675.104H645.379V671.18ZM621.619 680.288H624.427C630.043 680.288 634.471 680.108 639.367 679.244L639.835 683.204C634.795 684.104 630.223 684.248 624.427 684.248H621.619V680.288ZM621.619 661.928H637.171V665.78H626.371V682.196H621.619V661.928Z" fill="#CCCCCC"/>
</svg>
