
<svg width="72" height="73" viewBox="0 0 72 73" fill="none" xmlns="http://www.w3.org/2000/svg">
<rect y="0.5" width="72" height="72" rx="20" fill="#3B3B3B"/>
<g clip-path="url(#clip0_644_2685)">
<path d="M53.2164 26.0433C53.9554 25.6505 53.9881 24.601 53.2745 24.1632L51.5932 23.1321C50.8143 22.682 49.8548 22.682 49.0759 23.1321L35.7979 29.9088L23.1783 22.6073C22.1146 21.9916 20.8029 21.9916 19.7391 22.6073L18.3682 23.4001C17.6475 23.8164 17.6475 24.8588 18.3682 25.2751L31.9687 33.1432C32.9773 33.7273 33.599 34.8055 33.599 35.9726V55.2645C33.599 56.1503 34.1176 56.9543 34.924 57.3185L35.0435 57.3727C35.6325 57.6376 36.3083 57.6264 36.8881 57.34C37.6548 56.9615 38.1407 56.179 38.1417 55.3218L38.1591 36.0043C38.1601 34.7962 38.8267 33.6864 39.8924 33.1207L53.2164 26.0433Z" fill="#FCCB00"/>
<path d="M30.9113 34.5814L17.6721 26.7715C16.9871 26.3675 16.1245 26.8626 16.1245 27.6584V29.8331C16.1245 30.7445 16.6135 31.5853 17.4036 32.0354L21.246 34.2756L21.1929 48.8949C21.1929 50.1152 21.8422 51.2424 22.8977 51.8531L23.5827 52.25L24.183 52.651C24.8792 53.1164 25.8122 52.6162 25.8122 51.7774V37.1479L31.7218 40.5071L31.6861 35.9245C31.682 35.3711 31.388 34.8607 30.9123 34.5804L30.9113 34.5814Z" fill="#FCCB00"/>
<path d="M55.6971 35.2064L55.6879 31.9341C55.6848 31.035 55.3163 30.1583 54.6262 29.5835C53.6891 28.803 52.4284 28.6649 51.3677 29.1937L42.6172 33.4633C42.3599 33.5922 42.1067 33.7324 41.873 33.9001C40.3366 35.0008 39.6904 35.3199 39.6904 38.6883V48.9797C39.6904 50.5888 40.4775 52.1231 41.8403 52.9721C43.2991 53.8804 45.0723 53.905 46.5474 53.0468L53.6166 49.2651C54.8998 48.546 55.6971 47.1835 55.6971 45.7105V41.1341L52.3079 42.9886V44.6979C52.3079 45.4538 51.8965 46.1494 51.235 46.5125L45.8634 49.3152C45.3836 49.6037 44.7854 49.5904 44.3026 49.2651C43.8901 48.9869 43.6635 48.5031 43.6635 48.0049V39.7705C43.6635 38.6126 44.2791 37.5243 45.2703 36.9289L51.0891 33.9431C51.3984 33.7774 51.774 33.8203 52.0466 34.0679C52.2232 34.2285 52.3079 34.4668 52.3079 34.7062V36.976L55.6961 35.2064H55.6971Z" fill="#FCCB00"/>
<path d="M35.7079 63.5C34.3583 63.5 33.0098 63.1419 31.8175 62.4269L15.1922 52.471C12.8749 51.0819 11.46 48.539 11.4998 45.8345L11.7918 26.429C11.8326 23.7234 13.3231 21.2245 15.6822 19.907L32.6005 10.4584C34.9596 9.14093 37.8639 9.18491 40.1822 10.573L56.8075 20.5289C59.1258 21.917 60.5397 24.4599 60.4988 27.1655L60.2069 46.5709C60.166 49.2765 58.6756 51.7755 56.3165 53.093L39.3992 62.5415C38.2549 63.1808 36.9809 63.5 35.7079 63.5ZM36.2918 10.6886C35.2189 10.6886 34.144 10.9576 33.1783 11.4967L16.261 20.9462C14.2714 22.0571 13.0148 24.1653 12.9801 26.4474L12.6881 45.8529C12.6534 48.135 13.8467 50.28 15.8016 51.4502L32.4269 61.4061C34.3818 62.5773 36.8318 62.6141 38.8214 61.5033L55.7387 52.0547C57.7283 50.9438 58.9849 48.8356 59.0196 46.5536L59.3116 27.1481C59.3463 24.866 58.153 22.721 56.1981 21.5508L39.5728 11.5938C38.5662 10.9914 37.429 10.6886 36.2908 10.6886H36.2918Z" fill="#FCCB00"/>
<path d="M38.851 21.048C39.1065 19.4704 38.0374 17.984 36.4631 17.7279C34.8887 17.4718 33.4053 18.5431 33.1497 20.1206C32.8942 21.6982 33.9633 23.1846 35.5376 23.4407C37.112 23.6968 38.5954 22.6255 38.851 21.048Z" fill="#FCCB00"/>
</g>
<defs>
<clipPath id="clip0_644_2685">
<rect width="49" height="54" fill="white" transform="translate(11.5 9.5)"/>
</clipPath>
</defs>
</svg>
