<svg width="33" height="30" viewBox="0 0 33 30" fill="none" xmlns="http://www.w3.org/2000/svg">
<path d="M16.6056 0C7.5499 0 0.209473 5.73766 0.209473 12.8163C0.209473 17.3927 3.27902 21.408 7.89516 23.6759C7.64449 24.5339 6.28077 29.1994 6.22717 29.5667C6.22717 29.5667 6.19406 29.8418 6.37379 29.9465C6.55352 30.0512 6.76477 29.9699 6.76477 29.9699C7.28031 29.898 12.7462 26.0922 13.6921 25.4311C14.6381 25.5639 15.6108 25.6327 16.604 25.6327C25.6597 25.6327 33.0002 19.895 33.0002 12.8163C33.0002 5.73766 25.6597 0 16.604 0H16.6056Z" fill="black"/>
<path d="M7.5406 17.2894C7.01876 17.2894 6.59467 16.8877 6.59467 16.3938V10.8234H5.11902C4.60664 10.8234 4.19043 10.4108 4.19043 9.90438C4.19043 9.39798 4.60664 8.98535 5.11902 8.98535H9.96219C10.4746 8.98535 10.8908 9.39798 10.8908 9.90438C10.8908 10.4108 10.4746 10.8234 9.96219 10.8234H8.48653V16.3938C8.48653 16.8877 8.06244 17.2894 7.5406 17.2894Z" fill="#FFE812"/>
<path d="M15.8344 17.2789C15.4403 17.2789 15.1376 17.1194 15.0477 16.8647L14.5795 15.6487H11.6944L11.2262 16.8647C11.1363 17.1194 10.8336 17.2789 10.4395 17.2789C10.2314 17.2789 10.0233 17.2335 9.8388 17.1491C9.57867 17.0303 9.328 16.7021 9.61493 15.8175L11.8773 9.91258C12.0365 9.46401 12.5205 9.00137 13.1369 8.9873C13.755 9.00137 14.239 9.46401 14.3982 9.91415L16.6605 15.8159C16.9491 16.7021 16.6984 17.0303 16.4367 17.1491C16.2522 17.2335 16.0441 17.2789 15.836 17.2789H15.8344ZM14.0813 13.9872L13.1369 11.3255L12.1926 13.9872H14.0829H14.0813Z" fill="#FFE812"/>
<path d="M18.1824 17.1538C17.6826 17.1538 17.2759 16.7678 17.2759 16.2942V9.92509C17.2759 9.40774 17.7094 8.9873 18.2407 8.9873C18.772 8.9873 19.2056 9.40774 19.2056 9.92509V15.4346H21.2157C21.7154 15.4346 22.1222 15.8206 22.1222 16.2942C22.1222 16.7678 21.7154 17.1538 21.2157 17.1538H18.1808H18.1824Z" fill="#FFE812"/>
<path d="M23.4367 17.2789C22.9148 17.2789 22.4907 16.8584 22.4907 16.3411V9.92509C22.4907 9.40774 22.9148 8.9873 23.4367 8.9873C23.9585 8.9873 24.3826 9.40774 24.3826 9.92509V11.9413L27.0217 9.32491C27.1573 9.19049 27.3433 9.11547 27.5467 9.11547C27.7832 9.11547 28.0197 9.21706 28.1978 9.39211C28.3634 9.55622 28.4627 9.76723 28.4753 9.98604C28.4895 10.2064 28.4154 10.4096 28.2672 10.5565L26.1121 12.6931L28.4406 15.7518C28.5936 15.9519 28.6566 16.1988 28.6219 16.4474C28.5872 16.6959 28.4564 16.9147 28.2546 17.0663C28.0891 17.1898 27.892 17.2554 27.6855 17.2554C27.3859 17.2554 27.11 17.1194 26.9303 16.8834L24.7121 13.9701L24.3842 14.2951V16.3411C24.3842 16.8584 23.9601 17.2789 23.4382 17.2789H23.4367Z" fill="#FFE812"/>
</svg>
