<svg width="48" height="48" viewBox="0 0 48 48" fill="none" xmlns="http://www.w3.org/2000/svg">
<g filter="url(#filter0_dd_120_317)">
<path d="M24 3L28.9443 7.7831L35.7557 6.81966L36.9443 13.5954L43.0211 16.8197L40 23L43.0211 29.1803L36.9443 32.4046L35.7557 39.1803L28.9443 38.2169L24 43L19.0557 38.2169L12.2443 39.1803L11.0557 32.4046L4.97887 29.1803L8 23L4.97887 16.8197L11.0557 13.5954L12.2443 6.81966L19.0557 7.7831L24 3Z" fill="#C17C00"/>
</g>
<path d="M23.7239 30.2C23.0039 30.2 22.2572 30.1067 21.4839 29.92C20.7106 29.7333 20.0372 29.4533 19.4639 29.08C19.1972 28.9067 19.0172 28.7067 18.9239 28.48C18.8306 28.2533 18.8039 28.04 18.8439 27.84C18.8972 27.6267 18.9972 27.4467 19.1439 27.3C19.3039 27.1533 19.4972 27.0667 19.7239 27.04C19.9639 27.0133 20.2239 27.0733 20.5039 27.22C21.0506 27.5133 21.5772 27.7267 22.0839 27.86C22.5906 27.98 23.1106 28.04 23.6439 28.04C24.2306 28.04 24.7239 27.96 25.1239 27.8C25.5239 27.64 25.8239 27.4 26.0239 27.08C26.2372 26.76 26.3439 26.3733 26.3439 25.92C26.3439 25.2533 26.1172 24.76 25.6639 24.44C25.2239 24.1067 24.5772 23.94 23.7239 23.94H22.4439C22.0706 23.94 21.7839 23.8467 21.5839 23.66C21.3972 23.4733 21.3039 23.2133 21.3039 22.88C21.3039 22.5467 21.3972 22.2867 21.5839 22.1C21.7839 21.9133 22.0706 21.82 22.4439 21.82H23.4839C23.9906 21.82 24.4239 21.74 24.7839 21.58C25.1439 21.4067 25.4239 21.1667 25.6239 20.86C25.8239 20.5533 25.9239 20.18 25.9239 19.74C25.9239 19.1267 25.7172 18.66 25.3039 18.34C24.9039 18.02 24.3172 17.86 23.5439 17.86C23.0506 17.86 22.5839 17.92 22.1439 18.04C21.7172 18.1467 21.2439 18.3533 20.7239 18.66C20.4839 18.8067 20.2506 18.8667 20.0239 18.84C19.8106 18.8133 19.6306 18.7267 19.4839 18.58C19.3372 18.4333 19.2372 18.26 19.1839 18.06C19.1306 17.8467 19.1439 17.6333 19.2239 17.42C19.3039 17.1933 19.4706 17 19.7239 16.84C20.2972 16.4667 20.9306 16.1867 21.6239 16C22.3172 15.8 23.0306 15.7 23.7639 15.7C24.7372 15.7 25.5706 15.8533 26.2639 16.16C26.9572 16.4533 27.4839 16.88 27.8439 17.44C28.2172 17.9867 28.4039 18.6533 28.4039 19.44C28.4039 20 28.2972 20.5133 28.0839 20.98C27.8706 21.4333 27.5706 21.82 27.1839 22.14C26.7972 22.46 26.3306 22.6867 25.7839 22.82V22.58C26.7439 22.74 27.4906 23.14 28.0239 23.78C28.5572 24.4067 28.8239 25.1933 28.8239 26.14C28.8239 26.9667 28.6172 27.6867 28.2039 28.3C27.7906 28.9133 27.2039 29.3867 26.4439 29.72C25.6839 30.04 24.7772 30.2 23.7239 30.2Z" fill="white"/>
<defs>
<filter id="filter0_dd_120_317" x="0.978867" y="0" width="46.0423" height="48" filterUnits="userSpaceOnUse" color-interpolation-filters="sRGB">
<feFlood flood-opacity="0" result="BackgroundImageFix"/>
<feColorMatrix in="SourceAlpha" type="matrix" values="0 0 0 0 0 0 0 0 0 0 0 0 0 0 0 0 0 0 127 0" result="hardAlpha"/>
<feMorphology radius="1" operator="dilate" in="SourceAlpha" result="effect1_dropShadow_120_317"/>
<feOffset dy="1"/>
<feGaussianBlur stdDeviation="1.5"/>
<feColorMatrix type="matrix" values="0 0 0 0 0 0 0 0 0 0 0 0 0 0 0 0 0 0 0.15 0"/>
<feBlend mode="normal" in2="BackgroundImageFix" result="effect1_dropShadow_120_317"/>
<feColorMatrix in="SourceAlpha" type="matrix" values="0 0 0 0 0 0 0 0 0 0 0 0 0 0 0 0 0 0 127 0" result="hardAlpha"/>
<feOffset dy="1"/>
<feGaussianBlur stdDeviation="1"/>
<feColorMatrix type="matrix" values="0 0 0 0 0 0 0 0 0 0 0 0 0 0 0 0 0 0 0.3 0"/>
<feBlend mode="normal" in2="effect1_dropShadow_120_317" result="effect2_dropShadow_120_317"/>
<feBlend mode="normal" in="SourceGraphic" in2="effect2_dropShadow_120_317" result="shape"/>
</filter>
</defs>
</svg>
