<svg width="48" height="48" viewBox="0 0 48 48" fill="none" xmlns="http://www.w3.org/2000/svg">
<g filter="url(#filter0_dd_120_475)">
<path d="M24 3L28.9443 7.7831L35.7557 6.81966L36.9443 13.5954L43.0211 16.8197L40 23L43.0211 29.1803L36.9443 32.4046L35.7557 39.1803L28.9443 38.2169L24 43L19.0557 38.2169L12.2443 39.1803L11.0557 32.4046L4.97887 29.1803L8 23L4.97887 16.8197L11.0557 13.5954L12.2443 6.81966L19.0557 7.7831L24 3Z" fill="#D3D2D2"/>
</g>
<path d="M20.6639 30C20.2372 30 19.9239 29.9067 19.7239 29.72C19.5372 29.52 19.4439 29.2333 19.4439 28.86C19.4439 28.6333 19.5039 28.4133 19.6239 28.2C19.7439 27.9867 19.9172 27.76 20.1439 27.52L24.1639 23.24C24.7772 22.6 25.2172 22.02 25.4839 21.5C25.7506 20.9667 25.8839 20.4333 25.8839 19.9C25.8839 19.2333 25.6706 18.7267 25.2439 18.38C24.8306 18.0333 24.2239 17.86 23.4239 17.86C22.9706 17.86 22.5172 17.9267 22.0639 18.06C21.6106 18.18 21.1506 18.3933 20.6839 18.7C20.4439 18.86 20.2172 18.9267 20.0039 18.9C19.8039 18.8733 19.6239 18.7867 19.4639 18.64C19.3172 18.4933 19.2172 18.3133 19.1639 18.1C19.1106 17.8867 19.1172 17.6733 19.1839 17.46C19.2639 17.2333 19.4239 17.04 19.6639 16.88C20.2372 16.4933 20.8772 16.2 21.5839 16C22.3039 15.8 23.0239 15.7 23.7439 15.7C24.7572 15.7 25.6106 15.8533 26.3039 16.16C26.9972 16.4667 27.5239 16.9133 27.8839 17.5C28.2439 18.0867 28.4239 18.8 28.4239 19.64C28.4239 20.2 28.3306 20.7467 28.1439 21.28C27.9706 21.8133 27.6972 22.3533 27.3239 22.9C26.9639 23.4467 26.4906 24.0267 25.9039 24.64L22.1439 28.56V27.88H28.0239C28.3839 27.88 28.6572 27.9667 28.8439 28.14C29.0306 28.3133 29.1239 28.5733 29.1239 28.92C29.1239 29.2667 29.0306 29.5333 28.8439 29.72C28.6572 29.9067 28.3839 30 28.0239 30H20.6639Z" fill="#8C8C8C"/>
<defs>
<filter id="filter0_dd_120_475" x="0.97887" y="0" width="46.0423" height="48" filterUnits="userSpaceOnUse" color-interpolation-filters="sRGB">
<feFlood flood-opacity="0" result="BackgroundImageFix"/>
<feColorMatrix in="SourceAlpha" type="matrix" values="0 0 0 0 0 0 0 0 0 0 0 0 0 0 0 0 0 0 127 0" result="hardAlpha"/>
<feMorphology radius="1" operator="dilate" in="SourceAlpha" result="effect1_dropShadow_120_475"/>
<feOffset dy="1"/>
<feGaussianBlur stdDeviation="1.5"/>
<feColorMatrix type="matrix" values="0 0 0 0 0 0 0 0 0 0 0 0 0 0 0 0 0 0 0.15 0"/>
<feBlend mode="normal" in2="BackgroundImageFix" result="effect1_dropShadow_120_475"/>
<feColorMatrix in="SourceAlpha" type="matrix" values="0 0 0 0 0 0 0 0 0 0 0 0 0 0 0 0 0 0 127 0" result="hardAlpha"/>
<feOffset dy="1"/>
<feGaussianBlur stdDeviation="1"/>
<feColorMatrix type="matrix" values="0 0 0 0 0 0 0 0 0 0 0 0 0 0 0 0 0 0 0.3 0"/>
<feBlend mode="normal" in2="effect1_dropShadow_120_475" result="effect2_dropShadow_120_475"/>
<feBlend mode="normal" in="SourceGraphic" in2="effect2_dropShadow_120_475" result="shape"/>
</filter>
</defs>
</svg>
