<svg width="30" height="30" viewBox="0 0 30 30" fill="none" xmlns="http://www.w3.org/2000/svg">
<g clip-path="url(#clip0_783_15837)">
<path d="M15 29.0625C22.7665 29.0625 29.0625 22.7665 29.0625 15C29.0625 7.2335 22.7665 0.9375 15 0.9375C7.2335 0.9375 0.9375 7.2335 0.9375 15C0.9375 22.7665 7.2335 29.0625 15 29.0625Z" fill="#EFEFEF"/>
<path d="M10.9687 15.797C12.2812 16.6876 14.1093 16.3126 14.9999 15.0001C15.8906 13.6876 17.6718 13.3126 19.0312 14.2032C20.2968 15.047 20.6718 16.6876 19.9687 17.9532C21.5156 15.3282 20.8124 11.9064 18.1874 10.172C15.5156 8.39075 11.9062 9.09387 10.1249 11.7657C10.0781 11.8595 10.0312 11.9532 9.9843 12.0001C9.32805 13.3595 9.74993 14.9532 10.9687 15.797Z" fill="#ED4C5C"/>
<path d="M19.0315 14.2031C17.719 13.3125 15.8908 13.6875 15.0002 15C14.1096 16.3125 12.3283 16.6875 10.969 15.7969C9.70334 14.9531 9.32834 13.3125 10.0315 12.0469C8.43771 14.6719 9.18771 18.0937 11.8127 19.8281C14.4846 21.6094 18.094 20.9063 19.8752 18.2344C19.9221 18.1406 19.969 18.0469 20.0158 18C20.6721 16.6406 20.2502 15.0469 19.0315 14.2031Z" fill="#428BC1"/>
<path d="M3.65625 10.9219L6.89062 6.09375L6.5625 5.85937L6.23438 5.67188L3 10.5L3.32812 10.6875L3.65625 10.9219ZM4.54687 11.5312L4.875 11.7188L8.0625 6.89062L7.78125 6.70312L7.45312 6.46875L4.21875 11.2969L4.54687 11.5312ZM8.625 7.26562L5.4375 12.0937L5.76562 12.3281L6.09375 12.5156L9.28125 7.6875L8.95313 7.5L8.625 7.26562ZM22.7344 19.9219L23.0625 20.1562L24.5625 17.9062L24.2344 17.6719L23.9062 17.4844L22.4062 19.7344L22.7344 19.9219ZM26.3438 19.0781L24.8438 21.3281L25.1719 21.5625L25.5 21.75L27 19.5L26.6719 19.3125L26.3438 19.0781ZM24.2812 20.9531L25.7812 18.7031L25.4531 18.4688L25.125 18.2812L23.625 20.5312L23.9531 20.7187L24.2812 20.9531ZM22.5469 20.25L22.2188 20.0625L20.7188 22.3125L21.0469 22.5L21.375 22.7344L22.875 20.4844L22.5469 20.25ZM23.7187 21.0469L23.4375 20.8594L21.9375 23.1094L22.2188 23.2969L22.5469 23.5312L24.0469 21.2813L23.7187 21.0469ZM24.6094 21.6562L23.1094 23.9062L23.4375 24.1406L23.7656 24.3281L25.2656 22.0781L24.9375 21.8438L24.6094 21.6562ZM3.32812 19.3125L3 19.5L6.23438 24.3281L6.5625 24.1406L6.89062 23.9062L3.65625 19.0781L3.32812 19.3125ZM6.28125 21.0469L5.95312 21.2813L7.45312 23.5312L7.78125 23.2969L8.0625 23.1094L6.5625 20.8594L6.28125 21.0469ZM5.76562 17.6719L5.4375 17.9062L8.625 22.7344L8.95313 22.5L9.28125 22.3125L6.09375 17.4844L5.76562 17.6719ZM4.21875 18.7031L5.71875 20.9531L6.04687 20.7187L6.375 20.5312L4.875 18.2812L4.54687 18.4688L4.21875 18.7031ZM24.9375 8.15625L25.2656 7.92187L23.7656 5.67188L23.4375 5.85937L23.1094 6.09375L24.6094 8.34375L24.9375 8.15625ZM22.5469 9.75L22.875 9.51562L21.375 7.26562L21.0469 7.5L20.7188 7.6875L22.2188 9.9375L22.5469 9.75ZM24.8438 8.67187L26.3438 10.9219L26.6719 10.6875L27 10.5L25.5 8.25L25.1719 8.4375L24.8438 8.67187ZM25.4531 11.5312L25.7812 11.2969L22.5469 6.46875L22.2188 6.70312L21.9375 6.89062L25.125 11.7188L25.4531 11.5312ZM24.2344 12.3281L24.5625 12.0937L23.0625 9.84375L22.7344 10.0781L22.4062 10.2656L23.9062 12.5156L24.2344 12.3281Z" fill="#3E4347"/>
</g>
<defs>
<clipPath id="clip0_783_15837">
<rect width="30" height="30" fill="white"/>
</clipPath>
</defs>
</svg>
