<svg width="60" height="32" viewBox="0 0 60 32" fill="none" xmlns="http://www.w3.org/2000/svg">
<path d="M0 7C0 3.13401 3.13401 0 7 0H60V32H7C3.13401 32 0 28.866 0 25V7Z" fill="#EFEFEF"/>
<g clip-path="url(#clip0_167_8205)">
<path d="M18 27.25C24.2132 27.25 29.25 22.2132 29.25 16C29.25 9.7868 24.2132 4.75 18 4.75C11.7868 4.75 6.75 9.7868 6.75 16C6.75 22.2132 11.7868 27.25 18 27.25Z" fill="white"/>
<path d="M14.7742 16.6375C15.8242 17.35 17.2867 17.05 17.9992 16C18.7117 14.95 20.1367 14.65 21.2242 15.3625C22.2367 16.0375 22.5367 17.35 21.9742 18.3625C23.2117 16.2625 22.6492 13.525 20.5492 12.1375C18.4117 10.7125 15.5242 11.275 14.0992 13.4125C14.0617 13.4875 14.0242 13.5625 13.9867 13.6C13.4617 14.6875 13.7992 15.9625 14.7742 16.6375Z" fill="#ED4C5C"/>
<path d="M21.2252 15.3627C20.1752 14.6502 18.7127 14.9502 18.0002 16.0002C17.2877 17.0502 15.8627 17.3502 14.7752 16.6377C13.7627 15.9627 13.4627 14.6502 14.0252 13.6377C12.7502 15.7377 13.3502 18.4752 15.4502 19.8627C17.5877 21.2877 20.4752 20.7252 21.9002 18.5877C21.9377 18.5127 21.9752 18.4377 22.0127 18.4002C22.5377 17.3127 22.2002 16.0377 21.2252 15.3627Z" fill="#428BC1"/>
<path d="M8.92539 12.7376L11.5129 8.8751L11.2504 8.6876L10.9879 8.5376L8.40039 12.4001L8.66289 12.5501L8.92539 12.7376ZM9.63789 13.2251L9.90039 13.3751L12.4504 9.5126L12.2254 9.3626L11.9629 9.1751L9.37539 13.0376L9.63789 13.2251ZM12.9004 9.8126L10.3504 13.6751L10.6129 13.8626L10.8754 14.0126L13.4254 10.1501L13.1629 10.0001L12.9004 9.8126ZM24.1879 19.9376L24.4504 20.1251L25.6504 18.3251L25.3879 18.1376L25.1254 17.9876L23.9254 19.7876L24.1879 19.9376ZM27.0754 19.2626L25.8754 21.0626L26.1379 21.2501L26.4004 21.4001L27.6004 19.6001L27.3379 19.4501L27.0754 19.2626ZM25.4254 20.7626L26.6254 18.9626L26.3629 18.7751L26.1004 18.6251L24.9004 20.4251L25.1629 20.5751L25.4254 20.7626ZM24.0379 20.2001L23.7754 20.0501L22.5754 21.8501L22.8379 22.0001L23.1004 22.1876L24.3004 20.3876L24.0379 20.2001ZM24.9754 20.8376L24.7504 20.6876L23.5504 22.4876L23.7754 22.6376L24.0379 22.8251L25.2379 21.0251L24.9754 20.8376ZM25.6879 21.3251L24.4879 23.1251L24.7504 23.3126L25.0129 23.4626L26.2129 21.6626L25.9504 21.4751L25.6879 21.3251ZM8.66289 19.4501L8.40039 19.6001L10.9879 23.4626L11.2504 23.3126L11.5129 23.1251L8.92539 19.2626L8.66289 19.4501ZM11.0254 20.8376L10.7629 21.0251L11.9629 22.8251L12.2254 22.6376L12.4504 22.4876L11.2504 20.6876L11.0254 20.8376ZM10.6129 18.1376L10.3504 18.3251L12.9004 22.1876L13.1629 22.0001L13.4254 21.8501L10.8754 17.9876L10.6129 18.1376ZM9.37539 18.9626L10.5754 20.7626L10.8379 20.5751L11.1004 20.4251L9.90039 18.6251L9.63789 18.7751L9.37539 18.9626ZM25.9504 10.5251L26.2129 10.3376L25.0129 8.5376L24.7504 8.6876L24.4879 8.8751L25.6879 10.6751L25.9504 10.5251ZM24.0379 11.8001L24.3004 11.6126L23.1004 9.8126L22.8379 10.0001L22.5754 10.1501L23.7754 11.9501L24.0379 11.8001ZM25.8754 10.9376L27.0754 12.7376L27.3379 12.5501L27.6004 12.4001L26.4004 10.6001L26.1379 10.7501L25.8754 10.9376ZM26.3629 13.2251L26.6254 13.0376L24.0379 9.1751L23.7754 9.3626L23.5504 9.5126L26.1004 13.3751L26.3629 13.2251ZM25.3879 13.8626L25.6504 13.6751L24.4504 11.8751L24.1879 12.0626L23.9254 12.2126L25.1254 14.0126L25.3879 13.8626Z" fill="#3E4347"/>
</g>
<path d="M37 14L42 19L47 14" fill="#3B3B3B"/>
<defs>
<clipPath id="clip0_167_8205">
<rect width="24" height="24" fill="white" transform="translate(6 4)"/>
</clipPath>
</defs>
</svg>
