<svg width="30" height="30" viewBox="0 0 30 30" fill="none" xmlns="http://www.w3.org/2000/svg">
<rect width="30" height="30" rx="15" fill="#4B92DB"/>
<path d="M22.0238 24.2549C21.3883 24.5653 20.6662 24.6507 19.9758 24.4969C19.5057 24.39 19.048 24.2348 18.6098 24.0339L17.6418 23.6379C16.7985 23.3741 15.8983 23.3512 15.0428 23.5719H14.9548C14.1022 23.3292 13.1959 23.3523 12.3568 23.6379C12.0268 23.7479 11.7178 23.9019 11.3878 24.0339C10.9478 24.2329 10.4848 24.4088 10.0228 24.5189C9.33235 24.6711 8.61074 24.5858 7.97479 24.2769L7.88679 24.2329C7.86479 24.2329 7.86479 24.2329 7.86479 24.2549C8.21827 24.618 8.64974 24.8959 9.12654 25.0676C9.60334 25.2393 10.113 25.3003 10.6168 25.2459C11.2331 25.1621 11.8213 24.9357 12.3348 24.5849L13.2598 23.9679C13.605 23.7446 14.024 23.6656 14.4268 23.7479C14.6468 23.7698 14.4708 23.8799 14.4488 23.9019C13.895 24.1696 13.3708 24.4947 12.8848 24.8719C12.5548 25.1129 11.9598 25.6859 11.9598 25.6859L12.3998 26.0599L12.8848 25.5319C13.4793 24.9135 14.162 24.3865 14.9108 23.9679C14.9394 23.9464 14.9741 23.9349 15.0098 23.9349C15.0455 23.9349 15.0802 23.9464 15.1088 23.9679C15.8575 24.3865 16.5403 24.9135 17.1348 25.5319L17.6198 26.0599L18.0598 25.6859L17.1348 24.8709C16.6491 24.4942 16.1252 24.1694 15.5718 23.9019C15.5278 23.8799 15.3738 23.7698 15.5938 23.7479C15.9898 23.6599 16.4078 23.7479 16.7608 23.9679L17.6858 24.5849C18.1991 24.9352 18.787 25.1612 19.4028 25.2449C19.7998 25.2899 20.2178 25.2679 20.6138 25.1569C21.1928 24.9844 21.7217 24.675 22.1558 24.2549C22.1558 24.2549 22.1338 24.2329 22.1118 24.2329L22.0238 24.2549ZM24.1808 22.3389C23.9023 22.5512 23.5899 22.7149 23.2568 22.8229C22.7938 22.9559 22.2868 23.0429 21.8028 23.0429C21.1648 23.0659 20.5478 23.1099 19.9098 23.1979C19.8658 23.1979 19.8438 23.1979 19.8658 23.1759C20.4158 22.9559 20.8558 22.5159 21.0988 21.9859L21.7148 20.7319V20.6869C21.6708 20.7089 21.0548 21.2379 20.7678 21.5019L19.7328 22.5149C19.2682 22.9131 18.7184 23.1994 18.1258 23.3519H18.1038L18.0818 23.3739L19.2708 23.6599C19.7802 23.8103 20.3041 23.9061 20.8338 23.9459C21.4894 24.0104 22.1503 23.8973 22.7471 23.6184C23.3439 23.3396 23.8547 22.9052 24.2258 22.3609C24.2258 22.3389 24.2028 22.3389 24.1808 22.3389ZM26.1188 19.3889C25.8062 19.7682 25.4348 20.095 25.0188 20.3569C24.6658 20.5989 24.2918 20.7969 23.8948 20.9739C23.3951 21.1758 22.9277 21.45 22.5078 21.7879L22.4198 21.8549C22.3978 21.8549 22.3978 21.8549 22.3978 21.8319C22.3978 21.8099 23.0578 21.1499 23.2568 19.7619C23.2788 19.2559 23.3668 18.7719 23.4768 18.2869V18.2429C23.0193 18.8094 22.6618 19.45 22.4198 20.1369L22.0238 21.2599C21.8688 21.7659 21.5838 22.2289 21.2088 22.6029L21.1648 22.6469V22.6689C21.2088 22.6689 21.2528 22.6469 21.2968 22.6469L22.5738 22.3829C23.2756 22.2699 23.9402 21.9904 24.5118 21.5679C25.0985 21.144 25.5743 20.5848 25.8988 19.9379C25.9868 19.7629 26.0528 19.5859 26.1188 19.4099C26.1628 19.3659 26.1408 19.3659 26.1188 19.3879M26.9558 16.0849C26.7526 16.6883 26.4049 17.2328 25.9428 17.6709C25.4187 18.1849 24.9331 18.7367 24.4898 19.3219C24.4898 19.3439 24.4458 19.3219 24.4678 19.2999C24.6442 18.6926 24.6892 18.0548 24.5998 17.4289C24.5118 16.8999 24.2918 16.3279 24.2258 15.6889L24.2028 15.6669C24.2028 15.6889 24.1808 15.7109 24.1808 15.7329C24.0489 16.1482 23.9604 16.5762 23.9168 17.0099C23.8948 17.5389 23.9828 18.2209 23.9388 18.7499C23.8948 19.3659 23.8508 20.0049 23.5648 20.5549V20.5989L24.8858 19.7849C25.429 19.4377 25.9 18.9888 26.2728 18.4629C26.7514 17.7874 27.0057 16.9787 26.9998 16.1509V16.0629C26.9778 16.0629 26.9558 16.0849 26.9558 16.0849ZM25.5458 16.4379C25.5685 16.4379 25.5685 16.4379 25.5458 16.4379C25.5458 16.2609 25.5458 16.0849 25.5248 15.9089C25.4808 15.2929 25.1058 14.7859 24.7758 14.2579C24.551 13.9211 24.3521 13.5677 24.1808 13.2009C24.1808 13.2009 24.1588 13.1789 24.1368 13.1789C24.1368 13.2229 24.1368 13.4209 24.1588 13.5309C24.2688 14.4109 24.4888 15.2929 24.8198 16.1289C25.0178 16.6579 25.0838 17.2089 25.0398 17.7589C25.0398 17.8029 25.0398 17.8029 25.0618 17.8249C25.2598 17.5389 25.6568 17.1419 25.8988 16.8339C26.1408 16.5259 27.4618 15.0279 26.8238 12.9589C26.8018 12.8699 26.7578 12.7819 26.7138 12.6939L26.6918 12.7159C26.6918 14.2139 25.9648 14.8519 25.6788 15.8659C25.6236 16.0538 25.5795 16.2448 25.5468 16.4379M25.5688 13.3549L25.4368 13.0029L25.3488 12.8039C25.1263 12.4036 24.8179 12.0577 24.4458 11.7909C24.1421 11.5355 23.8753 11.2394 23.6528 10.9109H23.5868C23.6088 10.9769 23.8068 11.6369 23.9388 11.9459C24.1588 12.3639 24.4238 12.7819 24.7318 13.1349L24.7978 13.2229C25.1711 13.7295 25.4575 14.2799 25.6568 14.8739C25.6568 14.8959 25.6788 14.8959 25.6788 14.8959L26.0528 13.7509C26.1848 13.3549 26.2948 12.9359 26.3828 12.5179C26.5158 11.5279 26.2068 10.2719 25.6348 9.56785C25.6348 9.56785 25.6128 9.58885 25.6128 9.61185L25.6348 9.69985L25.6788 9.83185C25.7888 10.3599 25.8108 10.9319 25.7008 11.4619C25.6128 11.8799 25.5908 12.3199 25.5908 12.7599C25.5908 12.8259 25.6348 13.3769 25.6348 13.3989C25.6348 13.4209 25.6128 13.3989 25.5908 13.3989M23.8068 7.82785C23.9828 8.00385 24.1368 8.20185 24.2258 8.44385C24.3798 8.81885 24.4238 9.36885 24.5338 9.78785L24.7318 10.5139C24.7318 10.5359 24.7098 10.5579 24.6878 10.5359C24.3543 10.1366 23.9511 9.80115 23.4978 9.54585C23.1908 9.36885 22.9478 9.12685 22.7278 8.86285L22.6178 8.70885C22.6178 8.70885 22.5958 8.68685 22.5738 8.70885V8.77485C22.6838 9.25885 22.9038 9.72185 23.2568 10.0949C23.5428 10.3599 23.8508 10.6019 24.1368 10.8449C24.5161 11.1692 24.8695 11.5226 25.1938 11.9019C25.1938 11.9019 25.2158 11.9239 25.2158 11.9019V11.5489L25.2378 10.4919V10.1399C25.2378 9.78785 25.1718 9.41285 25.0398 9.08285C24.8198 8.53285 24.4018 8.09285 23.8948 7.82785C23.8728 7.80585 23.8288 7.80585 23.7848 7.78385C23.7848 7.78385 23.7848 7.80585 23.8068 7.82785ZM21.5398 6.79285C21.8478 7.07885 22.1128 7.40985 22.3548 7.76185C22.5748 8.11385 22.8168 8.42185 23.1248 8.70885C23.3238 8.90685 23.9178 9.36885 24.0718 9.50085C24.0498 9.32485 23.7638 8.07085 22.9928 7.45385C22.5475 7.09557 22.029 6.83953 21.4738 6.70385V6.74885L21.5398 6.79285ZM9.20779 23.9459C9.72347 23.907 10.2332 23.811 10.7278 23.6599L11.9158 23.3739H11.9378C11.9378 23.3739 11.9378 23.3519 11.9158 23.3519H11.8938C11.2966 23.1932 10.7407 22.9077 10.2638 22.5149L9.22979 21.5249L8.28279 20.7089V20.7539C8.37079 20.8859 8.70179 21.6119 8.89979 22.0089C9.14179 22.5589 9.58179 22.9779 10.1328 23.1979C10.1548 23.2199 10.1328 23.2199 10.0888 23.2199C9.46061 23.1352 8.82839 23.0838 8.19479 23.0659C7.71079 23.0659 7.20479 22.9779 6.74179 22.8459C6.40825 22.7377 6.09547 22.5737 5.81679 22.3609H5.77279C6.21199 22.9799 6.82479 23.4549 7.53379 23.7259C8.07441 23.8975 8.64117 23.972 9.20779 23.9459ZM8.70179 22.6469C8.74579 22.6469 8.76779 22.6689 8.83379 22.6689V22.6469L8.78979 22.6029C8.41987 22.2227 8.14118 21.7635 7.97479 21.2599L7.57879 20.1369C7.33678 19.45 6.97932 18.8094 6.52179 18.2429V18.2869C6.65379 18.7719 6.71979 19.2569 6.76379 19.7629C6.96179 21.1279 7.62279 21.7879 7.62279 21.8099C7.62279 21.8319 7.62279 21.8549 7.60079 21.8319L7.51179 21.7659C7.09184 21.428 6.62451 21.1538 6.12479 20.9519C5.73238 20.7809 5.35647 20.5744 5.00179 20.3349C4.58568 20.0727 4.2143 19.7456 3.90179 19.3659H3.87779C3.94379 19.5419 4.00979 19.7189 4.09779 19.8949C4.42779 20.5329 4.91279 21.1049 5.50779 21.5249C6.07979 21.9649 6.74079 22.2509 7.44479 22.3389C7.86379 22.4489 8.28279 22.5589 8.70179 22.6469ZM5.15479 19.7849L6.47679 20.5989C6.47679 20.5989 6.49879 20.5769 6.49879 20.5549C6.21179 19.9829 6.16879 19.3659 6.12379 18.7499C6.07979 18.1999 6.16779 17.5389 6.14579 17.0099C6.10229 16.569 6.01383 16.1337 5.88179 15.7109C5.88179 15.6889 5.85979 15.6669 5.85979 15.6449L5.83779 15.6669C5.79379 16.3059 5.55179 16.8779 5.46379 17.4069C5.37588 18.0329 5.42086 18.6704 5.59579 19.2779C5.61779 19.2999 5.57379 19.3219 5.57379 19.2999C5.1366 18.7098 4.65019 18.1578 4.11979 17.6499C3.65979 17.219 3.31292 16.6815 3.10979 16.0849C3.10979 16.0849 3.08679 16.0629 3.06479 16.0629C3.04279 16.0629 3.06479 16.1069 3.06479 16.1509C3.06479 16.9659 3.30779 17.7809 3.79179 18.4629C4.14379 18.9699 4.60679 19.4329 5.15679 19.7849M4.91479 17.8469C4.93679 17.8249 4.93679 17.8249 4.93679 17.7809C4.89279 17.2309 4.95879 16.6579 5.17879 16.1509C5.48779 15.3149 5.70779 14.4559 5.83979 13.5529C5.83979 13.4429 5.86179 13.2449 5.86179 13.2009C5.83979 13.2009 5.83979 13.2009 5.83979 13.2229C5.66849 13.5897 5.46959 13.9431 5.24479 14.2799C4.89279 14.7639 4.54079 15.2929 4.49679 15.9099C4.47346 16.0851 4.47346 16.2626 4.49679 16.4379C4.49679 16.4379 4.49679 16.4599 4.47479 16.4599V16.4379L4.32079 15.9089C4.00979 14.8959 3.30679 14.2579 3.30679 12.7599L3.28479 12.7379C3.24079 12.8259 3.21879 12.9139 3.17479 13.0029C2.53579 15.0729 3.83479 16.5699 4.09879 16.8779C4.36279 17.1859 4.71679 17.5609 4.91479 17.8469ZM3.98979 13.7289L4.36479 14.8739C4.36479 14.8739 4.38679 14.8739 4.38679 14.8519C4.58479 14.2579 4.89279 13.7069 5.24479 13.2009L5.31079 13.1129C5.61946 12.7382 5.88379 12.3415 6.10379 11.9229C6.23579 11.6149 6.43379 10.9549 6.45679 10.8889H6.38979C6.16979 11.2189 5.90579 11.5049 5.59779 11.7689C5.21278 12.0368 4.89597 12.3913 4.67279 12.8039C4.65079 12.8699 4.60679 12.9359 4.58479 13.0029L4.45279 13.3769C4.45279 13.3769 4.43079 13.4209 4.43079 13.3769C4.43079 13.3329 4.47479 12.8269 4.47479 12.7379C4.47479 12.2979 4.43079 11.8579 4.34279 11.4389C4.24095 10.8995 4.24843 10.3452 4.36479 9.80885C4.36479 9.76585 4.38679 9.72185 4.40879 9.67785C4.40879 9.65585 4.43079 9.61185 4.43079 9.58885C4.43079 9.56585 4.43079 9.56685 4.40879 9.54485C3.83479 10.2499 3.50479 11.5269 3.63679 12.4959C3.74679 12.9139 3.85779 13.3329 3.98979 13.7289ZM4.78179 10.5139L4.80379 11.5709V11.9009H4.82579C5.13379 11.5049 5.48579 11.1529 5.86079 10.8229L6.74079 10.0729C7.08321 9.70241 7.31919 9.24634 7.42379 8.75285V8.68685H7.40179L7.29179 8.84085C7.08596 9.11174 6.83249 9.34285 6.54379 9.52285C6.01479 9.85285 5.66279 10.0959 5.35379 10.5139C5.33279 10.5359 5.30979 10.5359 5.33279 10.4919L5.53079 9.76585C5.64079 9.34685 5.68479 8.79585 5.83879 8.42185C5.92679 8.20185 6.08079 7.98185 6.25679 7.80585V7.76185C6.21279 7.76185 6.19079 7.78385 6.14679 7.80585C5.59679 8.09185 5.19979 8.55485 4.97979 9.08285C4.84779 9.41285 4.75979 9.76585 4.78179 10.1399V10.5139ZM5.94879 9.47985L6.91779 8.68785C7.20379 8.40085 7.46779 8.09285 7.68779 7.74085C7.9173 7.38462 8.19116 7.05901 8.50279 6.77185L8.56879 6.70585V6.65985C8.01073 6.78697 7.4904 7.04354 7.04979 7.40885C6.23479 8.04685 5.97079 9.30185 5.94979 9.47885M14.8008 16.3049C14.8668 16.2159 14.7128 16.1499 14.6688 16.3049C14.6248 16.4589 14.7348 16.4149 14.8008 16.3049ZM16.4748 12.4289C16.4078 12.4069 16.1658 12.6929 16.2098 12.7369C16.3255 12.6613 16.4174 12.5545 16.4748 12.4289ZM16.5188 12.3849C16.5628 12.4069 16.7168 12.3189 16.6948 12.2969C16.6728 12.2749 16.4748 12.1869 16.4748 12.2309C16.4748 12.3189 16.4968 12.3629 16.5188 12.3849ZM19.4908 15.1149C19.5788 15.0929 19.5568 14.9609 19.4908 14.9609C19.4248 14.9609 19.3368 15.0709 19.3588 15.0709C19.3808 15.0709 19.4468 15.1369 19.4908 15.1149ZM18.4118 12.1869C18.3458 12.1869 18.3238 12.2529 18.3898 12.2969C18.4558 12.3189 18.4998 12.2969 18.5438 12.2749C18.5693 12.2633 18.5911 12.2448 18.6067 12.2214C18.6222 12.1981 18.6309 12.1709 18.6318 12.1429C18.6318 12.0769 18.5438 11.9889 18.5878 11.9449C18.6318 11.9009 18.6978 11.9669 18.7428 11.9449C18.7878 11.9229 18.8088 11.8789 18.8088 11.8349C18.8088 11.7899 18.7868 11.6579 18.6988 11.6579C18.6108 11.6579 18.5218 11.8349 18.5218 11.8349C18.5116 11.8592 18.5064 11.8854 18.5064 11.9119C18.5064 11.9383 18.5116 11.9645 18.5218 11.9889C18.5438 12.0769 18.5218 12.1869 18.4118 12.1869ZM19.8658 12.2089C19.8658 12.2529 19.9758 12.5389 19.9978 12.6049C20.0198 12.6709 20.0418 12.9129 20.0858 12.8909C20.1298 12.8689 20.1298 12.7369 20.1078 12.6709C20.0834 12.5142 20.0466 12.3597 19.9978 12.2089C19.9758 12.1209 19.8218 11.7899 19.7778 11.8119C19.7328 11.8349 19.8438 12.0319 19.8658 12.1209C19.8878 12.2089 19.8438 12.1649 19.8658 12.2089ZM19.0948 8.46485C19.1608 8.48685 19.1608 8.35485 19.0508 8.26685C18.9408 8.17885 18.7648 8.22285 18.8088 8.26685C18.8968 8.33285 18.9848 8.42085 19.0948 8.46485ZM15.7918 7.51885C15.6378 7.43085 15.7698 7.29885 15.6598 7.20985C15.5278 7.16585 15.3958 7.18785 15.3068 7.27585C15.1968 7.40885 15.4398 7.36385 15.5058 7.40885C15.5718 7.45285 15.7918 7.60685 15.8138 7.58485C15.8358 7.56285 15.8138 7.51885 15.7918 7.51885ZM16.6718 7.07885C16.4748 6.98985 15.7478 6.98985 15.7698 7.18885C15.7918 7.38785 16.1878 7.18885 16.2978 7.18885C16.4078 7.18885 16.8478 7.16585 16.6728 7.07885M14.6688 15.5779C14.6248 15.5559 14.5588 15.5999 14.5368 15.5559C14.5148 15.5119 14.4708 15.5339 14.4708 15.5559C14.4708 15.5779 14.4488 15.6219 14.4928 15.6659C14.5172 15.6871 14.5484 15.6988 14.5808 15.6988C14.6131 15.6988 14.6444 15.6871 14.6688 15.6659C14.6789 15.6534 14.6843 15.6379 14.6843 15.6219C14.6843 15.6058 14.6789 15.5903 14.6688 15.5779ZM14.2508 14.1029C14.3168 14.1029 14.3168 14.0589 14.3388 14.0589C14.3608 14.0589 14.3388 14.1029 14.4048 14.1029C14.4708 14.1029 14.5368 13.9479 14.3388 13.9479C14.1838 13.9479 14.2058 14.1029 14.2508 14.1029ZM14.5148 14.2789C14.4048 14.2569 14.4268 14.3229 14.3388 14.3229C14.2058 14.3449 14.3168 14.2349 14.2728 14.1909C14.2508 14.1689 14.1838 14.2789 14.1628 14.3449C14.1628 14.3889 14.1628 14.4769 14.2058 14.4989L14.6248 14.5429C14.7128 14.5429 14.6248 14.3009 14.5148 14.2789ZM13.1498 15.7099C13.1938 15.7099 13.2158 15.5779 13.1938 15.5119C13.1718 15.4459 13.0388 15.4899 13.0388 15.5339C13.0388 15.5779 13.1288 15.7099 13.1498 15.7099ZM11.3878 15.7099C11.3878 15.6659 11.3878 15.4899 11.3438 15.4459C11.2998 15.4019 11.2998 15.4679 11.2778 15.4679C11.2558 15.4679 11.2558 15.3799 11.2338 15.3799C11.2118 15.3799 11.2338 15.5119 11.2778 15.5999C11.3218 15.6879 11.3878 15.8199 11.3878 15.7099ZM11.3438 15.3139C11.3878 15.1819 11.4098 15.0495 11.4098 14.9169C11.4098 14.8069 11.3438 14.7189 11.3218 14.7189C11.2998 14.7189 11.3218 14.7849 11.3438 14.8949C11.3438 15.0049 11.2998 15.1149 11.2778 15.2249C11.2778 15.2479 11.3218 15.3579 11.3438 15.3139ZM9.09779 20.2459C12.3778 23.5269 17.6638 23.5269 20.9448 20.2459C24.2258 16.9649 24.2248 11.6799 20.9448 8.39885C17.6648 5.11785 12.3788 5.11885 9.09779 8.39885C5.81679 11.6789 5.81679 16.9869 9.09779 20.2459ZM7.00579 14.4999H8.28279C8.30479 15.1605 8.41479 15.7992 8.61279 16.4159C8.5431 16.3956 8.47649 16.366 8.41479 16.3279C8.32679 16.2839 8.26079 16.3499 8.23879 16.3499C8.15079 16.3499 8.04079 16.2839 8.04079 16.3499C8.04079 16.4159 8.12879 16.3719 8.12879 16.4159C8.12879 16.4599 7.90879 16.4599 7.88679 16.3719C7.86479 16.2839 7.82079 16.1949 7.79879 16.3059C7.77679 16.4169 7.68879 16.3939 7.64479 16.4159C7.62279 16.4379 7.60079 16.4819 7.60079 16.5259C7.60079 16.5699 7.49079 16.5479 7.49079 16.6139C7.49079 16.6799 7.55679 16.7019 7.57879 16.7679C7.60079 16.8339 7.66679 16.8779 7.62279 16.8999C7.57879 16.9219 7.60079 16.8779 7.55679 16.8999C7.51279 16.9219 7.75479 17.5829 7.79879 17.5599C7.84279 17.5369 7.73279 17.3399 7.73279 17.2519C7.73279 17.1639 7.75479 17.1419 7.82079 17.0979C7.88679 17.0539 8.06279 17.3619 8.12879 17.3179C8.19479 17.2739 8.10679 17.2299 8.17279 17.2079C8.23879 17.1859 8.43679 17.4949 8.50279 17.4069C8.54679 17.3399 8.59079 17.4509 8.59079 17.4729C8.65779 17.5829 8.76779 17.5829 8.83379 17.7149C8.89979 17.8469 9.05379 18.0889 9.16379 18.0889C9.27379 18.0889 9.20779 17.9789 9.25179 17.9789C9.29579 17.9789 9.33979 18.1329 9.40579 18.2209C9.45237 18.2887 9.52328 18.3359 9.60379 18.3529C9.75779 18.5519 9.93379 18.7499 10.1108 18.9479L9.20779 19.8509C7.80959 18.4189 7.02038 16.5011 7.00579 14.4999ZM14.2948 12.6719L14.2058 12.7159C14.0843 12.7704 13.9728 12.8447 13.8758 12.9359L12.9728 12.0339C13.5018 11.5709 14.1628 11.2849 14.8448 11.2629V12.5399C14.6866 12.556 14.5313 12.5929 14.3828 12.6499C14.4268 12.5619 14.5148 12.4739 14.5148 12.4739C14.5148 12.4739 14.3608 12.5619 14.2948 12.6719ZM13.6118 14.7639V14.8079C13.6118 14.7639 13.5898 14.7419 13.5678 14.6979C13.5458 14.6759 13.5238 14.6539 13.5018 14.6539H13.3918L13.3478 14.6759H13.0388C12.9948 14.6759 12.9728 14.6759 12.9728 14.6539C12.9508 14.5659 13.0828 14.6319 13.1718 14.3679C13.1938 14.3459 13.1938 14.3019 13.2158 14.2799L13.2598 14.2139L13.2818 14.1919C13.3258 14.1479 13.3698 14.1479 13.4138 14.1479H13.4578L13.5018 14.1919L13.5678 14.3239C13.5898 14.3459 13.6118 14.3459 13.6118 14.3679C13.6449 14.3842 13.6748 14.4066 13.6998 14.4339L13.7218 14.4559V14.4779C13.7438 14.4999 13.7438 14.4999 13.7658 14.4999H13.8538C13.8978 14.4779 13.8978 14.4999 13.9198 14.4999V14.5219C13.9198 14.5439 13.9198 14.5439 13.8978 14.5659C13.8978 14.5879 13.8758 14.5879 13.8758 14.6099C13.8538 14.6319 13.8318 14.6539 13.8098 14.6539C13.7658 14.6539 13.7218 14.6319 13.6998 14.6319C13.6778 14.6319 13.6558 14.6319 13.6558 14.6539V14.7639M11.2338 16.8779C11.1709 16.7556 11.1406 16.6192 11.1458 16.4819C11.1434 16.3493 11.1054 16.2197 11.0358 16.1069C11.0138 16.0189 10.9918 15.9309 10.9918 15.8429C10.9918 15.6889 10.8588 15.7329 10.8588 15.6889C10.8588 15.6449 10.9688 15.6889 10.9688 15.6449C10.9688 15.6009 10.8368 15.4249 10.7268 15.3809C10.6168 15.3369 10.6608 15.2709 10.6608 15.2049C10.6608 15.1389 10.6608 15.0719 10.6168 15.0279C10.5948 14.9399 10.6168 14.7859 10.7268 14.7859C10.7708 14.7859 10.8368 14.8299 10.9038 14.7859C10.9708 14.7419 10.9258 14.6099 10.9258 14.4999H11.5418C11.5418 14.5879 11.5638 14.6979 11.5638 14.7859C11.5198 14.8079 11.4978 14.8519 11.5198 14.8739C11.5418 14.8959 11.5638 14.9179 11.5858 14.8959C11.6958 15.5349 11.9818 16.1289 12.4228 16.6139L11.5198 17.5169C11.4538 17.4509 11.3878 17.3619 11.3218 17.2739V17.2079C11.3218 17.0539 11.2118 16.9659 11.1678 16.8339M10.3748 15.3369C10.3146 15.0615 10.2778 14.7815 10.2648 14.4999H10.7928C10.7488 14.5659 10.6388 14.6319 10.6168 14.6979C10.5948 14.7639 10.4628 14.9839 10.5508 15.0719C10.7488 15.2919 10.5068 15.3809 10.3748 15.3369ZM10.4848 18.5959L10.3748 18.7059L10.2208 18.5519C10.3088 18.5079 10.3968 18.5299 10.4848 18.5959ZM11.8498 12.9359C11.8278 12.9359 11.8278 12.9589 11.8058 12.9589C11.7398 13.0249 11.5638 13.0029 11.5858 13.0689C11.6078 13.1349 12.0708 12.9139 12.0708 12.9589C12.0708 13.0039 11.8718 13.0689 11.7408 13.1349C11.6098 13.2009 11.5638 13.3109 11.3438 13.3109C11.2338 13.3109 11.1898 13.3989 11.1458 13.4649C11.0862 13.5477 11.0346 13.6361 10.9918 13.7289C10.9931 13.8662 10.963 14.002 10.9038 14.1259H10.2638C10.3079 12.9955 10.7532 11.9177 11.5198 11.0859L12.4228 11.9899C12.2031 12.2869 12.0113 12.6035 11.8498 12.9359ZM12.6868 12.2759L13.4798 13.0689H13.3918C13.3038 13.0689 13.3038 13.0029 13.2378 13.0029C13.1048 13.0249 13.0828 13.0689 13.0608 13.0469C12.9638 12.9557 12.8522 12.8814 12.7308 12.8269C12.5868 12.7778 12.4295 12.7853 12.2908 12.8479C12.2688 12.8479 12.2688 12.8699 12.2468 12.8699C12.4008 12.6719 12.5548 12.4739 12.6868 12.2759ZM11.5868 13.8829C11.5868 13.9709 11.5638 14.0599 11.5638 14.1479H11.1018C11.0798 14.0819 11.1018 14.0149 11.1458 13.9489C11.1898 13.8609 11.2998 13.8169 11.4098 13.8389C11.4701 13.8458 11.5303 13.8606 11.5868 13.8829ZM11.9818 14.9179L12.0268 14.9839C12.0708 15.0279 12.1148 15.0719 12.1588 15.0499C12.2028 15.0279 12.3128 15.0499 12.3348 15.0499C12.4008 15.0719 12.4448 15.1159 12.4888 15.1599C12.5328 15.2269 12.6208 15.1829 12.6868 15.2269C12.7528 15.2709 12.8188 15.3149 12.7308 15.3589C12.6428 15.4029 12.8188 15.4909 12.8408 15.4909C12.8628 15.4909 12.8848 15.4469 12.8848 15.3809C12.8848 15.3589 12.9288 15.2709 12.9948 15.2929C13.0608 15.3149 13.2598 15.5569 13.3248 15.4689C13.3918 15.3809 13.3478 15.2709 13.3698 15.2269C13.3698 15.2049 13.3918 15.1829 13.4138 15.1829C13.4798 15.2929 13.5238 15.3809 13.6118 15.4689L12.7088 16.3719C12.3265 15.9708 12.0733 15.4643 11.9818 14.9179ZM12.6868 11.7689L11.8068 10.8669C12.6383 10.101 13.7152 9.65617 14.8448 9.61185V10.8889C14.0518 10.9109 13.3038 11.2189 12.6868 11.7689ZM11.5418 10.6019L10.6398 9.69985C11.7812 8.62405 13.2779 8.00486 14.8458 7.95985V9.23685C13.6156 9.27585 12.4416 9.76101 11.5428 10.6019M11.2788 10.8449C10.4418 11.7462 9.95728 12.9186 9.91379 14.1479H8.63479C8.6798 12.58 9.29899 11.0833 10.3748 9.94185L11.2788 10.8449ZM9.91279 14.4999C9.91279 14.7419 9.93479 14.9619 9.97879 15.2049C9.95679 15.2049 9.95679 15.1379 9.89079 15.1599C9.82479 15.1819 9.58179 15.5999 9.47179 15.7769C9.38379 15.9309 9.51579 16.2609 9.38379 16.3719C9.256 16.4142 9.12241 16.4365 8.98779 16.4379H8.96579C8.75171 15.8284 8.63265 15.1895 8.61279 14.5439L9.91279 14.4999ZM14.8228 22.3389C12.823 22.2979 10.9123 21.5036 9.47279 20.1149L10.3748 19.2119C11.5794 20.3546 13.163 21.0133 14.8228 21.0619V22.3389ZM14.8228 20.7089C13.2549 20.6638 11.7582 20.0447 10.6168 18.9689L10.7708 18.8159C10.8045 18.8425 10.8414 18.8647 10.8808 18.8819C10.9765 18.9291 11.0847 18.9445 11.1898 18.9259C11.2778 18.9039 11.4538 18.7499 11.5638 18.7499C11.6738 18.7499 11.8498 18.7939 11.9598 18.7279C12.0698 18.6619 11.8938 18.4409 11.8278 18.3309C11.8058 18.3089 11.8058 18.2869 11.7838 18.2649C12.6479 18.9947 13.736 19.4065 14.8668 19.4319L14.8228 20.7089ZM14.8228 19.0579C13.6929 19.0138 12.6156 18.5689 11.7838 17.8029L12.6868 16.8999C13.1058 17.2739 13.6118 17.5599 14.1838 17.6929C13.9858 17.7809 13.8978 17.9129 13.9198 18.0229C13.9418 18.1329 13.7878 18.1989 13.7878 18.3309C13.7878 18.4629 13.9638 18.5509 13.9858 18.6839C14.0078 18.7499 14.1618 18.8599 14.2948 18.9479C14.4708 18.9919 14.6468 19.0139 14.8008 18.9919L14.8228 19.0579ZM14.7788 17.2959C14.7128 17.2519 14.6688 17.3399 14.5808 17.3839C13.9773 17.295 13.4117 17.0355 12.9508 16.6359L13.8538 15.7329C14.1398 15.9529 14.4708 16.1069 14.8228 16.1289C14.8228 16.1729 14.8668 16.2169 14.8668 16.3059C14.8668 16.3949 14.8008 16.4379 14.8228 16.4819C14.8448 16.5259 15.0428 16.4819 15.0648 16.4159C15.0868 16.3499 14.9988 16.3059 14.9768 16.2389C14.9548 16.1949 14.9548 16.1729 14.9328 16.1289H14.9998C15.0658 16.1289 15.1318 16.1289 15.1978 16.1069C15.209 16.1056 15.2195 16.1005 15.2275 16.0925C15.2355 16.0845 15.2405 16.0741 15.2418 16.0629C15.2418 16.0409 15.2638 16.0189 15.2638 15.9969C15.2638 15.9749 15.2858 15.9749 15.2858 15.9529L15.3078 15.9749C15.3298 16.0189 15.3748 16.1509 15.4178 16.1289C15.4608 16.1069 15.4848 15.9089 15.4628 15.8649C15.4414 15.8363 15.4298 15.8016 15.4298 15.7659C15.4298 15.7302 15.4414 15.6954 15.4628 15.6669C15.4628 15.6449 15.4848 15.5129 15.5288 15.5349C15.5728 15.5569 15.5288 15.6669 15.5288 15.7109C15.5288 15.7769 15.5728 15.8649 15.6388 15.8209C15.6828 15.7989 15.7268 15.7329 15.7708 15.7549C15.8148 15.7769 15.6608 15.8209 15.6388 15.8649C15.6168 15.9089 15.7048 15.9309 15.6828 15.9529C15.6608 15.9749 15.6388 15.9529 15.6168 15.9749C15.5948 15.9969 15.6608 16.1289 15.6168 16.1509C15.5728 16.1729 15.4188 16.2169 15.3748 16.2389C15.3308 16.2609 15.2858 16.2169 15.3078 16.1949C15.3298 16.1729 15.3078 16.0849 15.2638 16.0849C15.2198 16.0849 15.2198 16.1069 15.2198 16.1509C15.2198 16.1949 15.2638 16.2609 15.2638 16.2839C15.2638 16.3069 15.1978 16.3279 15.1538 16.3499C15.1098 16.4159 15.0438 16.4819 14.9778 16.5259C14.9118 16.5699 14.7798 16.5699 14.7798 16.6139C14.7798 16.6579 14.8458 16.6579 14.8678 16.6799C14.9118 16.7459 14.9338 16.8339 14.8458 16.8779C14.7578 16.9219 14.6478 16.8119 14.6038 16.8339C14.5598 16.8559 14.5378 16.9659 14.5158 17.0979C14.4938 17.2299 14.7578 17.2739 14.8898 17.2079C14.9778 17.1639 14.9558 17.0319 15.0438 16.9879C15.1318 16.9439 15.1098 16.8559 15.1978 16.8779C15.2858 16.8999 15.2638 16.8119 15.3528 16.8119C15.4418 16.8119 15.4408 16.8779 15.5508 16.8999C15.7268 16.9439 15.7268 17.0759 15.7488 17.0099C15.7708 16.9439 15.7928 16.8999 15.6608 16.8559C15.5288 16.8119 15.4628 16.6579 15.5728 16.7019C15.7048 16.7679 15.8148 16.7679 15.8368 16.8339C15.8588 16.8999 15.9908 16.8779 16.0128 16.9439C16.0348 17.0539 16.1228 16.9439 16.0568 16.8779C15.9908 16.8119 16.0128 16.7899 16.0568 16.7459C16.1008 16.7019 16.1228 16.7679 16.1888 16.6799C16.2548 16.5919 16.1668 16.6139 16.1448 16.5699C16.1228 16.5259 16.1448 16.2839 16.2328 16.3279C16.3208 16.3719 16.4088 16.3059 16.3648 16.2839C16.3208 16.2609 16.3868 16.1289 16.4088 16.1289C16.4308 16.1289 16.4088 16.2169 16.4308 16.2389C16.4528 16.2609 16.6738 16.1729 16.6958 16.2839C16.7178 16.3949 16.5418 16.4599 16.4978 16.4599C16.4088 16.4599 16.3428 16.5479 16.2778 16.6359C16.2108 16.7239 16.1448 16.7459 16.1888 16.8339C16.2328 16.9219 16.3208 16.8999 16.4088 16.8559C16.4968 16.8119 16.5638 16.7459 16.6078 16.7239C16.6958 16.6799 16.7618 16.9439 16.7178 16.9879C16.6738 17.0319 16.5858 17.0539 16.5418 17.0979C16.4088 17.1639 16.2768 17.2299 16.1228 17.2299C16.0348 17.2519 16.0348 17.2739 16.0128 17.3619C15.9908 17.4499 15.5948 17.3839 15.5068 17.3839C15.4188 17.3839 15.5728 17.1859 15.4408 17.2079L15.0438 17.2739C15.0218 17.2739 14.8888 17.3839 14.7788 17.2959ZM15.9468 19.3439C16.0568 19.3879 16.1668 19.4759 16.2328 19.5639C16.2988 19.6739 16.3208 19.7189 16.2768 19.8289C16.1668 20.0269 16.2108 20.1589 16.4308 20.2249C16.5638 20.2689 16.6078 20.4009 16.6958 20.4889C16.2062 20.6177 15.7038 20.6915 15.1978 20.7089V19.4319C15.4408 19.4099 15.7048 19.3879 15.9478 19.3439M15.1978 19.0799V18.9259C15.4848 18.8819 15.4178 19.0579 15.6168 18.9919C15.6473 18.9818 15.68 18.9806 15.7112 18.9884C15.7423 18.9962 15.7706 19.0126 15.7928 19.0359C15.5938 19.0387 15.3951 19.0534 15.1978 19.0799ZM15.1978 22.3609V21.0609C15.865 21.0418 16.5256 20.9232 17.1578 20.7089C17.1798 20.7319 17.2018 20.7319 17.2238 20.7319C17.3113 20.7259 17.3953 20.695 17.4658 20.6429C17.6777 20.5594 17.8778 20.4484 18.0608 20.3129C18.6409 20.0175 19.1748 19.6392 19.6458 19.1899L20.5488 20.0929C19.1178 21.5029 17.2018 22.2949 15.1988 22.3609M18.7658 10.8449L19.0738 10.5359C19.1542 10.6269 19.2625 10.6888 19.3818 10.7119C19.4918 10.7349 19.5358 10.7789 19.5578 10.8889C19.5798 10.9989 19.6898 11.0429 19.8008 11.0649C19.9118 11.0869 19.9768 11.2189 20.0648 11.2189C20.1528 11.2189 20.4388 11.6149 20.5488 11.7469C20.6148 11.8129 20.7028 11.9239 20.7688 11.8359C20.8348 11.7469 20.8348 11.7689 20.8788 11.7469C21.2137 12.5044 21.4007 13.3191 21.4298 14.1469H20.1528C20.1528 13.8609 20.1088 13.5749 20.0428 13.2889C20.0881 13.2005 20.1108 13.1022 20.1088 13.0029C20.1088 12.9139 20.0208 12.8699 19.9548 12.9359C19.9101 12.7698 19.8512 12.6078 19.7788 12.4519C19.7558 12.3639 19.7338 12.2539 19.7118 12.1659C19.7118 12.1439 19.6678 12.1219 19.6238 12.0779C19.5798 11.9899 19.5578 11.9239 19.5138 11.8579C19.5798 11.8129 19.6018 11.7029 19.5138 11.7249C19.3818 11.7469 19.4698 11.6589 19.4258 11.6149C19.3818 11.5709 19.3818 11.6149 19.3598 11.6369C19.189 11.3729 18.9978 11.1228 18.7878 10.8889V10.8669C18.7438 10.8669 18.7438 10.8449 18.7658 10.8449ZM19.5358 18.3089C19.4918 18.2209 19.4698 18.1109 19.4258 18.0229C19.4038 17.9349 19.2278 17.9349 19.2278 17.9789C19.2278 18.0669 19.2278 18.1549 19.2058 18.2429V18.2649L18.7438 17.8029C19.5808 16.9016 20.0653 15.7291 20.1088 14.4999H21.3858C21.3448 16.0621 20.7246 17.5533 19.6458 18.6839L19.5798 18.6179C19.5965 18.5128 19.5811 18.4051 19.5358 18.3089ZM18.4788 19.1899C18.5448 19.0799 18.6778 18.8819 18.7438 18.7719C18.8098 18.6619 18.5668 18.5079 18.4348 18.4629C18.3028 18.4179 18.3028 18.3529 18.3028 18.2429C18.3688 18.1989 18.4348 18.1329 18.5008 18.0669L19.4038 18.9699C19.1059 19.2504 18.7813 19.5012 18.4348 19.7189C18.4128 19.6749 18.5668 19.5199 18.6108 19.4539C18.6548 19.3879 18.4348 19.2999 18.4788 19.1899ZM19.0288 13.9269C18.9188 13.7729 19.0738 13.7509 19.2278 13.6849C19.3158 13.6409 19.4258 13.7069 19.4258 13.6629C19.4258 13.6189 19.4698 13.5309 19.5138 13.5089C19.5578 13.4869 19.6238 13.4429 19.6458 13.3989C19.6458 13.4429 19.6678 13.4869 19.6678 13.5309C19.6256 13.6046 19.6029 13.6879 19.6018 13.7729C19.6018 13.8389 19.6018 13.9269 19.6678 13.7729C19.6678 13.7509 19.6898 13.7509 19.6898 13.7289C19.7338 13.8829 19.7338 14.0149 19.7338 14.1479H18.7878V14.1259C18.8538 14.0159 19.0958 14.0369 19.0298 13.9269M19.2058 12.1219C19.2058 12.1219 19.2058 12.1439 19.1838 12.1439C19.1618 12.1659 19.0518 11.9899 19.0518 12.1219C19.0518 12.2539 19.0958 12.2979 19.1838 12.3199C19.2718 12.3419 19.2278 12.3859 19.2938 12.4079C19.3158 12.4079 19.3598 12.4299 19.3818 12.4519C19.4918 12.6939 19.5578 12.9359 19.6238 13.2009C19.5906 13.2172 19.5608 13.2396 19.5358 13.2669C19.4918 13.3109 19.5138 13.3989 19.4698 13.4649C19.4038 13.5749 19.3818 13.6409 19.2058 13.5969C19.0958 13.5529 19.1838 13.4209 19.2058 13.3109C19.2278 13.2009 19.2718 13.2229 19.2718 13.1569C19.2718 13.0909 19.0518 12.8479 18.9418 12.9369C18.8318 13.0249 18.8538 13.1129 18.7658 13.2009C18.7218 13.2449 18.6778 13.2449 18.6108 13.2009C18.5438 13.1569 18.5228 13.1129 18.5448 13.0689C18.5668 13.0249 18.3908 12.8259 18.3248 12.7389C18.2829 12.6851 18.2296 12.6414 18.1687 12.6108C18.1078 12.5801 18.0409 12.5634 17.9728 12.5619C17.8528 12.3575 17.7125 12.1658 17.5538 11.9899L18.4568 11.0869C18.7658 11.4169 19.0068 11.7469 19.2058 12.1219ZM17.6858 12.7379L17.6428 12.8039C17.6208 12.8479 17.5098 12.7599 17.4878 12.7819C17.4658 12.8039 17.6428 13.0249 17.4658 12.9589C17.2898 12.8919 17.3998 12.8919 17.3998 12.8259C17.3998 12.7599 17.2458 12.7159 17.3338 12.6719C17.4218 12.6279 17.3338 12.5619 17.4218 12.5399C17.5098 12.5179 17.4878 12.4299 17.3778 12.4079C17.2678 12.3859 17.2898 12.6499 17.2238 12.6059C17.1578 12.5839 17.0918 12.5839 17.0258 12.5839L17.3338 12.2759C17.3676 12.2935 17.4058 12.3012 17.4438 12.2979C17.4878 12.4739 17.5988 12.6059 17.6868 12.7379M17.3338 17.2079C17.4658 17.2299 17.6208 17.2519 17.7528 17.2959C17.8408 17.3399 17.9068 17.4289 17.9728 17.3179C18.1048 17.1199 18.1928 16.8999 18.2368 16.6579C18.2808 16.3279 18.2148 16.2179 18.1708 16.2179C18.1268 16.2179 18.0388 16.3059 17.9508 16.3059C17.9068 16.3059 17.9068 16.3939 17.9068 16.4599C17.9068 16.5259 17.8188 16.5919 17.7968 16.5479C17.7748 16.5039 17.7308 16.5259 17.7528 16.5699C17.7748 16.6139 17.5768 16.5919 17.4878 16.5479C17.3558 16.4819 17.6428 16.4819 17.7748 16.3719C17.8848 16.2839 17.9948 16.1729 18.1048 16.0629C18.1708 15.9529 18.1708 15.8209 18.2808 15.7329C18.3908 15.6449 18.5668 15.6669 18.5888 15.5349C18.6108 15.4029 18.6328 15.4249 18.6988 15.4469C18.7648 15.4689 19.3818 15.4249 19.3818 15.2269C19.3818 15.1379 19.2498 15.0279 19.1178 15.0069C19.0298 15.0069 19.0078 14.8299 18.9638 14.7419C18.921 14.6491 18.8694 14.5607 18.8098 14.4779H19.7338C19.6897 15.6078 19.2448 16.6851 18.4788 17.5169L18.4568 17.4949V17.4069C18.4788 17.2299 18.3468 16.9439 18.3028 16.9879C18.2588 17.0319 18.3028 17.0319 18.1708 17.2299C18.1268 17.2959 18.0608 17.4069 17.9728 17.4069C17.8848 17.4069 17.8848 17.3619 17.7528 17.3839C17.6361 17.4048 17.5165 17.4048 17.3998 17.3839C17.19 17.3152 16.9903 17.219 16.8058 17.0979C16.8278 17.0759 16.8938 17.1199 16.8938 17.0539C16.8938 16.9879 17.2458 17.1859 17.3338 17.2079ZM20.7908 19.8729L19.8888 18.9699C21.0316 17.7652 21.6902 16.1816 21.7388 14.5219H23.0368C22.9938 16.5255 22.191 18.438 20.7908 19.8719M23.0368 14.1479H21.7378C21.7162 13.201 21.4911 12.27 21.0778 11.4179L21.0998 11.3949C21.1878 11.3069 20.6808 10.6459 20.5928 10.5799C20.5048 10.5139 20.4168 10.4039 20.3068 10.2939C20.1279 10.1187 19.9659 9.92724 19.8228 9.72185L20.7688 8.77485C22.1841 10.2099 22.9958 12.1327 23.0368 14.1479ZM15.1978 6.30785C17.2037 6.35312 19.1202 7.14674 20.5708 8.53285L19.6908 9.41285C19.6458 9.39085 19.6018 9.36885 19.6238 9.32485C19.6678 9.25885 19.5578 9.25885 19.5358 9.08285C19.4852 8.90548 19.3666 8.75526 19.2058 8.66485C19.0958 8.59885 19.0298 8.51085 18.9198 8.46585C18.8098 8.42185 18.5898 8.28985 18.4798 8.33385C18.4089 8.35878 18.3348 8.37359 18.2598 8.37785C17.3235 7.87666 16.2816 7.6052 15.2198 7.58585L15.1978 6.30785ZM15.1978 7.95985C16.1448 7.98185 17.0478 8.22385 17.9068 8.64285C17.9323 8.78722 17.9927 8.92316 18.0828 9.03885C18.1268 9.14885 18.1928 9.23685 18.2588 9.34685C18.3248 9.41285 18.2808 9.54485 18.3028 9.65585C18.3028 9.69985 18.3468 9.74385 18.3688 9.78785V9.96385C18.3688 9.98585 18.4568 9.98585 18.5228 9.94185C18.5888 9.89785 18.6328 9.80985 18.7218 9.83185C18.8108 9.85385 18.9198 10.0299 18.9858 10.1399L18.5668 10.5579C18.5228 10.4699 18.4788 10.3599 18.5008 10.3599C18.5228 10.3599 18.5668 10.3819 18.5888 10.3819C18.6778 10.3819 18.5228 10.3159 18.5228 10.2939C18.4568 10.2279 18.4568 10.1399 18.3688 10.0739C18.2808 10.0079 18.1488 10.0519 18.1048 9.96385C18.0185 9.80691 17.8983 9.67126 17.7528 9.56685C17.7308 9.56685 17.9288 9.80985 17.8628 9.85385C17.7968 9.89785 17.5538 9.69985 17.5328 9.74385C17.5098 9.78785 17.7968 9.89785 17.8848 9.98585C17.9288 10.0299 18.0168 10.1619 18.1048 10.2719C17.2659 9.63495 16.2504 9.27339 15.1978 9.23685V7.95985ZM15.1978 9.58985C16.328 9.6337 17.4058 10.0786 18.2378 10.8449L17.3338 11.7469C16.7419 11.2202 15.9889 10.91 15.1978 10.8669V9.58985ZM15.1978 11.2409C15.8914 11.2761 16.5521 11.5479 17.0698 12.0109L17.0258 12.0559L16.9818 12.0339C16.8718 11.9899 16.6518 12.2099 16.6958 12.2319C16.7398 12.2539 16.8278 12.1439 16.8718 12.1659H16.8938L16.5198 12.5619C16.4098 12.6059 16.2998 12.6939 16.2998 12.7599V12.7819L16.1668 12.9139L16.1008 12.8479C15.9967 12.7607 15.8773 12.6936 15.7488 12.6499C15.8148 12.6059 15.8368 12.5399 15.8588 12.4519C15.8588 12.3199 15.8148 12.3639 15.7488 12.4299C15.6828 12.4959 15.6168 12.5179 15.5728 12.5839C15.4601 12.5407 15.3405 12.5184 15.2198 12.5179V11.2409H15.1978ZM15.0438 12.8709C15.0658 12.9139 15.0438 12.9589 15.0218 12.9809C14.9778 13.0249 14.8458 12.8709 14.8238 13.0029C14.7798 13.1349 14.9118 13.0689 14.9118 13.0909C14.9759 13.1751 15.0709 13.2305 15.1758 13.2449C15.2638 13.2449 15.3958 13.2449 15.3958 13.3329C15.3958 13.3769 15.5058 13.3769 15.5288 13.4209C15.5288 13.4869 15.5948 13.5969 15.6388 13.5749C15.6828 13.5529 15.7488 13.5969 15.7708 13.6409C15.7928 13.6849 15.7708 13.7069 15.7488 13.7509C15.6828 13.8169 15.8148 13.7949 15.8368 13.9269C15.8588 14.0589 15.7268 13.9709 15.7048 14.0599C15.6608 14.1259 15.6168 14.1699 15.5728 14.2359C15.5508 14.2579 15.5948 14.3019 15.6168 14.2799C15.6388 14.2579 15.6828 14.1919 15.7488 14.1919C15.8148 14.1919 15.8808 14.4339 15.9468 14.4559C16.0128 14.4779 15.9908 14.5659 16.0128 14.5879C16.0348 14.6099 15.9028 14.5879 15.9248 14.6319C15.9468 14.6759 16.0788 14.6979 16.0788 14.7639C16.0568 14.8299 16.0128 14.8959 15.9248 14.8959C15.8588 14.8959 15.7488 14.7419 15.7488 14.7859C15.7488 14.8299 15.7928 14.9619 15.8588 14.9619C15.9248 14.9619 16.0788 14.8959 16.0128 14.9839C15.9468 15.0719 15.9688 15.2039 15.9248 15.2039C15.8808 15.2039 15.8588 15.2039 15.9028 15.2709C15.9248 15.3369 15.9028 15.4029 15.8588 15.4689C15.8148 15.5129 15.7048 15.4689 15.7048 15.4469C15.7048 15.4249 15.8368 15.4249 15.8368 15.3589C15.8368 15.2929 15.7708 15.2709 15.6388 15.3149C15.5728 15.3369 15.5508 15.2929 15.5068 15.2929C15.4628 15.2929 15.3308 15.4469 15.3308 15.4689V15.5789C15.3324 15.6574 15.3089 15.7345 15.2638 15.7989C15.1758 15.8209 15.1098 15.8209 15.0218 15.8209C14.6698 15.8209 14.3178 15.6669 14.0528 15.4469C14.1076 15.4187 14.1682 15.4037 14.2298 15.4029C14.2958 15.4249 14.3178 15.3809 14.3618 15.3589C14.4058 15.3369 14.5158 15.4029 14.5818 15.3589C14.6478 15.3149 14.8018 15.0289 14.7798 14.9619C14.7578 14.8949 14.9338 14.7859 14.9118 14.7639C14.8898 14.7419 14.8678 14.7859 14.8678 14.7639C14.8678 14.7419 14.9118 14.7419 14.8678 14.6539C14.8238 14.5659 14.7578 14.6099 14.7138 14.6099C14.6478 14.5659 14.5378 14.5439 14.5158 14.5659C14.4938 14.5879 14.4278 14.5219 14.4058 14.5439C14.3838 14.5439 14.3398 14.5659 14.3398 14.6099C14.3178 14.6539 14.3618 14.6979 14.3618 14.7419C14.3398 14.8299 14.2068 14.8959 14.2068 14.9619C14.2068 15.0279 14.1408 14.9839 14.1188 15.0059C14.0968 15.0279 14.1188 15.0719 14.0748 15.0719C14.0308 15.0719 13.9648 15.1819 13.9208 15.2709C13.8548 15.1829 13.7888 15.0719 13.7228 14.9839C13.7668 14.9619 13.8108 14.9399 13.8328 14.9619C13.8988 15.0059 14.1628 14.5439 14.1188 14.4119C14.0748 14.2799 14.0088 14.3679 13.9428 14.3899C13.8768 14.4119 13.8768 14.3459 13.8988 14.3239C13.9208 14.3019 14.2068 14.3019 14.0528 14.2139C13.9868 14.1699 13.8108 14.1699 13.8328 14.1039C13.8548 14.0379 13.9428 14.1039 13.9648 14.1039C14.0748 14.1479 14.1408 13.9269 14.2068 13.9269C14.3168 13.9269 14.2738 13.7069 14.1628 13.7729C14.0518 13.8389 14.0088 13.8169 13.9648 13.8829C13.9208 13.9489 13.8108 14.0369 13.8108 13.9489C13.8108 13.9049 14.0528 13.7729 14.0968 13.7069C14.1454 13.6565 14.1828 13.5966 14.2068 13.5309C14.2298 13.4649 14.5368 13.4209 14.6038 13.3769C14.6478 13.3329 14.6918 13.2669 14.6918 13.2009C14.6918 13.1349 14.6038 13.1569 14.5818 13.1129C14.5598 13.0689 14.6918 13.1129 14.6918 13.0469C14.6918 12.9809 14.5818 13.0469 14.5378 13.0029C14.5378 12.9809 14.5378 12.9809 14.5598 12.9589C14.7578 12.8919 14.8898 12.8699 15.0438 12.8699H15.0878M14.8458 6.30885V7.58585C13.186 7.63444 11.6024 8.29309 10.3978 9.43585L9.49479 8.53285C10.9346 7.14387 12.8456 6.34959 14.8458 6.30885ZM9.20779 8.79685L10.1108 9.69985C8.96802 10.9045 8.30938 12.4881 8.26079 14.1479H6.98379C7.04457 12.152 7.83597 10.2478 9.20779 8.79685Z" fill="white"/>
</svg>
