<svg width="24" height="24" viewBox="0 0 24 24" fill="none" xmlns="http://www.w3.org/2000/svg">
<path d="M13.8044 5H10.1955C6.79361 5 5.09265 5 4.03518 6.0255C3.3062 6.73075 3.08031 7.73263 3.00921 9.36538C2.99571 9.68913 2.98851 9.85188 3.05061 9.9595C3.1136 10.0671 3.3611 10.2027 3.85789 10.4722C4.13772 10.6239 4.37082 10.8455 4.53309 11.1141C4.69536 11.3827 4.78091 11.6885 4.78091 12C4.78091 12.3115 4.69536 12.6173 4.53309 12.8859C4.37082 13.1545 4.13772 13.3761 3.85789 13.5278C3.3611 13.7981 3.1127 13.9329 3.05061 14.0405C2.98851 14.1481 2.99571 14.31 3.01011 14.6338C3.08031 16.2674 3.3071 17.2692 4.03518 17.9745C5.09175 19 6.79271 19 10.1955 19H13.8044C17.2063 19 18.9073 19 19.9648 17.9745C20.6937 17.2692 20.9196 16.2674 20.9907 14.6346C21.0042 14.3109 21.0114 14.1481 20.9493 14.0405C20.8863 13.9329 20.6388 13.7981 20.1421 13.5278C19.8622 13.3761 19.6291 13.1545 19.4669 12.8859C19.3046 12.6173 19.219 12.3115 19.219 12C19.219 11.6885 19.3046 11.3827 19.4669 11.1141C19.6291 10.8455 19.8622 10.6239 20.1421 10.4722C20.6388 10.2027 20.8872 10.0671 20.9493 9.9595C21.0114 9.85188 21.0042 9.69 20.9898 9.36538C20.9196 7.73263 20.6928 6.73162 19.9648 6.0255C18.9082 5 17.2072 5 13.8044 5Z" stroke="#3B3B3B" stroke-width="1.5"/>
<path d="M9.2998 14.625L14.6997 9.375" stroke="#3B3B3B" stroke-width="1.5" stroke-linecap="round"/>
<path d="M15.1494 14.1875C15.1494 14.4196 15.0546 14.6421 14.8858 14.8062C14.7171 14.9703 14.4882 15.0625 14.2495 15.0625C14.0108 15.0625 13.7819 14.9703 13.6131 14.8062C13.4443 14.6421 13.3495 14.4196 13.3495 14.1875C13.3495 13.9554 13.4443 13.7329 13.6131 13.5688C13.7819 13.4047 14.0108 13.3125 14.2495 13.3125C14.4882 13.3125 14.7171 13.4047 14.8858 13.5688C15.0546 13.7329 15.1494 13.9554 15.1494 14.1875ZM10.6496 9.8125C10.6496 10.0446 10.5547 10.2671 10.386 10.4312C10.2172 10.5953 9.98827 10.6875 9.74959 10.6875C9.5109 10.6875 9.28198 10.5953 9.11321 10.4312C8.94443 10.2671 8.84961 10.0446 8.84961 9.8125C8.84961 9.58044 8.94443 9.35788 9.11321 9.19378C9.28198 9.02969 9.5109 8.9375 9.74959 8.9375C9.98827 8.9375 10.2172 9.02969 10.386 9.19378C10.5547 9.35788 10.6496 9.58044 10.6496 9.8125Z" fill="#3B3B3B"/>
</svg>
