<svg width="31" height="31" viewBox="0 0 31 31" fill="none" xmlns="http://www.w3.org/2000/svg">
<rect x="0.333252" y="0.5" width="30" height="30" rx="8" fill="#E4E9FC"/>
<path d="M19.3333 22.5H25.3333M22.3333 19.5V25.5M9.33325 24.5V22.5C9.33325 21.4391 9.75468 20.4217 10.5048 19.6716C11.255 18.9214 12.2724 18.5 13.3333 18.5H17.3333M11.3333 10.5C11.3333 11.5609 11.7547 12.5783 12.5048 13.3284C13.255 14.0786 14.2724 14.5 15.3333 14.5C16.3941 14.5 17.4115 14.0786 18.1617 13.3284C18.9118 12.5783 19.3333 11.5609 19.3333 10.5C19.3333 9.43913 18.9118 8.42172 18.1617 7.67157C17.4115 6.92143 16.3941 6.5 15.3333 6.5C14.2724 6.5 13.255 6.92143 12.5048 7.67157C11.7547 8.42172 11.3333 9.43913 11.3333 10.5Z" stroke="#6E89E7" stroke-width="1.5" stroke-linecap="round" stroke-linejoin="round"/>
</svg>
