<svg width="31" height="31" viewBox="0 0 31 31" fill="none" xmlns="http://www.w3.org/2000/svg">
<rect x="0.499939" y="0.5" width="30" height="30" rx="8" fill="#F7E8E2"/>
<path d="M6.49994 24.5V22.5C6.49994 21.4391 6.92137 20.4217 7.67151 19.6716C8.42166 18.9214 9.43907 18.5 10.4999 18.5H14.4999C15.5608 18.5 16.5782 18.9214 17.3284 19.6716C18.0785 20.4217 18.4999 21.4391 18.4999 22.5V24.5M19.4999 6.63C20.3604 6.8503 21.123 7.3507 21.6676 8.05231C22.2122 8.75392 22.5078 9.61683 22.5078 10.505C22.5078 11.3932 22.2122 12.2561 21.6676 12.9577C21.123 13.6593 20.3604 14.1597 19.4999 14.38M24.4999 24.5V22.5C24.4949 21.6172 24.1979 20.7608 23.6552 20.0644C23.1126 19.368 22.3548 18.8707 21.4999 18.65M8.49994 10.5C8.49994 11.5609 8.92137 12.5783 9.67151 13.3284C10.4217 14.0786 11.4391 14.5 12.4999 14.5C13.5608 14.5 14.5782 14.0786 15.3284 13.3284C16.0785 12.5783 16.4999 11.5609 16.4999 10.5C16.4999 9.43913 16.0785 8.42172 15.3284 7.67157C14.5782 6.92143 13.5608 6.5 12.4999 6.5C11.4391 6.5 10.4217 6.92143 9.67151 7.67157C8.92137 8.42172 8.49994 9.43913 8.49994 10.5Z" stroke="#ED8559" stroke-width="1.5" stroke-linecap="round" stroke-linejoin="round"/>
</svg>
