<svg width="30" height="31" viewBox="0 0 30 31" fill="none" xmlns="http://www.w3.org/2000/svg">
<rect y="0.5" width="30" height="30" rx="8" fill="#E3F4FC"/>
<path d="M18.5 14L15.5 17L13.5 15L10.5 18" stroke="#36BDF7" stroke-width="1.5" stroke-linecap="round" stroke-linejoin="round"/>
<path d="M17 8.5H10.2C9.08 8.5 8.52 8.5 8.092 8.718C7.71569 8.90974 7.40974 9.21569 7.218 9.592C7 10.02 7 10.58 7 11.7V20.3C7 21.42 7 21.98 7.218 22.408C7.40974 22.7843 7.71569 23.0903 8.092 23.282C8.52 23.5 9.08 23.5 10.2 23.5H18.8C19.92 23.5 20.48 23.5 20.908 23.282C21.2843 23.0903 21.5903 22.7843 21.782 22.408C22 21.98 22 21.42 22 20.3V13.5" stroke="#36BDF7" stroke-width="1.5" stroke-linecap="round"/>
<path d="M22 10.5C23.1046 10.5 24 9.60457 24 8.5C24 7.39543 23.1046 6.5 22 6.5C20.8954 6.5 20 7.39543 20 8.5C20 9.60457 20.8954 10.5 22 10.5Z" fill="#36BDF7"/>
</svg>
