<svg width="31" height="31" viewBox="0 0 31 31" fill="none" xmlns="http://www.w3.org/2000/svg">
<rect x="0.833313" y="0.5" width="30" height="30" rx="8" fill="#E6F9E7"/>
<path d="M14.3333 12H15V19H14.3333V12ZM17.6666 16.8H18.3333V19H17.6666V16.8Z" fill="#2DC033" stroke="#2DC033"/>
<path d="M10.8333 14.3H12.4999V19.5H10.8333V14.3Z" fill="#2DC033"/>
<path d="M21.8333 22.5H22.3333V22V14.2222H22.8333V21.7222C22.8333 22.4239 22.2572 23 21.5555 23H9.11109C8.40946 23 7.83331 22.4239 7.83331 21.7222V9.27778C7.83331 8.57614 8.40946 8 9.11109 8H17.6111V8.5H8.83331H8.33331V9V22V22.5H8.83331H21.8333Z" fill="#2DC033" stroke="#2DC033"/>
<path d="M22.119 9.21429V7.5H20.6101V9.21429H18.8333V10.7139H20.6101V12.6429H22.119V10.7139H23.8333V9.21429H22.119Z" fill="#2DC033"/>
</svg>
