<svg width="31" height="31" viewBox="0 0 31 31" fill="none" xmlns="http://www.w3.org/2000/svg">
<rect x="0.666626" y="0.5" width="30" height="30" rx="8" fill="#FDE5FB"/>
<mask id="path-2-inside-1_238_25" fill="white">
<path fill-rule="evenodd" clip-rule="evenodd" d="M22.6216 4.75C22.1886 4.75 21.7916 4.75 21.4696 4.793C21.1136 4.841 20.7386 4.953 20.4296 5.263C20.1206 5.573 20.0076 5.947 19.9596 6.303C19.9166 6.626 19.9166 7.023 19.9166 7.455V20.545C19.9166 20.978 19.9166 21.375 19.9596 21.697C20.0076 22.053 20.1196 22.428 20.4296 22.737C20.7396 23.046 21.1136 23.159 21.4696 23.207C21.7926 23.25 22.1896 23.25 22.6216 23.25H22.7116C23.1446 23.25 23.5416 23.25 23.8636 23.207C24.2196 23.159 24.5946 23.047 24.9036 22.737C25.2126 22.427 25.3256 22.053 25.3736 21.697C25.4166 21.374 25.4166 20.977 25.4166 20.545V7.455C25.4166 7.022 25.4166 6.625 25.3736 6.303C25.3256 5.947 25.2136 5.572 24.9036 5.263C24.5936 4.954 24.2196 4.841 23.8636 4.793C23.5406 4.75 23.1436 4.75 22.7116 4.75H22.6216ZM21.4916 6.322L21.4896 6.323L21.4886 6.326L21.4836 6.336C21.4645 6.38994 21.4521 6.44603 21.4466 6.503C21.4186 6.713 21.4166 7.007 21.4166 7.5V20.5C21.4166 20.993 21.4186 21.287 21.4466 21.497C21.4529 21.5576 21.467 21.6171 21.4886 21.674L21.4896 21.677L21.4926 21.678L21.4956 21.68L21.5026 21.683C21.5246 21.692 21.5726 21.707 21.6696 21.72C21.8796 21.748 22.1736 21.75 22.6666 21.75C23.1596 21.75 23.4536 21.748 23.6636 21.72C23.7242 21.7138 23.7837 21.6996 23.8406 21.678L23.8436 21.677L23.8446 21.674L23.8496 21.664C23.8687 21.6101 23.8812 21.554 23.8866 21.497C23.9146 21.287 23.9166 20.993 23.9166 20.5V7.5C23.9166 7.007 23.9146 6.713 23.8866 6.503C23.8804 6.44242 23.8663 6.38292 23.8446 6.326L23.8436 6.323L23.8406 6.322L23.8306 6.317C23.7767 6.29789 23.7206 6.28546 23.6636 6.28C23.4536 6.252 23.1596 6.25 22.6666 6.25C22.1736 6.25 21.8796 6.252 21.6696 6.28C21.6091 6.28624 21.5485 6.30036 21.4916 6.322ZM15.6216 7.75H15.7116C16.1446 7.75 16.5416 7.75 16.8636 7.793C17.2196 7.841 17.5946 7.953 17.9036 8.263C18.2126 8.573 18.3256 8.947 18.3736 9.303C18.4166 9.626 18.4166 10.023 18.4166 10.455V20.545C18.4166 20.978 18.4166 21.375 18.3736 21.697C18.3256 22.053 18.2136 22.428 17.9036 22.737C17.5936 23.046 17.2196 23.159 16.8636 23.207C16.5406 23.25 16.1436 23.25 15.7116 23.25H15.6216C15.1896 23.25 14.7916 23.25 14.4696 23.207C14.1136 23.159 13.7386 23.047 13.4296 22.737C13.1206 22.427 13.0076 22.053 12.9596 21.697C12.9166 21.374 12.9166 20.977 12.9166 20.545V10.455C12.9166 10.022 12.9166 9.625 12.9596 9.303C13.0076 8.947 13.1196 8.572 13.4296 8.263C13.7396 7.954 14.1136 7.841 14.4696 7.793C14.7926 7.75 15.1896 7.75 15.6216 7.75ZM14.4896 9.323L14.4926 9.322L14.4896 21.677L14.4886 21.674L14.4836 21.664C14.4645 21.6101 14.4521 21.554 14.4466 21.497C14.4186 21.287 14.4166 20.993 14.4166 20.5V10.5C14.4166 10.007 14.4186 9.713 14.4466 9.503C14.4529 9.44242 14.467 9.38292 14.4886 9.326L14.4896 9.323ZM14.4896 21.677L14.4926 9.322L14.4956 9.32L14.5026 9.317C14.5566 9.29789 14.6127 9.28546 14.6696 9.28C14.8796 9.252 15.1736 9.25 15.6666 9.25C16.1596 9.25 16.4536 9.252 16.6636 9.28C16.7242 9.28624 16.7837 9.30036 16.8406 9.322L16.8436 9.323L16.8446 9.326L16.8496 9.336C16.8586 9.358 16.8736 9.406 16.8866 9.503C16.9146 9.713 16.9166 10.007 16.9166 10.5V20.5C16.9166 20.993 16.9146 21.287 16.8866 21.497C16.8804 21.5576 16.8663 21.6171 16.8446 21.674L16.8436 21.677L16.8406 21.678L16.8306 21.683C16.7767 21.7021 16.7206 21.7145 16.6636 21.72C16.4536 21.748 16.1596 21.75 15.6666 21.75C15.1736 21.75 14.8796 21.748 14.6696 21.72C14.6091 21.7138 14.5495 21.6996 14.4926 21.678L14.4896 21.677ZM8.62163 11.75C8.18863 11.75 7.79163 11.75 7.46963 11.793C7.11363 11.841 6.73863 11.953 6.42963 12.263C6.12063 12.573 6.00763 12.947 5.95963 13.303C5.91663 13.626 5.91663 14.023 5.91663 14.455V20.545C5.91663 20.978 5.91663 21.375 5.95963 21.697C6.00763 22.053 6.11963 22.428 6.42963 22.737C6.73963 23.046 7.11363 23.159 7.46963 23.207C7.79263 23.25 8.18963 23.25 8.62163 23.25H8.71163C9.14463 23.25 9.54163 23.25 9.86363 23.207C10.2196 23.159 10.5946 23.047 10.9036 22.737C11.2126 22.427 11.3256 22.053 11.3736 21.697C11.4166 21.374 11.4166 20.977 11.4166 20.545V14.455C11.4166 14.022 11.4166 13.625 11.3736 13.303C11.3256 12.947 11.2136 12.572 10.9036 12.263C10.5936 11.954 10.2196 11.841 9.86363 11.793C9.54063 11.75 9.14363 11.75 8.71163 11.75H8.62163ZM7.49163 13.322L7.48963 13.323L7.48863 13.326L7.48363 13.336C7.46451 13.3899 7.45209 13.446 7.44663 13.503C7.41863 13.713 7.41663 14.007 7.41663 14.5V20.5C7.41663 20.993 7.41863 21.287 7.44663 21.497C7.45287 21.5576 7.46699 21.6171 7.48863 21.674V21.676L7.49263 21.678L7.50263 21.683C7.52463 21.692 7.57263 21.707 7.66963 21.72C7.87963 21.748 8.17363 21.75 8.66663 21.75C9.15963 21.75 9.45363 21.748 9.66363 21.72C9.7242 21.7138 9.7837 21.6996 9.84063 21.678L9.84363 21.677L9.84463 21.674L9.84663 21.67L9.84963 21.664C9.86874 21.6101 9.88117 21.554 9.88663 21.497C9.91463 21.287 9.91663 20.993 9.91663 20.5V14.5C9.91663 14.007 9.91463 13.713 9.88663 13.503C9.88038 13.4424 9.86627 13.3829 9.84463 13.326L9.84363 13.323L9.84063 13.322L9.83063 13.317C9.77668 13.2979 9.7206 13.2855 9.66363 13.28C9.45363 13.252 9.15963 13.25 8.66663 13.25C8.17363 13.25 7.87963 13.252 7.66963 13.28C7.60905 13.2862 7.54855 13.3004 7.49163 13.322Z"/>
</mask>
<path fill-rule="evenodd" clip-rule="evenodd" d="M22.6216 4.75C22.1886 4.75 21.7916 4.75 21.4696 4.793C21.1136 4.841 20.7386 4.953 20.4296 5.263C20.1206 5.573 20.0076 5.947 19.9596 6.303C19.9166 6.626 19.9166 7.023 19.9166 7.455V20.545C19.9166 20.978 19.9166 21.375 19.9596 21.697C20.0076 22.053 20.1196 22.428 20.4296 22.737C20.7396 23.046 21.1136 23.159 21.4696 23.207C21.7926 23.25 22.1896 23.25 22.6216 23.25H22.7116C23.1446 23.25 23.5416 23.25 23.8636 23.207C24.2196 23.159 24.5946 23.047 24.9036 22.737C25.2126 22.427 25.3256 22.053 25.3736 21.697C25.4166 21.374 25.4166 20.977 25.4166 20.545V7.455C25.4166 7.022 25.4166 6.625 25.3736 6.303C25.3256 5.947 25.2136 5.572 24.9036 5.263C24.5936 4.954 24.2196 4.841 23.8636 4.793C23.5406 4.75 23.1436 4.75 22.7116 4.75H22.6216ZM21.4916 6.322L21.4896 6.323L21.4886 6.326L21.4836 6.336C21.4645 6.38994 21.4521 6.44603 21.4466 6.503C21.4186 6.713 21.4166 7.007 21.4166 7.5V20.5C21.4166 20.993 21.4186 21.287 21.4466 21.497C21.4529 21.5576 21.467 21.6171 21.4886 21.674L21.4896 21.677L21.4926 21.678L21.4956 21.68L21.5026 21.683C21.5246 21.692 21.5726 21.707 21.6696 21.72C21.8796 21.748 22.1736 21.75 22.6666 21.75C23.1596 21.75 23.4536 21.748 23.6636 21.72C23.7242 21.7138 23.7837 21.6996 23.8406 21.678L23.8436 21.677L23.8446 21.674L23.8496 21.664C23.8687 21.6101 23.8812 21.554 23.8866 21.497C23.9146 21.287 23.9166 20.993 23.9166 20.5V7.5C23.9166 7.007 23.9146 6.713 23.8866 6.503C23.8804 6.44242 23.8663 6.38292 23.8446 6.326L23.8436 6.323L23.8406 6.322L23.8306 6.317C23.7767 6.29789 23.7206 6.28546 23.6636 6.28C23.4536 6.252 23.1596 6.25 22.6666 6.25C22.1736 6.25 21.8796 6.252 21.6696 6.28C21.6091 6.28624 21.5485 6.30036 21.4916 6.322ZM15.6216 7.75H15.7116C16.1446 7.75 16.5416 7.75 16.8636 7.793C17.2196 7.841 17.5946 7.953 17.9036 8.263C18.2126 8.573 18.3256 8.947 18.3736 9.303C18.4166 9.626 18.4166 10.023 18.4166 10.455V20.545C18.4166 20.978 18.4166 21.375 18.3736 21.697C18.3256 22.053 18.2136 22.428 17.9036 22.737C17.5936 23.046 17.2196 23.159 16.8636 23.207C16.5406 23.25 16.1436 23.25 15.7116 23.25H15.6216C15.1896 23.25 14.7916 23.25 14.4696 23.207C14.1136 23.159 13.7386 23.047 13.4296 22.737C13.1206 22.427 13.0076 22.053 12.9596 21.697C12.9166 21.374 12.9166 20.977 12.9166 20.545V10.455C12.9166 10.022 12.9166 9.625 12.9596 9.303C13.0076 8.947 13.1196 8.572 13.4296 8.263C13.7396 7.954 14.1136 7.841 14.4696 7.793C14.7926 7.75 15.1896 7.75 15.6216 7.75ZM14.4896 9.323L14.4926 9.322L14.4896 21.677L14.4886 21.674L14.4836 21.664C14.4645 21.6101 14.4521 21.554 14.4466 21.497C14.4186 21.287 14.4166 20.993 14.4166 20.5V10.5C14.4166 10.007 14.4186 9.713 14.4466 9.503C14.4529 9.44242 14.467 9.38292 14.4886 9.326L14.4896 9.323ZM14.4896 21.677L14.4926 9.322L14.4956 9.32L14.5026 9.317C14.5566 9.29789 14.6127 9.28546 14.6696 9.28C14.8796 9.252 15.1736 9.25 15.6666 9.25C16.1596 9.25 16.4536 9.252 16.6636 9.28C16.7242 9.28624 16.7837 9.30036 16.8406 9.322L16.8436 9.323L16.8446 9.326L16.8496 9.336C16.8586 9.358 16.8736 9.406 16.8866 9.503C16.9146 9.713 16.9166 10.007 16.9166 10.5V20.5C16.9166 20.993 16.9146 21.287 16.8866 21.497C16.8804 21.5576 16.8663 21.6171 16.8446 21.674L16.8436 21.677L16.8406 21.678L16.8306 21.683C16.7767 21.7021 16.7206 21.7145 16.6636 21.72C16.4536 21.748 16.1596 21.75 15.6666 21.75C15.1736 21.75 14.8796 21.748 14.6696 21.72C14.6091 21.7138 14.5495 21.6996 14.4926 21.678L14.4896 21.677ZM8.62163 11.75C8.18863 11.75 7.79163 11.75 7.46963 11.793C7.11363 11.841 6.73863 11.953 6.42963 12.263C6.12063 12.573 6.00763 12.947 5.95963 13.303C5.91663 13.626 5.91663 14.023 5.91663 14.455V20.545C5.91663 20.978 5.91663 21.375 5.95963 21.697C6.00763 22.053 6.11963 22.428 6.42963 22.737C6.73963 23.046 7.11363 23.159 7.46963 23.207C7.79263 23.25 8.18963 23.25 8.62163 23.25H8.71163C9.14463 23.25 9.54163 23.25 9.86363 23.207C10.2196 23.159 10.5946 23.047 10.9036 22.737C11.2126 22.427 11.3256 22.053 11.3736 21.697C11.4166 21.374 11.4166 20.977 11.4166 20.545V14.455C11.4166 14.022 11.4166 13.625 11.3736 13.303C11.3256 12.947 11.2136 12.572 10.9036 12.263C10.5936 11.954 10.2196 11.841 9.86363 11.793C9.54063 11.75 9.14363 11.75 8.71163 11.75H8.62163ZM7.49163 13.322L7.48963 13.323L7.48863 13.326L7.48363 13.336C7.46451 13.3899 7.45209 13.446 7.44663 13.503C7.41863 13.713 7.41663 14.007 7.41663 14.5V20.5C7.41663 20.993 7.41863 21.287 7.44663 21.497C7.45287 21.5576 7.46699 21.6171 7.48863 21.674V21.676L7.49263 21.678L7.50263 21.683C7.52463 21.692 7.57263 21.707 7.66963 21.72C7.87963 21.748 8.17363 21.75 8.66663 21.75C9.15963 21.75 9.45363 21.748 9.66363 21.72C9.7242 21.7138 9.7837 21.6996 9.84063 21.678L9.84363 21.677L9.84463 21.674L9.84663 21.67L9.84963 21.664C9.86874 21.6101 9.88117 21.554 9.88663 21.497C9.91463 21.287 9.91663 20.993 9.91663 20.5V14.5C9.91663 14.007 9.91463 13.713 9.88663 13.503C9.88038 13.4424 9.86627 13.3829 9.84463 13.326L9.84363 13.323L9.84063 13.322L9.83063 13.317C9.77668 13.2979 9.7206 13.2855 9.66363 13.28C9.45363 13.252 9.15963 13.25 8.66663 13.25C8.17363 13.25 7.87963 13.252 7.66963 13.28C7.60905 13.2862 7.54855 13.3004 7.49163 13.322Z" fill="#3B3B3B"/>
<path d="M13.9926 9.32188L13.9896 21.6769L14.9896 21.6771L14.9926 9.32212L13.9926 9.32188ZM21.4696 4.793L21.3373 3.8018L21.336 3.80197L21.4696 4.793ZM19.9596 6.303L18.9686 6.16938L18.9684 6.17104L19.9596 6.303ZM19.9596 21.697L18.9684 21.8294L18.9686 21.8306L19.9596 21.697ZM21.4696 23.207L21.336 24.198L21.3377 24.1983L21.4696 23.207ZM23.8636 23.207L23.996 24.1982L23.9972 24.198L23.8636 23.207ZM25.3736 21.697L26.3647 21.8306L26.3649 21.829L25.3736 21.697ZM25.3736 6.303L26.3648 6.17063L26.3647 6.16938L25.3736 6.303ZM23.8636 4.793L23.9972 3.80197L23.9956 3.80175L23.8636 4.793ZM21.4916 6.322L21.1363 5.38727L21.0894 5.40508L21.0446 5.42749L21.4916 6.322ZM21.4896 6.323L21.0426 5.42849L20.6719 5.61375L20.5409 6.00693L21.4896 6.323ZM21.4886 6.326L22.383 6.77329L22.4149 6.70961L22.4374 6.64207L21.4886 6.326ZM21.4836 6.336L20.5892 5.88871L20.5616 5.94388L20.541 6.00202L21.4836 6.336ZM21.4466 6.503L22.4379 6.63516L22.4403 6.61682L22.4421 6.59841L21.4466 6.503ZM21.4466 21.497L22.4414 21.3945L22.4398 21.3796L22.4379 21.3648L21.4466 21.497ZM21.4886 21.674L22.4374 21.358L22.4308 21.3382L22.4234 21.3187L21.4886 21.674ZM21.4896 21.677L20.5409 21.993L20.699 22.4676L21.1736 22.6257L21.4896 21.677ZM21.4926 21.678L22.0474 20.846L21.9359 20.7716L21.8087 20.7293L21.4926 21.678ZM21.4956 21.68L20.9408 22.512L21.0172 22.5629L21.1017 22.5991L21.4956 21.68ZM21.5026 21.683L21.1087 22.6021L21.1163 22.6054L21.124 22.6085L21.5026 21.683ZM21.6696 21.72L21.5368 22.7111L21.5375 22.7112L21.6696 21.72ZM23.6636 21.72L23.5611 20.7253L23.5463 20.7268L23.5315 20.7288L23.6636 21.72ZM23.8406 21.678L23.5246 20.7293L23.5048 20.7359L23.4853 20.7433L23.8406 21.678ZM23.8436 21.677L24.1597 22.6257L24.6343 22.4676L24.7924 21.993L23.8436 21.677ZM23.8446 21.674L22.9502 21.2267L22.9184 21.2904L22.8959 21.358L23.8446 21.674ZM23.8496 21.664L24.744 22.1113L24.7716 22.0561L24.7922 21.998L23.8496 21.664ZM23.8866 21.497L22.8954 21.3648L22.893 21.3832L22.8912 21.4016L23.8866 21.497ZM23.8866 6.503L22.8919 6.60549L22.8934 6.62035L22.8954 6.63516L23.8866 6.503ZM23.8446 6.326L22.8959 6.64207L22.9025 6.66185L22.9099 6.68135L23.8446 6.326ZM23.8436 6.323L24.7924 6.00693L24.6343 5.53244L24.1598 5.3743L23.8436 6.323ZM23.8406 6.322L23.3934 7.21643L23.457 7.24822L23.5244 7.2707L23.8406 6.322ZM23.8306 6.317L24.2778 5.42257L24.2227 5.39501L24.1646 5.37442L23.8306 6.317ZM23.6636 6.28L23.5315 7.27123L23.5498 7.27367L23.5682 7.27544L23.6636 6.28ZM21.6696 6.28L21.7721 7.27473L21.787 7.2732L21.8018 7.27123L21.6696 6.28ZM16.8636 7.793L16.9972 6.80197L16.996 6.8018L16.8636 7.793ZM18.3736 9.303L19.3649 9.17104L19.3647 9.16938L18.3736 9.303ZM18.3736 21.697L19.3647 21.8306L19.3648 21.8294L18.3736 21.697ZM16.8636 23.207L16.9956 24.1983L16.9972 24.198L16.8636 23.207ZM14.4696 23.207L14.336 24.198L14.3373 24.1982L14.4696 23.207ZM12.9596 21.697L11.9684 21.829L11.9686 21.8306L12.9596 21.697ZM12.9596 9.303L11.9686 9.16938L11.9684 9.17063L12.9596 9.303ZM14.4696 7.793L14.3377 6.80174L14.336 6.80197L14.4696 7.793ZM14.4896 9.323L14.1734 8.3743L13.6991 8.53238L13.541 9.00668L14.4896 9.323ZM14.4926 9.322L14.8088 10.2707L14.9358 10.2284L15.0473 10.1541L14.4926 9.322ZM14.4896 21.677L13.541 21.9933L13.6992 22.4677L14.1736 22.6257L14.4896 21.677ZM14.4886 21.674L15.4373 21.3577L15.4148 21.2903L15.3831 21.2269L14.4886 21.674ZM14.4836 21.664L13.541 21.998L13.5616 22.056L13.5892 22.1111L14.4836 21.664ZM14.4466 21.497L15.4421 21.4016L15.4403 21.3832L15.4379 21.3648L14.4466 21.497ZM14.4466 9.503L15.4379 9.63516L15.4398 9.62035L15.4414 9.60549L14.4466 9.503ZM14.4886 9.326L15.4234 9.68135L15.4307 9.66198L15.4373 9.64232L14.4886 9.326ZM14.4956 9.32L14.1017 8.40087L14.0173 8.43702L13.941 8.48791L14.4956 9.32ZM14.5026 9.317L14.1686 8.37442L14.1383 8.38518L14.1087 8.39787L14.5026 9.317ZM14.6696 9.28L14.765 10.2754L14.7834 10.2737L14.8018 10.2712L14.6696 9.28ZM16.6636 9.28L16.5315 10.2712L16.5463 10.2732L16.5611 10.2747L16.6636 9.28ZM16.8406 9.322L16.4853 10.2567L16.5047 10.2641L16.5244 10.2707L16.8406 9.322ZM16.8436 9.323L17.7923 9.00668L17.6341 8.53238L17.1598 8.3743L16.8436 9.323ZM16.8446 9.326L15.896 9.64232L15.9184 9.70966L15.9502 9.77316L16.8446 9.326ZM16.8496 9.336L17.7752 8.95737L17.7609 8.92252L17.7441 8.88884L16.8496 9.336ZM16.8866 9.503L17.8779 9.37084L17.8778 9.37017L16.8866 9.503ZM16.8866 21.497L15.8954 21.3648L15.8934 21.3796L15.8919 21.3945L16.8866 21.497ZM16.8446 21.674L15.9099 21.3187L15.9025 21.338L15.896 21.3577L16.8446 21.674ZM16.8436 21.677L17.1597 22.6257L17.6341 22.4677L17.7923 21.9933L16.8436 21.677ZM16.8406 21.678L16.5246 20.7293L16.457 20.7518L16.3933 20.7836L16.8406 21.678ZM16.8306 21.683L17.1646 22.6256L17.2227 22.605L17.2779 22.5774L16.8306 21.683ZM16.6636 21.72L16.5682 20.7246L16.5498 20.7263L16.5315 20.7288L16.6636 21.72ZM14.6696 21.72L14.8018 20.7288L14.787 20.7268L14.7721 20.7253L14.6696 21.72ZM14.4926 21.678L14.848 20.7433L14.8285 20.7359L14.8087 20.7293L14.4926 21.678ZM7.46963 11.793L7.33726 10.8018L7.336 10.802L7.46963 11.793ZM5.95963 13.303L4.96859 13.1694L4.96837 13.171L5.95963 13.303ZM5.95963 21.697L4.96842 21.8294L4.96859 21.8306L5.95963 21.697ZM7.46963 23.207L7.336 24.198L7.33766 24.1983L7.46963 23.207ZM9.86363 23.207L9.99599 24.1982L9.99725 24.198L9.86363 23.207ZM11.3736 21.697L12.3647 21.8306L12.3649 21.829L11.3736 21.697ZM11.3736 13.303L12.3648 13.1706L12.3647 13.1694L11.3736 13.303ZM9.86363 11.793L9.99725 10.802L9.99559 10.8017L9.86363 11.793ZM7.49163 13.322L7.13628 12.3873L7.08927 12.4051L7.04428 12.4276L7.49163 13.322ZM7.48963 13.323L7.04228 12.4286L6.67188 12.6139L6.54093 13.0068L7.48963 13.323ZM7.48863 13.326L8.38305 13.7732L8.41485 13.7096L8.43732 13.6422L7.48863 13.326ZM7.48363 13.336L6.5892 12.8888L6.56163 12.9439L6.54104 13.002L7.48363 13.336ZM7.44663 13.503L8.43785 13.6352L8.4403 13.6168L8.44206 13.5984L7.44663 13.503ZM7.44663 21.497L8.44136 21.3945L8.43983 21.3796L8.43785 21.3648L7.44663 21.497ZM7.48863 21.674H8.48863V21.4903L8.42336 21.3187L7.48863 21.674ZM7.48863 21.676H6.48863V22.2942L7.0416 22.5705L7.48863 21.676ZM7.49263 21.678L7.93992 20.7836L7.93965 20.7835L7.49263 21.678ZM7.50263 21.683L7.05534 22.5774L7.08908 22.5943L7.12399 22.6085L7.50263 21.683ZM7.66963 21.72L7.53679 22.7111L7.53746 22.7112L7.66963 21.72ZM9.66363 21.72L9.56113 20.7253L9.54627 20.7268L9.53146 20.7288L9.66363 21.72ZM9.84063 21.678L9.52458 20.7293L9.50478 20.7359L9.48528 20.7433L9.84063 21.678ZM9.84363 21.677L10.1597 22.6257L10.6342 22.4677L10.7923 21.9932L9.84363 21.677ZM9.84463 21.674L8.9502 21.2268L8.91841 21.2904L8.89593 21.3578L9.84463 21.674ZM9.84963 21.664L10.7441 22.1112L10.7716 22.0561L10.7922 21.998L9.84963 21.664ZM9.88663 21.497L8.8954 21.3648L8.89295 21.3832L8.89119 21.4016L9.88663 21.497ZM9.88663 13.503L8.89189 13.6055L8.89342 13.6204L8.8954 13.6352L9.88663 13.503ZM9.84463 13.326L8.89593 13.6422L8.9025 13.6619L8.90989 13.6813L9.84463 13.326ZM9.84363 13.323L10.7923 13.0068L10.6342 12.5325L10.1599 12.3743L9.84363 13.323ZM9.84063 13.322L9.39346 14.2165L9.45696 14.2482L9.52431 14.2707L9.84063 13.322ZM9.83063 13.317L10.2778 12.4225L10.2227 12.395L10.1646 12.3744L9.83063 13.317ZM9.66363 13.28L9.53146 14.2712L9.5498 14.2737L9.56822 14.2754L9.66363 13.28ZM7.66963 13.28L7.77212 14.2747L7.78698 14.2732L7.80179 14.2712L7.66963 13.28ZM22.6216 3.75C22.211 3.75 21.7394 3.74809 21.3373 3.8018L21.602 5.7842C21.8438 5.75191 22.1663 5.75 22.6216 5.75V3.75ZM21.336 3.80197C20.8705 3.86473 20.248 4.02873 19.7214 4.55704L21.1379 5.96896C21.2293 5.87727 21.3567 5.81727 21.6032 5.78403L21.336 3.80197ZM19.7214 4.55704C19.1976 5.08253 19.0318 5.70085 18.9686 6.16938L20.9507 6.43662C20.9835 6.19315 21.0437 6.06347 21.1379 5.96896L19.7214 4.55704ZM18.9684 6.17104C18.9147 6.57391 18.9166 7.04508 18.9166 7.455H20.9166C20.9166 7.00092 20.9185 6.67809 20.9509 6.43496L18.9684 6.17104ZM18.9166 7.455V20.545H20.9166V7.455H18.9166ZM18.9166 20.545C18.9166 20.9557 18.9147 21.4272 18.9684 21.8294L20.9508 21.5646C20.9185 21.3228 20.9166 21.0003 20.9166 20.545H18.9166ZM18.9686 21.8306C19.0314 22.2961 19.1954 22.9186 19.7237 23.4452L21.1356 22.0288C21.0439 21.9373 20.9839 21.8099 20.9507 21.5634L18.9686 21.8306ZM19.7237 23.4452C20.2492 23.969 20.8675 24.1349 21.336 24.198L21.6032 22.216C21.3598 22.1831 21.2301 22.1229 21.1356 22.0288L19.7237 23.4452ZM21.3377 24.1983C21.7405 24.2519 22.2117 24.25 22.6216 24.25V22.25C22.1675 22.25 21.8447 22.2481 21.6016 22.2157L21.3377 24.1983ZM22.6216 24.25H22.7116V22.25H22.6216V24.25ZM22.7116 24.25C23.1223 24.25 23.5938 24.2519 23.996 24.1982L23.7313 22.2158C23.4894 22.2481 23.167 22.25 22.7116 22.25V24.25ZM23.9972 24.198C24.4627 24.1353 25.0853 23.9713 25.6119 23.443L24.1954 22.031C24.104 22.1227 23.9765 22.1827 23.73 22.216L23.9972 24.198ZM25.6119 23.443C26.1357 22.9175 26.3015 22.2991 26.3647 21.8306L24.3826 21.5634C24.3498 21.8069 24.2896 21.9365 24.1954 22.031L25.6119 23.443ZM26.3649 21.829C26.4185 21.4261 26.4166 20.9549 26.4166 20.545H24.4166C24.4166 20.9991 24.4147 21.3219 24.3824 21.565L26.3649 21.829ZM26.4166 20.545V7.455H24.4166V20.545H26.4166ZM26.4166 7.455C26.4166 7.04433 26.4185 6.5728 26.3648 6.17063L24.3824 6.43537C24.4147 6.6772 24.4166 6.99967 24.4166 7.455H26.4166ZM26.3647 6.16938C26.3019 5.7039 26.1379 5.08135 25.6096 4.55475L24.1977 5.97125C24.2894 6.06265 24.3494 6.1901 24.3826 6.43662L26.3647 6.16938ZM25.6096 4.55475C25.0841 4.03095 24.4658 3.86514 23.9972 3.80197L23.73 5.78403C23.9735 5.81686 24.1032 5.87705 24.1977 5.97125L25.6096 4.55475ZM23.9956 3.80175C23.5927 3.74811 23.1215 3.75 22.7116 3.75V5.75C23.1657 5.75 23.4885 5.75189 23.7317 5.78425L23.9956 3.80175ZM22.7116 3.75H22.6216V5.75H22.7116V3.75ZM21.0446 5.42749L21.0426 5.42849L21.9367 7.21751L21.9387 7.21651L21.0446 5.42749ZM20.5409 6.00693L20.5399 6.00993L22.4374 6.64207L22.4384 6.63907L20.5409 6.00693ZM20.5942 5.87871L20.5892 5.88871L22.378 6.78329L22.383 6.77329L20.5942 5.87871ZM20.541 6.00202C20.4946 6.13305 20.4644 6.26925 20.4512 6.40759L22.4421 6.59841C22.4397 6.62281 22.4344 6.64684 22.4262 6.66998L20.541 6.00202ZM20.4554 6.37084C20.4165 6.66242 20.4166 7.03556 20.4166 7.5H22.4166C22.4166 6.97844 22.4207 6.76358 22.4379 6.63516L20.4554 6.37084ZM20.4166 7.5V20.5H22.4166V7.5H20.4166ZM20.4166 20.5C20.4166 20.9644 20.4165 21.3376 20.4554 21.6292L22.4379 21.3648C22.4207 21.2364 22.4166 21.0216 22.4166 20.5H20.4166ZM20.4519 21.5995C20.4671 21.7466 20.5013 21.8911 20.5539 22.0293L22.4234 21.3187C22.4326 21.343 22.4387 21.3685 22.4414 21.3945L20.4519 21.5995ZM20.5399 21.99L20.5409 21.993L22.4384 21.361L22.4374 21.358L20.5399 21.99ZM21.1736 22.6257L21.1766 22.6267L21.8087 20.7293L21.8057 20.7283L21.1736 22.6257ZM20.9378 22.51L20.9408 22.512L22.0504 20.848L22.0474 20.846L20.9378 22.51ZM21.1017 22.5991L21.1087 22.6021L21.8966 20.7639L21.8896 20.7609L21.1017 22.5991ZM21.124 22.6085C21.2513 22.6606 21.3895 22.6914 21.5368 22.7111L21.8025 20.7289C21.7819 20.7261 21.7804 20.725 21.7931 20.728C21.8055 20.731 21.8373 20.7395 21.8813 20.7575L21.124 22.6085ZM21.5375 22.7112C21.829 22.7501 22.2022 22.75 22.6666 22.75V20.75C22.1451 20.75 21.9302 20.7459 21.8018 20.7288L21.5375 22.7112ZM22.6666 22.75C23.1311 22.75 23.5042 22.7501 23.7958 22.7112L23.5315 20.7288C23.403 20.7459 23.1882 20.75 22.6666 20.75V22.75ZM23.7661 22.7147C23.9132 22.6996 24.0577 22.6653 24.196 22.6127L23.4853 20.7433C23.5097 20.734 23.5352 20.7279 23.5611 20.7253L23.7661 22.7147ZM24.1567 22.6267L24.1597 22.6257L23.5276 20.7283L23.5246 20.7293L24.1567 22.6267ZM24.7924 21.993L24.7934 21.99L22.8959 21.358L22.8949 21.361L24.7924 21.993ZM24.739 22.1213L24.744 22.1113L22.9552 21.2167L22.9502 21.2267L24.739 22.1213ZM24.7922 21.998C24.8386 21.867 24.8688 21.7307 24.8821 21.5924L22.8912 21.4016C22.8935 21.3772 22.8988 21.3532 22.907 21.33L24.7922 21.998ZM24.8779 21.6292C24.9167 21.3376 24.9166 20.9644 24.9166 20.5H22.9166C22.9166 21.0216 22.9125 21.2364 22.8954 21.3648L24.8779 21.6292ZM24.9166 20.5V7.5H22.9166V20.5H24.9166ZM24.9166 7.5C24.9166 7.03556 24.9167 6.66242 24.8779 6.37084L22.8954 6.63516C22.9125 6.76358 22.9166 6.97844 22.9166 7.5H24.9166ZM24.8814 6.40051C24.8662 6.2534 24.8319 6.10889 24.7794 5.97065L22.9099 6.68135C22.9006 6.65695 22.8946 6.63145 22.8919 6.60549L24.8814 6.40051ZM24.7934 6.00993L24.7924 6.00693L22.8949 6.63907L22.8959 6.64207L24.7934 6.00993ZM24.1598 5.3743L24.1568 5.3733L23.5244 7.2707L23.5274 7.2717L24.1598 5.3743ZM24.2878 5.42757L24.2778 5.42257L23.3834 7.21143L23.3934 7.21643L24.2878 5.42757ZM24.1646 5.37442C24.0336 5.328 23.8974 5.29782 23.759 5.28456L23.5682 7.27544C23.5438 7.2731 23.5198 7.26777 23.4966 7.25958L24.1646 5.37442ZM23.7958 5.28877C23.5042 5.24989 23.1311 5.25 22.6666 5.25V7.25C23.1882 7.25 23.403 7.25411 23.5315 7.27123L23.7958 5.28877ZM22.6666 5.25C22.2022 5.25 21.829 5.24989 21.5375 5.28877L21.8018 7.27123C21.9302 7.25411 22.1451 7.25 22.6666 7.25V5.25ZM21.5671 5.28527C21.4226 5.30016 21.2769 5.33382 21.1363 5.38727L21.847 7.25673C21.8202 7.2669 21.7955 7.27232 21.7721 7.27473L21.5671 5.28527ZM15.6216 8.75H15.7116V6.75H15.6216V8.75ZM15.7116 8.75C16.167 8.75 16.4894 8.75191 16.7313 8.7842L16.996 6.8018C16.5938 6.74809 16.1223 6.75 15.7116 6.75V8.75ZM16.73 8.78403C16.9765 8.81727 17.104 8.87727 17.1954 8.96896L18.6119 7.55704C18.0853 7.02873 17.4627 6.86473 16.9972 6.80197L16.73 8.78403ZM17.1954 8.96896C17.2896 9.06347 17.3498 9.19314 17.3826 9.43662L19.3647 9.16938C19.3015 8.70086 19.1357 8.08254 18.6119 7.55704L17.1954 8.96896ZM17.3824 9.43496C17.4147 9.67809 17.4166 10.0009 17.4166 10.455H19.4166C19.4166 10.0451 19.4185 9.57391 19.3649 9.17104L17.3824 9.43496ZM17.4166 10.455V20.545H19.4166V10.455H17.4166ZM17.4166 20.545C17.4166 21.0003 17.4147 21.3228 17.3824 21.5646L19.3648 21.8294C19.4185 21.4272 19.4166 20.9557 19.4166 20.545H17.4166ZM17.3826 21.5634C17.3494 21.8099 17.2894 21.9374 17.1977 22.0288L18.6096 23.4452C19.1379 22.9186 19.3019 22.2961 19.3647 21.8306L17.3826 21.5634ZM17.1977 22.0288C17.1032 22.1229 16.9735 22.1831 16.73 22.216L16.9972 24.198C17.4658 24.1349 18.0841 23.969 18.6096 23.4452L17.1977 22.0288ZM16.7317 22.2157C16.4885 22.2481 16.1657 22.25 15.7116 22.25V24.25C16.1215 24.25 16.5927 24.2519 16.9956 24.1983L16.7317 22.2157ZM15.7116 22.25H15.6216V24.25H15.7116V22.25ZM15.6216 22.25C15.1673 22.25 14.8438 22.2481 14.602 22.2158L14.3373 24.1982C14.7394 24.2519 15.212 24.25 15.6216 24.25V22.25ZM14.6032 22.216C14.3567 22.1827 14.2293 22.1227 14.1379 22.031L12.7214 23.443C13.248 23.9713 13.8705 24.1353 14.336 24.198L14.6032 22.216ZM14.1379 22.031C14.0437 21.9365 13.9835 21.8069 13.9507 21.5634L11.9686 21.8306C12.0318 22.2991 12.1976 22.9175 12.7214 23.443L14.1379 22.031ZM13.9509 21.565C13.9185 21.3219 13.9166 20.9991 13.9166 20.545H11.9166C11.9166 20.9549 11.9147 21.4261 11.9684 21.829L13.9509 21.565ZM13.9166 20.545V10.455H11.9166V20.545H13.9166ZM13.9166 10.455C13.9166 9.99968 13.9185 9.6772 13.9508 9.43537L11.9684 9.17063C11.9147 9.5728 11.9166 10.0443 11.9166 10.455H13.9166ZM13.9507 9.43662C13.9839 9.1901 14.0439 9.06265 14.1356 8.97125L12.7237 7.55475C12.1954 8.08135 12.0314 8.7039 11.9686 9.16938L13.9507 9.43662ZM14.1356 8.97125C14.2301 8.87705 14.3598 8.81686 14.6032 8.78403L14.336 6.80197C13.8675 6.86514 13.2492 7.03095 12.7237 7.55475L14.1356 8.97125ZM14.6016 8.78426C14.8447 8.75189 15.1675 8.75 15.6216 8.75V6.75C15.2117 6.75 14.7405 6.74811 14.3377 6.80175L14.6016 8.78426ZM14.8058 10.2717L14.8088 10.2707L14.1764 8.3733L14.1734 8.3743L14.8058 10.2717ZM15.4383 21.3607L15.4373 21.3577L13.54 21.9903L13.541 21.9933L15.4383 21.3607ZM15.3831 21.2269L15.3781 21.2169L13.5892 22.1111L13.5942 22.1211L15.3831 21.2269ZM15.4262 21.33C15.4344 21.3531 15.4397 21.3772 15.4421 21.4016L13.4512 21.5924C13.4644 21.7308 13.4946 21.867 13.541 21.998L15.4262 21.33ZM15.4379 21.3648C15.4207 21.2364 15.4166 21.0216 15.4166 20.5H13.4166C13.4166 20.9644 13.4165 21.3376 13.4554 21.6292L15.4379 21.3648ZM15.4166 20.5V10.5H13.4166V20.5H15.4166ZM15.4166 10.5C15.4166 9.97844 15.4207 9.76358 15.4379 9.63516L13.4554 9.37084C13.4165 9.66242 13.4166 10.0356 13.4166 10.5H15.4166ZM15.4414 9.60549C15.4387 9.63145 15.4326 9.65695 15.4234 9.68135L13.5539 8.97065C13.5013 9.10889 13.467 9.2534 13.4519 9.40051L15.4414 9.60549ZM15.4373 9.64232L15.4383 9.63932L13.541 9.00668L13.54 9.00968L15.4373 9.64232ZM15.0473 10.1541L15.0503 10.1521L13.941 8.48791L13.938 8.48991L15.0473 10.1541ZM14.8896 10.2391L14.8966 10.2361L14.1087 8.39787L14.1017 8.40087L14.8896 10.2391ZM14.8366 10.2596C14.8135 10.2678 14.7894 10.2731 14.765 10.2754L14.5742 8.28456C14.4359 8.29782 14.2997 8.328 14.1686 8.37442L14.8366 10.2596ZM14.8018 10.2712C14.9302 10.2541 15.1451 10.25 15.6666 10.25V8.25C15.2022 8.25 14.829 8.2499 14.5375 8.28877L14.8018 10.2712ZM15.6666 10.25C16.1882 10.25 16.403 10.2541 16.5315 10.2712L16.7958 8.28877C16.5042 8.2499 16.1311 8.25 15.6666 8.25V10.25ZM16.5611 10.2747C16.5352 10.2721 16.5097 10.266 16.4853 10.2567L17.196 8.38727C17.0577 8.33471 16.9132 8.30042 16.7661 8.28527L16.5611 10.2747ZM16.5244 10.2707L16.5274 10.2717L17.1598 8.3743L17.1568 8.3733L16.5244 10.2707ZM15.895 9.63932L15.896 9.64232L17.7933 9.00968L17.7923 9.00668L15.895 9.63932ZM15.9502 9.77316L15.9552 9.78316L17.7441 8.88884L17.7391 8.87884L15.9502 9.77316ZM15.9241 9.71463C15.9061 9.67066 15.8977 9.63889 15.8947 9.62646C15.8916 9.61382 15.8927 9.61527 15.8955 9.63583L17.8778 9.37017C17.858 9.22289 17.8273 9.08469 17.7752 8.95737L15.9241 9.71463ZM15.8954 9.63516C15.9125 9.76358 15.9166 9.97844 15.9166 10.5H17.9166C17.9166 10.0356 17.9167 9.66242 17.8779 9.37084L15.8954 9.63516ZM15.9166 10.5V20.5H17.9166V10.5H15.9166ZM15.9166 20.5C15.9166 21.0216 15.9125 21.2364 15.8954 21.3648L17.8779 21.6292C17.9167 21.3376 17.9166 20.9644 17.9166 20.5H15.9166ZM15.8919 21.3945C15.8946 21.3685 15.9006 21.343 15.9099 21.3187L17.7794 22.0293C17.8319 21.8911 17.8662 21.7466 17.8814 21.5995L15.8919 21.3945ZM15.896 21.3577L15.895 21.3607L17.7923 21.9933L17.7933 21.9903L15.896 21.3577ZM16.5276 20.7283L16.5246 20.7293L17.1567 22.6267L17.1597 22.6257L16.5276 20.7283ZM16.3933 20.7836L16.3833 20.7886L17.2779 22.5774L17.2879 22.5724L16.3933 20.7836ZM16.4966 20.7404C16.5198 20.7322 16.5438 20.7269 16.5682 20.7246L16.759 22.7154C16.8974 22.7022 17.0336 22.672 17.1646 22.6256L16.4966 20.7404ZM16.5315 20.7288C16.403 20.7459 16.1882 20.75 15.6666 20.75V22.75C16.1311 22.75 16.5042 22.7501 16.7958 22.7112L16.5315 20.7288ZM15.6666 20.75C15.1451 20.75 14.9302 20.7459 14.8018 20.7288L14.5375 22.7112C14.829 22.7501 15.2022 22.75 15.6666 22.75V20.75ZM14.7721 20.7253C14.7981 20.7279 14.8236 20.734 14.848 20.7433L14.1373 22.6127C14.2755 22.6653 14.42 22.6996 14.5671 22.7147L14.7721 20.7253ZM14.8087 20.7293L14.8057 20.7283L14.1736 22.6257L14.1766 22.6267L14.8087 20.7293ZM8.62163 10.75C8.21095 10.75 7.73942 10.7481 7.33726 10.8018L7.60199 12.7842C7.84383 12.7519 8.1663 12.75 8.62163 12.75V10.75ZM7.336 10.802C6.87053 10.8647 6.24798 11.0287 5.72138 11.557L7.13787 12.969C7.22927 12.8773 7.35672 12.8173 7.60325 12.784L7.336 10.802ZM5.72138 11.557C5.19757 12.0825 5.03177 12.7009 4.96859 13.1694L6.95066 13.4366C6.98349 13.1931 7.04368 13.0635 7.13787 12.969L5.72138 11.557ZM4.96837 13.171C4.91474 13.5739 4.91663 14.0451 4.91663 14.455H6.91663C6.91663 14.0009 6.91851 13.6781 6.95088 13.435L4.96837 13.171ZM4.91663 14.455V20.545H6.91663V14.455H4.91663ZM4.91663 20.545C4.91663 20.9557 4.91472 21.4272 4.96842 21.8294L6.95083 21.5646C6.91853 21.3228 6.91663 21.0003 6.91663 20.545H4.91663ZM4.96859 21.8306C5.03135 22.2961 5.19536 22.9186 5.72366 23.4452L7.13559 22.0288C7.04389 21.9374 6.9839 21.8099 6.95066 21.5634L4.96859 21.8306ZM5.72366 23.4452C6.24916 23.969 6.86748 24.1349 7.336 24.198L7.60325 22.216C7.35977 22.1831 7.23009 22.1229 7.13559 22.0288L5.72366 23.4452ZM7.33766 24.1983C7.74054 24.2519 8.21171 24.25 8.62163 24.25V22.25C8.16755 22.25 7.84471 22.2481 7.60159 22.2157L7.33766 24.1983ZM8.62163 24.25H8.71163V22.25H8.62163V24.25ZM8.71163 24.25C9.1223 24.25 9.59383 24.2519 9.99599 24.1982L9.73126 22.2158C9.48943 22.2481 9.16695 22.25 8.71163 22.25V24.25ZM9.99725 24.198C10.4627 24.1353 11.0853 23.9713 11.6119 23.443L10.1954 22.031C10.104 22.1227 9.97653 22.1827 9.73 22.216L9.99725 24.198ZM11.6119 23.443C12.1357 22.9175 12.3015 22.2991 12.3647 21.8306L10.3826 21.5634C10.3498 21.8069 10.2896 21.9365 10.1954 22.031L11.6119 23.443ZM12.3649 21.829C12.4185 21.4261 12.4166 20.9549 12.4166 20.545H10.4166C10.4166 20.9991 10.4147 21.3219 10.3824 21.565L12.3649 21.829ZM12.4166 20.545V14.455H10.4166V20.545H12.4166ZM12.4166 14.455C12.4166 14.0443 12.4185 13.5728 12.3648 13.1706L10.3824 13.4354C10.4147 13.6772 10.4166 13.9997 10.4166 14.455H12.4166ZM12.3647 13.1694C12.3019 12.7039 12.1379 12.0814 11.6096 11.5548L10.1977 12.9712C10.2894 13.0626 10.3494 13.1901 10.3826 13.4366L12.3647 13.1694ZM11.6096 11.5548C11.0841 11.0309 10.4658 10.8651 9.99725 10.802L9.73 12.784C9.97348 12.8169 10.1032 12.8771 10.1977 12.9712L11.6096 11.5548ZM9.99559 10.8017C9.59271 10.7481 9.12155 10.75 8.71163 10.75V12.75C9.1657 12.75 9.48854 12.7519 9.73166 12.7843L9.99559 10.8017ZM8.71163 10.75H8.62163V12.75H8.71163V10.75ZM7.04428 12.4276L7.04228 12.4286L7.93697 14.2174L7.93897 14.2164L7.04428 12.4276ZM6.54093 13.0068L6.53993 13.0098L8.43732 13.6422L8.43832 13.6392L6.54093 13.0068ZM6.5942 12.8788L6.5892 12.8888L8.37805 13.7832L8.38305 13.7732L6.5942 12.8788ZM6.54104 13.002C6.49463 13.133 6.46445 13.2692 6.45119 13.4076L8.44206 13.5984C8.43972 13.6228 8.4344 13.6469 8.42621 13.67L6.54104 13.002ZM6.4554 13.3708C6.41652 13.6624 6.41663 14.0356 6.41663 14.5H8.41663C8.41663 13.9784 8.42073 13.7636 8.43785 13.6352L6.4554 13.3708ZM6.41663 14.5V20.5H8.41663V14.5H6.41663ZM6.41663 20.5C6.41663 20.9644 6.41652 21.3376 6.4554 21.6292L8.43785 21.3648C8.42073 21.2364 8.41663 21.0216 8.41663 20.5H6.41663ZM6.45189 21.5995C6.46705 21.7466 6.50134 21.8911 6.55389 22.0293L8.42336 21.3187C8.43263 21.343 8.43868 21.3685 8.44136 21.3945L6.45189 21.5995ZM6.48863 21.674V21.676H8.48863V21.674H6.48863ZM7.0416 22.5705L7.0456 22.5725L7.93965 20.7835L7.93565 20.7815L7.0416 22.5705ZM7.04534 22.5724L7.05534 22.5774L7.94992 20.7886L7.93992 20.7836L7.04534 22.5724ZM7.12399 22.6085C7.25134 22.6606 7.38955 22.6914 7.53679 22.7111L7.80246 20.7289C7.78189 20.7261 7.78044 20.725 7.79307 20.728C7.80549 20.731 7.83727 20.7395 7.88126 20.7575L7.12399 22.6085ZM7.53746 22.7112C7.82904 22.7501 8.20218 22.75 8.66663 22.75V20.75C8.14507 20.75 7.93021 20.7459 7.80179 20.7288L7.53746 22.7112ZM8.66663 22.75C9.13107 22.75 9.50421 22.7501 9.79579 22.7112L9.53146 20.7288C9.40304 20.7459 9.18818 20.75 8.66663 20.75V22.75ZM9.76612 22.7147C9.91323 22.6996 10.0577 22.6653 10.196 22.6127L9.48528 20.7433C9.50967 20.734 9.53517 20.7279 9.56113 20.7253L9.76612 22.7147ZM10.1567 22.6267L10.1597 22.6257L9.52758 20.7283L9.52458 20.7293L10.1567 22.6267ZM10.7923 21.9932L10.7933 21.9902L8.89593 21.3578L8.89493 21.3608L10.7923 21.9932ZM10.7391 22.1212L10.7411 22.1172L8.9522 21.2228L8.9502 21.2268L10.7391 22.1212ZM10.7411 22.1172L10.7441 22.1112L8.9552 21.2168L8.9522 21.2228L10.7411 22.1172ZM10.7922 21.998C10.8386 21.867 10.8688 21.7308 10.8821 21.5924L8.89119 21.4016C8.89353 21.3772 8.89885 21.3531 8.90704 21.33L10.7922 21.998ZM10.8779 21.6292C10.9167 21.3376 10.9166 20.9644 10.9166 20.5H8.91663C8.91663 21.0216 8.91252 21.2364 8.8954 21.3648L10.8779 21.6292ZM10.9166 20.5V14.5H8.91663V20.5H10.9166ZM10.9166 14.5C10.9166 14.0356 10.9167 13.6624 10.8779 13.3708L8.8954 13.6352C8.91252 13.7636 8.91663 13.9784 8.91663 14.5H10.9166ZM10.8814 13.4005C10.8662 13.2534 10.8319 13.1089 10.7794 12.9707L8.90989 13.6813C8.90062 13.657 8.89457 13.6315 8.89189 13.6055L10.8814 13.4005ZM10.7933 13.0098L10.7923 13.0068L8.89493 13.6392L8.89593 13.6422L10.7933 13.0098ZM10.1599 12.3743L10.1569 12.3733L9.52431 14.2707L9.52731 14.2717L10.1599 12.3743ZM10.2878 12.4275L10.2778 12.4225L9.38346 14.2115L9.39346 14.2165L10.2878 12.4275ZM10.1646 12.3744C10.0336 12.328 9.89739 12.2978 9.75903 12.2846L9.56822 14.2754C9.5438 14.2731 9.51976 14.2678 9.49665 14.2596L10.1646 12.3744ZM9.79579 12.2888C9.50421 12.2499 9.13106 12.25 8.66663 12.25V14.25C9.18819 14.25 9.40304 14.2541 9.53146 14.2712L9.79579 12.2888ZM8.66663 12.25C8.20219 12.25 7.82904 12.2499 7.53746 12.2888L7.80179 14.2712C7.93021 14.2541 8.14507 14.25 8.66663 14.25V12.25ZM7.56713 12.2853C7.42256 12.3002 7.27687 12.3338 7.13628 12.3873L7.84697 14.2567C7.82023 14.2669 7.79554 14.2723 7.77212 14.2747L7.56713 12.2853Z" fill="#F658E6" mask="url(#path-2-inside-1_238_25)"/>
<path d="M6.48985 25.3232C6.53673 25.2763 6.60032 25.25 6.66663 25.25H24.6666C24.7329 25.25 24.7965 25.2763 24.8434 25.3232C24.8903 25.3701 24.9166 25.4337 24.9166 25.5C24.9166 25.5663 24.8903 25.6299 24.8434 25.6768C24.7965 25.7237 24.7329 25.75 24.6666 25.75H6.66663C6.60032 25.75 6.53673 25.7237 6.48985 25.6768C6.44297 25.6299 6.41663 25.5663 6.41663 25.5C6.41663 25.4337 6.44297 25.3701 6.48985 25.3232Z" fill="#3B3B3B" stroke="#F658E6"/>
</svg>
