<svg width="31" height="31" viewBox="0 0 31 31" fill="none" xmlns="http://www.w3.org/2000/svg">
<rect x="0.166504" y="0.5" width="30" height="30" rx="8" fill="#FDE3E3"/>
<path d="M9.1665 24.5V22.5C9.1665 21.4391 9.58793 20.4217 10.3381 19.6716C11.0882 18.9214 12.1056 18.5 13.1665 18.5H17.1665C17.5152 18.5013 17.8515 18.544 18.1755 18.628M19.1665 22.5H25.1665M11.1665 10.5C11.1665 11.5609 11.5879 12.5783 12.3381 13.3284C13.0882 14.0786 14.1056 14.5 15.1665 14.5C16.2274 14.5 17.2448 14.0786 17.9949 13.3284C18.7451 12.5783 19.1665 11.5609 19.1665 10.5C19.1665 9.43913 18.7451 8.42172 17.9949 7.67157C17.2448 6.92143 16.2274 6.5 15.1665 6.5C14.1056 6.5 13.0882 6.92143 12.3381 7.67157C11.5879 8.42172 11.1665 9.43913 11.1665 10.5Z" stroke="#F14646" stroke-width="1.5" stroke-linecap="round" stroke-linejoin="round"/>
</svg>
