<svg width="80" height="80" viewBox="0 0 80 80" fill="none" xmlns="http://www.w3.org/2000/svg">
<path d="M70.9462 17.8645C69.5263 17.6139 68.167 18.5631 67.9156 19.9866L65.04 36.294L55.2066 23.1313C55.0519 22.9243 54.8662 22.7579 54.6691 22.6107C54.5233 22.4125 54.372 22.2177 54.2127 22.0278C51.9384 19.3166 48.5978 17.8242 44.8068 17.8242H37.4023C37.3698 17.8242 37.3395 17.8328 37.3072 17.8339C37.235 17.8303 37.1634 17.8242 37.0903 17.8242C35.2198 17.8242 33.6149 19.0035 32.9292 20.6842C32.7743 20.9251 27.2702 31.5316 27.2412 31.5792C27.22 31.4971 25.2442 21.6709 25.003 21.1952C24.5502 19.9671 23.4117 19.0909 22.0681 19.0909C20.7245 19.0909 19.5857 19.9671 19.1331 21.1952C19.0284 21.4016 14.0184 34.55 13.9564 34.7482C13.9559 34.7468 13.955 34.7454 13.9542 34.7443C13.917 34.5219 11.0973 24.3459 11.0022 24.1505C10.8462 23.1239 9.9962 22.3365 8.96267 22.3365C7.81835 22.3365 6.89038 23.2986 6.89038 24.4854C6.89038 24.8034 11.1447 42.3031 11.2279 42.5032C11.4059 43.7462 12.4295 44.7028 13.6775 44.7028C14.7722 44.7028 15.6914 43.9642 16.0235 42.945C16.1745 42.7322 20.6881 33.6077 20.7358 33.5212C20.7554 33.7659 22.2158 42.1091 22.2817 42.3461C22.43 44.2773 23.9852 45.7975 25.8855 45.7975C27.3021 45.7975 28.5253 44.9511 29.1192 43.7214C29.1834 43.642 37.644 28.2711 40.5142 23.0561H44.8065C47.0241 23.0561 48.9409 23.8848 50.2043 25.3905C51.5065 26.9421 52.001 29.0613 51.5961 31.3568C50.7158 36.3483 45.7703 40.5654 40.7967 40.5654C39.8431 40.5654 38.9427 40.4138 38.1211 40.1159C36.7615 39.622 35.262 40.3237 34.7689 41.6816C34.2758 43.0395 34.977 44.5408 36.3349 45.0336C37.7314 45.5407 39.2324 45.7978 40.7967 45.7978C47.9675 45.7978 54.603 40.5152 56.4614 33.5531L64.4697 44.2726C64.9705 44.9426 65.7518 45.3229 66.5657 45.3229C66.7666 45.3229 66.97 45.2998 67.1712 45.2521C68.1863 45.011 68.961 44.1888 69.1421 43.1611L73.0681 20.8945C73.3189 19.4718 72.3689 18.1147 70.9459 17.8639L70.9462 17.8645Z" fill="url(#paint0_linear_533_10670)"/>
<path style="mix-blend-mode:color-burn" d="M70.9462 17.8645C69.5263 17.6139 68.167 18.5631 67.9156 19.9866L65.04 36.294L55.2066 23.1313C55.0519 22.9243 54.8662 22.7579 54.6691 22.6107C54.5233 22.4125 54.372 22.2177 54.2127 22.0278C51.9384 19.3166 48.5978 17.8242 44.8068 17.8242H37.4023C37.3698 17.8242 37.3395 17.8328 37.3072 17.8339C37.235 17.8303 37.1634 17.8242 37.0903 17.8242C35.2198 17.8242 33.6149 19.0035 32.9292 20.6842C32.7743 20.9251 27.2702 31.5316 27.2412 31.5792C27.22 31.4971 25.2442 21.6709 25.003 21.1952C24.5502 19.9671 23.4117 19.0909 22.0681 19.0909C20.7245 19.0909 19.5857 19.9671 19.1331 21.1952C19.0284 21.4016 14.0184 34.55 13.9564 34.7482C13.9559 34.7468 13.955 34.7454 13.9542 34.7443C13.917 34.5219 11.0973 24.3459 11.0022 24.1505C10.8462 23.1239 9.9962 22.3365 8.96267 22.3365C7.81835 22.3365 6.89038 23.2986 6.89038 24.4854C6.89038 24.8034 11.1447 42.3031 11.2279 42.5032C11.4059 43.7462 12.4295 44.7028 13.6775 44.7028C14.7722 44.7028 15.6914 43.9642 16.0235 42.945C16.1745 42.7322 20.6881 33.6077 20.7358 33.5212C20.7554 33.7659 22.2158 42.1091 22.2817 42.3461C22.43 44.2773 23.9852 45.7975 25.8855 45.7975C27.3021 45.7975 28.5253 44.9511 29.1192 43.7214C29.1834 43.642 37.644 28.2711 40.5142 23.0561H44.8065C47.0241 23.0561 48.9409 23.8848 50.2043 25.3905C51.5065 26.9421 52.001 29.0613 51.5961 31.3568C50.7158 36.3483 45.7703 40.5654 40.7967 40.5654C39.8431 40.5654 38.9427 40.4138 38.1211 40.1159C36.7615 39.622 35.262 40.3237 34.7689 41.6816C34.2758 43.0395 34.977 44.5408 36.3349 45.0336C37.7314 45.5407 39.2324 45.7978 40.7967 45.7978C47.9675 45.7978 54.603 40.5152 56.4614 33.5531L64.4697 44.2726C64.9705 44.9426 65.7518 45.3229 66.5657 45.3229C66.7666 45.3229 66.97 45.2998 67.1712 45.2521C68.1863 45.011 68.961 44.1888 69.1421 43.1611L73.0681 20.8945C73.3189 19.4718 72.3689 18.1147 70.9459 17.8639L70.9462 17.8645Z" fill="url(#paint1_linear_533_10670)"/>
<path d="M19.4549 54.9994C18.0311 54.9994 17.0651 56.0928 17.0651 58.0248C17.0651 59.9568 18.0057 61.0755 19.4675 61.0755C20.7833 61.0755 21.5649 60.3319 21.5903 59.1688H19.5946V57.7324H23.4335V58.8764C23.4335 61.2916 21.781 62.7661 19.4549 62.7661C16.8744 62.7661 15.1201 60.9611 15.1201 58.0501C15.1201 55.1392 16.9887 53.3086 19.4166 53.3086C21.4886 53.3086 23.0901 54.5797 23.3445 56.3976H21.4122C21.1581 55.5333 20.4589 54.9994 19.4546 54.9994H19.4549Z" fill="#3B3B3B"/>
<path d="M24.8318 53.4358H26.7384V61.0627H30.7044V62.6389H24.8318V53.4355V53.4358Z" fill="#3B3B3B"/>
<path d="M35.7066 62.7663C33.2531 62.7663 31.3975 61.0247 31.3975 58.0377C31.3975 55.0506 33.2534 53.3091 35.7066 53.3091C38.1598 53.3091 40.003 55.038 40.003 58.0377C40.003 61.0374 38.1344 62.7663 35.7066 62.7663ZM35.7066 54.9997C34.2828 54.9997 33.3421 56.0674 33.3421 58.0377C33.3421 60.008 34.2828 61.0757 35.7066 61.0757C37.1304 61.0757 38.0583 60.008 38.0583 58.0377C38.0583 56.0674 37.1304 54.9997 35.7066 54.9997Z" fill="#3B3B3B"/>
<path d="M41.376 53.4355H45.0369C47.0709 53.4355 48.0876 54.4142 48.0876 55.8C48.0876 56.8804 47.3884 57.5542 46.4351 57.7703V57.8593C47.4774 57.91 48.4561 58.7363 48.4561 60.0967C48.4561 61.5585 47.3628 62.6389 45.2781 62.6389H41.3755V53.4355H41.376ZM46.1556 56.1051C46.1556 55.4442 45.6725 54.9864 44.7955 54.9864H43.2827V57.2872H44.7572C45.5581 57.2872 46.1553 56.8423 46.1553 56.1051H46.1556ZM46.4734 59.9187C46.4734 59.1434 45.8886 58.5966 44.9479 58.5966H43.2827V61.0627H44.8972C46.0032 61.0627 46.4734 60.6052 46.4734 59.9187Z" fill="#3B3B3B"/>
<path d="M49.1428 62.6389L52.3335 53.4355H54.787L57.965 62.6389H55.9184L55.2318 60.5162H51.9014L51.2022 62.6389H49.1428ZM54.7487 59.0287L53.592 55.5076H53.5283L52.3842 59.0287H54.7487Z" fill="#3B3B3B"/>
<path d="M59.0071 53.4358H60.9137V61.0627H64.8797V62.6389H59.0071V53.4355V53.4358Z" fill="#3B3B3B"/>
<defs>
<linearGradient id="paint0_linear_533_10670" x1="6.89093" y1="31.8113" x2="73.1086" y2="31.8113" gradientUnits="userSpaceOnUse">
<stop stop-color="#FEF9C3"/>
<stop offset="0.01" stop-color="#F8EFB4"/>
<stop offset="0.06" stop-color="#E9D58D"/>
<stop offset="0.1" stop-color="#DDC16E"/>
<stop offset="0.14" stop-color="#D4B257"/>
<stop offset="0.18" stop-color="#CFA94A"/>
<stop offset="0.22" stop-color="#CEA746"/>
<stop offset="0.48" stop-color="#FFEB99"/>
<stop offset="0.84" stop-color="#C5982A"/>
<stop offset="1" stop-color="#FFEB99"/>
</linearGradient>
<linearGradient id="paint1_linear_533_10670" x1="6.89093" y1="31.8113" x2="73.1086" y2="31.8113" gradientUnits="userSpaceOnUse">
<stop stop-color="#F1F1CB"/>
<stop offset="0.07" stop-color="#EBEAB4"/>
<stop offset="0.12" stop-color="#E8E7A7"/>
<stop offset="0.18" stop-color="#E7E6A3"/>
<stop offset="0.75" stop-color="#D6AC54"/>
<stop offset="1" stop-color="#EAE0AF"/>
</linearGradient>
</defs>
</svg>
