
<svg width="88" height="60" viewBox="0 0 88 60" fill="none" xmlns="http://www.w3.org/2000/svg">
<path d="M85.1267 0.053722C83.2397 -0.280748 81.4333 0.986484 81.0993 2.88696L77.2776 24.6584L64.2096 7.08532C64.0041 6.80898 63.7572 6.58674 63.4954 6.39025C63.3016 6.12569 63.1005 5.86555 62.8888 5.61203C59.8664 1.99247 55.4269 0 50.3889 0H40.5487C40.5055 0 40.4652 0.0114079 40.4224 0.0128797C40.3264 0.00809633 40.2312 0 40.1341 0C37.6483 0 35.5155 1.57447 34.6042 3.81826C34.3984 4.13985 27.0836 18.3002 27.0452 18.3638C27.017 18.2542 24.3912 5.13553 24.0707 4.50044C23.4689 2.86084 21.9559 1.69112 20.1703 1.69112C18.3848 1.69112 16.8714 2.86084 16.27 4.50044C16.1308 4.77604 9.47277 22.33 9.39036 22.5946C9.38963 22.5927 9.38853 22.5909 9.38743 22.5894C9.33798 22.2925 5.5907 8.70689 5.46434 8.44601C5.25704 7.07538 4.12747 6.02414 2.75396 6.02414C1.23322 6.02414 0 7.30866 0 8.89307C0 9.31769 5.6537 32.6809 5.76432 32.948C6.00092 34.6075 7.36124 35.8847 9.0197 35.8847C10.4745 35.8847 11.696 34.8986 12.1374 33.5379C12.3381 33.2538 18.3364 21.072 18.3998 20.9564C18.4258 21.2832 20.3667 32.4219 20.4542 32.7383C20.6512 35.3166 22.7181 37.3462 25.2435 37.3462C27.1261 37.3462 28.7516 36.2162 29.5409 34.5744C29.6263 34.4684 40.8699 13.9473 44.6842 6.98486H50.3885C53.3355 6.98486 55.8829 8.0913 57.5618 10.1014C59.2924 12.173 59.9495 15.0022 59.4115 18.0669C58.2416 24.7309 51.6693 30.361 45.0597 30.361C43.7924 30.361 42.5958 30.1586 41.5039 29.7608C39.6972 29.1015 37.7043 30.0383 37.049 31.8512C36.3938 33.6641 37.3256 35.6683 39.1302 36.3262C40.986 37.0033 42.9807 37.3466 45.0597 37.3466C54.5892 37.3466 63.4075 30.294 65.8772 20.9991L76.5198 35.3103C77.1853 36.2048 78.2237 36.7126 79.3053 36.7126C79.5723 36.7126 79.8426 36.6817 80.11 36.618C81.4589 36.296 82.4885 35.1984 82.7292 33.8263L87.9466 4.099C88.2799 2.19963 87.0174 0.387823 85.1264 0.0529854L85.1267 0.053722Z" fill="url(#paint0_linear_209_16758)"/>
<path style="mix-blend-mode:color-burn" d="M85.1267 0.053722C83.2397 -0.280748 81.4333 0.986484 81.0993 2.88696L77.2776 24.6584L64.2096 7.08532C64.0041 6.80898 63.7572 6.58674 63.4954 6.39025C63.3016 6.12569 63.1005 5.86555 62.8888 5.61203C59.8664 1.99247 55.4269 0 50.3889 0H40.5487C40.5055 0 40.4652 0.0114079 40.4224 0.0128797C40.3264 0.00809633 40.2312 0 40.1341 0C37.6483 0 35.5155 1.57447 34.6042 3.81826C34.3984 4.13985 27.0836 18.3002 27.0452 18.3638C27.017 18.2542 24.3912 5.13553 24.0707 4.50044C23.4689 2.86084 21.9559 1.69112 20.1703 1.69112C18.3848 1.69112 16.8714 2.86084 16.27 4.50044C16.1308 4.77604 9.47277 22.33 9.39036 22.5946C9.38963 22.5927 9.38853 22.5909 9.38743 22.5894C9.33798 22.2925 5.5907 8.70689 5.46434 8.44601C5.25704 7.07538 4.12747 6.02414 2.75396 6.02414C1.23322 6.02414 0 7.30866 0 8.89307C0 9.31769 5.6537 32.6809 5.76432 32.948C6.00092 34.6075 7.36124 35.8847 9.0197 35.8847C10.4745 35.8847 11.696 34.8986 12.1374 33.5379C12.3381 33.2538 18.3364 21.072 18.3998 20.9564C18.4258 21.2832 20.3667 32.4219 20.4542 32.7383C20.6512 35.3166 22.7181 37.3462 25.2435 37.3462C27.1261 37.3462 28.7516 36.2162 29.5409 34.5744C29.6263 34.4684 40.8699 13.9473 44.6842 6.98486H50.3885C53.3355 6.98486 55.8829 8.0913 57.5618 10.1014C59.2924 12.173 59.9495 15.0022 59.4115 18.0669C58.2416 24.7309 51.6693 30.361 45.0597 30.361C43.7924 30.361 42.5958 30.1586 41.5039 29.7608C39.6972 29.1015 37.7043 30.0383 37.049 31.8512C36.3938 33.6641 37.3256 35.6683 39.1302 36.3262C40.986 37.0033 42.9807 37.3466 45.0597 37.3466C54.5892 37.3466 63.4075 30.294 65.8772 20.9991L76.5198 35.3103C77.1853 36.2048 78.2237 36.7126 79.3053 36.7126C79.5723 36.7126 79.8426 36.6817 80.11 36.618C81.4589 36.296 82.4885 35.1984 82.7292 33.8263L87.9466 4.099C88.2799 2.19963 87.0174 0.387823 85.1264 0.0529854L85.1267 0.053722Z" fill="url(#paint1_linear_209_16758)"/>
<path d="M16.6974 49.6311C14.8052 49.6311 13.5215 51.0907 13.5215 53.6701C13.5215 56.2494 14.7715 57.743 16.7142 57.743C18.4628 57.743 19.5015 56.7502 19.5352 55.1975H16.8831V53.2797H21.9848V54.8071C21.9848 58.0314 19.7887 60 16.6974 60C13.268 60 10.9367 57.5903 10.9367 53.7039C10.9367 49.8176 13.42 47.3737 16.6464 47.3737C19.4 47.3737 21.5284 49.0707 21.8665 51.4977H19.2986C18.9609 50.3438 18.0317 49.6311 16.697 49.6311H16.6974Z" fill="#231916"/>
<path d="M23.8429 47.5433H26.3767V57.7257H31.6473V59.83H23.8429V47.543V47.5433Z" fill="#231916"/>
<path d="M38.2951 60C35.0346 60 32.5685 57.6749 32.5685 53.687C32.5685 49.6991 35.0349 47.374 38.2951 47.374C41.5552 47.374 44.0048 49.6822 44.0048 53.687C44.0048 57.6918 41.5215 60 38.2951 60ZM38.2951 49.6311C36.4029 49.6311 35.1529 51.0565 35.1529 53.687C35.1529 56.3175 36.4029 57.743 38.2951 57.743C40.1872 57.743 41.4204 56.3175 41.4204 53.687C41.4204 51.0565 40.1872 49.6311 38.2951 49.6311Z" fill="#231916"/>
<path d="M45.8295 47.5432H50.6946C53.3976 47.5432 54.7488 48.8498 54.7488 50.6999C54.7488 52.1423 53.8196 53.0419 52.5527 53.3304V53.4492C53.9379 53.5169 55.2385 54.6201 55.2385 56.4363C55.2385 58.3879 53.7855 59.8303 51.0151 59.8303H45.8287V47.5432H45.8295ZM52.1813 51.1072C52.1813 50.2249 51.5392 49.6137 50.3737 49.6137H48.3633V52.6854H50.3228C51.3872 52.6854 52.1809 52.0915 52.1809 51.1072H52.1813ZM52.6036 56.1986C52.6036 55.1635 51.8264 54.4335 50.5763 54.4335H48.3633V57.726H50.5089C51.9787 57.726 52.6036 57.1152 52.6036 56.1986Z" fill="#231916"/>
<path d="M56.1509 59.8303L60.3912 47.5432H63.6517L67.8751 59.8303H65.1552L64.2428 56.9963H59.8169L58.8876 59.8303H56.1509ZM63.6008 55.0105L62.0635 50.3095H61.9789L60.4586 55.0105H63.6008Z" fill="#231916"/>
<path d="M69.2599 47.5433H71.7937V57.7257H77.0643V59.83H69.2599V47.543V47.5433Z" fill="#231916"/>
<defs>
<linearGradient id="paint0_linear_209_16758" x1="0.000732534" y1="18.6736" x2="88.0005" y2="18.6736" gradientUnits="userSpaceOnUse">
<stop stop-color="#FEF9C3"/>
<stop offset="0.01" stop-color="#F8EFB4"/>
<stop offset="0.06" stop-color="#E9D58D"/>
<stop offset="0.1" stop-color="#DDC16E"/>
<stop offset="0.14" stop-color="#D4B257"/>
<stop offset="0.18" stop-color="#CFA94A"/>
<stop offset="0.22" stop-color="#CEA746"/>
<stop offset="0.48" stop-color="#FFEB99"/>
<stop offset="0.84" stop-color="#C5982A"/>
<stop offset="1" stop-color="#FFEB99"/>
</linearGradient>
<linearGradient id="paint1_linear_209_16758" x1="0.000732534" y1="18.6736" x2="88.0005" y2="18.6736" gradientUnits="userSpaceOnUse">
<stop stop-color="#F1F1CB"/>
<stop offset="0.07" stop-color="#EBEAB4"/>
<stop offset="0.12" stop-color="#E8E7A7"/>
<stop offset="0.18" stop-color="#E7E6A3"/>
<stop offset="0.75" stop-color="#D6AC54"/>
<stop offset="1" stop-color="#EAE0AF"/>
</linearGradient>
</defs>
</svg>
