
<svg width="96" height="28" viewBox="0 0 96 28" fill="none" xmlns="http://www.w3.org/2000/svg">
<rect x="0.5" width="28" height="28" rx="4" fill="#FFE812"/>
<path d="M14.5005 6C8.97714 6 4.5 9.4426 4.5 13.6898C4.5 16.4356 6.37221 18.8448 9.18773 20.2055C9.03483 20.7204 8.20306 23.5196 8.17037 23.74C8.17037 23.74 8.15018 23.9051 8.2598 23.9679C8.36942 24.0307 8.49827 23.982 8.49827 23.982C8.81271 23.9388 12.1465 21.6553 12.7235 21.2586C13.3004 21.3384 13.8937 21.3796 14.4995 21.3796C20.0229 21.3796 24.5 17.937 24.5 13.6898C24.5 9.4426 20.0229 6 14.4995 6H14.5005Z" fill="black"/>
<path d="M8.97135 16.3738C8.65306 16.3738 8.3944 16.1328 8.3944 15.8364V12.4942H7.49435C7.18184 12.4942 6.92798 12.2466 6.92798 11.9428C6.92798 11.6389 7.18184 11.3914 7.49435 11.3914H10.4483C10.7609 11.3914 11.0147 11.6389 11.0147 11.9428C11.0147 12.2466 10.7609 12.4942 10.4483 12.4942H9.5483V15.8364C9.5483 16.1328 9.28963 16.3738 8.97135 16.3738Z" fill="#FFE812"/>
<path d="M14.0302 16.3673C13.7898 16.3673 13.6052 16.2716 13.5504 16.1188L13.2648 15.3892H11.5051L11.2195 16.1188C11.1647 16.2716 10.9801 16.3673 10.7397 16.3673C10.6128 16.3673 10.4858 16.3401 10.3733 16.2894C10.2147 16.2182 10.0618 16.0212 10.2368 15.4904L11.6167 11.9475C11.7138 11.6784 12.009 11.4008 12.385 11.3923C12.7619 11.4008 13.0571 11.6784 13.1542 11.9484L14.5341 15.4895C14.7101 16.0212 14.5572 16.2182 14.3976 16.2894C14.2851 16.3401 14.1581 16.3673 14.0312 16.3673H14.0302ZM12.9609 14.3923L12.385 12.7953L11.809 14.3923H12.9619H12.9609Z" fill="#FFE812"/>
<path d="M15.4621 16.2922C15.1573 16.2922 14.9092 16.0606 14.9092 15.7765V11.955C14.9092 11.6446 15.1736 11.3923 15.4977 11.3923C15.8217 11.3923 16.0862 11.6446 16.0862 11.955V15.2607H17.3122C17.617 15.2607 17.8651 15.4923 17.8651 15.7765C17.8651 16.0606 17.617 16.2922 17.3122 16.2922H15.4611H15.4621Z" fill="#FFE812"/>
<path d="M18.667 16.3673C18.3488 16.3673 18.0901 16.115 18.0901 15.8046V11.955C18.0901 11.6446 18.3488 11.3923 18.667 11.3923C18.9853 11.3923 19.244 11.6446 19.244 11.955V13.1647L20.8537 11.5949C20.9364 11.5142 21.0498 11.4692 21.1739 11.4692C21.3181 11.4692 21.4624 11.5302 21.571 11.6352C21.672 11.7337 21.7326 11.8603 21.7403 11.9916C21.7489 12.1238 21.7037 12.2457 21.6133 12.3339L20.2988 13.6158L21.7191 15.4511C21.8124 15.5711 21.8508 15.7193 21.8297 15.8684C21.8085 16.0175 21.7287 16.1488 21.6056 16.2397C21.5047 16.3138 21.3845 16.3532 21.2585 16.3532C21.0758 16.3532 20.9075 16.2716 20.7979 16.13L19.445 14.382L19.245 14.577V15.8046C19.245 16.115 18.9863 16.3673 18.668 16.3673H18.667Z" fill="#FFE812"/>
<path d="M34.6279 19.098C34.4226 19.098 34.2639 19.042 34.1519 18.93C34.0399 18.8087 33.9839 18.6407 33.9839 18.426V9.69C33.9839 9.47533 34.0399 9.312 34.1519 9.2C34.2639 9.088 34.4226 9.032 34.6279 9.032C34.8426 9.032 35.0059 9.088 35.1179 9.2C35.2299 9.312 35.2859 9.47533 35.2859 9.69V13.596H35.3139L39.7379 9.382C39.8686 9.26067 39.9899 9.172 40.1019 9.116C40.2233 9.06 40.3539 9.032 40.4939 9.032C40.6899 9.032 40.8299 9.08333 40.9139 9.186C41.0073 9.27933 41.0446 9.396 41.0259 9.536C41.0073 9.66667 40.9373 9.79267 40.8159 9.914L36.1959 14.254L36.2099 13.596L41.0399 18.132C41.1893 18.272 41.2686 18.4213 41.2779 18.58C41.2873 18.7293 41.2406 18.8553 41.1379 18.958C41.0446 19.0513 40.8999 19.098 40.7039 19.098C40.5453 19.098 40.4099 19.0653 40.2979 19C40.1953 18.9347 40.0739 18.832 39.9339 18.692L35.3139 14.366H35.2859V18.426C35.2859 18.6407 35.2299 18.8087 35.1179 18.93C35.0153 19.042 34.8519 19.098 34.6279 19.098ZM44.859 19.126C44.3923 19.126 43.9677 19.0327 43.585 18.846C43.2117 18.6593 42.9177 18.4073 42.703 18.09C42.4977 17.7727 42.395 17.418 42.395 17.026C42.395 16.522 42.521 16.1253 42.773 15.836C43.025 15.5467 43.4497 15.3413 44.047 15.22C44.6443 15.0893 45.447 15.024 46.455 15.024H47.113V15.836H46.483C45.7643 15.836 45.195 15.8687 44.775 15.934C44.3643 15.9993 44.075 16.116 43.907 16.284C43.739 16.4427 43.655 16.6667 43.655 16.956C43.655 17.32 43.781 17.6187 44.033 17.852C44.2943 18.0853 44.649 18.202 45.097 18.202C45.4517 18.202 45.7643 18.118 46.035 17.95C46.3057 17.7727 46.5203 17.5393 46.679 17.25C46.8377 16.9513 46.917 16.6107 46.917 16.228V14.618C46.917 14.0673 46.805 13.6707 46.581 13.428C46.357 13.176 45.979 13.05 45.447 13.05C45.139 13.05 44.8217 13.092 44.495 13.176C44.1683 13.26 43.8277 13.3907 43.473 13.568C43.333 13.6333 43.2117 13.6567 43.109 13.638C43.0063 13.61 42.9223 13.554 42.857 13.47C42.801 13.3767 42.7683 13.2787 42.759 13.176C42.759 13.064 42.7823 12.9567 42.829 12.854C42.885 12.7513 42.9783 12.6767 43.109 12.63C43.5197 12.4247 43.9257 12.28 44.327 12.196C44.7377 12.1027 45.1203 12.056 45.475 12.056C46.0817 12.056 46.581 12.154 46.973 12.35C47.365 12.5367 47.659 12.8307 47.855 13.232C48.051 13.624 48.149 14.128 48.149 14.744V18.44C48.149 18.6547 48.0977 18.818 47.995 18.93C47.8923 19.042 47.743 19.098 47.547 19.098C47.3603 19.098 47.211 19.042 47.099 18.93C46.9963 18.818 46.945 18.6547 46.945 18.44V17.446H47.071C46.9963 17.7913 46.8563 18.09 46.651 18.342C46.4457 18.594 46.189 18.79 45.881 18.93C45.5823 19.0607 45.2417 19.126 44.859 19.126ZM50.7838 19.098C50.5878 19.098 50.4338 19.042 50.3218 18.93C50.2098 18.818 50.1538 18.6547 50.1538 18.44V9.676C50.1538 9.46133 50.2098 9.30267 50.3218 9.2C50.4338 9.088 50.5878 9.032 50.7838 9.032C50.9892 9.032 51.1478 9.088 51.2598 9.2C51.3718 9.30267 51.4278 9.46133 51.4278 9.676V15.192H51.4558L54.1998 12.518C54.3398 12.378 54.4658 12.2707 54.5778 12.196C54.6898 12.1213 54.8345 12.084 55.0118 12.084C55.1892 12.084 55.3245 12.1307 55.4178 12.224C55.5112 12.308 55.5578 12.42 55.5578 12.56C55.5578 12.6907 55.4925 12.8213 55.3618 12.952L52.4498 15.78V15.15L55.6278 18.216C55.7585 18.3467 55.8192 18.482 55.8098 18.622C55.8098 18.762 55.7585 18.8787 55.6558 18.972C55.5625 19.056 55.4365 19.098 55.2778 19.098C55.0912 19.098 54.9372 19.0607 54.8158 18.986C54.7038 18.9113 54.5732 18.7947 54.4238 18.636L51.4558 15.836H51.4278V18.44C51.4278 18.8787 51.2132 19.098 50.7838 19.098ZM59.3649 19.126C58.8982 19.126 58.4735 19.0327 58.0909 18.846C57.7175 18.6593 57.4235 18.4073 57.2089 18.09C57.0035 17.7727 56.9009 17.418 56.9009 17.026C56.9009 16.522 57.0269 16.1253 57.2789 15.836C57.5309 15.5467 57.9555 15.3413 58.5529 15.22C59.1502 15.0893 59.9529 15.024 60.9609 15.024H61.6189V15.836H60.9889C60.2702 15.836 59.7009 15.8687 59.2809 15.934C58.8702 15.9993 58.5809 16.116 58.4129 16.284C58.2449 16.4427 58.1609 16.6667 58.1609 16.956C58.1609 17.32 58.2869 17.6187 58.5389 17.852C58.8002 18.0853 59.1549 18.202 59.6029 18.202C59.9575 18.202 60.2702 18.118 60.5409 17.95C60.8115 17.7727 61.0262 17.5393 61.1849 17.25C61.3435 16.9513 61.4229 16.6107 61.4229 16.228V14.618C61.4229 14.0673 61.3109 13.6707 61.0869 13.428C60.8629 13.176 60.4849 13.05 59.9529 13.05C59.6449 13.05 59.3275 13.092 59.0009 13.176C58.6742 13.26 58.3335 13.3907 57.9789 13.568C57.8389 13.6333 57.7175 13.6567 57.6149 13.638C57.5122 13.61 57.4282 13.554 57.3629 13.47C57.3069 13.3767 57.2742 13.2787 57.2649 13.176C57.2649 13.064 57.2882 12.9567 57.3349 12.854C57.3909 12.7513 57.4842 12.6767 57.6149 12.63C58.0255 12.4247 58.4315 12.28 58.8329 12.196C59.2435 12.1027 59.6262 12.056 59.9809 12.056C60.5875 12.056 61.0869 12.154 61.4789 12.35C61.8709 12.5367 62.1649 12.8307 62.3609 13.232C62.5569 13.624 62.6549 14.128 62.6549 14.744V18.44C62.6549 18.6547 62.6035 18.818 62.5009 18.93C62.3982 19.042 62.2489 19.098 62.0529 19.098C61.8662 19.098 61.7169 19.042 61.6049 18.93C61.5022 18.818 61.4509 18.6547 61.4509 18.44V17.446H61.5769C61.5022 17.7913 61.3622 18.09 61.1569 18.342C60.9515 18.594 60.6949 18.79 60.3869 18.93C60.0882 19.0607 59.7475 19.126 59.3649 19.126ZM67.5577 19.126C66.8857 19.126 66.3024 18.9813 65.8077 18.692C65.313 18.4027 64.9304 17.992 64.6597 17.46C64.389 16.928 64.2537 16.3027 64.2537 15.584C64.2537 15.0427 64.3284 14.5573 64.4777 14.128C64.6364 13.6893 64.8604 13.316 65.1497 13.008C65.439 12.7 65.7844 12.4667 66.1857 12.308C66.5964 12.14 67.0537 12.056 67.5577 12.056C68.2297 12.056 68.813 12.2007 69.3077 12.49C69.8024 12.7793 70.185 13.19 70.4557 13.722C70.7264 14.2447 70.8617 14.8653 70.8617 15.584C70.8617 16.1253 70.7824 16.6153 70.6237 17.054C70.4744 17.4927 70.255 17.866 69.9657 18.174C69.6764 18.482 69.3264 18.72 68.9157 18.888C68.5144 19.0467 68.0617 19.126 67.5577 19.126ZM67.5577 18.118C67.9684 18.118 68.323 18.02 68.6217 17.824C68.9297 17.628 69.163 17.3433 69.3217 16.97C69.4897 16.5967 69.5737 16.1347 69.5737 15.584C69.5737 14.7627 69.3917 14.1373 69.0277 13.708C68.6637 13.2787 68.1737 13.064 67.5577 13.064C67.1564 13.064 66.8017 13.162 66.4937 13.358C66.195 13.5447 65.9617 13.8247 65.7937 14.198C65.6257 14.5713 65.5417 15.0333 65.5417 15.584C65.5417 16.4053 65.7237 17.0353 66.0877 17.474C66.461 17.9033 66.951 18.118 67.5577 18.118ZM75.2533 19.126C74.7027 19.126 74.2407 19.028 73.8673 18.832C73.5033 18.636 73.228 18.3513 73.0413 17.978C72.864 17.6047 72.7753 17.1473 72.7753 16.606V13.162H71.8793C71.7113 13.162 71.5807 13.12 71.4873 13.036C71.394 12.9427 71.3473 12.8213 71.3473 12.672C71.3473 12.5133 71.394 12.392 71.4873 12.308C71.5807 12.224 71.7113 12.182 71.8793 12.182H72.7753V10.656C72.7753 10.4413 72.8313 10.2827 72.9433 10.18C73.0553 10.068 73.214 10.012 73.4193 10.012C73.6247 10.012 73.7787 10.068 73.8813 10.18C73.9933 10.2827 74.0493 10.4413 74.0493 10.656V12.182H75.7433C75.9207 12.182 76.056 12.224 76.1493 12.308C76.2427 12.392 76.2893 12.5133 76.2893 12.672C76.2893 12.8213 76.2427 12.9427 76.1493 13.036C76.056 13.12 75.9207 13.162 75.7433 13.162H74.0493V16.494C74.0493 17.0073 74.1567 17.3947 74.3713 17.656C74.586 17.9173 74.9407 18.048 75.4353 18.048C75.6127 18.048 75.762 18.034 75.8833 18.006C76.0047 17.9687 76.112 17.95 76.2053 17.95C76.2893 17.9407 76.3593 17.9687 76.4153 18.034C76.4807 18.0993 76.5133 18.2207 76.5133 18.398C76.5133 18.5287 76.49 18.65 76.4433 18.762C76.406 18.8647 76.3267 18.9347 76.2053 18.972C76.0933 19.0093 75.944 19.042 75.7573 19.07C75.5707 19.1073 75.4027 19.126 75.2533 19.126ZM79.6129 19.126C79.1462 19.126 78.7216 19.0327 78.3389 18.846C77.9656 18.6593 77.6716 18.4073 77.4569 18.09C77.2516 17.7727 77.1489 17.418 77.1489 17.026C77.1489 16.522 77.2749 16.1253 77.5269 15.836C77.7789 15.5467 78.2036 15.3413 78.8009 15.22C79.3982 15.0893 80.2009 15.024 81.2089 15.024H81.8669V15.836H81.2369C80.5182 15.836 79.9489 15.8687 79.5289 15.934C79.1182 15.9993 78.8289 16.116 78.6609 16.284C78.4929 16.4427 78.4089 16.6667 78.4089 16.956C78.4089 17.32 78.5349 17.6187 78.7869 17.852C79.0482 18.0853 79.4029 18.202 79.8509 18.202C80.2056 18.202 80.5182 18.118 80.7889 17.95C81.0596 17.7727 81.2742 17.5393 81.4329 17.25C81.5916 16.9513 81.6709 16.6107 81.6709 16.228V14.618C81.6709 14.0673 81.5589 13.6707 81.3349 13.428C81.1109 13.176 80.7329 13.05 80.2009 13.05C79.8929 13.05 79.5756 13.092 79.2489 13.176C78.9222 13.26 78.5816 13.3907 78.2269 13.568C78.0869 13.6333 77.9656 13.6567 77.8629 13.638C77.7602 13.61 77.6762 13.554 77.6109 13.47C77.5549 13.3767 77.5222 13.2787 77.5129 13.176C77.5129 13.064 77.5362 12.9567 77.5829 12.854C77.6389 12.7513 77.7322 12.6767 77.8629 12.63C78.2736 12.4247 78.6796 12.28 79.0809 12.196C79.4916 12.1027 79.8742 12.056 80.2289 12.056C80.8356 12.056 81.3349 12.154 81.7269 12.35C82.1189 12.5367 82.4129 12.8307 82.6089 13.232C82.8049 13.624 82.9029 14.128 82.9029 14.744V18.44C82.9029 18.6547 82.8516 18.818 82.7489 18.93C82.6462 19.042 82.4969 19.098 82.3009 19.098C82.1142 19.098 81.9649 19.042 81.8529 18.93C81.7502 18.818 81.6989 18.6547 81.6989 18.44V17.446H81.8249C81.7502 17.7913 81.6102 18.09 81.4049 18.342C81.1996 18.594 80.9429 18.79 80.6349 18.93C80.3362 19.0607 79.9956 19.126 79.6129 19.126ZM87.0497 19.126C86.3497 19.126 85.8177 18.9207 85.4537 18.51C85.0897 18.09 84.9077 17.488 84.9077 16.704V9.676C84.9077 9.46133 84.9637 9.30267 85.0757 9.2C85.1877 9.088 85.3417 9.032 85.5377 9.032C85.7431 9.032 85.9017 9.088 86.0137 9.2C86.1257 9.30267 86.1817 9.46133 86.1817 9.676V16.606C86.1817 17.0913 86.2797 17.4553 86.4757 17.698C86.6811 17.9313 86.9704 18.048 87.3437 18.048C87.4277 18.048 87.5024 18.048 87.5677 18.048C87.6331 18.0387 87.6984 18.0293 87.7637 18.02C87.8664 18.0107 87.9411 18.0387 87.9877 18.104C88.0344 18.1693 88.0577 18.3 88.0577 18.496C88.0577 18.6733 88.0157 18.8133 87.9317 18.916C87.8571 19.0093 87.7311 19.07 87.5537 19.098C87.4697 19.1073 87.3857 19.112 87.3017 19.112C87.2177 19.1213 87.1337 19.126 87.0497 19.126ZM89.7487 19.098C89.5527 19.098 89.3987 19.042 89.2867 18.93C89.1747 18.818 89.1187 18.6547 89.1187 18.44V9.676C89.1187 9.46133 89.1747 9.30267 89.2867 9.2C89.3987 9.088 89.5527 9.032 89.7487 9.032C89.954 9.032 90.1127 9.088 90.2247 9.2C90.3367 9.30267 90.3927 9.46133 90.3927 9.676V15.192H90.4207L93.1647 12.518C93.3047 12.378 93.4307 12.2707 93.5427 12.196C93.6547 12.1213 93.7993 12.084 93.9767 12.084C94.154 12.084 94.2893 12.1307 94.3827 12.224C94.476 12.308 94.5227 12.42 94.5227 12.56C94.5227 12.6907 94.4573 12.8213 94.3267 12.952L91.4147 15.78V15.15L94.5927 18.216C94.7233 18.3467 94.784 18.482 94.7747 18.622C94.7747 18.762 94.7233 18.8787 94.6207 18.972C94.5273 19.056 94.4013 19.098 94.2427 19.098C94.056 19.098 93.902 19.0607 93.7807 18.986C93.6687 18.9113 93.538 18.7947 93.3887 18.636L90.4207 15.836H90.3927V18.44C90.3927 18.8787 90.178 19.098 89.7487 19.098Z" fill="black"/>
</svg>
