
<svg width="312" height="142" viewBox="0 0 312 142" fill="none" xmlns="http://www.w3.org/2000/svg">
<g filter="url(#filter0_d_2003_15476)">
<path fill-rule="evenodd" clip-rule="evenodd" d="M208.049 6H16C11.5817 6 8 9.58172 8 14V124C8 128.418 11.5817 132 16 132H208.105C208.036 131.525 208 131.039 208 130.545C208 125.023 212.477 120.545 218 120.545C223.523 120.545 228 125.023 228 130.545C228 131.039 227.964 131.525 227.895 132H296C300.418 132 304 128.418 304 124V14C304 9.58172 300.418 6 296 6H227.951C227.449 11.0533 223.185 15 218 15C212.815 15 208.551 11.0533 208.049 6ZM217.857 28.9094C219.435 28.9094 220.714 27.6273 220.714 26.0458C220.714 24.4642 219.435 23.1821 217.857 23.1821C216.279 23.1821 215 24.4642 215 26.0458C215 27.6273 216.279 28.9094 217.857 28.9094ZM220.714 40.3636C220.714 41.9452 219.435 43.2273 217.857 43.2273C216.279 43.2273 215 41.9452 215 40.3636C215 38.7821 216.279 37.5 217.857 37.5C219.435 37.5 220.714 38.7821 220.714 40.3636ZM217.857 57.5451C219.435 57.5451 220.714 56.2631 220.714 54.6815C220.714 53.1 219.435 51.8179 217.857 51.8179C216.279 51.8179 215 53.1 215 54.6815C215 56.2631 216.279 57.5451 217.857 57.5451ZM220.714 68.9999C220.714 70.5814 219.435 71.8635 217.857 71.8635C216.279 71.8635 215 70.5814 215 68.9999C215 67.4183 216.279 66.1362 217.857 66.1362C219.435 66.1362 220.714 67.4183 220.714 68.9999ZM217.857 86.1824C219.435 86.1824 220.714 84.9003 220.714 83.3187C220.714 81.7372 219.435 80.4551 217.857 80.4551C216.279 80.4551 215 81.7372 215 83.3187C215 84.9003 216.279 86.1824 217.857 86.1824ZM220.714 97.6361C220.714 99.2176 219.435 100.5 217.857 100.5C216.279 100.5 215 99.2176 215 97.6361C215 96.0546 216.279 94.7725 217.857 94.7725C219.435 94.7725 220.714 96.0546 220.714 97.6361ZM217.857 114.818C219.435 114.818 220.714 113.536 220.714 111.954C220.714 110.373 219.435 109.091 217.857 109.091C216.279 109.091 215 110.373 215 111.954C215 113.536 216.279 114.818 217.857 114.818Z" fill="white"/>
<path d="M16.75 14.75H204.25V123.25H16.75V14.75Z" fill="white" stroke="#D3D2D2" stroke-width="1.5"/>
<rect x="233" y="14" width="63" height="110" fill="#D3D2D2"/>
</g>
<defs>
<filter id="filter0_d_2003_15476" x="0" y="0" width="312" height="142" filterUnits="userSpaceOnUse" color-interpolation-filters="sRGB">
<feFlood flood-opacity="0" result="BackgroundImageFix"/>
<feColorMatrix in="SourceAlpha" type="matrix" values="0 0 0 0 0 0 0 0 0 0 0 0 0 0 0 0 0 0 127 0" result="hardAlpha"/>
<feOffset dy="2"/>
<feGaussianBlur stdDeviation="4"/>
<feComposite in2="hardAlpha" operator="out"/>
<feColorMatrix type="matrix" values="0 0 0 0 0.130583 0 0 0 0 0.129324 0 0 0 0 0.129324 0 0 0 0.18 0"/>
<feBlend mode="normal" in2="BackgroundImageFix" result="effect1_dropShadow_2003_15476"/>
<feBlend mode="normal" in="SourceGraphic" in2="effect1_dropShadow_2003_15476" result="shape"/>
</filter>
</defs>
</svg>
