
<svg width="308" height="138" viewBox="0 0 308 138" fill="none" xmlns="http://www.w3.org/2000/svg">
<g filter="url(#filter0_d_2002_14188)">
<path fill-rule="evenodd" clip-rule="evenodd" d="M240.977 4C240.977 6.76142 238.744 9 235.989 9C233.234 9 231 6.76142 231 4H6V55.0008C6.04755 55.0003 6.09517 55 6.14286 55C12.8492 55 18.2857 60.4489 18.2857 67.1705C18.2857 73.892 12.8492 79.3409 6.14286 79.3409C6.09517 79.3409 6.04755 79.3406 6 79.3401V130H231C231 127.239 233.234 125 235.989 125C238.744 125 240.977 127.239 240.977 130H302V79.3401C295.36 79.2634 290 73.8442 290 67.1705C290 60.4967 295.36 55.0775 302 55.0008V4H240.977ZM235.989 27C238.744 27 240.977 24.7614 240.977 22C240.977 19.2386 238.744 17 235.989 17C233.234 17 231 19.2386 231 22C231 24.7614 233.234 27 235.989 27ZM240.977 40C240.977 42.7614 238.744 45 235.989 45C233.234 45 231 42.7614 231 40C231 37.2386 233.234 35 235.989 35C238.744 35 240.977 37.2386 240.977 40ZM235.989 63C238.744 63 240.977 60.7614 240.977 58C240.977 55.2386 238.744 53 235.989 53C233.234 53 231 55.2386 231 58C231 60.7614 233.234 63 235.989 63ZM240.977 76C240.977 78.7614 238.744 81 235.989 81C233.234 81 231 78.7614 231 76C231 73.2386 233.234 71 235.989 71C238.744 71 240.977 73.2386 240.977 76ZM235.989 99C238.744 99 240.977 96.7614 240.977 94C240.977 91.2386 238.744 89 235.989 89C233.234 89 231 91.2386 231 94C231 96.7614 233.234 99 235.989 99ZM240.977 112C240.977 114.761 238.744 117 235.989 117C233.234 117 231 114.761 231 112C231 109.239 233.234 107 235.989 107C238.744 107 240.977 109.239 240.977 112Z" fill="white"/>
<mask id="path-2-inside-1_2002_14188" fill="white">
<path fill-rule="evenodd" clip-rule="evenodd" d="M26.1176 24.2353C30.6009 24.2353 34.2353 20.6009 34.2353 16.1176C34.2353 15.385 34.1382 14.6751 33.9563 14H214.001C214 14.0391 214 14.0784 214 14.1176C214 18.5616 217.571 22.1715 222 22.2345V111.471C217.517 111.471 213.883 115.105 213.883 119.588C213.883 119.726 213.886 119.864 213.893 120H33.1078C33.1146 119.864 33.118 119.726 33.118 119.588C33.118 115.105 29.4836 111.471 25.0004 111.471C25.0003 111.471 25.0001 111.471 25 111.471V24.159C25.3654 24.2093 25.7385 24.2353 26.1176 24.2353Z"/>
</mask>
<path fill-rule="evenodd" clip-rule="evenodd" d="M26.1176 24.2353C30.6009 24.2353 34.2353 20.6009 34.2353 16.1176C34.2353 15.385 34.1382 14.6751 33.9563 14H214.001C214 14.0391 214 14.0784 214 14.1176C214 18.5616 217.571 22.1715 222 22.2345V111.471C217.517 111.471 213.883 115.105 213.883 119.588C213.883 119.726 213.886 119.864 213.893 120H33.1078C33.1146 119.864 33.118 119.726 33.118 119.588C33.118 115.105 29.4836 111.471 25.0004 111.471C25.0003 111.471 25.0001 111.471 25 111.471V24.159C25.3654 24.2093 25.7385 24.2353 26.1176 24.2353Z" fill="#FFF2DC"/>
<path d="M33.9563 14V12.5H31.9986L32.508 14.3903L33.9563 14ZM214.001 14L215.501 14.021L215.522 12.5H214.001V14ZM222 22.2345H223.5V20.7556L222.021 20.7346L222 22.2345ZM222 111.471L222 112.971L223.5 112.971V111.471H222ZM213.893 120V121.5H215.47L215.391 119.925L213.893 120ZM33.1078 120L31.6096 119.925L31.531 121.5H33.1078V120ZM25 111.471H23.5V112.971H25V111.471ZM25 24.159L25.2046 22.673L23.5 22.4383V24.159H25ZM32.7353 16.1176C32.7353 19.7725 29.7725 22.7353 26.1176 22.7353V25.7353C31.4293 25.7353 35.7353 21.4293 35.7353 16.1176H32.7353ZM32.508 14.3903C32.6559 14.9393 32.7353 15.518 32.7353 16.1176H35.7353C35.7353 15.252 35.6206 14.4109 35.4046 13.6097L32.508 14.3903ZM214.001 12.5H33.9563V15.5H214.001V12.5ZM215.5 14.1176C215.5 14.0857 215.5 14.0536 215.501 14.021L212.501 13.979C212.5 14.0247 212.5 14.071 212.5 14.1176H215.5ZM222.021 20.7346C218.411 20.6833 215.5 17.7403 215.5 14.1176H212.5C212.5 19.3829 216.731 23.6598 221.979 23.7343L222.021 20.7346ZM223.5 111.471V22.2345H220.5V111.471H223.5ZM215.383 119.588C215.383 115.934 218.345 112.971 222 112.971L222 109.971C216.688 109.971 212.383 114.277 212.383 119.588H215.383ZM215.391 119.925C215.386 119.814 215.383 119.701 215.383 119.588H212.383C212.383 119.751 212.387 119.914 212.395 120.075L215.391 119.925ZM33.1078 121.5H213.893V118.5H33.1078V121.5ZM31.618 119.588C31.618 119.701 31.6152 119.814 31.6096 119.925L34.6059 120.075C34.614 119.914 34.618 119.751 34.618 119.588H31.618ZM25.0004 112.971C28.6552 112.971 31.618 115.934 31.618 119.588H34.618C34.618 114.277 30.3121 109.971 25.0004 109.971V112.971ZM25 112.971C25 112.971 25 112.971 25 112.971C25 112.971 25 112.971 25 112.971C25 112.971 25 112.971 25 112.971C25 112.971 25 112.971 25 112.971C25 112.971 25 112.971 25 112.971C25 112.971 25 112.971 25 112.971C25 112.971 25 112.971 25 112.971C25 112.971 25 112.971 25 112.971C25 112.971 25 112.971 25 112.971C25 112.971 25 112.971 25 112.971C25 112.971 25 112.971 25 112.971C25 112.971 25 112.971 25 112.971C25 112.971 25 112.971 25 112.971C25 112.971 25 112.971 25 112.971C25 112.971 25 112.971 25 112.971C25 112.971 25 112.971 25 112.971C25 112.971 25 112.971 25 112.971C25 112.971 25 112.971 25 112.971C25 112.971 25 112.971 25 112.971C25 112.971 25 112.971 25 112.971C25 112.971 25 112.971 25 112.971C25 112.971 25 112.971 25 112.971C25 112.971 25 112.971 25 112.971C25 112.971 25 112.971 25 112.971C25 112.971 25 112.971 25 112.971C25 112.971 25 112.971 25 112.971C25 112.971 25 112.971 25 112.971C25 112.971 25 112.971 25 112.971C25 112.971 25 112.971 25 112.971C25 112.971 25 112.971 25 112.971C25 112.971 25 112.971 25 112.971C25 112.971 25 112.971 25 112.971C25 112.971 25 112.971 25 112.971C25 112.971 25 112.971 25 112.971C25 112.971 25 112.971 25 112.971C25 112.971 25 112.971 25 112.971C25 112.971 25 112.971 25 112.971C25 112.971 25 112.971 25 112.971C25 112.971 25 112.971 25 112.971C25 112.971 25 112.971 25 112.971C25 112.971 25 112.971 25 112.971C25 112.971 25 112.971 25 112.971C25 112.971 25 112.971 25 112.971C25 112.971 25 112.971 25 112.971C25 112.971 25 112.971 25 112.971C25 112.971 25 112.971 25 112.971C25 112.971 25 112.971 25 112.971C25 112.971 25 112.971 25 112.971C25 112.971 25 112.971 25 112.971C25 112.971 25 112.971 25 112.971C25 112.971 25 112.971 25 112.971C25 112.971 25 112.971 25 112.971C25 112.971 25 112.971 25 112.971C25 112.971 25 112.971 25 112.971C25 112.971 25 112.971 25 112.971C25 112.971 25 112.971 25 112.971C25 112.971 25 112.971 25 112.971C25 112.971 25 112.971 25 112.971C25 112.971 25 112.971 25 112.971C25 112.971 25 112.971 25 112.971C25 112.971 25 112.971 25 112.971C25 112.971 25 112.971 25 112.971C25 112.971 25 112.971 25 112.971C25 112.971 25 112.971 25 112.971C25 112.971 25 112.971 25 112.971C25 112.971 25 112.971 25.0001 112.971C25.0001 112.971 25.0001 112.971 25.0001 112.971C25.0001 112.971 25.0001 112.971 25.0001 112.971C25.0001 112.971 25.0001 112.971 25.0001 112.971C25.0001 112.971 25.0001 112.971 25.0001 112.971C25.0001 112.971 25.0001 112.971 25.0001 112.971C25.0001 112.971 25.0001 112.971 25.0001 112.971C25.0001 112.971 25.0001 112.971 25.0001 112.971C25.0001 112.971 25.0001 112.971 25.0001 112.971C25.0001 112.971 25.0001 112.971 25.0001 112.971C25.0001 112.971 25.0001 112.971 25.0001 112.971C25.0001 112.971 25.0001 112.971 25.0001 112.971C25.0001 112.971 25.0001 112.971 25.0001 112.971C25.0001 112.971 25.0001 112.971 25.0001 112.971C25.0001 112.971 25.0001 112.971 25.0001 112.971C25.0001 112.971 25.0001 112.971 25.0001 112.971C25.0001 112.971 25.0001 112.971 25.0001 112.971C25.0001 112.971 25.0001 112.971 25.0001 112.971C25.0001 112.971 25.0001 112.971 25.0001 112.971C25.0001 112.971 25.0001 112.971 25.0001 112.971C25.0001 112.971 25.0001 112.971 25.0001 112.971C25.0001 112.971 25.0001 112.971 25.0001 112.971C25.0001 112.971 25.0001 112.971 25.0001 112.971C25.0001 112.971 25.0001 112.971 25.0001 112.971C25.0001 112.971 25.0001 112.971 25.0001 112.971C25.0001 112.971 25.0001 112.971 25.0001 112.971C25.0001 112.971 25.0001 112.971 25.0001 112.971C25.0001 112.971 25.0001 112.971 25.0001 112.971C25.0001 112.971 25.0001 112.971 25.0001 112.971C25.0001 112.971 25.0001 112.971 25.0001 112.971C25.0001 112.971 25.0001 112.971 25.0001 112.971C25.0001 112.971 25.0001 112.971 25.0001 112.971C25.0001 112.971 25.0001 112.971 25.0001 112.971C25.0001 112.971 25.0001 112.971 25.0001 112.971C25.0001 112.971 25.0001 112.971 25.0001 112.971C25.0001 112.971 25.0001 112.971 25.0001 112.971C25.0001 112.971 25.0001 112.971 25.0001 112.971C25.0001 112.971 25.0001 112.971 25.0001 112.971C25.0001 112.971 25.0001 112.971 25.0001 112.971C25.0001 112.971 25.0001 112.971 25.0001 112.971C25.0001 112.971 25.0001 112.971 25.0001 112.971C25.0001 112.971 25.0001 112.971 25.0001 112.971C25.0001 112.971 25.0001 112.971 25.0001 112.971C25.0001 112.971 25.0001 112.971 25.0001 112.971C25.0001 112.971 25.0001 112.971 25.0001 112.971C25.0001 112.971 25.0001 112.971 25.0001 112.971C25.0001 112.971 25.0001 112.971 25.0001 112.971C25.0001 112.971 25.0001 112.971 25.0001 112.971C25.0001 112.971 25.0001 112.971 25.0001 112.971C25.0001 112.971 25.0001 112.971 25.0001 112.971C25.0001 112.971 25.0001 112.971 25.0001 112.971C25.0001 112.971 25.0001 112.971 25.0001 112.971C25.0001 112.971 25.0001 112.971 25.0001 112.971C25.0001 112.971 25.0001 112.971 25.0001 112.971C25.0001 112.971 25.0001 112.971 25.0001 112.971C25.0001 112.971 25.0001 112.971 25.0001 112.971C25.0001 112.971 25.0001 112.971 25.0001 112.971C25.0001 112.971 25.0001 112.971 25.0001 112.971C25.0001 112.971 25.0001 112.971 25.0001 112.971C25.0001 112.971 25.0001 112.971 25.0001 112.971C25.0001 112.971 25.0001 112.971 25.0001 112.971C25.0001 112.971 25.0001 112.971 25.0001 112.971C25.0001 112.971 25.0001 112.971 25.0001 112.971C25.0001 112.971 25.0001 112.971 25.0001 112.971C25.0001 112.971 25.0001 112.971 25.0001 112.971C25.0001 112.971 25.0001 112.971 25.0001 112.971C25.0001 112.971 25.0001 112.971 25.0001 112.971C25.0001 112.971 25.0001 112.971 25.0001 112.971C25.0001 112.971 25.0001 112.971 25.0001 112.971C25.0001 112.971 25.0001 112.971 25.0001 112.971C25.0001 112.971 25.0001 112.971 25.0001 112.971C25.0001 112.971 25.0001 112.971 25.0001 112.971C25.0001 112.971 25.0001 112.971 25.0001 112.971C25.0001 112.971 25.0001 112.971 25.0001 112.971C25.0001 112.971 25.0001 112.971 25.0001 112.971C25.0001 112.971 25.0001 112.971 25.0001 112.971C25.0001 112.971 25.0001 112.971 25.0001 112.971C25.0001 112.971 25.0001 112.971 25.0001 112.971C25.0001 112.971 25.0001 112.971 25.0001 112.971C25.0001 112.971 25.0001 112.971 25.0001 112.971C25.0001 112.971 25.0001 112.971 25.0001 112.971C25.0001 112.971 25.0001 112.971 25.0001 112.971C25.0001 112.971 25.0001 112.971 25.0001 112.971C25.0001 112.971 25.0001 112.971 25.0001 112.971C25.0001 112.971 25.0001 112.971 25.0001 112.971C25.0001 112.971 25.0001 112.971 25.0001 112.971C25.0001 112.971 25.0001 112.971 25.0001 112.971C25.0001 112.971 25.0001 112.971 25.0001 112.971C25.0001 112.971 25.0001 112.971 25.0001 112.971C25.0001 112.971 25.0001 112.971 25.0001 112.971C25.0001 112.971 25.0001 112.971 25.0001 112.971C25.0001 112.971 25.0001 112.971 25.0001 112.971C25.0001 112.971 25.0001 112.971 25.0001 112.971C25.0001 112.971 25.0001 112.971 25.0001 112.971C25.0001 112.971 25.0001 112.971 25.0001 112.971C25.0001 112.971 25.0001 112.971 25.0001 112.971C25.0001 112.971 25.0001 112.971 25.0001 112.971C25.0001 112.971 25.0001 112.971 25.0001 112.971C25.0001 112.971 25.0001 112.971 25.0001 112.971C25.0001 112.971 25.0001 112.971 25.0001 112.971C25.0001 112.971 25.0001 112.971 25.0001 112.971C25.0001 112.971 25.0001 112.971 25.0001 112.971C25.0001 112.971 25.0001 112.971 25.0001 112.971C25.0001 112.971 25.0001 112.971 25.0001 112.971C25.0001 112.971 25.0001 112.971 25.0001 112.971C25.0001 112.971 25.0001 112.971 25.0001 112.971C25.0001 112.971 25.0001 112.971 25.0001 112.971C25.0001 112.971 25.0001 112.971 25.0001 112.971C25.0001 112.971 25.0001 112.971 25.0001 112.971C25.0001 112.971 25.0001 112.971 25.0001 112.971C25.0001 112.971 25.0001 112.971 25.0001 112.971C25.0001 112.971 25.0001 112.971 25.0001 112.971C25.0001 112.971 25.0001 112.971 25.0001 112.971C25.0001 112.971 25.0001 112.971 25.0001 112.971C25.0001 112.971 25.0001 112.971 25.0001 112.971C25.0001 112.971 25.0001 112.971 25.0001 112.971C25.0001 112.971 25.0001 112.971 25.0001 112.971C25.0001 112.971 25.0001 112.971 25.0001 112.971C25.0001 112.971 25.0001 112.971 25.0001 112.971C25.0001 112.971 25.0001 112.971 25.0001 112.971C25.0001 112.971 25.0001 112.971 25.0001 112.971C25.0001 112.971 25.0001 112.971 25.0001 112.971C25.0001 112.971 25.0001 112.971 25.0001 112.971C25.0001 112.971 25.0001 112.971 25.0001 112.971C25.0001 112.971 25.0001 112.971 25.0001 112.971C25.0001 112.971 25.0001 112.971 25.0001 112.971C25.0001 112.971 25.0001 112.971 25.0001 112.971C25.0001 112.971 25.0001 112.971 25.0001 112.971C25.0001 112.971 25.0001 112.971 25.0001 112.971C25.0001 112.971 25.0001 112.971 25.0001 112.971C25.0001 112.971 25.0001 112.971 25.0001 112.971C25.0001 112.971 25.0001 112.971 25.0001 112.971C25.0001 112.971 25.0001 112.971 25.0002 112.971C25.0002 112.971 25.0002 112.971 25.0002 112.971C25.0002 112.971 25.0002 112.971 25.0002 112.971C25.0002 112.971 25.0002 112.971 25.0002 112.971C25.0002 112.971 25.0002 112.971 25.0002 112.971C25.0002 112.971 25.0002 112.971 25.0002 112.971C25.0002 112.971 25.0002 112.971 25.0002 112.971C25.0002 112.971 25.0002 112.971 25.0002 112.971C25.0002 112.971 25.0002 112.971 25.0002 112.971C25.0002 112.971 25.0002 112.971 25.0002 112.971C25.0002 112.971 25.0002 112.971 25.0002 112.971C25.0002 112.971 25.0002 112.971 25.0002 112.971C25.0002 112.971 25.0002 112.971 25.0002 112.971C25.0002 112.971 25.0002 112.971 25.0002 112.971C25.0002 112.971 25.0002 112.971 25.0002 112.971C25.0002 112.971 25.0002 112.971 25.0002 112.971C25.0002 112.971 25.0002 112.971 25.0002 112.971C25.0002 112.971 25.0002 112.971 25.0002 112.971C25.0002 112.971 25.0002 112.971 25.0002 112.971C25.0002 112.971 25.0002 112.971 25.0002 112.971C25.0002 112.971 25.0002 112.971 25.0002 112.971C25.0002 112.971 25.0002 112.971 25.0002 112.971C25.0002 112.971 25.0002 112.971 25.0002 112.971C25.0002 112.971 25.0002 112.971 25.0002 112.971C25.0002 112.971 25.0002 112.971 25.0002 112.971C25.0002 112.971 25.0002 112.971 25.0002 112.971C25.0002 112.971 25.0002 112.971 25.0002 112.971C25.0002 112.971 25.0002 112.971 25.0002 112.971C25.0002 112.971 25.0002 112.971 25.0002 112.971C25.0002 112.971 25.0002 112.971 25.0002 112.971C25.0002 112.971 25.0002 112.971 25.0002 112.971C25.0002 112.971 25.0002 112.971 25.0002 112.971C25.0002 112.971 25.0002 112.971 25.0002 112.971C25.0002 112.971 25.0002 112.971 25.0002 112.971C25.0002 112.971 25.0002 112.971 25.0002 112.971C25.0002 112.971 25.0002 112.971 25.0002 112.971C25.0002 112.971 25.0002 112.971 25.0002 112.971C25.0002 112.971 25.0002 112.971 25.0002 112.971C25.0002 112.971 25.0002 112.971 25.0002 112.971C25.0002 112.971 25.0002 112.971 25.0002 112.971C25.0002 112.971 25.0002 112.971 25.0002 112.971C25.0002 112.971 25.0002 112.971 25.0002 112.971C25.0002 112.971 25.0002 112.971 25.0002 112.971C25.0002 112.971 25.0002 112.971 25.0002 112.971C25.0002 112.971 25.0002 112.971 25.0002 112.971C25.0002 112.971 25.0002 112.971 25.0002 112.971C25.0002 112.971 25.0002 112.971 25.0002 112.971C25.0002 112.971 25.0002 112.971 25.0002 112.971C25.0002 112.971 25.0002 112.971 25.0002 112.971C25.0002 112.971 25.0002 112.971 25.0002 112.971C25.0002 112.971 25.0002 112.971 25.0002 112.971C25.0002 112.971 25.0002 112.971 25.0002 112.971C25.0002 112.971 25.0002 112.971 25.0002 112.971C25.0002 112.971 25.0002 112.971 25.0002 112.971C25.0002 112.971 25.0002 112.971 25.0002 112.971C25.0002 112.971 25.0002 112.971 25.0002 112.971C25.0002 112.971 25.0002 112.971 25.0002 112.971C25.0002 112.971 25.0002 112.971 25.0002 112.971C25.0002 112.971 25.0002 112.971 25.0002 112.971C25.0002 112.971 25.0002 112.971 25.0002 112.971C25.0002 112.971 25.0002 112.971 25.0002 112.971C25.0002 112.971 25.0002 112.971 25.0002 112.971C25.0002 112.971 25.0002 112.971 25.0002 112.971C25.0002 112.971 25.0002 112.971 25.0002 112.971C25.0002 112.971 25.0002 112.971 25.0002 112.971C25.0002 112.971 25.0002 112.971 25.0002 112.971C25.0002 112.971 25.0002 112.971 25.0002 112.971C25.0002 112.971 25.0002 112.971 25.0002 112.971C25.0002 112.971 25.0002 112.971 25.0002 112.971C25.0002 112.971 25.0002 112.971 25.0002 112.971C25.0002 112.971 25.0002 112.971 25.0002 112.971C25.0002 112.971 25.0002 112.971 25.0002 112.971C25.0002 112.971 25.0002 112.971 25.0002 112.971C25.0002 112.971 25.0002 112.971 25.0002 112.971C25.0002 112.971 25.0002 112.971 25.0002 112.971C25.0002 112.971 25.0002 112.971 25.0002 112.971C25.0002 112.971 25.0002 112.971 25.0002 112.971C25.0002 112.971 25.0002 112.971 25.0002 112.971C25.0002 112.971 25.0002 112.971 25.0002 112.971C25.0002 112.971 25.0002 112.971 25.0002 112.971C25.0002 112.971 25.0002 112.971 25.0002 112.971C25.0002 112.971 25.0002 112.971 25.0002 112.971C25.0002 112.971 25.0002 112.971 25.0002 112.971C25.0002 112.971 25.0002 112.971 25.0002 112.971C25.0002 112.971 25.0002 112.971 25.0002 112.971C25.0002 112.971 25.0002 112.971 25.0002 112.971C25.0002 112.971 25.0002 112.971 25.0002 112.971C25.0002 112.971 25.0002 112.971 25.0002 112.971C25.0002 112.971 25.0002 112.971 25.0002 112.971C25.0002 112.971 25.0002 112.971 25.0002 112.971C25.0002 112.971 25.0002 112.971 25.0002 112.971C25.0002 112.971 25.0002 112.971 25.0002 112.971C25.0002 112.971 25.0002 112.971 25.0002 112.971C25.0002 112.971 25.0002 112.971 25.0002 112.971C25.0002 112.971 25.0002 112.971 25.0002 112.971C25.0002 112.971 25.0002 112.971 25.0002 112.971C25.0002 112.971 25.0002 112.971 25.0002 112.971C25.0002 112.971 25.0002 112.971 25.0002 112.971C25.0002 112.971 25.0002 112.971 25.0002 112.971C25.0002 112.971 25.0002 112.971 25.0002 112.971C25.0002 112.971 25.0002 112.971 25.0002 112.971C25.0002 112.971 25.0002 112.971 25.0002 112.971C25.0002 112.971 25.0002 112.971 25.0002 112.971C25.0002 112.971 25.0002 112.971 25.0002 112.971C25.0002 112.971 25.0002 112.971 25.0002 112.971C25.0002 112.971 25.0002 112.971 25.0002 112.971C25.0002 112.971 25.0002 112.971 25.0002 112.971C25.0002 112.971 25.0002 112.971 25.0002 112.971C25.0002 112.971 25.0002 112.971 25.0002 112.971C25.0002 112.971 25.0002 112.971 25.0002 112.971C25.0002 112.971 25.0002 112.971 25.0002 112.971C25.0002 112.971 25.0002 112.971 25.0002 112.971C25.0002 112.971 25.0002 112.971 25.0002 112.971C25.0002 112.971 25.0002 112.971 25.0002 112.971C25.0002 112.971 25.0002 112.971 25.0002 112.971C25.0002 112.971 25.0002 112.971 25.0002 112.971C25.0002 112.971 25.0002 112.971 25.0002 112.971C25.0002 112.971 25.0002 112.971 25.0002 112.971C25.0002 112.971 25.0002 112.971 25.0002 112.971C25.0002 112.971 25.0002 112.971 25.0002 112.971C25.0002 112.971 25.0002 112.971 25.0002 112.971C25.0002 112.971 25.0002 112.971 25.0002 112.971C25.0002 112.971 25.0002 112.971 25.0002 112.971C25.0002 112.971 25.0002 112.971 25.0002 112.971C25.0002 112.971 25.0002 112.971 25.0002 112.971C25.0002 112.971 25.0002 112.971 25.0002 112.971C25.0002 112.971 25.0002 112.971 25.0002 112.971C25.0002 112.971 25.0002 112.971 25.0002 112.971C25.0002 112.971 25.0002 112.971 25.0002 112.971C25.0002 112.971 25.0002 112.971 25.0002 112.971C25.0002 112.971 25.0002 112.971 25.0002 112.971C25.0002 112.971 25.0002 112.971 25.0002 112.971C25.0002 112.971 25.0002 112.971 25.0003 112.971C25.0003 112.971 25.0003 112.971 25.0003 112.971C25.0003 112.971 25.0003 112.971 25.0003 112.971C25.0003 112.971 25.0003 112.971 25.0003 112.971C25.0003 112.971 25.0003 112.971 25.0003 112.971C25.0003 112.971 25.0003 112.971 25.0003 112.971C25.0003 112.971 25.0003 112.971 25.0003 112.971C25.0003 112.971 25.0003 112.971 25.0003 112.971C25.0003 112.971 25.0003 112.971 25.0003 112.971C25.0003 112.971 25.0003 112.971 25.0003 112.971C25.0003 112.971 25.0003 112.971 25.0003 112.971C25.0003 112.971 25.0003 112.971 25.0003 112.971C25.0003 112.971 25.0003 112.971 25.0003 112.971C25.0003 112.971 25.0003 112.971 25.0003 112.971C25.0003 112.971 25.0003 112.971 25.0003 112.971C25.0003 112.971 25.0003 112.971 25.0003 112.971C25.0003 112.971 25.0003 112.971 25.0003 112.971C25.0003 112.971 25.0003 112.971 25.0003 112.971C25.0003 112.971 25.0003 112.971 25.0003 112.971C25.0003 112.971 25.0003 112.971 25.0003 112.971C25.0003 112.971 25.0003 112.971 25.0003 112.971C25.0003 112.971 25.0003 112.971 25.0003 112.971C25.0003 112.971 25.0003 112.971 25.0003 112.971C25.0003 112.971 25.0003 112.971 25.0003 112.971C25.0003 112.971 25.0003 112.971 25.0003 112.971C25.0003 112.971 25.0003 112.971 25.0003 112.971C25.0003 112.971 25.0003 112.971 25.0003 112.971C25.0003 112.971 25.0003 112.971 25.0003 112.971C25.0003 112.971 25.0003 112.971 25.0003 112.971C25.0003 112.971 25.0003 112.971 25.0003 112.971C25.0003 112.971 25.0003 112.971 25.0003 112.971C25.0003 112.971 25.0003 112.971 25.0003 112.971C25.0003 112.971 25.0003 112.971 25.0003 112.971C25.0003 112.971 25.0003 112.971 25.0003 112.971C25.0003 112.971 25.0003 112.971 25.0003 112.971C25.0003 112.971 25.0003 112.971 25.0003 112.971C25.0003 112.971 25.0003 112.971 25.0003 112.971C25.0003 112.971 25.0003 112.971 25.0003 112.971C25.0003 112.971 25.0003 112.971 25.0003 112.971C25.0003 112.971 25.0003 112.971 25.0003 112.971C25.0003 112.971 25.0003 112.971 25.0003 112.971C25.0003 112.971 25.0003 112.971 25.0003 112.971C25.0003 112.971 25.0003 112.971 25.0003 112.971C25.0003 112.971 25.0003 112.971 25.0003 112.971C25.0003 112.971 25.0003 112.971 25.0003 112.971C25.0003 112.971 25.0003 112.971 25.0003 112.971C25.0003 112.971 25.0003 112.971 25.0003 112.971C25.0003 112.971 25.0003 112.971 25.0003 112.971C25.0003 112.971 25.0003 112.971 25.0003 112.971C25.0003 112.971 25.0003 112.971 25.0003 112.971C25.0003 112.971 25.0003 112.971 25.0003 112.971C25.0003 112.971 25.0003 112.971 25.0003 112.971C25.0003 112.971 25.0003 112.971 25.0003 112.971C25.0003 112.971 25.0003 112.971 25.0003 112.971C25.0003 112.971 25.0003 112.971 25.0003 112.971C25.0003 112.971 25.0003 112.971 25.0003 112.971C25.0003 112.971 25.0003 112.971 25.0003 112.971C25.0003 112.971 25.0003 112.971 25.0003 112.971C25.0003 112.971 25.0003 112.971 25.0003 112.971C25.0003 112.971 25.0003 112.971 25.0003 112.971C25.0003 112.971 25.0003 112.971 25.0003 112.971C25.0003 112.971 25.0003 112.971 25.0003 112.971C25.0003 112.971 25.0003 112.971 25.0003 112.971C25.0003 112.971 25.0003 112.971 25.0003 112.971C25.0003 112.971 25.0003 112.971 25.0003 112.971C25.0003 112.971 25.0003 112.971 25.0003 112.971C25.0003 112.971 25.0003 112.971 25.0003 112.971C25.0003 112.971 25.0003 112.971 25.0003 112.971C25.0003 112.971 25.0003 112.971 25.0003 112.971C25.0003 112.971 25.0003 112.971 25.0003 112.971C25.0003 112.971 25.0003 112.971 25.0003 112.971C25.0003 112.971 25.0003 112.971 25.0003 112.971C25.0003 112.971 25.0003 112.971 25.0003 112.971C25.0003 112.971 25.0003 112.971 25.0003 112.971C25.0003 112.971 25.0003 112.971 25.0003 112.971C25.0003 112.971 25.0003 112.971 25.0003 112.971C25.0003 112.971 25.0003 112.971 25.0003 112.971C25.0003 112.971 25.0003 112.971 25.0003 112.971C25.0003 112.971 25.0003 112.971 25.0003 112.971C25.0003 112.971 25.0003 112.971 25.0003 112.971C25.0003 112.971 25.0003 112.971 25.0003 112.971C25.0003 112.971 25.0003 112.971 25.0003 112.971C25.0003 112.971 25.0003 112.971 25.0003 112.971C25.0003 112.971 25.0003 112.971 25.0003 112.971C25.0003 112.971 25.0003 112.971 25.0003 112.971C25.0003 112.971 25.0003 112.971 25.0003 112.971C25.0003 112.971 25.0003 112.971 25.0003 112.971C25.0003 112.971 25.0003 112.971 25.0003 112.971C25.0003 112.971 25.0003 112.971 25.0003 112.971C25.0003 112.971 25.0003 112.971 25.0003 112.971C25.0003 112.971 25.0003 112.971 25.0003 112.971C25.0003 112.971 25.0003 112.971 25.0003 112.971C25.0003 112.971 25.0003 112.971 25.0003 112.971C25.0003 112.971 25.0003 112.971 25.0003 112.971C25.0003 112.971 25.0003 112.971 25.0003 112.971C25.0003 112.971 25.0003 112.971 25.0003 112.971C25.0003 112.971 25.0003 112.971 25.0003 112.971C25.0003 112.971 25.0003 112.971 25.0003 112.971C25.0003 112.971 25.0003 112.971 25.0003 112.971C25.0003 112.971 25.0003 112.971 25.0003 112.971C25.0003 112.971 25.0003 112.971 25.0003 112.971C25.0003 112.971 25.0003 112.971 25.0003 112.971C25.0003 112.971 25.0003 112.971 25.0003 112.971C25.0003 112.971 25.0003 112.971 25.0003 112.971C25.0003 112.971 25.0003 112.971 25.0003 112.971C25.0003 112.971 25.0003 112.971 25.0003 112.971C25.0003 112.971 25.0003 112.971 25.0003 112.971C25.0003 112.971 25.0003 112.971 25.0003 112.971C25.0003 112.971 25.0003 112.971 25.0003 112.971C25.0003 112.971 25.0003 112.971 25.0003 112.971C25.0003 112.971 25.0003 112.971 25.0003 112.971C25.0003 112.971 25.0003 112.971 25.0003 112.971C25.0003 112.971 25.0003 112.971 25.0003 112.971C25.0003 112.971 25.0003 112.971 25.0003 112.971C25.0003 112.971 25.0003 112.971 25.0003 112.971C25.0003 112.971 25.0003 112.971 25.0003 112.971C25.0003 112.971 25.0003 112.971 25.0003 112.971C25.0003 112.971 25.0003 112.971 25.0003 112.971C25.0003 112.971 25.0003 112.971 25.0003 112.971C25.0003 112.971 25.0003 112.971 25.0003 112.971C25.0003 112.971 25.0003 112.971 25.0003 112.971C25.0003 112.971 25.0003 112.971 25.0003 112.971C25.0003 112.971 25.0003 112.971 25.0003 112.971C25.0003 112.971 25.0003 112.971 25.0003 112.971C25.0003 112.971 25.0003 112.971 25.0003 112.971C25.0003 112.971 25.0003 112.971 25.0003 112.971C25.0003 112.971 25.0003 112.971 25.0003 112.971C25.0003 112.971 25.0003 112.971 25.0003 112.971C25.0003 112.971 25.0003 112.971 25.0003 112.971C25.0003 112.971 25.0003 112.971 25.0003 112.971C25.0003 112.971 25.0003 112.971 25.0003 112.971C25.0003 112.971 25.0003 112.971 25.0003 112.971C25.0003 112.971 25.0003 112.971 25.0004 112.971C25.0004 112.971 25.0004 112.971 25.0004 112.971C25.0004 112.971 25.0004 112.971 25.0004 112.971C25.0004 112.971 25.0004 112.971 25.0004 112.971C25.0004 112.971 25.0004 112.971 25.0004 112.971C25.0004 112.971 25.0004 112.971 25.0004 112.971C25.0004 112.971 25.0004 112.971 25.0004 112.971C25.0004 112.971 25.0004 112.971 25.0004 112.971C25.0004 112.971 25.0004 112.971 25.0004 112.971C25.0004 112.971 25.0004 112.971 25.0004 112.971C25.0004 112.971 25.0004 112.971 25.0004 112.971C25.0004 112.971 25.0004 112.971 25.0004 112.971C25.0004 112.971 25.0004 112.971 25.0004 112.971C25.0004 112.971 25.0004 112.971 25.0004 112.971C25.0004 112.971 25.0004 112.971 25.0004 112.971C25.0004 112.971 25.0004 112.971 25.0004 112.971C25.0004 112.971 25.0004 112.971 25.0004 112.971C25.0004 112.971 25.0004 112.971 25.0004 112.971C25.0004 112.971 25.0004 112.971 25.0004 112.971C25.0004 112.971 25.0004 112.971 25.0004 112.971C25.0004 112.971 25.0004 112.971 25.0004 112.971C25.0004 112.971 25.0004 112.971 25.0004 112.971C25.0004 112.971 25.0004 112.971 25.0004 112.971C25.0004 112.971 25.0004 112.971 25.0004 112.971C25.0004 112.971 25.0004 112.971 25.0004 112.971C25.0004 112.971 25.0004 112.971 25.0004 112.971C25.0004 112.971 25.0004 112.971 25.0004 112.971C25.0004 112.971 25.0004 112.971 25.0004 112.971C25.0004 112.971 25.0004 112.971 25.0004 112.971C25.0004 112.971 25.0004 112.971 25.0004 112.971C25.0004 112.971 25.0004 112.971 25.0004 112.971C25.0004 112.971 25.0004 112.971 25.0004 112.971C25.0004 112.971 25.0004 112.971 25.0004 112.971C25.0004 112.971 25.0004 112.971 25.0004 112.971C25.0004 112.971 25.0004 112.971 25.0004 112.971C25.0004 112.971 25.0004 112.971 25.0004 112.971C25.0004 112.971 25.0004 112.971 25.0004 112.971C25.0004 112.971 25.0004 112.971 25.0004 112.971C25.0004 112.971 25.0004 112.971 25.0004 112.971C25.0004 112.971 25.0004 112.971 25.0004 112.971C25.0004 112.971 25.0004 112.971 25.0004 112.971C25.0004 112.971 25.0004 112.971 25.0004 112.971C25.0004 112.971 25.0004 112.971 25.0004 112.971C25.0004 112.971 25.0004 112.971 25.0004 112.971C25.0004 112.971 25.0004 112.971 25.0004 112.971C25.0004 112.971 25.0004 112.971 25.0004 112.971C25.0004 112.971 25.0004 112.971 25.0004 112.971C25.0004 112.971 25.0004 112.971 25.0004 112.971C25.0004 112.971 25.0004 112.971 25.0004 112.971C25.0004 112.971 25.0004 112.971 25.0004 112.971C25.0004 112.971 25.0004 112.971 25.0004 112.971V109.971C25.0004 109.971 25.0004 109.971 25.0004 109.971C25.0004 109.971 25.0004 109.971 25.0004 109.971C25.0004 109.971 25.0004 109.971 25.0004 109.971C25.0004 109.971 25.0004 109.971 25.0004 109.971C25.0004 109.971 25.0004 109.971 25.0004 109.971C25.0004 109.971 25.0004 109.971 25.0004 109.971C25.0004 109.971 25.0004 109.971 25.0004 109.971C25.0004 109.971 25.0004 109.971 25.0004 109.971C25.0004 109.971 25.0004 109.971 25.0004 109.971C25.0004 109.971 25.0004 109.971 25.0004 109.971C25.0004 109.971 25.0004 109.971 25.0004 109.971C25.0004 109.971 25.0004 109.971 25.0004 109.971C25.0004 109.971 25.0004 109.971 25.0004 109.971C25.0004 109.971 25.0004 109.971 25.0004 109.971C25.0004 109.971 25.0004 109.971 25.0004 109.971C25.0004 109.971 25.0004 109.971 25.0004 109.971C25.0004 109.971 25.0004 109.971 25.0004 109.971C25.0004 109.971 25.0004 109.971 25.0004 109.971C25.0004 109.971 25.0004 109.971 25.0004 109.971C25.0004 109.971 25.0004 109.971 25.0004 109.971C25.0004 109.971 25.0004 109.971 25.0004 109.971C25.0004 109.971 25.0004 109.971 25.0004 109.971C25.0004 109.971 25.0004 109.971 25.0004 109.971C25.0004 109.971 25.0004 109.971 25.0004 109.971C25.0004 109.971 25.0004 109.971 25.0004 109.971C25.0004 109.971 25.0004 109.971 25.0004 109.971C25.0004 109.971 25.0004 109.971 25.0004 109.971C25.0004 109.971 25.0004 109.971 25.0004 109.971C25.0004 109.971 25.0004 109.971 25.0004 109.971C25.0004 109.971 25.0004 109.971 25.0004 109.971C25.0004 109.971 25.0004 109.971 25.0004 109.971C25.0004 109.971 25.0004 109.971 25.0004 109.971C25.0004 109.971 25.0004 109.971 25.0004 109.971C25.0004 109.971 25.0004 109.971 25.0004 109.971C25.0004 109.971 25.0004 109.971 25.0004 109.971C25.0004 109.971 25.0004 109.971 25.0004 109.971C25.0004 109.971 25.0004 109.971 25.0004 109.971C25.0004 109.971 25.0004 109.971 25.0004 109.971C25.0004 109.971 25.0004 109.971 25.0004 109.971C25.0004 109.971 25.0004 109.971 25.0004 109.971C25.0004 109.971 25.0004 109.971 25.0004 109.971C25.0004 109.971 25.0004 109.971 25.0004 109.971C25.0004 109.971 25.0004 109.971 25.0004 109.971C25.0004 109.971 25.0004 109.971 25.0004 109.971C25.0004 109.971 25.0004 109.971 25.0004 109.971C25.0004 109.971 25.0004 109.971 25.0004 109.971C25.0004 109.971 25.0004 109.971 25.0004 109.971C25.0004 109.971 25.0004 109.971 25.0004 109.971C25.0004 109.971 25.0004 109.971 25.0004 109.971C25.0004 109.971 25.0004 109.971 25.0004 109.971C25.0003 109.971 25.0003 109.971 25.0003 109.971C25.0003 109.971 25.0003 109.971 25.0003 109.971C25.0003 109.971 25.0003 109.971 25.0003 109.971C25.0003 109.971 25.0003 109.971 25.0003 109.971C25.0003 109.971 25.0003 109.971 25.0003 109.971C25.0003 109.971 25.0003 109.971 25.0003 109.971C25.0003 109.971 25.0003 109.971 25.0003 109.971C25.0003 109.971 25.0003 109.971 25.0003 109.971C25.0003 109.971 25.0003 109.971 25.0003 109.971C25.0003 109.971 25.0003 109.971 25.0003 109.971C25.0003 109.971 25.0003 109.971 25.0003 109.971C25.0003 109.971 25.0003 109.971 25.0003 109.971C25.0003 109.971 25.0003 109.971 25.0003 109.971C25.0003 109.971 25.0003 109.971 25.0003 109.971C25.0003 109.971 25.0003 109.971 25.0003 109.971C25.0003 109.971 25.0003 109.971 25.0003 109.971C25.0003 109.971 25.0003 109.971 25.0003 109.971C25.0003 109.971 25.0003 109.971 25.0003 109.971C25.0003 109.971 25.0003 109.971 25.0003 109.971C25.0003 109.971 25.0003 109.971 25.0003 109.971C25.0003 109.971 25.0003 109.971 25.0003 109.971C25.0003 109.971 25.0003 109.971 25.0003 109.971C25.0003 109.971 25.0003 109.971 25.0003 109.971C25.0003 109.971 25.0003 109.971 25.0003 109.971C25.0003 109.971 25.0003 109.971 25.0003 109.971C25.0003 109.971 25.0003 109.971 25.0003 109.971C25.0003 109.971 25.0003 109.971 25.0003 109.971C25.0003 109.971 25.0003 109.971 25.0003 109.971C25.0003 109.971 25.0003 109.971 25.0003 109.971C25.0003 109.971 25.0003 109.971 25.0003 109.971C25.0003 109.971 25.0003 109.971 25.0003 109.971C25.0003 109.971 25.0003 109.971 25.0003 109.971C25.0003 109.971 25.0003 109.971 25.0003 109.971C25.0003 109.971 25.0003 109.971 25.0003 109.971C25.0003 109.971 25.0003 109.971 25.0003 109.971C25.0003 109.971 25.0003 109.971 25.0003 109.971C25.0003 109.971 25.0003 109.971 25.0003 109.971C25.0003 109.971 25.0003 109.971 25.0003 109.971C25.0003 109.971 25.0003 109.971 25.0003 109.971C25.0003 109.971 25.0003 109.971 25.0003 109.971C25.0003 109.971 25.0003 109.971 25.0003 109.971C25.0003 109.971 25.0003 109.971 25.0003 109.971C25.0003 109.971 25.0003 109.971 25.0003 109.971C25.0003 109.971 25.0003 109.971 25.0003 109.971C25.0003 109.971 25.0003 109.971 25.0003 109.971C25.0003 109.971 25.0003 109.971 25.0003 109.971C25.0003 109.971 25.0003 109.971 25.0003 109.971C25.0003 109.971 25.0003 109.971 25.0003 109.971C25.0003 109.971 25.0003 109.971 25.0003 109.971C25.0003 109.971 25.0003 109.971 25.0003 109.971C25.0003 109.971 25.0003 109.971 25.0003 109.971C25.0003 109.971 25.0003 109.971 25.0003 109.971C25.0003 109.971 25.0003 109.971 25.0003 109.971C25.0003 109.971 25.0003 109.971 25.0003 109.971C25.0003 109.971 25.0003 109.971 25.0003 109.971C25.0003 109.971 25.0003 109.971 25.0003 109.971C25.0003 109.971 25.0003 109.971 25.0003 109.971C25.0003 109.971 25.0003 109.971 25.0003 109.971C25.0003 109.971 25.0003 109.971 25.0003 109.971C25.0003 109.971 25.0003 109.971 25.0003 109.971C25.0003 109.971 25.0003 109.971 25.0003 109.971C25.0003 109.971 25.0003 109.971 25.0003 109.971C25.0003 109.971 25.0003 109.971 25.0003 109.971C25.0003 109.971 25.0003 109.971 25.0003 109.971C25.0003 109.971 25.0003 109.971 25.0003 109.971C25.0003 109.971 25.0003 109.971 25.0003 109.971C25.0003 109.971 25.0003 109.971 25.0003 109.971C25.0003 109.971 25.0003 109.971 25.0003 109.971C25.0003 109.971 25.0003 109.971 25.0003 109.971C25.0003 109.971 25.0003 109.971 25.0003 109.971C25.0003 109.971 25.0003 109.971 25.0003 109.971C25.0003 109.971 25.0003 109.971 25.0003 109.971C25.0003 109.971 25.0003 109.971 25.0003 109.971C25.0003 109.971 25.0003 109.971 25.0003 109.971C25.0003 109.971 25.0003 109.971 25.0003 109.971C25.0003 109.971 25.0003 109.971 25.0003 109.971C25.0003 109.971 25.0003 109.971 25.0003 109.971C25.0003 109.971 25.0003 109.971 25.0003 109.971C25.0003 109.971 25.0003 109.971 25.0003 109.971C25.0003 109.971 25.0003 109.971 25.0003 109.971C25.0003 109.971 25.0003 109.971 25.0003 109.971C25.0003 109.971 25.0003 109.971 25.0003 109.971C25.0003 109.971 25.0003 109.971 25.0003 109.971C25.0003 109.971 25.0003 109.971 25.0003 109.971C25.0003 109.971 25.0003 109.971 25.0003 109.971C25.0003 109.971 25.0003 109.971 25.0003 109.971C25.0003 109.971 25.0003 109.971 25.0003 109.971C25.0003 109.971 25.0003 109.971 25.0003 109.971C25.0003 109.971 25.0003 109.971 25.0003 109.971C25.0003 109.971 25.0003 109.971 25.0003 109.971C25.0003 109.971 25.0003 109.971 25.0003 109.971C25.0003 109.971 25.0003 109.971 25.0003 109.971C25.0003 109.971 25.0003 109.971 25.0003 109.971C25.0003 109.971 25.0003 109.971 25.0003 109.971C25.0003 109.971 25.0003 109.971 25.0003 109.971C25.0003 109.971 25.0003 109.971 25.0003 109.971C25.0003 109.971 25.0003 109.971 25.0003 109.971C25.0003 109.971 25.0003 109.971 25.0003 109.971C25.0003 109.971 25.0003 109.971 25.0003 109.971C25.0003 109.971 25.0003 109.971 25.0003 109.971C25.0003 109.971 25.0003 109.971 25.0003 109.971C25.0003 109.971 25.0003 109.971 25.0003 109.971C25.0003 109.971 25.0003 109.971 25.0003 109.971C25.0003 109.971 25.0003 109.971 25.0003 109.971C25.0003 109.971 25.0003 109.971 25.0003 109.971C25.0003 109.971 25.0003 109.971 25.0003 109.971C25.0003 109.971 25.0003 109.971 25.0003 109.971C25.0003 109.971 25.0003 109.971 25.0003 109.971C25.0003 109.971 25.0003 109.971 25.0003 109.971C25.0003 109.971 25.0003 109.971 25.0003 109.971C25.0003 109.971 25.0003 109.971 25.0003 109.971C25.0003 109.971 25.0003 109.971 25.0003 109.971C25.0003 109.971 25.0003 109.971 25.0003 109.971C25.0003 109.971 25.0003 109.971 25.0003 109.971C25.0003 109.971 25.0003 109.971 25.0003 109.971C25.0003 109.971 25.0003 109.971 25.0003 109.971C25.0003 109.971 25.0003 109.971 25.0003 109.971C25.0003 109.971 25.0003 109.971 25.0003 109.971C25.0003 109.971 25.0003 109.971 25.0003 109.971C25.0003 109.971 25.0003 109.971 25.0003 109.971C25.0003 109.971 25.0003 109.971 25.0003 109.971C25.0003 109.971 25.0003 109.971 25.0003 109.971C25.0003 109.971 25.0003 109.971 25.0003 109.971C25.0003 109.971 25.0003 109.971 25.0003 109.971C25.0003 109.971 25.0003 109.971 25.0003 109.971C25.0003 109.971 25.0003 109.971 25.0003 109.971C25.0003 109.971 25.0003 109.971 25.0003 109.971C25.0003 109.971 25.0003 109.971 25.0003 109.971C25.0003 109.971 25.0003 109.971 25.0003 109.971C25.0003 109.971 25.0003 109.971 25.0003 109.971C25.0003 109.971 25.0003 109.971 25.0003 109.971C25.0003 109.971 25.0003 109.971 25.0003 109.971C25.0002 109.971 25.0002 109.971 25.0002 109.971C25.0002 109.971 25.0002 109.971 25.0002 109.971C25.0002 109.971 25.0002 109.971 25.0002 109.971C25.0002 109.971 25.0002 109.971 25.0002 109.971C25.0002 109.971 25.0002 109.971 25.0002 109.971C25.0002 109.971 25.0002 109.971 25.0002 109.971C25.0002 109.971 25.0002 109.971 25.0002 109.971C25.0002 109.971 25.0002 109.971 25.0002 109.971C25.0002 109.971 25.0002 109.971 25.0002 109.971C25.0002 109.971 25.0002 109.971 25.0002 109.971C25.0002 109.971 25.0002 109.971 25.0002 109.971C25.0002 109.971 25.0002 109.971 25.0002 109.971C25.0002 109.971 25.0002 109.971 25.0002 109.971C25.0002 109.971 25.0002 109.971 25.0002 109.971C25.0002 109.971 25.0002 109.971 25.0002 109.971C25.0002 109.971 25.0002 109.971 25.0002 109.971C25.0002 109.971 25.0002 109.971 25.0002 109.971C25.0002 109.971 25.0002 109.971 25.0002 109.971C25.0002 109.971 25.0002 109.971 25.0002 109.971C25.0002 109.971 25.0002 109.971 25.0002 109.971C25.0002 109.971 25.0002 109.971 25.0002 109.971C25.0002 109.971 25.0002 109.971 25.0002 109.971C25.0002 109.971 25.0002 109.971 25.0002 109.971C25.0002 109.971 25.0002 109.971 25.0002 109.971C25.0002 109.971 25.0002 109.971 25.0002 109.971C25.0002 109.971 25.0002 109.971 25.0002 109.971C25.0002 109.971 25.0002 109.971 25.0002 109.971C25.0002 109.971 25.0002 109.971 25.0002 109.971C25.0002 109.971 25.0002 109.971 25.0002 109.971C25.0002 109.971 25.0002 109.971 25.0002 109.971C25.0002 109.971 25.0002 109.971 25.0002 109.971C25.0002 109.971 25.0002 109.971 25.0002 109.971C25.0002 109.971 25.0002 109.971 25.0002 109.971C25.0002 109.971 25.0002 109.971 25.0002 109.971C25.0002 109.971 25.0002 109.971 25.0002 109.971C25.0002 109.971 25.0002 109.971 25.0002 109.971C25.0002 109.971 25.0002 109.971 25.0002 109.971C25.0002 109.971 25.0002 109.971 25.0002 109.971C25.0002 109.971 25.0002 109.971 25.0002 109.971C25.0002 109.971 25.0002 109.971 25.0002 109.971C25.0002 109.971 25.0002 109.971 25.0002 109.971C25.0002 109.971 25.0002 109.971 25.0002 109.971C25.0002 109.971 25.0002 109.971 25.0002 109.971C25.0002 109.971 25.0002 109.971 25.0002 109.971C25.0002 109.971 25.0002 109.971 25.0002 109.971C25.0002 109.971 25.0002 109.971 25.0002 109.971C25.0002 109.971 25.0002 109.971 25.0002 109.971C25.0002 109.971 25.0002 109.971 25.0002 109.971C25.0002 109.971 25.0002 109.971 25.0002 109.971C25.0002 109.971 25.0002 109.971 25.0002 109.971C25.0002 109.971 25.0002 109.971 25.0002 109.971C25.0002 109.971 25.0002 109.971 25.0002 109.971C25.0002 109.971 25.0002 109.971 25.0002 109.971C25.0002 109.971 25.0002 109.971 25.0002 109.971C25.0002 109.971 25.0002 109.971 25.0002 109.971C25.0002 109.971 25.0002 109.971 25.0002 109.971C25.0002 109.971 25.0002 109.971 25.0002 109.971C25.0002 109.971 25.0002 109.971 25.0002 109.971C25.0002 109.971 25.0002 109.971 25.0002 109.971C25.0002 109.971 25.0002 109.971 25.0002 109.971C25.0002 109.971 25.0002 109.971 25.0002 109.971C25.0002 109.971 25.0002 109.971 25.0002 109.971C25.0002 109.971 25.0002 109.971 25.0002 109.971C25.0002 109.971 25.0002 109.971 25.0002 109.971C25.0002 109.971 25.0002 109.971 25.0002 109.971C25.0002 109.971 25.0002 109.971 25.0002 109.971C25.0002 109.971 25.0002 109.971 25.0002 109.971C25.0002 109.971 25.0002 109.971 25.0002 109.971C25.0002 109.971 25.0002 109.971 25.0002 109.971C25.0002 109.971 25.0002 109.971 25.0002 109.971C25.0002 109.971 25.0002 109.971 25.0002 109.971C25.0002 109.971 25.0002 109.971 25.0002 109.971C25.0002 109.971 25.0002 109.971 25.0002 109.971C25.0002 109.971 25.0002 109.971 25.0002 109.971C25.0002 109.971 25.0002 109.971 25.0002 109.971C25.0002 109.971 25.0002 109.971 25.0002 109.971C25.0002 109.971 25.0002 109.971 25.0002 109.971C25.0002 109.971 25.0002 109.971 25.0002 109.971C25.0002 109.971 25.0002 109.971 25.0002 109.971C25.0002 109.971 25.0002 109.971 25.0002 109.971C25.0002 109.971 25.0002 109.971 25.0002 109.971C25.0002 109.971 25.0002 109.971 25.0002 109.971C25.0002 109.971 25.0002 109.971 25.0002 109.971C25.0002 109.971 25.0002 109.971 25.0002 109.971C25.0002 109.971 25.0002 109.971 25.0002 109.971C25.0002 109.971 25.0002 109.971 25.0002 109.971C25.0002 109.971 25.0002 109.971 25.0002 109.971C25.0002 109.971 25.0002 109.971 25.0002 109.971C25.0002 109.971 25.0002 109.971 25.0002 109.971C25.0002 109.971 25.0002 109.971 25.0002 109.971C25.0002 109.971 25.0002 109.971 25.0002 109.971C25.0002 109.971 25.0002 109.971 25.0002 109.971C25.0002 109.971 25.0002 109.971 25.0002 109.971C25.0002 109.971 25.0002 109.971 25.0002 109.971C25.0002 109.971 25.0002 109.971 25.0002 109.971C25.0002 109.971 25.0002 109.971 25.0002 109.971C25.0002 109.971 25.0002 109.971 25.0002 109.971C25.0002 109.971 25.0002 109.971 25.0002 109.971C25.0002 109.971 25.0002 109.971 25.0002 109.971C25.0002 109.971 25.0002 109.971 25.0002 109.971C25.0002 109.971 25.0002 109.971 25.0002 109.971C25.0002 109.971 25.0002 109.971 25.0002 109.971C25.0002 109.971 25.0002 109.971 25.0002 109.971C25.0002 109.971 25.0002 109.971 25.0002 109.971C25.0002 109.971 25.0002 109.971 25.0002 109.971C25.0002 109.971 25.0002 109.971 25.0002 109.971C25.0002 109.971 25.0002 109.971 25.0002 109.971C25.0002 109.971 25.0002 109.971 25.0002 109.971C25.0002 109.971 25.0002 109.971 25.0002 109.971C25.0002 109.971 25.0002 109.971 25.0002 109.971C25.0002 109.971 25.0002 109.971 25.0002 109.971C25.0002 109.971 25.0002 109.971 25.0002 109.971C25.0002 109.971 25.0002 109.971 25.0002 109.971C25.0002 109.971 25.0002 109.971 25.0002 109.971C25.0002 109.971 25.0002 109.971 25.0002 109.971C25.0002 109.971 25.0002 109.971 25.0002 109.971C25.0002 109.971 25.0002 109.971 25.0002 109.971C25.0002 109.971 25.0002 109.971 25.0002 109.971C25.0002 109.971 25.0002 109.971 25.0002 109.971C25.0002 109.971 25.0002 109.971 25.0002 109.971C25.0002 109.971 25.0002 109.971 25.0002 109.971C25.0002 109.971 25.0002 109.971 25.0002 109.971C25.0002 109.971 25.0002 109.971 25.0002 109.971C25.0002 109.971 25.0002 109.971 25.0002 109.971C25.0002 109.971 25.0002 109.971 25.0002 109.971C25.0002 109.971 25.0002 109.971 25.0002 109.971C25.0002 109.971 25.0002 109.971 25.0002 109.971C25.0002 109.971 25.0002 109.971 25.0002 109.971C25.0002 109.971 25.0002 109.971 25.0002 109.971C25.0002 109.971 25.0002 109.971 25.0002 109.971C25.0002 109.971 25.0002 109.971 25.0002 109.971C25.0002 109.971 25.0002 109.971 25.0002 109.971C25.0001 109.971 25.0001 109.971 25.0001 109.971C25.0001 109.971 25.0001 109.971 25.0001 109.971C25.0001 109.971 25.0001 109.971 25.0001 109.971C25.0001 109.971 25.0001 109.971 25.0001 109.971C25.0001 109.971 25.0001 109.971 25.0001 109.971C25.0001 109.971 25.0001 109.971 25.0001 109.971C25.0001 109.971 25.0001 109.971 25.0001 109.971C25.0001 109.971 25.0001 109.971 25.0001 109.971C25.0001 109.971 25.0001 109.971 25.0001 109.971C25.0001 109.971 25.0001 109.971 25.0001 109.971C25.0001 109.971 25.0001 109.971 25.0001 109.971C25.0001 109.971 25.0001 109.971 25.0001 109.971C25.0001 109.971 25.0001 109.971 25.0001 109.971C25.0001 109.971 25.0001 109.971 25.0001 109.971C25.0001 109.971 25.0001 109.971 25.0001 109.971C25.0001 109.971 25.0001 109.971 25.0001 109.971C25.0001 109.971 25.0001 109.971 25.0001 109.971C25.0001 109.971 25.0001 109.971 25.0001 109.971C25.0001 109.971 25.0001 109.971 25.0001 109.971C25.0001 109.971 25.0001 109.971 25.0001 109.971C25.0001 109.971 25.0001 109.971 25.0001 109.971C25.0001 109.971 25.0001 109.971 25.0001 109.971C25.0001 109.971 25.0001 109.971 25.0001 109.971C25.0001 109.971 25.0001 109.971 25.0001 109.971C25.0001 109.971 25.0001 109.971 25.0001 109.971C25.0001 109.971 25.0001 109.971 25.0001 109.971C25.0001 109.971 25.0001 109.971 25.0001 109.971C25.0001 109.971 25.0001 109.971 25.0001 109.971C25.0001 109.971 25.0001 109.971 25.0001 109.971C25.0001 109.971 25.0001 109.971 25.0001 109.971C25.0001 109.971 25.0001 109.971 25.0001 109.971C25.0001 109.971 25.0001 109.971 25.0001 109.971C25.0001 109.971 25.0001 109.971 25.0001 109.971C25.0001 109.971 25.0001 109.971 25.0001 109.971C25.0001 109.971 25.0001 109.971 25.0001 109.971C25.0001 109.971 25.0001 109.971 25.0001 109.971C25.0001 109.971 25.0001 109.971 25.0001 109.971C25.0001 109.971 25.0001 109.971 25.0001 109.971C25.0001 109.971 25.0001 109.971 25.0001 109.971C25.0001 109.971 25.0001 109.971 25.0001 109.971C25.0001 109.971 25.0001 109.971 25.0001 109.971C25.0001 109.971 25.0001 109.971 25.0001 109.971C25.0001 109.971 25.0001 109.971 25.0001 109.971C25.0001 109.971 25.0001 109.971 25.0001 109.971C25.0001 109.971 25.0001 109.971 25.0001 109.971C25.0001 109.971 25.0001 109.971 25.0001 109.971C25.0001 109.971 25.0001 109.971 25.0001 109.971C25.0001 109.971 25.0001 109.971 25.0001 109.971C25.0001 109.971 25.0001 109.971 25.0001 109.971C25.0001 109.971 25.0001 109.971 25.0001 109.971C25.0001 109.971 25.0001 109.971 25.0001 109.971C25.0001 109.971 25.0001 109.971 25.0001 109.971C25.0001 109.971 25.0001 109.971 25.0001 109.971C25.0001 109.971 25.0001 109.971 25.0001 109.971C25.0001 109.971 25.0001 109.971 25.0001 109.971C25.0001 109.971 25.0001 109.971 25.0001 109.971C25.0001 109.971 25.0001 109.971 25.0001 109.971C25.0001 109.971 25.0001 109.971 25.0001 109.971C25.0001 109.971 25.0001 109.971 25.0001 109.971C25.0001 109.971 25.0001 109.971 25.0001 109.971C25.0001 109.971 25.0001 109.971 25.0001 109.971C25.0001 109.971 25.0001 109.971 25.0001 109.971C25.0001 109.971 25.0001 109.971 25.0001 109.971C25.0001 109.971 25.0001 109.971 25.0001 109.971C25.0001 109.971 25.0001 109.971 25.0001 109.971C25.0001 109.971 25.0001 109.971 25.0001 109.971C25.0001 109.971 25.0001 109.971 25.0001 109.971C25.0001 109.971 25.0001 109.971 25.0001 109.971C25.0001 109.971 25.0001 109.971 25.0001 109.971C25.0001 109.971 25.0001 109.971 25.0001 109.971C25.0001 109.971 25.0001 109.971 25.0001 109.971C25.0001 109.971 25.0001 109.971 25.0001 109.971C25.0001 109.971 25.0001 109.971 25.0001 109.971C25.0001 109.971 25.0001 109.971 25.0001 109.971C25.0001 109.971 25.0001 109.971 25.0001 109.971C25.0001 109.971 25.0001 109.971 25.0001 109.971C25.0001 109.971 25.0001 109.971 25.0001 109.971C25.0001 109.971 25.0001 109.971 25.0001 109.971C25.0001 109.971 25.0001 109.971 25.0001 109.971C25.0001 109.971 25.0001 109.971 25.0001 109.971C25.0001 109.971 25.0001 109.971 25.0001 109.971C25.0001 109.971 25.0001 109.971 25.0001 109.971C25.0001 109.971 25.0001 109.971 25.0001 109.971C25.0001 109.971 25.0001 109.971 25.0001 109.971C25.0001 109.971 25.0001 109.971 25.0001 109.971C25.0001 109.971 25.0001 109.971 25.0001 109.971C25.0001 109.971 25.0001 109.971 25.0001 109.971C25.0001 109.971 25.0001 109.971 25.0001 109.971C25.0001 109.971 25.0001 109.971 25.0001 109.971C25.0001 109.971 25.0001 109.971 25.0001 109.971C25.0001 109.971 25.0001 109.971 25.0001 109.971C25.0001 109.971 25.0001 109.971 25.0001 109.971C25.0001 109.971 25.0001 109.971 25.0001 109.971C25.0001 109.971 25.0001 109.971 25.0001 109.971C25.0001 109.971 25.0001 109.971 25.0001 109.971C25.0001 109.971 25.0001 109.971 25.0001 109.971C25.0001 109.971 25.0001 109.971 25.0001 109.971C25.0001 109.971 25.0001 109.971 25.0001 109.971C25.0001 109.971 25.0001 109.971 25.0001 109.971C25.0001 109.971 25.0001 109.971 25.0001 109.971C25.0001 109.971 25.0001 109.971 25.0001 109.971C25.0001 109.971 25.0001 109.971 25.0001 109.971C25.0001 109.971 25.0001 109.971 25.0001 109.971C25.0001 109.971 25.0001 109.971 25.0001 109.971C25.0001 109.971 25.0001 109.971 25.0001 109.971C25.0001 109.971 25.0001 109.971 25.0001 109.971C25.0001 109.971 25.0001 109.971 25.0001 109.971C25.0001 109.971 25.0001 109.971 25.0001 109.971C25.0001 109.971 25.0001 109.971 25.0001 109.971C25.0001 109.971 25.0001 109.971 25.0001 109.971C25.0001 109.971 25.0001 109.971 25.0001 109.971C25.0001 109.971 25.0001 109.971 25.0001 109.971C25.0001 109.971 25.0001 109.971 25.0001 109.971C25.0001 109.971 25.0001 109.971 25.0001 109.971C25.0001 109.971 25.0001 109.971 25.0001 109.971C25.0001 109.971 25.0001 109.971 25.0001 109.971C25.0001 109.971 25.0001 109.971 25.0001 109.971C25.0001 109.971 25.0001 109.971 25.0001 109.971C25.0001 109.971 25.0001 109.971 25.0001 109.971C25.0001 109.971 25.0001 109.971 25.0001 109.971C25.0001 109.971 25.0001 109.971 25.0001 109.971C25.0001 109.971 25.0001 109.971 25.0001 109.971C25.0001 109.971 25.0001 109.971 25.0001 109.971C25.0001 109.971 25.0001 109.971 25.0001 109.971C25.0001 109.971 25.0001 109.971 25.0001 109.971C25.0001 109.971 25.0001 109.971 25.0001 109.971C25.0001 109.971 25.0001 109.971 25.0001 109.971C25.0001 109.971 25.0001 109.971 25.0001 109.971C25.0001 109.971 25.0001 109.971 25.0001 109.971C25.0001 109.971 25.0001 109.971 25.0001 109.971C25.0001 109.971 25.0001 109.971 25.0001 109.971C25.0001 109.971 25.0001 109.971 25.0001 109.971C25 109.971 25 109.971 25 109.971C25 109.971 25 109.971 25 109.971C25 109.971 25 109.971 25 109.971C25 109.971 25 109.971 25 109.971C25 109.971 25 109.971 25 109.971C25 109.971 25 109.971 25 109.971C25 109.971 25 109.971 25 109.971C25 109.971 25 109.971 25 109.971C25 109.971 25 109.971 25 109.971C25 109.971 25 109.971 25 109.971C25 109.971 25 109.971 25 109.971C25 109.971 25 109.971 25 109.971C25 109.971 25 109.971 25 109.971C25 109.971 25 109.971 25 109.971C25 109.971 25 109.971 25 109.971C25 109.971 25 109.971 25 109.971C25 109.971 25 109.971 25 109.971C25 109.971 25 109.971 25 109.971C25 109.971 25 109.971 25 109.971C25 109.971 25 109.971 25 109.971C25 109.971 25 109.971 25 109.971C25 109.971 25 109.971 25 109.971C25 109.971 25 109.971 25 109.971C25 109.971 25 109.971 25 109.971C25 109.971 25 109.971 25 109.971C25 109.971 25 109.971 25 109.971C25 109.971 25 109.971 25 109.971C25 109.971 25 109.971 25 109.971C25 109.971 25 109.971 25 109.971C25 109.971 25 109.971 25 109.971C25 109.971 25 109.971 25 109.971C25 109.971 25 109.971 25 109.971C25 109.971 25 109.971 25 109.971C25 109.971 25 109.971 25 109.971C25 109.971 25 109.971 25 109.971C25 109.971 25 109.971 25 109.971C25 109.971 25 109.971 25 109.971C25 109.971 25 109.971 25 109.971C25 109.971 25 109.971 25 109.971C25 109.971 25 109.971 25 109.971C25 109.971 25 109.971 25 109.971C25 109.971 25 109.971 25 109.971C25 109.971 25 109.971 25 109.971C25 109.971 25 109.971 25 109.971C25 109.971 25 109.971 25 109.971C25 109.971 25 109.971 25 109.971C25 109.971 25 109.971 25 109.971C25 109.971 25 109.971 25 109.971C25 109.971 25 109.971 25 109.971C25 109.971 25 109.971 25 109.971C25 109.971 25 109.971 25 109.971C25 109.971 25 109.971 25 109.971C25 109.971 25 109.971 25 109.971C25 109.971 25 109.971 25 109.971C25 109.971 25 109.971 25 109.971C25 109.971 25 109.971 25 109.971C25 109.971 25 109.971 25 109.971C25 109.971 25 109.971 25 109.971C25 109.971 25 109.971 25 109.971C25 109.971 25 109.971 25 109.971C25 109.971 25 109.971 25 109.971C25 109.971 25 109.971 25 109.971C25 109.971 25 109.971 25 109.971C25 109.971 25 109.971 25 109.971C25 109.971 25 109.971 25 109.971C25 109.971 25 109.971 25 109.971V112.971ZM23.5 24.159V111.471H26.5V24.159H23.5ZM26.1176 22.7353C25.8071 22.7353 25.5024 22.714 25.2046 22.673L24.7954 25.645C25.2283 25.7046 25.6698 25.7353 26.1176 25.7353V22.7353Z" fill="#B5955E" mask="url(#path-2-inside-1_2002_14188)"/>
</g>
<defs>
<filter id="filter0_d_2002_14188" x="0" y="0" width="308" height="138" filterUnits="userSpaceOnUse" color-interpolation-filters="sRGB">
<feFlood flood-opacity="0" result="BackgroundImageFix"/>
<feColorMatrix in="SourceAlpha" type="matrix" values="0 0 0 0 0 0 0 0 0 0 0 0 0 0 0 0 0 0 127 0" result="hardAlpha"/>
<feOffset dy="2"/>
<feGaussianBlur stdDeviation="3"/>
<feComposite in2="hardAlpha" operator="out"/>
<feColorMatrix type="matrix" values="0 0 0 0 0.130583 0 0 0 0 0.129324 0 0 0 0 0.129324 0 0 0 0.2 0"/>
<feBlend mode="normal" in2="BackgroundImageFix" result="effect1_dropShadow_2002_14188"/>
<feBlend mode="normal" in="SourceGraphic" in2="effect1_dropShadow_2002_14188" result="shape"/>
</filter>
</defs>
</svg>
