<svg width="40" height="40" viewBox="0 0 40 40" fill="none" xmlns="http://www.w3.org/2000/svg">
<rect width="40" height="40" rx="8" fill="#AFAEAE"/>
<path d="M15.884 15.12H17.012V15.744C17.012 17.556 16.604 19.356 15.092 20.16L14.264 19.02C15.5 18.348 15.884 17.016 15.884 15.744V15.12ZM16.292 15.12H17.372V15.744C17.372 16.908 17.66 18.312 18.884 19.116L18.188 20.28C16.628 19.38 16.292 17.4 16.292 15.744V15.12ZM19.004 15.12H20.096V15.744C20.096 17.424 19.76 19.392 18.188 20.28L17.504 19.116C18.728 18.324 19.004 16.932 19.004 15.744V15.12ZM19.388 15.12H20.528V15.744C20.528 17.016 20.888 18.348 22.136 19.02L21.32 20.16C19.796 19.344 19.388 17.556 19.388 15.744V15.12ZM14.684 14.628H17.984V15.888H14.684V14.628ZM18.404 14.628H21.596V15.888H18.404V14.628ZM22.352 13.956H23.96V20.412H22.352V13.956ZM16.304 20.928H23.96V24.948H16.304V20.928ZM22.388 22.188H17.864V23.676H22.388V22.188Z" fill="white"/>
</svg>
