<svg width="40" height="40" viewBox="0 0 40 40" fill="none" xmlns="http://www.w3.org/2000/svg">
<rect width="40" height="40" rx="8" fill="#AFAEAE"/>
<path d="M3.492 22.548H13.548V23.844H3.492V22.548ZM7.704 20.448H9.3V23.076H7.704V20.448ZM4.62 14.676H12.42V18.372H6.228V20.244H4.644V17.124H10.836V15.936H4.62V14.676ZM4.644 19.608H12.672V20.892H4.644V19.608ZM15.5511 14.976H22.5951V16.236H15.5511V14.976ZM14.5311 22.32H24.5751V23.616H14.5311V22.32ZM21.7551 14.976H23.3391V16.296C23.3391 17.856 23.3391 19.368 22.9431 21.648L21.3471 21.516C21.7551 19.38 21.7551 17.796 21.7551 16.296V14.976ZM33.1901 13.968H34.7981V21.948H33.1901V13.968ZM27.3941 23.604H35.0741V24.876H27.3941V23.604ZM27.3941 21.144H28.9901V24.12H27.3941V21.144ZM28.7501 14.664C30.4541 14.664 31.7621 15.84 31.7621 17.484C31.7621 19.116 30.4541 20.304 28.7501 20.304C27.0461 20.304 25.7261 19.116 25.7261 17.484C25.7261 15.84 27.0461 14.664 28.7501 14.664ZM28.7501 16.044C27.9221 16.044 27.2861 16.572 27.2861 17.484C27.2861 18.384 27.9221 18.912 28.7501 18.912C29.5661 18.912 30.2021 18.384 30.2021 17.484C30.2021 16.572 29.5661 16.044 28.7501 16.044Z" fill="white"/>
</svg>
