<svg width="40" height="40" viewBox="0 0 40 40" fill="none" xmlns="http://www.w3.org/2000/svg">
<rect width="40" height="40" rx="8" fill="#AFAEAE"/>
<path d="M9.77694 6H15.0929V13.368H9.77694V6ZM13.5209 7.248H11.3489V12.108H13.5209V7.248ZM16.5449 4.956H18.1529V16.068H16.5449V4.956ZM17.7929 9.144H19.7609V10.464H17.7929V9.144ZM28.1 4.944H29.708V16.092H28.1V4.944ZM23.72 5.724C25.4 5.724 26.636 7.26 26.636 9.684C26.636 12.132 25.4 13.668 23.72 13.668C22.04 13.668 20.804 12.132 20.804 9.684C20.804 7.26 22.04 5.724 23.72 5.724ZM23.72 7.176C22.892 7.176 22.328 8.052 22.328 9.684C22.328 11.34 22.892 12.228 23.72 12.228C24.548 12.228 25.1 11.34 25.1 9.684C25.1 8.052 24.548 7.176 23.72 7.176ZM12.0454 22.956H13.5694V34.068H12.0454V22.956ZM8.79341 27H10.2814V28.404H8.79341V27ZM9.83741 23.172H11.3374V33.552H9.83741V23.172ZM4.00541 24.204H9.05741V25.476H4.00541V24.204ZM3.98141 31.548L3.81341 30.252C5.20541 30.252 7.54541 30.216 9.22541 29.988L9.33341 31.14C7.60541 31.512 5.34941 31.548 3.98141 31.548ZM4.68941 25.02H6.11741V30.588H4.68941V25.02ZM6.92141 25.02H8.36141V30.588H6.92141V25.02ZM22.5805 22.944H24.1885V34.092H22.5805V22.944ZM18.2005 23.724C19.8805 23.724 21.1165 25.26 21.1165 27.684C21.1165 30.132 19.8805 31.668 18.2005 31.668C16.5205 31.668 15.2845 30.132 15.2845 27.684C15.2845 25.26 16.5205 23.724 18.2005 23.724ZM18.2005 25.176C17.3725 25.176 16.8085 26.052 16.8085 27.684C16.8085 29.34 17.3725 30.228 18.2005 30.228C19.0285 30.228 19.5805 29.34 19.5805 27.684C19.5805 26.052 19.0285 25.176 18.2005 25.176ZM28.6755 24.708H29.9475V25.956C29.9475 28.524 28.9035 31.032 26.8155 31.98L25.9155 30.72C27.7755 29.892 28.6755 27.84 28.6755 25.956V24.708ZM29.0355 24.708H30.2955V25.956C30.2955 27.756 31.1835 29.676 33.0435 30.444L32.1795 31.704C30.0675 30.792 29.0355 28.428 29.0355 25.956V24.708ZM26.3595 24.024H32.5875V25.332H26.3595V24.024ZM33.6195 22.956H35.2275V34.068H33.6195V22.956Z" fill="white"/>
</svg>
