<svg width="40" height="40" viewBox="0 0 40 40" fill="none" xmlns="http://www.w3.org/2000/svg">
<rect width="40" height="40" rx="8" fill="#AFAEAE"/>
<path d="M9.292 15.096H13.684V22.296H9.292V15.096ZM12.196 16.344H10.78V21.048H12.196V16.344ZM17.008 13.956H18.532V25.068H17.008V13.956ZM12.88 17.988H15.376V19.272H12.88V17.988ZM14.74 14.124H16.24V24.564H14.74V14.124ZM21.2311 17.448H28.9591V18.72H21.2311V17.448ZM21.2311 14.46H22.8271V18.024H21.2311V14.46ZM20.0311 19.944H30.0751V21.228H20.0311V19.944ZM22.3111 20.4H23.9071V25.068H22.3111V20.4ZM26.1871 20.4H27.7831V25.068H26.1871V20.4Z" fill="white"/>
</svg>
