<svg width="40" height="40" viewBox="0 0 40 40" fill="none" xmlns="http://www.w3.org/2000/svg">
<rect width="40" height="40" rx="8" fill="#AFAEAE"/>
<path d="M11.452 7.192H12.76V7.888C12.76 10.012 11.764 11.92 9.616 12.628L8.824 11.368C10.672 10.756 11.452 9.304 11.452 7.888V7.192ZM11.776 7.192H13.072V7.888C13.072 9.184 13.816 10.456 15.604 10.996L14.848 12.244C12.736 11.608 11.776 9.868 11.776 7.888V7.192ZM9.244 6.7H15.244V7.972H9.244V6.7ZM16.132 5.956H17.728V12.544H16.132V5.956ZM17.284 8.512H19.204V9.82H17.284V8.512ZM14.104 12.748C16.408 12.748 17.86 13.552 17.86 14.908C17.86 16.264 16.408 17.068 14.104 17.068C11.788 17.068 10.336 16.264 10.336 14.908C10.336 13.552 11.788 12.748 14.104 12.748ZM14.104 13.996C12.688 13.996 11.92 14.284 11.92 14.908C11.92 15.532 12.688 15.844 14.104 15.844C15.52 15.844 16.276 15.532 16.276 14.908C16.276 14.284 15.52 13.996 14.104 13.996ZM27.1231 5.956H28.7311V17.068H27.1231V5.956ZM28.3711 10.096H30.3391V11.416H28.3711V10.096ZM20.3551 6.832H21.9391V9.532H24.1711V6.832H25.7551V14.5H20.3551V6.832ZM21.9391 10.768V13.216H24.1711V10.768H21.9391ZM10.132 22.604H17.104V23.864H10.132V22.604ZM8.992 27.332H19.036V28.616H8.992V27.332ZM13.156 28.232H14.764V33.08H13.156V28.232ZM16.288 22.604H17.86V23.588C17.86 24.788 17.86 26.132 17.428 28.1L15.856 27.92C16.288 26.06 16.288 24.74 16.288 23.588V22.604ZM27.7111 21.956H29.3071V33.068H27.7111V21.956ZM20.6071 23.012H22.1911V29.912H20.6071V23.012ZM20.6071 28.976H21.5911C23.2111 28.976 25.0111 28.856 26.8471 28.496L27.0271 29.816C25.1191 30.212 23.2831 30.332 21.5911 30.332H20.6071V28.976Z" fill="white"/>
</svg>
