
<svg width="8" height="16" viewBox="0 0 8 16" fill="none" xmlns="http://www.w3.org/2000/svg">
<path d="M3.62768 5C3.75159 5 3.87042 5.04991 3.95804 5.13874C4.04565 5.22757 4.09488 5.34806 4.09488 5.47368V7.17958L5.55189 6.32632C5.65914 6.26449 5.78615 6.24819 5.90521 6.28096C6.02428 6.31373 6.12572 6.39292 6.1874 6.50125C6.24909 6.60958 6.26601 6.73824 6.23448 6.85917C6.20295 6.9801 6.12552 7.08348 6.01909 7.14674L4.56207 8L6.01909 8.85295C6.12552 8.91621 6.20295 9.01958 6.23448 9.14051C6.26601 9.26144 6.24909 9.39011 6.1874 9.49843C6.12572 9.60676 6.02428 9.68595 5.90521 9.71872C5.78615 9.7515 5.65914 9.73519 5.55189 9.67337L4.09488 8.82074V10.5263C4.09488 10.6519 4.04565 10.7724 3.95804 10.8613C3.87042 10.9501 3.75159 11 3.62768 11C3.50378 11 3.38494 10.9501 3.29733 10.8613C3.20971 10.7724 3.16049 10.6519 3.16049 10.5263V8.82042L1.70347 9.67368C1.65032 9.70528 1.59153 9.7259 1.53048 9.73436C1.46944 9.74283 1.40734 9.73896 1.34778 9.72299C1.28821 9.70703 1.23235 9.67927 1.1834 9.64132C1.13446 9.60338 1.0934 9.55599 1.06259 9.50189C1.03179 9.44779 1.01184 9.38805 1.0039 9.3261C0.995956 9.26415 1.00018 9.20122 1.01632 9.14093C1.03246 9.08065 1.06021 9.02419 1.09796 8.97482C1.13571 8.92545 1.18272 8.88414 1.23628 8.85326L2.6933 8L1.23628 7.14705C1.12985 7.08379 1.05242 6.98042 1.02089 6.85949C0.989353 6.73856 1.00628 6.60989 1.06796 6.50157C1.12965 6.39324 1.23109 6.31405 1.35015 6.28128C1.46921 6.2485 1.59622 6.26481 1.70347 6.32663L3.16049 7.17926V5.47368C3.16049 5.34806 3.20971 5.22757 3.29733 5.13874C3.38494 5.04991 3.50378 5 3.62768 5Z" fill="#F14646"/>
</svg>
