
<svg width="61" height="60" viewBox="0 0 61 60" fill="none" xmlns="http://www.w3.org/2000/svg">
<rect x="0.54541" width="60" height="60" rx="20" fill="#F8F8F8"/>
<g clip-path="url(#clip0_479_18564)">
<path d="M44.721 32.6058V30.8871C44.721 29.2845 43.4154 27.981 41.8117 27.981H30.6679C30.4085 27.981 30.1985 28.1907 30.1985 28.4504C30.1985 28.7101 30.4092 28.9199 30.6679 28.9199H41.8117C42.8979 28.9199 43.7823 29.8027 43.7823 30.8884V32.6071C42.7417 32.8243 41.9579 33.7471 41.9579 34.8502V36.5926H26.951V34.8502C26.951 33.7477 26.1673 32.8243 25.1267 32.6071V30.8884C25.1267 29.8033 26.0104 28.9199 27.0973 28.9199H28.7898C29.0492 28.9199 29.2592 28.7101 29.2592 28.4504C29.2592 28.1907 29.0485 27.981 28.7898 27.981H27.0973C25.4929 27.981 24.1879 29.2851 24.1879 30.8871V32.6058C23.1473 32.8231 22.3635 33.7458 22.3635 34.849V41.5309C22.3635 41.79 22.5735 42.0004 22.8329 42.0004H37.3192C37.5785 42.0004 37.7892 41.7906 37.7892 41.5309C37.7892 41.2712 37.5792 41.0614 37.3192 41.0614H26.951V37.5297H41.9579V41.0614H39.1979C38.9385 41.0614 38.7279 41.2712 38.7279 41.5309C38.7279 41.7906 38.9379 42.0004 39.1979 42.0004H46.076C46.3354 42.0004 46.546 41.7906 46.546 41.5309V34.849C46.546 33.7464 45.7623 32.8231 44.7217 32.6058H44.721ZM23.3023 34.849C23.3023 34.1029 23.9098 33.4961 24.6573 33.4961C25.4048 33.4961 26.0123 34.1029 26.0123 34.849V41.0614H23.3029V34.849H23.3023ZM45.606 41.0614H42.8967V34.849C42.8967 34.1029 43.5042 33.4961 44.251 33.4961C44.9979 33.4961 45.6054 34.1029 45.6054 34.849V41.0614H45.606Z" fill="#3B3B3B"/>
<path d="M19.8383 39.3717H19.3777V23.1347H20.584V28.4432C20.584 28.7023 20.794 28.9127 21.0533 28.9127C21.3127 28.9127 21.5227 28.7029 21.5227 28.4432V23.1347H22.8008C23.0977 23.1347 23.3246 22.85 23.259 22.561L21.6121 15.3646C21.5633 15.1511 21.3733 15 21.154 15H16.6615C16.4421 15 16.2521 15.1511 16.2033 15.3646L14.5565 22.561C14.4902 22.85 14.7177 23.1347 15.0146 23.1347H18.4383V39.3717H17.9777C16.8246 39.3717 15.8858 40.3088 15.8858 41.4606V41.5311C15.8858 41.7902 16.0958 42.0006 16.3552 42.0006H21.4596C21.719 42.0006 21.929 41.7909 21.929 41.5311V41.4606C21.929 40.3088 20.9908 39.3717 19.8377 39.3717H19.8383ZM17.0358 15.9383H20.7796L22.2121 22.1964H15.604L17.0358 15.9383ZM16.8965 41.0617C17.059 40.6228 17.4821 40.3094 17.9771 40.3094H19.8383C20.3333 40.3094 20.7565 40.6228 20.919 41.0617H16.8965Z" fill="#3B3B3B"/>
</g>
<defs>
<clipPath id="clip0_479_18564">
<rect width="32" height="27" fill="white" transform="translate(14.5454 15)"/>
</clipPath>
</defs>
</svg>
