
<svg width="61" height="60" viewBox="0 0 61 60" fill="none" xmlns="http://www.w3.org/2000/svg">
<rect x="0.36377" width="60" height="60" rx="20" fill="#F8F8F8"/>
<g clip-path="url(#clip0_479_18556)">
<path d="M27.3848 20.4316C28.0869 21.3686 28.7528 22.4121 29.3532 23.5406C30.084 24.9152 30.6506 26.2875 31.0479 27.593" stroke="#3B3B3B" stroke-width="0.9" stroke-linecap="round" stroke-linejoin="round"/>
<path d="M19.4262 27.593C16.69 22.173 16.5357 16.9078 19.1319 15.6926C20.9298 14.8506 23.5884 16.1643 26.041 18.8145" stroke="#3B3B3B" stroke-width="0.9" stroke-linecap="round" stroke-linejoin="round"/>
<path d="M23.904 20.2435L20.1409 22.0054C19.8154 22.1578 19.4487 21.8906 19.5206 21.5566C19.7036 20.7087 20.2858 19.9464 21.1741 19.5304C22.0624 19.1144 23.0619 19.1367 23.894 19.5093C24.2226 19.6564 24.2295 20.0917 23.904 20.2441V20.2435Z" stroke="#3B3B3B" stroke-width="0.9" stroke-linecap="round" stroke-linejoin="round"/>
<path d="M26.525 23.871L21.6556 26.1503C21.2346 26.3478 20.7598 26.0021 20.8529 25.5691C21.0896 24.4722 21.843 23.4861 22.9931 22.9476C24.1425 22.4097 25.4362 22.4378 26.5125 22.92C26.9373 23.1105 26.9461 23.6741 26.525 23.871Z" stroke="#3B3B3B" stroke-width="0.9" stroke-linecap="round" stroke-linejoin="round"/>
<path d="M18.1874 36.341L17.5227 31.0811" stroke="#3B3B3B" stroke-width="0.9" stroke-linecap="round" stroke-linejoin="round"/>
<path d="M36.2257 31.0811H31.6287" stroke="#3B3B3B" stroke-width="0.9" stroke-linecap="round" stroke-linejoin="round"/>
<path d="M24.0276 31.0809H16.7799C16.2564 31.0809 15.8323 30.683 15.8323 30.192V28.4816C15.8323 27.9906 16.2564 27.5928 16.7799 27.5928H37.7669" stroke="#3B3B3B" stroke-width="0.9" stroke-linecap="round" stroke-linejoin="round"/>
<path d="M41.7788 27.5928H43.9483C44.4718 27.5928 44.896 27.9906 44.896 28.4816V30.192C44.896 30.683 44.4718 31.0809 43.9483 31.0809H43.3205" stroke="#3B3B3B" stroke-width="0.9" stroke-linecap="round" stroke-linejoin="round"/>
<path d="M44.5448 33.8741C44.6179 34.2673 44.6554 34.6669 44.6554 35.07V43.1202C44.6554 43.9153 43.9682 44.5605 43.1199 44.5605H36.4251C35.5774 44.5605 34.8896 43.9153 34.8896 43.1202V35.07C34.8896 33.5718 35.4038 32.1128 36.3558 30.9099C36.8318 30.3081 37.1985 29.6425 37.4459 28.9399C37.6932 28.2374 37.8219 27.4979 37.8219 26.7491V20.4503C37.8219 19.9839 38.2249 19.606 38.7227 19.606H40.8229C41.3202 19.606 41.7237 19.9839 41.7237 20.4503V26.7491C41.7237 28.2474 42.2378 29.7063 43.1899 30.9099C43.446 31.2339 43.6703 31.5755 43.8608 31.9323" stroke="#3B3B3B" stroke-width="0.9" stroke-linecap="round" stroke-linejoin="round"/>
<path d="M37.822 24.7041H41.7238" stroke="#3B3B3B" stroke-width="0.9" stroke-linecap="round" stroke-linejoin="round"/>
<path d="M41.9812 41.1911H37.5647C37.1455 41.1911 36.8057 40.8724 36.8057 40.4792V35.6118C36.8057 35.2187 37.1455 34.8999 37.5647 34.8999H41.9812C42.4004 34.8999 42.7402 35.2187 42.7402 35.6118V40.4792C42.7402 40.8724 42.4004 41.1911 41.9812 41.1911Z" stroke="#3B3B3B" stroke-width="0.9" stroke-linecap="round" stroke-linejoin="round"/>
<path d="M26.768 33.6514L20.3093 27.5928H35.3474L28.8888 33.6514C28.3035 34.2004 27.3539 34.2004 26.7686 33.6514H26.768Z" stroke="#3B3B3B" stroke-width="0.9" stroke-linecap="round" stroke-linejoin="round"/>
<path d="M26.7369 39.0638V39.7944C26.7369 41.1105 26.1684 42.3022 25.2489 43.1647C24.3293 44.0272 23.0587 44.5605 21.6557 44.5605C18.8496 44.5605 16.5745 42.4265 16.5745 39.7944V38.7737C16.5745 38.0249 16.8981 37.347 17.4215 36.8565C17.9444 36.3655 18.6672 36.062 19.4655 36.062C20.3413 36.062 21.1253 36.4276 21.6557 37.0048C22.186 36.4276 22.97 36.062 23.8458 36.062C24.7791 36.062 25.6087 36.4763 26.1372 37.1202" stroke="#3B3B3B" stroke-width="0.9" stroke-linecap="round" stroke-linejoin="round"/>
<path d="M21.6556 37.0048C21.6556 37.0048 22.0511 34.9669 19.8315 33.5718" stroke="#3B3B3B" stroke-width="0.9" stroke-linecap="round" stroke-linejoin="round"/>
<path d="M20.4551 44.4263C20.7031 44.513 20.9717 44.5604 21.2503 44.5604H39.4768" stroke="#3B3B3B" stroke-width="0.9" stroke-linecap="round" stroke-linejoin="round"/>
</g>
<defs>
<clipPath id="clip0_479_18556">
<rect width="30" height="30" fill="white" transform="translate(15.3638 15)"/>
</clipPath>
</defs>
</svg>
