
<svg width="61" height="60" viewBox="0 0 61 60" fill="none" xmlns="http://www.w3.org/2000/svg">
<rect x="0.636475" width="60" height="60" rx="20" fill="#F8F8F8"/>
<g clip-path="url(#clip0_479_18567)">
<path d="M35.4705 33.1348C35.4705 35.8043 33.306 37.9688 30.6365 37.9688C27.9669 37.9688 25.8025 35.8043 25.8025 33.1348" stroke="#3B3B3B" stroke-width="1.3" stroke-linecap="round" stroke-linejoin="round"/>
<path d="M25.1938 22.9115C24.3008 22.489 23.2362 22.8705 22.8137 23.7634" stroke="#3B3B3B" stroke-width="1.3" stroke-linecap="round" stroke-linejoin="round"/>
<path d="M36.0793 22.9115C36.9723 22.489 38.037 22.8705 38.4594 23.7634" stroke="#3B3B3B" stroke-width="1.3" stroke-linecap="round" stroke-linejoin="round"/>
<path d="M22.5798 29.234C22.5798 27.7258 23.8027 26.5029 25.3109 26.5029C26.8191 26.5029 28.0419 27.7258 28.0419 29.234" stroke="#3B3B3B" stroke-width="1.3" stroke-linecap="round" stroke-linejoin="round"/>
<path d="M33.2305 29.234C33.2305 27.7258 34.4533 26.5029 35.9615 26.5029C37.4697 26.5029 38.6926 27.7258 38.6926 29.234" stroke="#3B3B3B" stroke-width="1.3" stroke-linecap="round" stroke-linejoin="round"/>
<path d="M41.887 39.2438C43.9553 36.7295 45.1969 33.5098 45.1969 30C45.1969 21.9586 38.6778 15.4395 30.6364 15.4395C26.7833 15.4395 23.2805 16.9371 20.676 19.3805" stroke="#3B3B3B" stroke-width="1.3" stroke-linecap="round" stroke-linejoin="round"/>
<path d="M19.2816 20.8862C17.2765 23.3812 16.0759 26.5499 16.0759 29.9999C16.0759 38.0413 22.5951 44.5604 30.6365 44.5604C34.4298 44.5604 37.8839 43.1091 40.4755 40.7325" stroke="#3B3B3B" stroke-width="1.3" stroke-linecap="round" stroke-linejoin="round"/>
</g>
<defs>
<clipPath id="clip0_479_18567">
<rect width="30" height="30" fill="white" transform="translate(15.6365 15)"/>
</clipPath>
</defs>
</svg>
