<svg width="60" height="60" viewBox="0 0 60 60" fill="none" xmlns="http://www.w3.org/2000/svg">
<rect width="60" height="60" rx="20" fill="#F8F8F8"/>
<mask id="mask0_835_16420" style="mask-type:luminance" maskUnits="userSpaceOnUse" x="15" y="15" width="30" height="30">
<path d="M44.6 44.6V15.4H15.4V44.6H44.6Z" fill="white" stroke="white" stroke-width="0.8"/>
</mask>
<g mask="url(#mask0_835_16420)">
<path d="M28.2463 41.3892L29.6184 37.7866C29.6465 37.7181 29.7435 37.718 29.7717 37.7865L31.1313 41.3892" stroke="#3B3B3B" stroke-width="0.8" stroke-miterlimit="10" stroke-linecap="round" stroke-linejoin="round"/>
<path d="M28.6743 40.4922H30.7103" stroke="#3B3B3B" stroke-width="0.8" stroke-miterlimit="10" stroke-linecap="round" stroke-linejoin="round"/>
<path d="M32.7253 41.3892V37.742L35.1912 41.3127C35.2369 41.3787 35.2858 41.3464 35.2858 41.2661L35.2517 37.7352" stroke="#3B3B3B" stroke-width="0.8" stroke-miterlimit="10" stroke-linecap="round" stroke-linejoin="round"/>
<path d="M37.0864 37.7932V41.2778" stroke="#3B3B3B" stroke-width="0.8" stroke-miterlimit="10" stroke-linecap="round" stroke-linejoin="round"/>
<path d="M39.5226 39.5625C39.5226 40.5395 38.9804 41.3126 38.1201 41.3277C37.8337 41.3326 37.0936 41.3354 37.0936 41.3354C37.0936 41.3354 37.089 40.0511 37.089 39.5586C37.089 39.1541 37.0864 37.7895 37.0864 37.7895H38.0907C39.0343 37.7895 39.5226 38.5854 39.5226 39.5625Z" stroke="#3B3B3B" stroke-width="0.8" stroke-miterlimit="10" stroke-linecap="round" stroke-linejoin="round"/>
<path d="M22.6727 38.5764C22.6727 39.0407 22.2963 39.4172 21.8319 39.4172C21.6016 39.4172 20.7705 39.4209 20.7705 39.4209V38.5764V37.7356H21.8319C22.2963 37.7356 22.6727 38.112 22.6727 38.5764Z" stroke="#3B3B3B" stroke-width="0.8" stroke-miterlimit="10" stroke-linecap="round" stroke-linejoin="round"/>
<path d="M23.0008 40.4013C23.0008 40.9446 22.5605 41.3849 22.0173 41.3849C21.7479 41.3849 20.7705 41.3892 20.7705 41.3892V40.4013V39.4178H22.0173C22.5605 39.4178 23.0008 39.8581 23.0008 40.4013Z" stroke="#3B3B3B" stroke-width="0.8" stroke-miterlimit="10" stroke-linecap="round" stroke-linejoin="round"/>
<path d="M25.1111 39.6457L26.646 41.3896" stroke="#3B3B3B" stroke-width="0.8" stroke-miterlimit="10" stroke-linecap="round" stroke-linejoin="round"/>
<path d="M24.6704 37.7352V41.3892" stroke="#3B3B3B" stroke-width="0.8" stroke-miterlimit="10" stroke-linecap="round" stroke-linejoin="round"/>
<path d="M26.646 38.6849C26.646 39.2094 26.1861 39.6345 25.6426 39.6345C25.3731 39.6345 24.6784 39.6387 24.6784 39.6387C24.6784 39.6387 24.674 38.9493 24.674 38.6849C24.674 38.4677 24.6716 37.7353 24.6716 37.7353H25.6426C26.1861 37.7353 26.646 38.1604 26.646 38.6849Z" stroke="#3B3B3B" stroke-width="0.8" stroke-miterlimit="10" stroke-linecap="round" stroke-linejoin="round"/>
<path d="M44.4142 43.4795H15.5859L18.047 39.6594L15.5859 35.6412H44.4142L42.129 39.6594L44.4142 43.4795Z" stroke="#3B3B3B" stroke-width="0.8" stroke-miterlimit="10" stroke-linecap="round" stroke-linejoin="round"/>
<path d="M42.2348 31.3959C42.5857 31.8934 42.7492 32.4547 42.7492 33.0066C42.7492 34.1316 42.0701 35.218 40.9129 35.6416H19.0879C17.9307 35.218 17.251 34.1311 17.251 33.0061C17.251 32.4542 17.4145 31.8934 17.7648 31.3959C18.107 30.9125 18.2775 30.3459 18.2775 29.7805C18.2775 29.215 18.107 28.649 17.7648 28.165C17.4145 27.6682 17.251 27.1075 17.251 26.5555C17.251 25.4094 17.9559 24.3031 19.1523 23.8965C19.7137 23.7055 20.1842 23.348 20.517 22.8904C20.8492 22.4328 21.0432 21.8744 21.052 21.2814C21.073 19.7035 22.3703 18.5164 23.8486 18.5164C24.1223 18.5164 24.4029 18.5575 24.6824 18.6441C24.9561 18.7286 25.235 18.7702 25.5115 18.7702C26.3793 18.7702 27.2178 18.3658 27.7563 17.6451C28.3164 16.8957 29.1584 16.5207 29.9998 16.5207C30.8419 16.5207 31.6844 16.8957 32.2445 17.6451C32.9541 18.5949 34.1852 18.9946 35.3172 18.6441C35.5973 18.5575 35.8779 18.5164 36.1516 18.5164C37.6305 18.5164 38.9278 19.7035 38.9488 21.2814C38.9564 21.8744 39.151 22.4328 39.4832 22.8904C39.8166 23.348 40.2871 23.7055 40.8484 23.8965C42.0449 24.3031 42.7492 25.4088 42.7492 26.5549C42.7492 27.1069 42.5857 27.6682 42.2348 28.165C41.8932 28.649 41.7227 29.215 41.7227 29.7805C41.7227 30.3459 41.8932 30.9125 42.2348 31.3959Z" stroke="#3B3B3B" stroke-width="0.8" stroke-miterlimit="10" stroke-linecap="round" stroke-linejoin="round"/>
<path d="M36.6324 28.4321C36.6324 29.1052 36.0867 29.6509 35.4136 29.6509C34.7405 29.6509 34.1948 29.1052 34.1948 28.4321C34.1948 27.759 34.7405 27.2133 35.4136 27.2133C36.0867 27.2133 36.6324 27.759 36.6324 28.4321Z" stroke="#3B3B3B" stroke-width="0.8" stroke-miterlimit="10" stroke-linecap="round" stroke-linejoin="round"/>
<path d="M35.3276 29.6474L34.3176 32.8213H25.88L24.8938 29.6468C25.2172 29.6235 25.5047 29.4731 25.7094 29.2458L26.7635 30.0096C27.4192 30.4844 28.3385 30.3126 28.7788 29.6337L29.564 28.4226C29.7358 28.5151 29.932 28.5675 30.1409 28.5675C30.3496 28.5675 30.5459 28.5151 30.7177 28.4226L31.4951 29.6218C31.9378 30.3054 32.8655 30.4737 33.5206 29.9899L34.5145 29.2554C34.7197 29.4786 35.0066 29.6253 35.3276 29.6474Z" stroke="#3B3B3B" stroke-width="0.8" stroke-miterlimit="10" stroke-linecap="round" stroke-linejoin="round"/>
<path d="M26.0203 28.4321C26.0203 29.1052 25.4746 29.6509 24.8016 29.6509C24.1284 29.6509 23.5828 29.1052 23.5828 28.4321C23.5828 27.759 24.1284 27.2133 24.8016 27.2133C25.4746 27.2133 26.0203 27.759 26.0203 28.4321Z" stroke="#3B3B3B" stroke-width="0.8" stroke-miterlimit="10" stroke-linecap="round" stroke-linejoin="round"/>
<path d="M31.3597 27.3486C31.3597 28.0217 30.814 28.5674 30.1409 28.5674C29.4677 28.5674 28.9221 28.0217 28.9221 27.3486C28.9221 26.6755 29.4677 26.1298 30.1409 26.1298C30.814 26.1298 31.3597 26.6755 31.3597 27.3486Z" stroke="#3B3B3B" stroke-width="0.8" stroke-miterlimit="10" stroke-linecap="round" stroke-linejoin="round"/>
<path d="M27.5031 21.0446C23.7208 22.1769 20.9646 25.6828 20.9646 29.8338C20.9646 32.0375 21.7415 34.0602 23.0376 35.6416H37.239C38.5351 34.0602 39.3121 32.0375 39.3121 29.8338C39.3121 25.6302 36.4852 22.0877 32.6295 21.0022" stroke="#3B3B3B" stroke-width="0.8" stroke-miterlimit="10" stroke-linecap="round" stroke-linejoin="round"/>
<circle cx="30.5" cy="20.5" r="0.5" fill="#3B3B3B"/>
</g>
</svg>
