<svg width="61" height="60" viewBox="0 0 61 60" fill="none" xmlns="http://www.w3.org/2000/svg">
<rect x="0.727295" width="60" height="60" rx="20" fill="#F8F8F8"/>
<g clip-path="url(#clip0_479_18572)">
<path d="M18.0051 35.0096L15.8219 32.8264C11.6401 28.6445 11.6401 21.8635 15.8219 17.6817C17.8621 15.6416 20.5984 14.5445 23.3958 14.5445C24.4841 14.5445 25.5804 14.7108 26.6491 15.0513L30.7271 16.3516L34.8052 15.0513C38.457 13.886 42.44 14.7652 45.2584 17.3252" stroke="#3B3B3B" stroke-width="1.3" stroke-linecap="round" stroke-linejoin="round"/>
<path d="M46.9217 19.2383C48.153 21.0475 48.7687 23.1508 48.7687 25.2541C48.7687 27.9948 47.7232 30.7355 45.6323 32.8264L34.6121 43.8467C33.5818 44.8769 32.1842 45.4555 30.7271 45.4555C29.9982 45.4555 29.2853 45.3111 28.6246 45.0374C27.9639 44.7644 27.3569 44.3622 26.8422 43.8467L19.8013 36.8058" stroke="#3B3B3B" stroke-width="1.3" stroke-linecap="round" stroke-linejoin="round"/>
<path d="M39.9622 28.2984C40.9854 28.2984 41.815 27.4688 41.815 26.4456C41.815 25.4223 40.9854 24.5928 39.9622 24.5928C38.9389 24.5928 38.1094 25.4223 38.1094 26.4456C38.1094 27.4688 38.9389 28.2984 39.9622 28.2984Z" stroke="#3B3B3B" stroke-width="1.3" stroke-linecap="round" stroke-linejoin="round"/>
<path d="M34.3174 23.7627C35.3407 23.7627 36.1702 22.9332 36.1702 21.9099C36.1702 20.8867 35.3407 20.0571 34.3174 20.0571C33.2941 20.0571 32.4646 20.8867 32.4646 21.9099C32.4646 22.9332 33.2941 23.7627 34.3174 23.7627Z" stroke="#3B3B3B" stroke-width="1.3" stroke-linecap="round" stroke-linejoin="round"/>
<path d="M21.4922 28.2984C22.5155 28.2984 23.345 27.4688 23.345 26.4456C23.345 25.4223 22.5155 24.5928 21.4922 24.5928C20.4689 24.5928 19.6394 25.4223 19.6394 26.4456C19.6394 27.4688 20.4689 28.2984 21.4922 28.2984Z" stroke="#3B3B3B" stroke-width="1.3" stroke-linecap="round" stroke-linejoin="round"/>
<path d="M27.137 23.7627C28.1603 23.7627 28.9898 22.9332 28.9898 21.9099C28.9898 20.8867 28.1603 20.0571 27.137 20.0571C26.1137 20.0571 25.2842 20.8867 25.2842 21.9099C25.2842 22.9332 26.1137 23.7627 27.137 23.7627Z" stroke="#3B3B3B" stroke-width="1.3" stroke-linecap="round" stroke-linejoin="round"/>
<path d="M34.9671 29.7046L36.2035 30.941C37.7405 32.478 37.7405 34.969 36.2035 36.5059C35.4543 37.2552 34.4495 37.6581 33.4214 37.6581C33.0214 37.6581 32.6185 37.5971 32.2257 37.4723L30.7272 36.9945L29.2287 37.4723C27.826 37.9195 26.2912 37.547 25.2508 36.5059C24.482 35.7371 24.0979 34.7308 24.0979 33.7231C24.0979 32.7154 24.482 31.7091 25.2508 30.941L29.2998 26.892C29.6781 26.513 30.1921 26.3003 30.7272 26.3003C30.9944 26.3003 31.2572 26.3533 31.4997 26.4542C31.7422 26.5544 31.9658 26.7025 32.1545 26.892L33.171 27.9084" stroke="#3B3B3B" stroke-width="1.3" stroke-linecap="round" stroke-linejoin="round"/>
</g>
<defs>
<clipPath id="clip0_479_18572">
<rect width="37.1722" height="32" fill="white" transform="translate(12.1411 14)"/>
</clipPath>
</defs>
</svg>
