<svg width="61" height="60" viewBox="0 0 61 60" fill="none" xmlns="http://www.w3.org/2000/svg">
<rect x="0.181885" width="60" height="60" rx="20" fill="#F8F8F8"/>
<g clip-path="url(#clip0_835_16411)">
<path d="M40.9676 29.0514C39.0407 29.0514 38.0086 30.4242 37.0511 32.485C35.7749 35.2324 34.4658 36.808 33.4588 36.808C33.2731 36.808 32.7084 36.808 32.2172 35.7311C32.0632 35.3941 31.6865 35.2066 31.32 35.2857C29.5083 35.676 28.1795 36.4846 27.37 37.6893C26.6973 38.6906 26.5707 39.7131 26.5552 40.2334C26.5487 40.449 26.6292 40.6529 26.7815 40.807C26.9337 40.9605 27.1378 41.0455 27.3569 41.0455H33.3507C33.4355 41.7023 33.5059 42.3475 33.5609 42.9721C31.8566 44.1838 29.9363 44.2242 28.6045 44.0361C27.0752 43.8199 25.5327 43.241 24.0403 42.6814C23.4476 42.4588 22.8345 42.2291 22.2257 42.0223C20.4038 41.4041 18.961 41.1369 17.6382 41.1803C18.3462 35.5652 20.0182 29.6924 21.1733 27.6328H23.219C23.0632 28.4361 22.8871 29.6355 22.7128 31.0875C22.6841 31.3283 22.8596 31.5469 23.1049 31.5756C23.1228 31.5779 23.1402 31.5785 23.1575 31.5785C23.3813 31.5785 23.5747 31.4139 23.6016 31.1906C23.7866 29.6496 23.9717 28.4045 24.1305 27.6334H26.9665C27.1247 28.4068 27.3086 29.6467 27.4942 31.1906C27.5211 31.4145 27.7145 31.5785 27.9383 31.5785C27.9556 31.5785 27.9735 31.5773 27.9909 31.5756C28.2368 31.5475 28.4123 31.3289 28.383 31.0875C28.2087 29.6344 28.0332 28.4385 27.878 27.6328H29.8306C30.5451 28.9189 31.4644 31.7027 32.2136 34.8697C32.2613 35.073 32.4458 35.2102 32.6493 35.2102C32.6828 35.2102 32.7168 35.2066 32.7508 35.1984C32.992 35.1434 33.1418 34.9072 33.0857 34.6711C32.3043 31.3682 31.3259 28.4455 30.5631 27.1178C30.686 26.5477 30.8275 25.9242 30.9648 25.3195C31.3182 23.7639 31.6835 22.1549 31.7814 21.252C31.9235 19.94 31.8268 16.6752 31.7939 15.7061C31.7802 15.31 31.4537 15 31.0496 15H29.9989C29.5883 15 29.2546 15.3281 29.2546 15.7312V16.7883C29.2546 18.8648 27.5617 20.56 25.4807 20.567H25.4676C24.4558 20.567 23.5049 20.1809 22.7898 19.4789C22.0746 18.777 21.6812 17.8436 21.6812 16.8504V15.7312C21.6818 15.3281 21.3476 15 20.9369 15H19.8869C19.4827 15 19.1562 15.3105 19.1425 15.7061C19.1234 16.2645 19.0792 17.707 19.0792 19.0342C19.0792 19.2768 19.2798 19.4736 19.5269 19.4736C19.774 19.4736 19.9746 19.2768 19.9746 19.0342C19.9746 17.8213 20.0116 16.5094 20.0325 15.8789H20.7864V16.8498C20.7864 18.0779 21.2735 19.2322 22.1576 20.1C23.0417 20.9678 24.2254 21.4477 25.4849 21.4459C28.0577 21.4377 30.1506 19.3482 30.1506 16.7883V15.8789H30.9045C30.9403 16.9775 31.0215 19.9605 30.892 21.1594C30.7994 22.0131 30.4401 23.5975 30.0921 25.1291C29.9685 25.6729 29.842 26.2312 29.7279 26.7545H27.348C27.3354 26.7545 27.3223 26.7545 27.3092 26.7545H23.7669C23.7526 26.7539 23.7383 26.7539 23.724 26.7545H21.2085C21.0992 26.2564 20.9787 25.7256 20.8617 25.2082C20.5065 23.6443 20.1394 22.0266 20.045 21.16C20.0337 21.0545 20.023 20.9256 20.0134 20.7656C19.9985 20.5236 19.7866 20.3402 19.5388 20.3537C19.2923 20.3684 19.1043 20.577 19.1192 20.8189C19.1299 20.9924 19.1413 21.1342 19.1544 21.2525C19.2541 22.1689 19.6266 23.8113 19.9871 25.3992C20.1256 26.0092 20.2683 26.6379 20.3913 27.2057C19.7848 28.2902 19.0589 30.3182 18.3838 32.8225C17.6113 35.6848 17.0084 38.8037 16.6849 41.6045C16.67 41.7369 16.7159 41.8688 16.8114 41.9631C16.907 42.0574 17.0407 42.1043 17.1756 42.0914C18.5163 41.9566 19.9836 42.1916 21.9332 42.8531C22.5283 43.0547 23.1342 43.282 23.721 43.5023C25.2587 44.0795 26.8489 44.676 28.4774 44.9062C28.9227 44.9689 29.3596 45.0006 29.7864 45.0006C31.4949 45.0006 33.0385 44.499 34.3052 43.5229C34.4234 43.432 34.4873 43.2885 34.4748 43.142C34.4193 42.4658 34.3452 41.7627 34.2539 41.0467H34.5279C34.9261 41.0467 35.2771 40.7988 35.4012 40.4297C35.7821 39.2988 36.5945 38.0303 37.6308 36.9498C38.414 36.1324 39.1356 35.6314 39.575 35.4703C39.6454 35.7814 39.6806 36.3838 39.6806 37.2686V40.2557C39.6806 40.6916 40.0418 41.0467 40.4865 41.0467H41.2279C41.672 41.0467 42.0338 40.6916 42.0338 40.2557V37.2686C42.0338 36.6158 42.3054 36.0604 42.5937 35.4727C42.9244 34.7977 43.2658 34.0992 43.2658 33.1846C43.2658 30.7904 42.3 29.0531 40.9688 29.0531L40.9676 29.0514ZM41.7854 35.0906C41.4667 35.7416 41.1372 36.4143 41.1372 37.2674V40.1666H40.5749V37.2674C40.5749 35.8629 40.5086 35.0332 40.1576 34.6705C40.0734 34.5832 39.9558 34.5334 39.8329 34.5334C38.796 34.5334 37.3854 35.9209 36.9777 36.3463C35.8555 37.517 34.9708 38.9045 34.55 40.1531C34.547 40.1613 34.5375 40.1672 34.5267 40.1672H33.7537C33.7477 40.1672 33.7411 40.1672 33.7352 40.1672H27.4536C27.5091 39.1453 28.0344 36.9264 31.4328 36.1623C31.9145 37.1748 32.5956 37.6881 33.4582 37.6881C34.892 37.6881 36.3748 36.0604 37.8654 32.8506C38.8664 30.6949 39.6783 29.9314 40.967 29.9314C41.5544 29.9314 42.3687 31.0617 42.3687 33.184C42.3687 33.8988 42.0851 34.4783 41.7848 35.0912L41.7854 35.0906Z" fill="#3B3B3B"/>
<path d="M43.6221 22.0826C43.6191 22.075 43.6155 22.0674 43.6125 22.0604L42.2832 18.9883C42.1524 18.6859 41.8516 18.4902 41.5167 18.4902H34.3839C34.049 18.4902 33.7482 18.6859 33.6175 18.9883L33.4509 19.3732C33.3542 19.5971 33.4605 19.8549 33.6879 19.9498C33.9159 20.0447 34.1786 19.9404 34.2753 19.7172L34.4257 19.3691H36.1359L35.7784 21.8014H33.3733L33.5518 21.3883C33.6485 21.165 33.5422 20.9072 33.3148 20.8117C33.0874 20.7168 32.8241 20.8211 32.7274 21.0443L32.2881 22.0592C32.2845 22.0662 32.2815 22.0738 32.2785 22.0814C32.1603 22.368 32.2188 22.7002 32.429 22.9316L37.3286 28.3305C37.485 28.5033 37.71 28.6029 37.9458 28.6041H37.9554C38.1912 28.6029 38.4156 28.5033 38.5726 28.3305L43.4723 22.9316C43.6824 22.7002 43.7409 22.368 43.6227 22.0814L43.6221 22.0826ZM35.7593 22.7676L36.9328 26.575L33.3984 22.6803H35.7366C35.7431 22.7107 35.7503 22.7395 35.7593 22.7676ZM39.1499 24.4633C38.9129 24.393 38.6634 24.5242 38.5917 24.7568L37.95 26.8387L36.6684 22.6803H39.2322L39.1266 23.023C39.0549 23.2551 39.1887 23.5006 39.4256 23.5709C39.662 23.6412 39.9121 23.51 39.9838 23.2773L40.1408 22.7676C40.1491 22.74 40.1569 22.7107 40.1635 22.6803H42.5017L38.9672 26.575L39.4495 25.0111C39.5212 24.7791 39.3868 24.5336 39.1505 24.4633H39.1499ZM42.5273 21.8014H40.1223L39.7647 19.3691H41.4743L42.5273 21.8014ZM37.0397 19.3691H38.8603L39.2179 21.8014H36.6821L37.0397 19.3691Z" fill="#3B3B3B"/>
</g>
<defs>
<clipPath id="clip0_835_16411">
<rect width="27" height="30" fill="white" transform="translate(16.6819 15)"/>
</clipPath>
</defs>
</svg>
