<svg width="61" height="60" viewBox="0 0 61 60" fill="none" xmlns="http://www.w3.org/2000/svg">
<rect x="0.0908203" width="60" height="60" rx="20" fill="#F8F8F8"/>
<g clip-path="url(#clip0_835_16420)">
<mask id="path-2-outside-1_835_16420" maskUnits="userSpaceOnUse" x="14.6011" y="15.2739" width="31" height="30" fill="black">
<rect fill="white" x="14.6011" y="15.2739" width="31" height="30"/>
<path d="M33.5976 34.9693C32.6884 33.6135 31.3092 31.9874 29.7139 30.3907C28.1186 28.794 26.4941 27.4135 25.1395 26.5035C24.7551 26.2453 22.4437 24.6841 22.0779 25.7238L15.6191 44.0926C15.5785 44.2079 15.6077 44.3364 15.6943 44.4227C15.7549 44.4834 15.8361 44.5158 15.919 44.5158C15.9543 44.5158 15.99 44.5099 16.0245 44.4977L34.3765 38.033C35.4152 37.6671 33.8504 35.3463 33.5976 34.9693ZM24.7851 27.0311C26.1065 27.9189 27.6972 29.2715 29.2643 30.84C30.8313 32.4084 32.1827 34.0007 33.0696 35.3233C34.1051 36.8676 34.0819 37.4185 34.019 37.4814C33.9562 37.5447 33.4058 37.5674 31.8636 36.5313C30.5421 35.6436 28.9514 34.2909 27.3843 32.7225C25.8173 31.154 24.4659 29.5618 23.579 28.2391C22.5435 26.6948 22.5668 26.144 22.6297 26.0811C22.9823 25.7268 24.595 26.9034 24.7851 27.0311ZM16.4386 43.678L17.9627 39.3433C18.8186 40.3538 19.7593 41.2956 20.7689 42.1525L16.4386 43.678ZM21.467 41.9066C20.2776 40.9317 19.1821 39.835 18.2084 38.6446L19.3128 35.5038C19.9947 36.4632 20.8268 37.4419 21.7476 38.3635C22.6684 39.2851 23.6464 40.1184 24.6053 40.8011L21.467 41.9066ZM19.5732 34.7634L20.7392 31.4474C21.967 33.7271 23.7989 35.7268 25.776 37.3793C26.0824 37.6352 26.4946 37.1516 26.1837 36.8917C24.1372 35.181 22.1688 33.0555 21.0316 30.6157L22.2394 27.1809C22.4186 27.5828 22.6886 28.0526 23.051 28.5931C23.9602 29.949 25.3394 31.575 26.9347 33.1717C28.53 34.7684 30.1545 36.1489 31.5092 37.0589C32.0496 37.4219 32.5193 37.6924 32.921 37.8718L25.3451 40.5405C23.0962 39.0268 21.085 37.0135 19.5732 34.7634Z"/>
<path d="M31.7341 29.3959C31.7068 29.3959 31.6794 29.3947 31.6519 29.3924L30.5126 29.2964C30.3377 29.2816 30.2079 29.1279 30.2226 28.953C30.2372 28.7781 30.3916 28.6486 30.5659 28.663L31.7052 28.7591C31.9066 28.7557 32.0214 28.6542 32.0494 28.4546L32.1102 26.9291C32.1307 26.4152 32.5661 26.0035 33.0792 26.0133L34.4459 26.0368C34.6464 26.0201 34.7542 25.9113 34.7691 25.7104L34.7359 24.3937C34.7226 23.8692 35.163 23.4156 35.6889 23.4156H37.0423C37.2488 23.3934 37.3544 23.2783 37.3589 23.0704L37.2363 21.6139C37.2217 21.4391 37.3515 21.2853 37.5264 21.2706C37.7005 21.2563 37.855 21.3858 37.8696 21.5606L37.9923 23.0172C38.038 23.5603 37.589 24.0512 37.0422 24.0512H35.6889C35.4913 24.0707 35.3854 24.1795 35.3712 24.3776L35.4044 25.6944C35.4178 26.2246 34.9671 26.6822 34.4348 26.6723L33.0682 26.6488L33.0628 26.6487C32.8939 26.6487 32.752 26.7848 32.7452 26.9544L32.6844 28.4799C32.6647 28.9796 32.235 29.3959 31.7341 29.3959Z"/>
<path d="M25.9119 26.0357C25.7165 26.0357 25.5625 25.8528 25.5993 25.6585C25.6094 25.6056 26.5839 20.3421 24.8008 18.6003C24.6753 18.4777 24.6729 18.2764 24.7955 18.1509C24.9182 18.0253 25.1195 18.0231 25.2449 18.1456C27.2712 20.125 26.2675 25.5474 26.2238 25.7773C26.1948 25.9296 26.0615 26.0357 25.9119 26.0357Z"/>
<path d="M41.7205 35.4038C41.6378 35.4038 41.5553 35.3717 41.493 35.3078C39.7512 33.5216 34.4948 34.4986 34.4418 34.5087C34.27 34.5417 34.1031 34.4284 34.0701 34.256C34.0373 34.0836 34.1505 33.9172 34.3229 33.8843C34.5525 33.8406 39.9704 32.8358 41.9481 34.8641C42.1333 35.054 41.9849 35.4038 41.7205 35.4038Z"/>
<path d="M18.2397 22.5712C18.0526 22.5712 17.8961 22.3859 17.9261 22.2022L18.1859 20.6091L17.0879 19.4835C16.9105 19.3017 17.0164 18.9858 17.2674 18.9474L18.7719 18.7175L19.4477 17.2775C19.5599 17.0384 19.9109 17.0384 20.0231 17.2775L20.6988 18.7175L22.2034 18.9474C22.4544 18.9858 22.5604 19.3016 22.3829 19.4835L21.2849 20.6091L21.5448 22.2022C21.5867 22.4593 21.3053 22.6574 21.0773 22.5315L19.7354 21.7896L18.3936 22.5315C18.3455 22.558 18.2926 22.5712 18.2397 22.5712ZM19.7354 21.1087C19.7883 21.1087 19.8412 21.1219 19.8891 21.1484L20.812 21.6586L20.6317 20.5531C20.6155 20.4536 20.6474 20.3522 20.7179 20.28L21.496 19.4822L20.4352 19.3201C20.3305 19.3041 20.2405 19.2369 20.1955 19.141L19.7354 18.1606L19.2753 19.141C19.2303 19.237 19.1404 19.3041 19.0356 19.3201L17.9748 19.4823L18.753 20.2801C18.8234 20.3523 18.8554 20.4536 18.8391 20.5531L18.6588 21.6586L19.5817 21.1484C19.6294 21.1219 19.6824 21.1087 19.7354 21.1087Z"/>
<path d="M38.9507 42.2938C38.7635 42.2938 38.607 42.1086 38.637 41.9249L38.8968 40.3318L37.7989 39.2061C37.6214 39.0244 37.7274 38.7085 37.9783 38.6701L39.4829 38.4401L40.1586 37.0002C40.2708 36.761 40.6218 36.761 40.734 37.0002L41.4098 38.4401L42.9144 38.6701C43.1654 38.7085 43.2713 39.0243 43.0939 39.2061L41.9959 40.3318L42.2557 41.9249C42.2976 42.1819 42.0162 42.38 41.7883 42.2542L40.4464 41.5123L39.1045 42.2542C39.0564 42.2807 39.0035 42.2938 38.9507 42.2938ZM40.4463 40.8313C40.4992 40.8313 40.5522 40.8446 40.6 40.871L41.523 41.3813L41.3427 40.2757C41.3264 40.1762 41.3584 40.0749 41.4288 40.0027L42.2069 39.2049L41.1461 39.0427C41.0413 39.0267 40.9514 38.9595 40.9064 38.8636L40.4463 37.8831L39.9862 38.8636C39.9412 38.9596 39.8512 39.0267 39.7465 39.0427L38.6857 39.2049L39.4639 40.0027C39.5343 40.0749 39.5662 40.1762 39.55 40.2757L39.3697 41.3812L40.2926 40.871C40.3403 40.8446 40.3933 40.8313 40.4463 40.8313Z"/>
<path d="M39.5862 21.747C39.399 21.747 39.2425 21.5617 39.2725 21.378L39.5323 19.7849L38.4344 18.6593C38.2569 18.4775 38.3628 18.1616 38.6138 18.1232L40.1184 17.8932L40.7941 16.4533C40.9063 16.2141 41.2573 16.2141 41.3695 16.4533L42.0453 17.8932L43.5499 18.1232C43.8009 18.1616 43.9068 18.4774 43.7293 18.6593L42.6314 19.7849L42.8912 21.378C42.9331 21.635 42.6517 21.8332 42.4238 21.7073L41.0819 20.9654L39.74 21.7073C39.6919 21.7338 39.639 21.747 39.5862 21.747ZM41.0818 20.2845C41.1347 20.2845 41.1877 20.2977 41.2355 20.3241L42.1585 20.8344L41.9782 19.7288C41.9619 19.6294 41.9939 19.528 42.0643 19.4558L42.8424 18.658L41.7816 18.4958C41.6768 18.4798 41.5869 18.4126 41.5419 18.3167L41.0818 17.3363L40.6217 18.3167C40.5767 18.4127 40.4867 18.4798 40.382 18.4958L39.3212 18.658L40.0993 19.4558C40.1698 19.528 40.2017 19.6293 40.1855 19.7288L40.0052 20.8343L40.9281 20.3241C40.9758 20.2977 41.0288 20.2845 41.0818 20.2845Z"/>
<path d="M43.5018 33.5212C42.6257 33.5212 41.9128 32.8078 41.9128 31.931C41.9128 31.0542 42.6257 30.3408 43.5018 30.3408C44.378 30.3408 45.0908 31.0542 45.0908 31.931C45.0908 32.8078 44.378 33.5212 43.5018 33.5212ZM43.5018 30.9765C42.9761 30.9765 42.5484 31.4047 42.5484 31.9311C42.5484 32.4575 42.9761 32.8857 43.5018 32.8857C44.0275 32.8857 44.4552 32.4575 44.4552 31.9311C44.4552 31.4047 44.0275 30.9765 43.5018 30.9765Z"/>
<path d="M31.3968 21.0105C30.5207 21.0105 29.8079 20.2971 29.8079 19.4203C29.8079 18.5435 30.5207 17.8301 31.3968 17.8301C32.273 17.8301 32.9858 18.5435 32.9858 19.4203C32.9858 20.2971 32.273 21.0105 31.3968 21.0105ZM31.3968 18.4657C30.8711 18.4657 30.4435 18.8939 30.4435 19.4203C30.4435 19.9467 30.8711 20.3749 31.3968 20.3749C31.9225 20.3749 32.3502 19.9467 32.3502 19.4203C32.3502 18.8939 31.9225 18.4657 31.3968 18.4657Z"/>
<path d="M27.3895 38.648C27.6176 38.648 27.8026 38.4628 27.8026 38.2344C27.8026 38.006 27.6176 37.8208 27.3895 37.8208C27.1613 37.8208 26.9763 38.006 26.9763 38.2344C26.9763 38.4628 27.1613 38.648 27.3895 38.648Z"/>
</mask>
<path d="M33.5976 34.9693C32.6884 33.6135 31.3092 31.9874 29.7139 30.3907C28.1186 28.794 26.4941 27.4135 25.1395 26.5035C24.7551 26.2453 22.4437 24.6841 22.0779 25.7238L15.6191 44.0926C15.5785 44.2079 15.6077 44.3364 15.6943 44.4227C15.7549 44.4834 15.8361 44.5158 15.919 44.5158C15.9543 44.5158 15.99 44.5099 16.0245 44.4977L34.3765 38.033C35.4152 37.6671 33.8504 35.3463 33.5976 34.9693ZM24.7851 27.0311C26.1065 27.9189 27.6972 29.2715 29.2643 30.84C30.8313 32.4084 32.1827 34.0007 33.0696 35.3233C34.1051 36.8676 34.0819 37.4185 34.019 37.4814C33.9562 37.5447 33.4058 37.5674 31.8636 36.5313C30.5421 35.6436 28.9514 34.2909 27.3843 32.7225C25.8173 31.154 24.4659 29.5618 23.579 28.2391C22.5435 26.6948 22.5668 26.144 22.6297 26.0811C22.9823 25.7268 24.595 26.9034 24.7851 27.0311ZM16.4386 43.678L17.9627 39.3433C18.8186 40.3538 19.7593 41.2956 20.7689 42.1525L16.4386 43.678ZM21.467 41.9066C20.2776 40.9317 19.1821 39.835 18.2084 38.6446L19.3128 35.5038C19.9947 36.4632 20.8268 37.4419 21.7476 38.3635C22.6684 39.2851 23.6464 40.1184 24.6053 40.8011L21.467 41.9066ZM19.5732 34.7634L20.7392 31.4474C21.967 33.7271 23.7989 35.7268 25.776 37.3793C26.0824 37.6352 26.4946 37.1516 26.1837 36.8917C24.1372 35.181 22.1688 33.0555 21.0316 30.6157L22.2394 27.1809C22.4186 27.5828 22.6886 28.0526 23.051 28.5931C23.9602 29.949 25.3394 31.575 26.9347 33.1717C28.53 34.7684 30.1545 36.1489 31.5092 37.0589C32.0496 37.4219 32.5193 37.6924 32.921 37.8718L25.3451 40.5405C23.0962 39.0268 21.085 37.0135 19.5732 34.7634Z" fill="#3B3B3B"/>
<path d="M31.7341 29.3959C31.7068 29.3959 31.6794 29.3947 31.6519 29.3924L30.5126 29.2964C30.3377 29.2816 30.2079 29.1279 30.2226 28.953C30.2372 28.7781 30.3916 28.6486 30.5659 28.663L31.7052 28.7591C31.9066 28.7557 32.0214 28.6542 32.0494 28.4546L32.1102 26.9291C32.1307 26.4152 32.5661 26.0035 33.0792 26.0133L34.4459 26.0368C34.6464 26.0201 34.7542 25.9113 34.7691 25.7104L34.7359 24.3937C34.7226 23.8692 35.163 23.4156 35.6889 23.4156H37.0423C37.2488 23.3934 37.3544 23.2783 37.3589 23.0704L37.2363 21.6139C37.2217 21.4391 37.3515 21.2853 37.5264 21.2706C37.7005 21.2563 37.855 21.3858 37.8696 21.5606L37.9923 23.0172C38.038 23.5603 37.589 24.0512 37.0422 24.0512H35.6889C35.4913 24.0707 35.3854 24.1795 35.3712 24.3776L35.4044 25.6944C35.4178 26.2246 34.9671 26.6822 34.4348 26.6723L33.0682 26.6488L33.0628 26.6487C32.8939 26.6487 32.752 26.7848 32.7452 26.9544L32.6844 28.4799C32.6647 28.9796 32.235 29.3959 31.7341 29.3959Z" fill="#3B3B3B"/>
<path d="M25.9119 26.0357C25.7165 26.0357 25.5625 25.8528 25.5993 25.6585C25.6094 25.6056 26.5839 20.3421 24.8008 18.6003C24.6753 18.4777 24.6729 18.2764 24.7955 18.1509C24.9182 18.0253 25.1195 18.0231 25.2449 18.1456C27.2712 20.125 26.2675 25.5474 26.2238 25.7773C26.1948 25.9296 26.0615 26.0357 25.9119 26.0357Z" fill="#3B3B3B"/>
<path d="M41.7205 35.4038C41.6378 35.4038 41.5553 35.3717 41.493 35.3078C39.7512 33.5216 34.4948 34.4986 34.4418 34.5087C34.27 34.5417 34.1031 34.4284 34.0701 34.256C34.0373 34.0836 34.1505 33.9172 34.3229 33.8843C34.5525 33.8406 39.9704 32.8358 41.9481 34.8641C42.1333 35.054 41.9849 35.4038 41.7205 35.4038Z" fill="#3B3B3B"/>
<path d="M18.2397 22.5712C18.0526 22.5712 17.8961 22.3859 17.9261 22.2022L18.1859 20.6091L17.0879 19.4835C16.9105 19.3017 17.0164 18.9858 17.2674 18.9474L18.7719 18.7175L19.4477 17.2775C19.5599 17.0384 19.9109 17.0384 20.0231 17.2775L20.6988 18.7175L22.2034 18.9474C22.4544 18.9858 22.5604 19.3016 22.3829 19.4835L21.2849 20.6091L21.5448 22.2022C21.5867 22.4593 21.3053 22.6574 21.0773 22.5315L19.7354 21.7896L18.3936 22.5315C18.3455 22.558 18.2926 22.5712 18.2397 22.5712ZM19.7354 21.1087C19.7883 21.1087 19.8412 21.1219 19.8891 21.1484L20.812 21.6586L20.6317 20.5531C20.6155 20.4536 20.6474 20.3522 20.7179 20.28L21.496 19.4822L20.4352 19.3201C20.3305 19.3041 20.2405 19.2369 20.1955 19.141L19.7354 18.1606L19.2753 19.141C19.2303 19.237 19.1404 19.3041 19.0356 19.3201L17.9748 19.4823L18.753 20.2801C18.8234 20.3523 18.8554 20.4536 18.8391 20.5531L18.6588 21.6586L19.5817 21.1484C19.6294 21.1219 19.6824 21.1087 19.7354 21.1087Z" fill="#3B3B3B"/>
<path d="M38.9507 42.2938C38.7635 42.2938 38.607 42.1086 38.637 41.9249L38.8968 40.3318L37.7989 39.2061C37.6214 39.0244 37.7274 38.7085 37.9783 38.6701L39.4829 38.4401L40.1586 37.0002C40.2708 36.761 40.6218 36.761 40.734 37.0002L41.4098 38.4401L42.9144 38.6701C43.1654 38.7085 43.2713 39.0243 43.0939 39.2061L41.9959 40.3318L42.2557 41.9249C42.2976 42.1819 42.0162 42.38 41.7883 42.2542L40.4464 41.5123L39.1045 42.2542C39.0564 42.2807 39.0035 42.2938 38.9507 42.2938ZM40.4463 40.8313C40.4992 40.8313 40.5522 40.8446 40.6 40.871L41.523 41.3813L41.3427 40.2757C41.3264 40.1762 41.3584 40.0749 41.4288 40.0027L42.2069 39.2049L41.1461 39.0427C41.0413 39.0267 40.9514 38.9595 40.9064 38.8636L40.4463 37.8831L39.9862 38.8636C39.9412 38.9596 39.8512 39.0267 39.7465 39.0427L38.6857 39.2049L39.4639 40.0027C39.5343 40.0749 39.5662 40.1762 39.55 40.2757L39.3697 41.3812L40.2926 40.871C40.3403 40.8446 40.3933 40.8313 40.4463 40.8313Z" fill="#3B3B3B"/>
<path d="M39.5862 21.747C39.399 21.747 39.2425 21.5617 39.2725 21.378L39.5323 19.7849L38.4344 18.6593C38.2569 18.4775 38.3628 18.1616 38.6138 18.1232L40.1184 17.8932L40.7941 16.4533C40.9063 16.2141 41.2573 16.2141 41.3695 16.4533L42.0453 17.8932L43.5499 18.1232C43.8009 18.1616 43.9068 18.4774 43.7293 18.6593L42.6314 19.7849L42.8912 21.378C42.9331 21.635 42.6517 21.8332 42.4238 21.7073L41.0819 20.9654L39.74 21.7073C39.6919 21.7338 39.639 21.747 39.5862 21.747ZM41.0818 20.2845C41.1347 20.2845 41.1877 20.2977 41.2355 20.3241L42.1585 20.8344L41.9782 19.7288C41.9619 19.6294 41.9939 19.528 42.0643 19.4558L42.8424 18.658L41.7816 18.4958C41.6768 18.4798 41.5869 18.4126 41.5419 18.3167L41.0818 17.3363L40.6217 18.3167C40.5767 18.4127 40.4867 18.4798 40.382 18.4958L39.3212 18.658L40.0993 19.4558C40.1698 19.528 40.2017 19.6293 40.1855 19.7288L40.0052 20.8343L40.9281 20.3241C40.9758 20.2977 41.0288 20.2845 41.0818 20.2845Z" fill="#3B3B3B"/>
<path d="M43.5018 33.5212C42.6257 33.5212 41.9128 32.8078 41.9128 31.931C41.9128 31.0542 42.6257 30.3408 43.5018 30.3408C44.378 30.3408 45.0908 31.0542 45.0908 31.931C45.0908 32.8078 44.378 33.5212 43.5018 33.5212ZM43.5018 30.9765C42.9761 30.9765 42.5484 31.4047 42.5484 31.9311C42.5484 32.4575 42.9761 32.8857 43.5018 32.8857C44.0275 32.8857 44.4552 32.4575 44.4552 31.9311C44.4552 31.4047 44.0275 30.9765 43.5018 30.9765Z" fill="#3B3B3B"/>
<path d="M31.3968 21.0105C30.5207 21.0105 29.8079 20.2971 29.8079 19.4203C29.8079 18.5435 30.5207 17.8301 31.3968 17.8301C32.273 17.8301 32.9858 18.5435 32.9858 19.4203C32.9858 20.2971 32.273 21.0105 31.3968 21.0105ZM31.3968 18.4657C30.8711 18.4657 30.4435 18.8939 30.4435 19.4203C30.4435 19.9467 30.8711 20.3749 31.3968 20.3749C31.9225 20.3749 32.3502 19.9467 32.3502 19.4203C32.3502 18.8939 31.9225 18.4657 31.3968 18.4657Z" fill="#3B3B3B"/>
<path d="M27.3895 38.648C27.6176 38.648 27.8026 38.4628 27.8026 38.2344C27.8026 38.006 27.6176 37.8208 27.3895 37.8208C27.1613 37.8208 26.9763 38.006 26.9763 38.2344C26.9763 38.4628 27.1613 38.648 27.3895 38.648Z" fill="#3B3B3B"/>
<path d="M33.5976 34.9693C32.6884 33.6135 31.3092 31.9874 29.7139 30.3907C28.1186 28.794 26.4941 27.4135 25.1395 26.5035C24.7551 26.2453 22.4437 24.6841 22.0779 25.7238L15.6191 44.0926C15.5785 44.2079 15.6077 44.3364 15.6943 44.4227C15.7549 44.4834 15.8361 44.5158 15.919 44.5158C15.9543 44.5158 15.99 44.5099 16.0245 44.4977L34.3765 38.033C35.4152 37.6671 33.8504 35.3463 33.5976 34.9693ZM24.7851 27.0311C26.1065 27.9189 27.6972 29.2715 29.2643 30.84C30.8313 32.4084 32.1827 34.0007 33.0696 35.3233C34.1051 36.8676 34.0819 37.4185 34.019 37.4814C33.9562 37.5447 33.4058 37.5674 31.8636 36.5313C30.5421 35.6436 28.9514 34.2909 27.3843 32.7225C25.8173 31.154 24.4659 29.5618 23.579 28.2391C22.5435 26.6948 22.5668 26.144 22.6297 26.0811C22.9823 25.7268 24.595 26.9034 24.7851 27.0311ZM16.4386 43.678L17.9627 39.3433C18.8186 40.3538 19.7593 41.2956 20.7689 42.1525L16.4386 43.678ZM21.467 41.9066C20.2776 40.9317 19.1821 39.835 18.2084 38.6446L19.3128 35.5038C19.9947 36.4632 20.8268 37.4419 21.7476 38.3635C22.6684 39.2851 23.6464 40.1184 24.6053 40.8011L21.467 41.9066ZM19.5732 34.7634L20.7392 31.4474C21.967 33.7271 23.7989 35.7268 25.776 37.3793C26.0824 37.6352 26.4946 37.1516 26.1837 36.8917C24.1372 35.181 22.1688 33.0555 21.0316 30.6157L22.2394 27.1809C22.4186 27.5828 22.6886 28.0526 23.051 28.5931C23.9602 29.949 25.3394 31.575 26.9347 33.1717C28.53 34.7684 30.1545 36.1489 31.5092 37.0589C32.0496 37.4219 32.5193 37.6924 32.921 37.8718L25.3451 40.5405C23.0962 39.0268 21.085 37.0135 19.5732 34.7634Z" stroke="#3B3B3B" stroke-width="0.2" mask="url(#path-2-outside-1_835_16420)"/>
<path d="M31.7341 29.3959C31.7068 29.3959 31.6794 29.3947 31.6519 29.3924L30.5126 29.2964C30.3377 29.2816 30.2079 29.1279 30.2226 28.953C30.2372 28.7781 30.3916 28.6486 30.5659 28.663L31.7052 28.7591C31.9066 28.7557 32.0214 28.6542 32.0494 28.4546L32.1102 26.9291C32.1307 26.4152 32.5661 26.0035 33.0792 26.0133L34.4459 26.0368C34.6464 26.0201 34.7542 25.9113 34.7691 25.7104L34.7359 24.3937C34.7226 23.8692 35.163 23.4156 35.6889 23.4156H37.0423C37.2488 23.3934 37.3544 23.2783 37.3589 23.0704L37.2363 21.6139C37.2217 21.4391 37.3515 21.2853 37.5264 21.2706C37.7005 21.2563 37.855 21.3858 37.8696 21.5606L37.9923 23.0172C38.038 23.5603 37.589 24.0512 37.0422 24.0512H35.6889C35.4913 24.0707 35.3854 24.1795 35.3712 24.3776L35.4044 25.6944C35.4178 26.2246 34.9671 26.6822 34.4348 26.6723L33.0682 26.6488L33.0628 26.6487C32.8939 26.6487 32.752 26.7848 32.7452 26.9544L32.6844 28.4799C32.6647 28.9796 32.235 29.3959 31.7341 29.3959Z" stroke="#3B3B3B" stroke-width="0.2" mask="url(#path-2-outside-1_835_16420)"/>
<path d="M25.9119 26.0357C25.7165 26.0357 25.5625 25.8528 25.5993 25.6585C25.6094 25.6056 26.5839 20.3421 24.8008 18.6003C24.6753 18.4777 24.6729 18.2764 24.7955 18.1509C24.9182 18.0253 25.1195 18.0231 25.2449 18.1456C27.2712 20.125 26.2675 25.5474 26.2238 25.7773C26.1948 25.9296 26.0615 26.0357 25.9119 26.0357Z" stroke="#3B3B3B" stroke-width="0.2" mask="url(#path-2-outside-1_835_16420)"/>
<path d="M41.7205 35.4038C41.6378 35.4038 41.5553 35.3717 41.493 35.3078C39.7512 33.5216 34.4948 34.4986 34.4418 34.5087C34.27 34.5417 34.1031 34.4284 34.0701 34.256C34.0373 34.0836 34.1505 33.9172 34.3229 33.8843C34.5525 33.8406 39.9704 32.8358 41.9481 34.8641C42.1333 35.054 41.9849 35.4038 41.7205 35.4038Z" stroke="#3B3B3B" stroke-width="0.2" mask="url(#path-2-outside-1_835_16420)"/>
<path d="M18.2397 22.5712C18.0526 22.5712 17.8961 22.3859 17.9261 22.2022L18.1859 20.6091L17.0879 19.4835C16.9105 19.3017 17.0164 18.9858 17.2674 18.9474L18.7719 18.7175L19.4477 17.2775C19.5599 17.0384 19.9109 17.0384 20.0231 17.2775L20.6988 18.7175L22.2034 18.9474C22.4544 18.9858 22.5604 19.3016 22.3829 19.4835L21.2849 20.6091L21.5448 22.2022C21.5867 22.4593 21.3053 22.6574 21.0773 22.5315L19.7354 21.7896L18.3936 22.5315C18.3455 22.558 18.2926 22.5712 18.2397 22.5712ZM19.7354 21.1087C19.7883 21.1087 19.8412 21.1219 19.8891 21.1484L20.812 21.6586L20.6317 20.5531C20.6155 20.4536 20.6474 20.3522 20.7179 20.28L21.496 19.4822L20.4352 19.3201C20.3305 19.3041 20.2405 19.2369 20.1955 19.141L19.7354 18.1606L19.2753 19.141C19.2303 19.237 19.1404 19.3041 19.0356 19.3201L17.9748 19.4823L18.753 20.2801C18.8234 20.3523 18.8554 20.4536 18.8391 20.5531L18.6588 21.6586L19.5817 21.1484C19.6294 21.1219 19.6824 21.1087 19.7354 21.1087Z" stroke="#3B3B3B" stroke-width="0.2" mask="url(#path-2-outside-1_835_16420)"/>
<path d="M38.9507 42.2938C38.7635 42.2938 38.607 42.1086 38.637 41.9249L38.8968 40.3318L37.7989 39.2061C37.6214 39.0244 37.7274 38.7085 37.9783 38.6701L39.4829 38.4401L40.1586 37.0002C40.2708 36.761 40.6218 36.761 40.734 37.0002L41.4098 38.4401L42.9144 38.6701C43.1654 38.7085 43.2713 39.0243 43.0939 39.2061L41.9959 40.3318L42.2557 41.9249C42.2976 42.1819 42.0162 42.38 41.7883 42.2542L40.4464 41.5123L39.1045 42.2542C39.0564 42.2807 39.0035 42.2938 38.9507 42.2938ZM40.4463 40.8313C40.4992 40.8313 40.5522 40.8446 40.6 40.871L41.523 41.3813L41.3427 40.2757C41.3264 40.1762 41.3584 40.0749 41.4288 40.0027L42.2069 39.2049L41.1461 39.0427C41.0413 39.0267 40.9514 38.9595 40.9064 38.8636L40.4463 37.8831L39.9862 38.8636C39.9412 38.9596 39.8512 39.0267 39.7465 39.0427L38.6857 39.2049L39.4639 40.0027C39.5343 40.0749 39.5662 40.1762 39.55 40.2757L39.3697 41.3812L40.2926 40.871C40.3403 40.8446 40.3933 40.8313 40.4463 40.8313Z" stroke="#3B3B3B" stroke-width="0.2" mask="url(#path-2-outside-1_835_16420)"/>
<path d="M39.5862 21.747C39.399 21.747 39.2425 21.5617 39.2725 21.378L39.5323 19.7849L38.4344 18.6593C38.2569 18.4775 38.3628 18.1616 38.6138 18.1232L40.1184 17.8932L40.7941 16.4533C40.9063 16.2141 41.2573 16.2141 41.3695 16.4533L42.0453 17.8932L43.5499 18.1232C43.8009 18.1616 43.9068 18.4774 43.7293 18.6593L42.6314 19.7849L42.8912 21.378C42.9331 21.635 42.6517 21.8332 42.4238 21.7073L41.0819 20.9654L39.74 21.7073C39.6919 21.7338 39.639 21.747 39.5862 21.747ZM41.0818 20.2845C41.1347 20.2845 41.1877 20.2977 41.2355 20.3241L42.1585 20.8344L41.9782 19.7288C41.9619 19.6294 41.9939 19.528 42.0643 19.4558L42.8424 18.658L41.7816 18.4958C41.6768 18.4798 41.5869 18.4126 41.5419 18.3167L41.0818 17.3363L40.6217 18.3167C40.5767 18.4127 40.4867 18.4798 40.382 18.4958L39.3212 18.658L40.0993 19.4558C40.1698 19.528 40.2017 19.6293 40.1855 19.7288L40.0052 20.8343L40.9281 20.3241C40.9758 20.2977 41.0288 20.2845 41.0818 20.2845Z" stroke="#3B3B3B" stroke-width="0.2" mask="url(#path-2-outside-1_835_16420)"/>
<path d="M43.5018 33.5212C42.6257 33.5212 41.9128 32.8078 41.9128 31.931C41.9128 31.0542 42.6257 30.3408 43.5018 30.3408C44.378 30.3408 45.0908 31.0542 45.0908 31.931C45.0908 32.8078 44.378 33.5212 43.5018 33.5212ZM43.5018 30.9765C42.9761 30.9765 42.5484 31.4047 42.5484 31.9311C42.5484 32.4575 42.9761 32.8857 43.5018 32.8857C44.0275 32.8857 44.4552 32.4575 44.4552 31.9311C44.4552 31.4047 44.0275 30.9765 43.5018 30.9765Z" stroke="#3B3B3B" stroke-width="0.2" mask="url(#path-2-outside-1_835_16420)"/>
<path d="M31.3968 21.0105C30.5207 21.0105 29.8079 20.2971 29.8079 19.4203C29.8079 18.5435 30.5207 17.8301 31.3968 17.8301C32.273 17.8301 32.9858 18.5435 32.9858 19.4203C32.9858 20.2971 32.273 21.0105 31.3968 21.0105ZM31.3968 18.4657C30.8711 18.4657 30.4435 18.8939 30.4435 19.4203C30.4435 19.9467 30.8711 20.3749 31.3968 20.3749C31.9225 20.3749 32.3502 19.9467 32.3502 19.4203C32.3502 18.8939 31.9225 18.4657 31.3968 18.4657Z" stroke="#3B3B3B" stroke-width="0.2" mask="url(#path-2-outside-1_835_16420)"/>
<path d="M27.3895 38.648C27.6176 38.648 27.8026 38.4628 27.8026 38.2344C27.8026 38.006 27.6176 37.8208 27.3895 37.8208C27.1613 37.8208 26.9763 38.006 26.9763 38.2344C26.9763 38.4628 27.1613 38.648 27.3895 38.648Z" stroke="#3B3B3B" stroke-width="0.2" mask="url(#path-2-outside-1_835_16420)"/>
</g>
<defs>
<clipPath id="clip0_835_16420">
<rect width="30" height="30" fill="white" transform="translate(15.0908 15)"/>
</clipPath>
</defs>
</svg>
